<?xml version="1.0" encoding="utf-8"?>
<!-- Generator: Adobe Illustrator 16.0.3, SVG Export Plug-In . SVG Version: 6.00 Build 0)  -->
<!DOCTYPE svg PUBLIC "-//W3C//DTD SVG 1.1//EN" "http://www.w3.org/Graphics/SVG/1.1/DTD/svg11.dtd" [
	<!ENTITY ns_flows "http://ns.adobe.com/Flows/1.0/">
	<!ENTITY ns_extend "http://ns.adobe.com/Extensibility/1.0/">
	<!ENTITY ns_ai "http://ns.adobe.com/AdobeIllustrator/10.0/">
	<!ENTITY ns_graphs "http://ns.adobe.com/Graphs/1.0/">
]>
<svg version="1.1" id="Layer_1" xmlns:x="&ns_extend;" xmlns:i="&ns_ai;" xmlns:graph="&ns_graphs;"
	 xmlns="http://www.w3.org/2000/svg" xmlns:xlink="http://www.w3.org/1999/xlink" xmlns:a="http://ns.adobe.com/AdobeSVGViewerExtensions/3.0/"
	 x="0px" y="0px" width="390px" height="710px" viewBox="0 0 390 710" enable-background="new 0 0 390 710" xml:space="preserve">
<rect x="-38.899" y="-18.391" fill="#EAE4E1" width="485.975" height="775.459"/>
<g>
	<path fill="#E5E1DF" d="M745.158,4.508c-1.551,2.121-1.006,5.041,1.22,6.521l1.509,1.006c2.223,1.479,5.283,0.959,6.834-1.164
		L801.412-53c1.552-2.122,1.006-5.042-1.217-6.522l-1.51-1.003c-2.224-1.481-5.283-0.96-6.835,1.161L745.158,4.508z"/>
	<path fill="#E5E1DF" d="M755.001,4.317c1.552,2.122,1.007,5.042-1.218,6.521l-1.51,1.005c-2.223,1.48-5.283,0.96-6.835-1.162
		l-46.69-63.871c-1.551-2.122-1.007-5.041,1.219-6.521l1.51-1.004c2.223-1.48,5.283-0.959,6.834,1.162L755.001,4.317z"/>
</g>
<g>
	<path fill="#E5E1DF" d="M800.265-87.596c1.552-2.121,1.005-5.042-1.22-6.522l-1.508-1.006c-2.223-1.479-5.284-0.959-6.836,1.164
		l-46.693,63.871c-1.552,2.122-1.006,5.042,1.219,6.523l1.51,1.004c2.223,1.48,5.282,0.96,6.835-1.163L800.265-87.596z"/>
	<path fill="#E5E1DF" d="M790.42-87.405c-1.551-2.122-1.005-5.042,1.22-6.522l1.509-1.004c2.225-1.48,5.285-0.96,6.836,1.162
		l46.69,63.871c1.553,2.122,1.007,5.042-1.218,6.522l-1.51,1.004c-2.223,1.48-5.284,0.959-6.834-1.162L790.42-87.405z"/>
</g>
<g>
	<path fill="#E5E1DF" d="M756.26,57.596c-1.551,2.122-1.006,5.041,1.22,6.521l1.509,1.005c2.223,1.48,5.283,0.96,6.834-1.163
		l46.692-63.871c1.551-2.122,1.007-5.041-1.218-6.521l-1.51-1.004c-2.223-1.479-5.283-0.959-6.836,1.163L756.26,57.596z"/>
	<path fill="#E5E1DF" d="M766.104,57.406c1.551,2.122,1.006,5.042-1.219,6.521l-1.51,1.005c-2.223,1.48-5.283,0.958-6.835-1.163
		L709.848-0.101c-1.551-2.122-1.004-5.043,1.221-6.523l1.508-1.003c2.225-1.48,5.283-0.96,6.835,1.162L766.104,57.406z"/>
</g>
<g>
	<path fill="#E5E1DF" d="M811.364-34.506c1.554-2.123,1.007-5.043-1.218-6.523l-1.509-1.005c-2.224-1.481-5.284-0.96-6.835,1.163
		L755.11,23c-1.552,2.122-1.007,5.042,1.22,6.522l1.508,1.004c2.223,1.48,5.284,0.959,6.836-1.163L811.364-34.506z"/>
	<path fill="#E5E1DF" d="M801.521-34.317c-1.551-2.122-1.005-5.041,1.221-6.521l1.508-1.005c2.223-1.479,5.283-0.959,6.834,1.163
		l46.692,63.871c1.552,2.122,1.006,5.042-1.218,6.522l-1.51,1.004c-2.223,1.48-5.283,0.96-6.835-1.162L801.521-34.317z"/>
</g>
<g>
	<path fill="#E5E1DF" d="M766.819,111.412c-1.551,2.122-1.007,5.043,1.218,6.523l1.51,1.005c2.223,1.479,5.284,0.96,6.834-1.163
		l46.691-63.871c1.553-2.122,1.007-5.042-1.218-6.522l-1.509-1.004c-2.225-1.48-5.285-0.959-6.836,1.163L766.819,111.412z"/>
	<path fill="#E5E1DF" d="M776.664,111.222c1.551,2.12,1.006,5.041-1.219,6.521l-1.51,1.005c-2.223,1.48-5.283,0.959-6.835-1.162
		l-46.69-63.871c-1.552-2.12-1.007-5.041,1.219-6.521l1.51-1.003c2.223-1.479,5.281-0.96,6.834,1.162L776.664,111.222z"/>
</g>
<g>
	<path fill="#E5E1DF" d="M821.926,19.31c1.551-2.122,1.005-5.043-1.219-6.521l-1.511-1.005c-2.224-1.48-5.284-0.959-6.835,1.163
		L765.67,76.817c-1.552,2.122-1.006,5.041,1.219,6.521l1.509,1.006c2.223,1.48,5.284,0.959,6.836-1.163L821.926,19.31z"/>
	<path fill="#E5E1DF" d="M812.082,19.5c-1.552-2.122-1.006-5.042,1.219-6.523l1.51-1.003c2.223-1.48,5.283-0.959,6.834,1.163
		l46.691,63.869c1.551,2.122,1.007,5.042-1.218,6.523l-1.511,1.003c-2.223,1.48-5.283,0.96-6.834-1.162L812.082,19.5z"/>
</g>
<g>
	<path fill="#E5E1DF" d="M777.922,164.501c-1.552,2.12-1.008,5.041,1.217,6.521l1.51,1.005c2.224,1.479,5.282,0.959,6.836-1.163
		l46.691-63.871c1.551-2.122,1.006-5.041-1.219-6.521l-1.51-1.004c-2.223-1.48-5.283-0.96-6.834,1.162L777.922,164.501z"/>
	<path fill="#E5E1DF" d="M787.764,164.312c1.553,2.12,1.008,5.04-1.219,6.521l-1.509,1.005c-2.225,1.479-5.284,0.959-6.836-1.164
		l-46.69-63.871c-1.552-2.122-1.006-5.041,1.217-6.521l1.51-1.006c2.225-1.479,5.284-0.959,6.836,1.162L787.764,164.312z"/>
</g>
<g>
	<path fill="#E5E1DF" d="M833.025,72.397c1.551-2.122,1.007-5.042-1.219-6.521l-1.508-1.006c-2.225-1.48-5.285-0.959-6.838,1.164
		l-46.689,63.871c-1.551,2.121-1.008,5.043,1.219,6.522l1.508,1.004c2.224,1.48,5.285,0.96,6.838-1.163L833.025,72.397z"/>
	<path fill="#E5E1DF" d="M823.183,72.587c-1.55-2.122-1.007-5.042,1.218-6.522l1.51-1.004c2.223-1.48,5.284-0.96,6.835,1.162
		l46.69,63.872c1.553,2.121,1.008,5.04-1.217,6.521l-1.509,1.004c-2.224,1.479-5.284,0.96-6.837-1.161L823.183,72.587z"/>
</g>
<g>
	<path fill="#E5E1DF" d="M861.857-110.252c-1.551,2.123-1.006,5.043,1.218,6.521l1.51,1.006c2.224,1.48,5.284,0.959,6.835-1.164
		l46.692-63.871c1.551-2.122,1.005-5.042-1.218-6.521l-1.51-1.004c-2.223-1.48-5.284-0.959-6.836,1.162L861.857-110.252z"/>
	<path fill="#E5E1DF" d="M871.7-110.442c1.551,2.122,1.006,5.042-1.218,6.523l-1.51,1.003c-2.223,1.481-5.283,0.96-6.836-1.161
		l-46.689-63.871c-1.553-2.122-1.007-5.042,1.218-6.522l1.509-1.004c2.224-1.479,5.283-0.96,6.834,1.162L871.7-110.442z"/>
</g>
<g>
	<path fill="#E5E1DF" d="M872.958-57.162c-1.552,2.122-1.006,5.041,1.219,6.521l1.511,1.006c2.223,1.48,5.283,0.959,6.834-1.164
		l46.691-63.871c1.553-2.12,1.008-5.041-1.217-6.521l-1.509-1.005c-2.225-1.48-5.284-0.96-6.836,1.164L872.958-57.162z"/>
	<path fill="#E5E1DF" d="M882.801-57.353c1.553,2.122,1.007,5.042-1.219,6.522l-1.51,1.004c-2.223,1.48-5.283,0.959-6.834-1.162
		l-46.691-63.871c-1.551-2.121-1.005-5.042,1.219-6.522l1.51-1.003c2.223-1.481,5.283-0.96,6.834,1.161L882.801-57.353z"/>
</g>
<g>
	<path fill="#E5E1DF" d="M928.064-149.267c1.551-2.122,1.007-5.042-1.221-6.521l-1.508-1.005c-2.223-1.48-5.283-0.96-6.835,1.163
		l-46.692,63.871c-1.551,2.122-1.006,5.041,1.22,6.521l1.509,1.004c2.223,1.48,5.283,0.959,6.836-1.162L928.064-149.267z"/>
	<path fill="#E5E1DF" d="M918.219-149.077c-1.55-2.121-1.006-5.041,1.221-6.521l1.508-1.005c2.223-1.48,5.283-0.959,6.835,1.161
		l46.69,63.872c1.553,2.121,1.008,5.041-1.218,6.521l-1.508,1.006c-2.224,1.479-5.284,0.959-6.837-1.162L918.219-149.077z"/>
</g>
<g>
	<path fill="#E5E1DF" d="M883.519-3.346c-1.552,2.121-1.007,5.041,1.219,6.521l1.509,1.006c2.225,1.48,5.283,0.959,6.836-1.162
		l46.691-63.871c1.551-2.122,1.006-5.042-1.219-6.521l-1.51-1.005c-2.223-1.48-5.283-0.96-6.834,1.164L883.519-3.346z"/>
	<path fill="#E5E1DF" d="M893.361-3.537c1.551,2.122,1.007,5.041-1.219,6.521l-1.51,1.005c-2.224,1.48-5.283,0.96-6.834-1.163
		l-46.693-63.869c-1.55-2.122-1.004-5.043,1.219-6.523l1.51-1.003c2.224-1.479,5.283-0.96,6.835,1.161L893.361-3.537z"/>
</g>
<g>
	<path fill="#E5E1DF" d="M938.623-95.45c1.551-2.121,1.005-5.042-1.219-6.522l-1.51-1.006c-2.225-1.479-5.283-0.958-6.836,1.164
		l-46.69,63.871c-1.55,2.122-1.007,5.042,1.218,6.521l1.509,1.005c2.224,1.48,5.284,0.96,6.836-1.163L938.623-95.45z"/>
	<path fill="#E5E1DF" d="M928.779-95.259c-1.551-2.122-1.006-5.042,1.219-6.521l1.51-1.005c2.223-1.481,5.284-0.96,6.834,1.162
		l46.693,63.871c1.551,2.121,1.005,5.042-1.22,6.522l-1.508,1.004c-2.224,1.479-5.284,0.959-6.837-1.162L928.779-95.259z"/>
</g>
<g>
	<path fill="#E5E1DF" d="M894.62,49.742c-1.552,2.123-1.006,5.042,1.22,6.522l1.51,1.005c2.223,1.48,5.283,0.96,6.834-1.163
		l46.69-63.871c1.554-2.122,1.007-5.042-1.218-6.522l-1.509-1.004c-2.224-1.48-5.284-0.959-6.835,1.164L894.62,49.742z"/>
	<path fill="#E5E1DF" d="M904.463,49.552c1.551,2.122,1.007,5.041-1.219,6.521l-1.509,1.005c-2.224,1.48-5.284,0.959-6.837-1.163
		L848.209-7.955c-1.554-2.122-1.006-5.042,1.217-6.522l1.51-1.004c2.224-1.479,5.284-0.959,6.835,1.162L904.463,49.552z"/>
</g>
<g>
	<path fill="#E5E1DF" d="M949.725-42.361c1.551-2.122,1.006-5.041-1.22-6.521l-1.508-1.005c-2.224-1.48-5.284-0.96-6.835,1.163
		l-46.691,63.869c-1.552,2.122-1.006,5.041,1.217,6.521l1.51,1.005c2.224,1.48,5.284,0.96,6.836-1.163L949.725-42.361z"/>
	<path fill="#E5E1DF" d="M939.883-42.171c-1.553-2.12-1.006-5.042,1.217-6.521l1.51-1.004c2.224-1.48,5.283-0.959,6.835,1.162
		l46.692,63.871c1.551,2.122,1.007,5.043-1.219,6.523l-1.509,1.004c-2.224,1.48-5.284,0.96-6.837-1.162L939.883-42.171z"/>
</g>
<g>
	<path fill="#E5E1DF" d="M789.738,221.505c-1.551,2.123-1.006,5.042,1.217,6.521l1.51,1.006c2.224,1.48,5.284,0.96,6.836-1.163
		l46.69-63.87c1.552-2.121,1.007-5.042-1.218-6.522l-1.51-1.004c-2.223-1.48-5.284-0.96-6.836,1.163L789.738,221.505z"/>
	<path fill="#E5E1DF" d="M799.582,221.317c1.551,2.12,1.008,5.042-1.218,6.521l-1.509,1.004c-2.225,1.48-5.285,0.96-6.836-1.161
		l-46.691-63.872c-1.552-2.121-1.006-5.04,1.219-6.521l1.51-1.004c2.224-1.48,5.282-0.961,6.835,1.162L799.582,221.317z"/>
</g>
<g>
	<path fill="#E5E1DF" d="M844.844,129.402c1.551-2.121,1.006-5.04-1.219-6.521l-1.51-1.005c-2.224-1.48-5.284-0.96-6.836,1.163
		l-46.691,63.871c-1.551,2.121-1.006,5.042,1.22,6.521l1.508,1.004c2.224,1.479,5.284,0.96,6.837-1.162L844.844,129.402z"/>
	<path fill="#E5E1DF" d="M835.002,129.592c-1.554-2.122-1.008-5.042,1.217-6.522l1.51-1.006c2.223-1.48,5.284-0.958,6.835,1.162
		l46.69,63.871c1.551,2.12,1.008,5.043-1.217,6.522l-1.509,1.004c-2.226,1.479-5.284,0.96-6.837-1.161L835.002,129.592z"/>
</g>
<g>
	<path fill="#E5E1DF" d="M800.84,274.594c-1.551,2.121-1.008,5.042,1.217,6.521l1.511,1.007c2.224,1.479,5.284,0.959,6.835-1.164
		l46.691-63.871c1.551-2.121,1.006-5.04-1.217-6.522l-1.511-1.004c-2.224-1.48-5.284-0.959-6.835,1.163L800.84,274.594z"/>
	<path fill="#E5E1DF" d="M810.682,274.406c1.553,2.12,1.008,5.04-1.217,6.521l-1.51,1.005c-2.223,1.48-5.283,0.959-6.834-1.163
		l-46.691-63.87c-1.552-2.122-1.008-5.043,1.217-6.522l1.51-1.004c2.224-1.48,5.285-0.96,6.836,1.161L810.682,274.406z"/>
</g>
<g>
	<path fill="#E5E1DF" d="M855.944,182.491c1.55-2.121,1.007-5.042-1.22-6.521l-1.508-1.006c-2.223-1.479-5.284-0.959-6.837,1.163
		L799.689,240c-1.551,2.121-1.005,5.042,1.219,6.521l1.509,1.004c2.224,1.48,5.284,0.96,6.837-1.162L855.944,182.491z"/>
	<path fill="#E5E1DF" d="M846.102,182.682c-1.551-2.122-1.007-5.042,1.218-6.523l1.509-1.006c2.224-1.479,5.285-0.959,6.838,1.162
		l46.689,63.871c1.551,2.12,1.006,5.041-1.219,6.522l-1.508,1.004c-2.224,1.479-5.285,0.96-6.838-1.161L846.102,182.682z"/>
</g>
<g>
	<path fill="#E5E1DF" d="M811.4,328.411c-1.551,2.121-1.007,5.041,1.219,6.521l1.508,1.004c2.225,1.48,5.284,0.961,6.836-1.16
		l46.69-63.871c1.552-2.122,1.007-5.041-1.218-6.521l-1.51-1.004c-2.223-1.48-5.284-0.96-6.834,1.163L811.4,328.411z"/>
	<path fill="#E5E1DF" d="M821.242,328.222c1.551,2.121,1.006,5.041-1.217,6.52l-1.51,1.006c-2.224,1.48-5.285,0.959-6.835-1.16
		l-46.692-63.872c-1.551-2.12-1.006-5.042,1.218-6.522l1.509-1.004c2.225-1.48,5.285-0.96,6.836,1.161L821.242,328.222z"/>
</g>
<g>
	<path fill="#E5E1DF" d="M866.504,236.307c1.552-2.122,1.006-5.042-1.219-6.521l-1.508-1.006c-2.224-1.479-5.284-0.96-6.837,1.163
		l-46.69,63.871c-1.551,2.122-1.006,5.042,1.22,6.522l1.508,1.005c2.224,1.481,5.284,0.959,6.837-1.163L866.504,236.307z"/>
	<path fill="#E5E1DF" d="M856.66,236.498c-1.552-2.121-1.007-5.04,1.219-6.521l1.51-1.003c2.223-1.481,5.283-0.96,6.834,1.161
		l46.693,63.871c1.55,2.122,1.006,5.042-1.221,6.522l-1.508,1.005c-2.224,1.48-5.283,0.958-6.836-1.161L856.66,236.498z"/>
</g>
<g>
	<path fill="#E5E1DF" d="M822.5,381.501c-1.551,2.119-1.006,5.041,1.22,6.521l1.509,1.006c2.225,1.479,5.283,0.957,6.836-1.162
		l46.689-63.871c1.553-2.121,1.008-5.043-1.217-6.523l-1.51-1.004c-2.224-1.479-5.282-0.959-6.835,1.162L822.5,381.501z"/>
	<path fill="#E5E1DF" d="M832.343,381.31c1.553,2.119,1.007,5.043-1.218,6.523l-1.51,1.004c-2.223,1.48-5.283,0.959-6.835-1.162
		l-46.69-63.871c-1.553-2.121-1.007-5.041,1.219-6.521l1.51-1.006c2.223-1.479,5.283-0.959,6.834,1.162L832.343,381.31z"/>
</g>
<g>
	<path fill="#E5E1DF" d="M877.605,289.396c1.551-2.123,1.006-5.042-1.219-6.521l-1.51-1.007c-2.223-1.477-5.283-0.959-6.834,1.163
		l-46.692,63.873c-1.553,2.121-1.005,5.041,1.218,6.521l1.51,1.004c2.223,1.48,5.283,0.959,6.835-1.162L877.605,289.396z"/>
	<path fill="#E5E1DF" d="M867.764,289.586c-1.553-2.121-1.007-5.042,1.218-6.522l1.509-1.003c2.223-1.48,5.283-0.961,6.836,1.16
		l46.69,63.872c1.552,2.119,1.007,5.041-1.22,6.521l-1.508,1.006c-2.223,1.48-5.284,0.959-6.834-1.16L867.764,289.586z"/>
</g>
<g>
	<path fill="#E5E1DF" d="M906.438,106.748c-1.552,2.121-1.008,5.041,1.217,6.521l1.51,1.005c2.224,1.479,5.282,0.959,6.836-1.163
		l46.691-63.872c1.551-2.121,1.007-5.042-1.218-6.521l-1.511-1.006c-2.223-1.48-5.283-0.959-6.834,1.164L906.438,106.748z"/>
	<path fill="#E5E1DF" d="M916.279,106.556c1.551,2.122,1.006,5.042-1.219,6.523l-1.509,1.004c-2.225,1.48-5.284,0.96-6.836-1.162
		l-46.69-63.869c-1.552-2.122-1.006-5.042,1.217-6.522l1.51-1.004c2.225-1.48,5.284-0.959,6.836,1.162L916.279,106.556z"/>
</g>
<g>
	<path fill="#E5E1DF" d="M961.541,14.644c1.551-2.122,1.008-5.042-1.219-6.521l-1.508-1.005c-2.224-1.48-5.285-0.96-6.836,1.162
		l-46.691,63.87c-1.551,2.12-1.008,5.042,1.219,6.521l1.508,1.004c2.224,1.48,5.285,0.959,6.838-1.164L961.541,14.644z"/>
	<path fill="#E5E1DF" d="M951.699,14.833c-1.551-2.122-1.006-5.041,1.217-6.521l1.51-1.006c2.224-1.48,5.284-0.959,6.836,1.164
		l46.691,63.871c1.551,2.121,1.006,5.041-1.219,6.522l-1.509,1.004c-2.223,1.479-5.284,0.96-6.835-1.162L951.699,14.833z"/>
</g>
<g>
	<path fill="#E5E1DF" d="M917.537,159.835c-1.551,2.121-1.008,5.042,1.219,6.521l1.509,1.006c2.225,1.48,5.284,0.96,6.836-1.163
		l46.691-63.871c1.552-2.121,1.006-5.042-1.218-6.521l-1.51-1.004c-2.224-1.48-5.284-0.959-6.836,1.164L917.537,159.835z"/>
	<path fill="#E5E1DF" d="M927.381,159.645c1.551,2.122,1.007,5.043-1.217,6.521l-1.51,1.004c-2.225,1.48-5.285,0.96-6.836-1.162
		l-46.691-63.87c-1.551-2.122-1.006-5.042,1.218-6.522l1.51-1.004c2.223-1.48,5.284-0.959,6.835,1.162L927.381,159.645z"/>
</g>
<g>
	<path fill="#E5E1DF" d="M972.643,67.732c1.552-2.122,1.006-5.042-1.219-6.522l-1.509-1.004c-2.223-1.48-5.284-0.959-6.836,1.162
		l-46.69,63.872c-1.553,2.121-1.006,5.042,1.217,6.521l1.51,1.005c2.225,1.48,5.285,0.96,6.836-1.161L972.643,67.732z"/>
	<path fill="#E5E1DF" d="M962.801,67.922c-1.553-2.122-1.008-5.041,1.217-6.521l1.511-1.006c2.223-1.48,5.284-0.959,6.835,1.162
		l46.691,63.871c1.552,2.122,1.007,5.042-1.22,6.522l-1.508,1.004c-2.223,1.48-5.284,0.96-6.836-1.162L962.801,67.922z"/>
</g>
<g>
	<path fill="#E5E1DF" d="M928.098,213.653c-1.55,2.121-1.007,5.041,1.22,6.521l1.508,1.006c2.225,1.479,5.284,0.96,6.837-1.163
		l46.689-63.871c1.552-2.121,1.006-5.04-1.217-6.521l-1.51-1.005c-2.224-1.48-5.284-0.96-6.835,1.163L928.098,213.653z"/>
	<path fill="#E5E1DF" d="M937.939,213.462c1.552,2.122,1.006,5.042-1.217,6.521l-1.51,1.004c-2.224,1.48-5.283,0.96-6.835-1.162
		l-46.692-63.87c-1.551-2.122-1.007-5.043,1.22-6.523l1.509-1.004c2.223-1.48,5.283-0.961,6.834,1.16L937.939,213.462z"/>
</g>
<g>
	<path fill="#E5E1DF" d="M983.202,121.548c1.551-2.122,1.007-5.041-1.218-6.521l-1.51-1.005c-2.223-1.48-5.284-0.96-6.835,1.163
		l-46.69,63.871c-1.551,2.122-1.007,5.042,1.218,6.521l1.509,1.004c2.225,1.479,5.285,0.961,6.836-1.163L983.202,121.548z"/>
	<path fill="#E5E1DF" d="M973.359,121.739c-1.551-2.123-1.005-5.042,1.22-6.521l1.508-1.004c2.224-1.48,5.284-0.959,6.837,1.162
		l46.69,63.872c1.553,2.121,1.007,5.042-1.218,6.522l-1.51,1.004c-2.224,1.479-5.284,0.96-6.835-1.162L973.359,121.739z"/>
</g>
<g>
	<path fill="#E5E1DF" d="M939.199,266.74c-1.551,2.122-1.006,5.042,1.218,6.521l1.51,1.005c2.224,1.479,5.284,0.961,6.835-1.162
		l46.69-63.871c1.551-2.122,1.008-5.042-1.218-6.521l-1.51-1.005c-2.223-1.479-5.283-0.959-6.835,1.163L939.199,266.74z"/>
	<path fill="#E5E1DF" d="M949.043,266.55c1.551,2.121,1.006,5.04-1.219,6.521l-1.51,1.004c-2.223,1.48-5.284,0.96-6.836-1.161
		l-46.689-63.871c-1.551-2.121-1.007-5.042,1.218-6.522l1.509-1.002c2.223-1.48,5.283-0.962,6.834,1.16L949.043,266.55z"/>
</g>
<g>
	<path fill="#E5E1DF" d="M994.304,174.638c1.551-2.122,1.006-5.043-1.219-6.521l-1.508-1.005c-2.225-1.481-5.284-0.961-6.837,1.163
		l-46.691,63.87c-1.551,2.122-1.006,5.041,1.219,6.521l1.51,1.005c2.223,1.479,5.283,0.959,6.836-1.163L994.304,174.638z"/>
	<path fill="#E5E1DF" d="M984.461,174.828c-1.551-2.121-1.007-5.042,1.219-6.521l1.508-1.006c2.225-1.479,5.284-0.958,6.836,1.162
		l46.692,63.87c1.551,2.12,1.005,5.042-1.218,6.522l-1.51,1.004c-2.224,1.48-5.284,0.96-6.835-1.161L984.461,174.828z"/>
</g>
<g>
	<path fill="#E5E1DF" d="M1023.126-7.679c-1.552,2.121-1.006,5.041,1.219,6.521l1.51,1.006c2.224,1.48,5.284,0.959,6.835-1.164
		l46.691-63.869c1.551-2.122,1.007-5.042-1.216-6.523l-1.509-1.005c-2.227-1.48-5.287-0.96-6.837,1.163L1023.126-7.679z"/>
	<path fill="#E5E1DF" d="M1032.968-7.87c1.553,2.122,1.008,5.042-1.217,6.521l-1.511,1.004c-2.223,1.48-5.284,0.959-6.834-1.162
		l-46.692-63.871c-1.552-2.122-1.007-5.043,1.218-6.523l1.509-1.004c2.224-1.48,5.285-0.96,6.836,1.162L1032.968-7.87z"/>
</g>
<g>
	<path fill="#E5E1DF" d="M1078.23-99.784c1.553-2.122,1.007-5.042-1.218-6.522l-1.509-1.004c-2.223-1.479-5.285-0.959-6.836,1.164
		l-46.691,63.871c-1.551,2.122-1.006,5.042,1.22,6.521l1.508,1.004c2.224,1.48,5.284,0.959,6.836-1.162L1078.23-99.784z"/>
	<path fill="#E5E1DF" d="M1068.386-99.593c-1.551-2.122-1.005-5.042,1.22-6.523l1.51-1.004c2.224-1.48,5.281-0.96,6.834,1.162
		l46.691,63.872c1.552,2.121,1.008,5.041-1.218,6.521l-1.509,1.006c-2.224,1.479-5.284,0.959-6.836-1.162L1068.386-99.593z"/>
</g>
<g>
	<path fill="#E5E1DF" d="M1034.226,45.408c-1.551,2.123-1.007,5.041,1.22,6.521l1.508,1.005c2.224,1.479,5.284,0.96,6.835-1.163
		L1090.48-12.1c1.551-2.12,1.007-5.041-1.22-6.521l-1.507-1.006c-2.227-1.479-5.284-0.959-6.836,1.164L1034.226,45.408z"/>
	<path fill="#E5E1DF" d="M1044.07,45.218c1.551,2.122,1.006,5.042-1.22,6.521l-1.51,1.004c-2.224,1.48-5.284,0.96-6.835-1.162
		L987.813-12.29c-1.55-2.122-1.005-5.042,1.22-6.522l1.51-1.003c2.223-1.48,5.282-0.961,6.835,1.161L1044.07,45.218z"/>
</g>
<g>
	<path fill="#E5E1DF" d="M1089.332-46.694c1.552-2.122,1.008-5.042-1.219-6.523l-1.509-1.003c-2.226-1.481-5.287-0.959-6.836,1.163
		l-46.691,63.871c-1.551,2.122-1.005,5.042,1.219,6.521l1.509,1.004c2.225,1.48,5.284,0.96,6.837-1.163L1089.332-46.694z"/>
	<path fill="#E5E1DF" d="M1079.488-46.504c-1.551-2.122-1.007-5.041,1.219-6.521l1.508-1.006c2.225-1.479,5.285-0.958,6.835,1.164
		l46.691,63.87c1.552,2.12,1.008,5.041-1.218,6.521l-1.508,1.006c-2.225,1.479-5.285,0.959-6.836-1.162L1079.488-46.504z"/>
</g>
<g>
	<path fill="#E5E1DF" d="M1044.786,99.224c-1.551,2.123-1.007,5.043,1.219,6.521l1.51,1.004c2.224,1.48,5.281,0.961,6.833-1.162
		l46.692-63.871c1.552-2.122,1.008-5.042-1.217-6.522l-1.511-1.004c-2.223-1.48-5.283-0.959-6.834,1.162L1044.786,99.224z"/>
	<path fill="#E5E1DF" d="M1054.629,99.034c1.554,2.122,1.006,5.042-1.217,6.523l-1.509,1.005c-2.223,1.481-5.284,0.96-6.837-1.163
		l-46.69-63.873c-1.553-2.122-1.007-5.041,1.218-6.521l1.51-1.004c2.223-1.479,5.282-0.96,6.835,1.162L1054.629,99.034z"/>
</g>
<g>
	<path fill="#E5E1DF" d="M1099.891,7.122c1.553-2.122,1.008-5.042-1.218-6.521l-1.509-1.005c-2.223-1.48-5.284-0.96-6.836,1.162
		l-46.689,63.871c-1.554,2.12-1.006,5.041,1.217,6.522l1.508,1.004c2.223,1.48,5.283,0.96,6.836-1.163L1099.891,7.122z"/>
	<path fill="#E5E1DF" d="M1090.049,7.31c-1.553-2.12-1.008-5.041,1.218-6.522l1.508-1.004c2.224-1.48,5.283-0.959,6.837,1.162
		l46.689,63.87c1.554,2.122,1.008,5.042-1.216,6.523l-1.51,1.003c-2.223,1.481-5.284,0.96-6.836-1.161L1090.049,7.31z"/>
</g>
<g>
	<path fill="#E5E1DF" d="M1055.889,152.313c-1.553,2.122-1.008,5.041,1.218,6.521l1.508,1.005c2.225,1.48,5.284,0.959,6.837-1.163
		l46.692-63.87c1.549-2.122,1.005-5.043-1.218-6.523l-1.511-1.004c-2.225-1.48-5.285-0.96-6.835,1.161L1055.889,152.313z"/>
	<path fill="#E5E1DF" d="M1065.73,152.124c1.553,2.121,1.008,5.042-1.218,6.521l-1.509,1.005c-2.223,1.479-5.284,0.959-6.836-1.163
		l-46.692-63.872c-1.55-2.122-1.005-5.041,1.219-6.521l1.509-1.003c2.225-1.481,5.284-0.96,6.836,1.161L1065.73,152.124z"/>
</g>
<g>
	<path fill="#E5E1DF" d="M1110.991,60.209c1.553-2.122,1.008-5.041-1.218-6.52l-1.509-1.005c-2.223-1.48-5.284-0.96-6.836,1.162
		l-46.692,63.871c-1.552,2.122-1.005,5.043,1.222,6.523l1.506,1.004c2.226,1.48,5.286,0.959,6.836-1.164L1110.991,60.209z"/>
	<path fill="#E5E1DF" d="M1101.149,60.399c-1.552-2.122-1.007-5.042,1.218-6.522l1.511-1.004c2.223-1.48,5.282-0.959,6.834,1.162
		l46.692,63.872c1.552,2.122,1.008,5.041-1.218,6.521l-1.508,1.004c-2.225,1.479-5.284,0.959-6.838-1.162L1101.149,60.399z"/>
</g>
<g>
	<path fill="#E5E1DF" d="M1139.824-122.439c-1.552,2.122-1.008,5.042,1.219,6.521l1.509,1.006c2.223,1.479,5.283,0.958,6.836-1.163
		l46.691-63.871c1.551-2.123,1.005-5.043-1.218-6.521l-1.509-1.004c-2.226-1.48-5.284-0.959-6.836,1.162L1139.824-122.439z"/>
	<path fill="#E5E1DF" d="M1149.667-122.629c1.552,2.122,1.008,5.042-1.218,6.522l-1.508,1.006c-2.225,1.48-5.285,0.959-6.838-1.162
		l-46.691-63.871c-1.55-2.12-1.005-5.041,1.218-6.522l1.511-1.004c2.223-1.479,5.283-0.959,6.834,1.162L1149.667-122.629z"/>
</g>
<g>
	<path fill="#E5E1DF" d="M1150.925-69.351c-1.552,2.122-1.005,5.042,1.219,6.521l1.507,1.006c2.225,1.479,5.284,0.959,6.838-1.164
		l46.691-63.87c1.551-2.122,1.007-5.042-1.218-6.521l-1.509-1.004c-2.225-1.48-5.285-0.961-6.836,1.162L1150.925-69.351z"/>
	<path fill="#E5E1DF" d="M1160.768-69.541c1.552,2.121,1.008,5.042-1.218,6.522l-1.51,1.004c-2.223,1.48-5.283,0.959-6.836-1.162
		l-46.691-63.871c-1.551-2.122-1.005-5.042,1.218-6.523l1.509-1.003c2.227-1.479,5.284-0.959,6.836,1.161L1160.768-69.541z"/>
</g>
<g>
	<path fill="#E5E1DF" d="M1206.029-161.455c1.551-2.122,1.007-5.041-1.219-6.521l-1.507-1.005c-2.226-1.48-5.286-0.96-6.837,1.163
		l-46.69,63.87c-1.552,2.121-1.008,5.042,1.217,6.522l1.51,1.006c2.224,1.48,5.284,0.959,6.836-1.164L1206.029-161.455z"/>
	<path fill="#E5E1DF" d="M1196.186-161.265c-1.552-2.121-1.006-5.042,1.219-6.521l1.509-1.004c2.223-1.48,5.284-0.959,6.834,1.161
		l46.693,63.872c1.553,2.122,1.008,5.042-1.218,6.522l-1.509,1.004c-2.223,1.48-5.284,0.961-6.836-1.162L1196.186-161.265z"/>
</g>
<g>
	<path fill="#E5E1DF" d="M1161.484-15.536c-1.552,2.123-1.008,5.042,1.218,6.522l1.509,1.006c2.227,1.479,5.284,0.959,6.837-1.164
		l46.691-63.871c1.552-2.121,1.007-5.042-1.218-6.521l-1.509-1.006c-2.224-1.48-5.284-0.959-6.836,1.165L1161.484-15.536z"/>
	<path fill="#E5E1DF" d="M1171.327-15.725c1.552,2.122,1.008,5.041-1.216,6.521l-1.512,1.006c-2.223,1.48-5.284,0.959-6.834-1.162
		l-46.69-63.871c-1.553-2.122-1.008-5.042,1.216-6.522l1.511-1.006c2.223-1.479,5.284-0.958,6.835,1.161L1171.327-15.725z"/>
</g>
<g>
	<path fill="#E5E1DF" d="M1216.591-107.637c1.55-2.122,1.005-5.042-1.22-6.523l-1.511-1.003c-2.223-1.479-5.281-0.96-6.834,1.163
		l-46.69,63.871c-1.553,2.122-1.008,5.041,1.218,6.521l1.509,1.006c2.223,1.48,5.284,0.959,6.836-1.164L1216.591-107.637z"/>
	<path fill="#E5E1DF" d="M1206.748-107.447c-1.554-2.121-1.008-5.042,1.218-6.521l1.509-1.006c2.224-1.48,5.284-0.959,6.836,1.164
		l46.691,63.869c1.553,2.121,1.006,5.041-1.22,6.522l-1.508,1.004c-2.225,1.479-5.284,0.959-6.837-1.161L1206.748-107.447z"/>
</g>
<g>
	<path fill="#E5E1DF" d="M1172.588,37.553c-1.554,2.123-1.008,5.042,1.217,6.522l1.51,1.005c2.224,1.479,5.283,0.959,6.835-1.163
		l46.69-63.872c1.552-2.121,1.008-5.041-1.218-6.521l-1.508-1.006c-2.225-1.48-5.285-0.959-6.837,1.164L1172.588,37.553z"/>
	<path fill="#E5E1DF" d="M1182.428,37.364c1.553,2.123,1.008,5.042-1.216,6.52l-1.51,1.006c-2.224,1.48-5.284,0.959-6.836-1.162
		l-46.69-63.87c-1.553-2.122-1.008-5.042,1.215-6.522l1.511-1.006c2.224-1.479,5.285-0.959,6.837,1.162L1182.428,37.364z"/>
</g>
<g>
	<path fill="#E5E1DF" d="M1227.691-54.55c1.552-2.122,1.006-5.042-1.219-6.522l-1.507-1.006c-2.224-1.479-5.284-0.959-6.836,1.165
		l-46.693,63.871c-1.553,2.122-1.005,5.041,1.218,6.521l1.509,1.005c2.223,1.481,5.284,0.96,6.836-1.163L1227.691-54.55z"/>
	<path fill="#E5E1DF" d="M1217.849-54.36c-1.552-2.122-1.006-5.042,1.218-6.521l1.509-1.006c2.224-1.48,5.284-0.959,6.837,1.164
		l46.69,63.869c1.552,2.124,1.006,5.042-1.217,6.523l-1.509,1.004c-2.224,1.479-5.284,0.959-6.838-1.162L1217.849-54.36z"/>
</g>
<g>
	<path fill="#E5E1DF" d="M1067.705,209.318c-1.551,2.122-1.007,5.043,1.218,6.521l1.508,1.006c2.226,1.479,5.286,0.959,6.836-1.164
		l46.693-63.869c1.55-2.121,1.006-5.043-1.219-6.522l-1.51-1.004c-2.224-1.48-5.284-0.96-6.835,1.164L1067.705,209.318z"/>
	<path fill="#E5E1DF" d="M1077.549,209.128c1.552,2.121,1.005,5.042-1.219,6.521l-1.507,1.004c-2.228,1.48-5.286,0.96-6.838-1.161
		l-46.691-63.872c-1.552-2.121-1.007-5.04,1.219-6.521l1.509-1.004c2.224-1.48,5.284-0.96,6.835,1.162L1077.549,209.128z"/>
</g>
<g>
	<path fill="#E5E1DF" d="M1122.81,117.214c1.552-2.12,1.008-5.041-1.219-6.521l-1.509-1.005c-2.223-1.479-5.284-0.959-6.836,1.163
		l-46.691,63.871c-1.551,2.121-1.005,5.041,1.218,6.521l1.511,1.006c2.223,1.48,5.283,0.96,6.834-1.162L1122.81,117.214z"/>
	<path fill="#E5E1DF" d="M1112.967,117.404c-1.552-2.122-1.005-5.041,1.218-6.522l1.508-1.004c2.225-1.48,5.284-0.959,6.838,1.162
		l46.691,63.871c1.551,2.121,1.005,5.042-1.218,6.522l-1.509,1.005c-2.225,1.479-5.286,0.96-6.836-1.161L1112.967,117.404z"/>
</g>
<g>
	<path fill="#E5E1DF" d="M1078.806,262.406c-1.551,2.121-1.007,5.042,1.22,6.521l1.507,1.005c2.225,1.48,5.284,0.96,6.838-1.163
		l46.691-63.869c1.551-2.122,1.005-5.042-1.221-6.522l-1.509-1.006c-2.223-1.479-5.284-0.958-6.833,1.164L1078.806,262.406z"/>
	<path fill="#E5E1DF" d="M1088.649,262.215c1.551,2.122,1.005,5.042-1.219,6.521l-1.509,1.004c-2.223,1.48-5.283,0.96-6.836-1.162
		l-46.689-63.87c-1.552-2.122-1.007-5.042,1.217-6.523l1.51-1.003c2.224-1.48,5.284-0.961,6.836,1.161L1088.649,262.215z"/>
</g>
<g>
	<path fill="#E5E1DF" d="M1133.91,170.303c1.552-2.121,1.008-5.043-1.219-6.521l-1.509-1.005c-2.223-1.479-5.283-0.96-6.836,1.163
		l-46.691,63.871c-1.551,2.121-1.005,5.042,1.22,6.521l1.507,1.004c2.226,1.48,5.284,0.961,6.836-1.161L1133.91,170.303z"/>
	<path fill="#E5E1DF" d="M1124.067,170.494c-1.552-2.122-1.006-5.042,1.218-6.523l1.508-1.003c2.225-1.48,5.285-0.961,6.836,1.161
		L1180.322,228c1.553,2.121,1.005,5.042-1.218,6.522l-1.509,1.004c-2.227,1.479-5.285,0.96-6.836-1.162L1124.067,170.494z"/>
</g>
<g>
	<path fill="#E5E1DF" d="M1089.366,316.222c-1.552,2.121-1.005,5.043,1.218,6.523l1.508,1.004c2.225,1.479,5.284,0.959,6.837-1.162
		l46.692-63.872c1.552-2.12,1.005-5.04-1.218-6.521l-1.509-1.004c-2.224-1.48-5.286-0.96-6.837,1.163L1089.366,316.222z"/>
	<path fill="#E5E1DF" d="M1099.208,316.03c1.553,2.123,1.008,5.043-1.216,6.523l-1.511,1.004c-2.223,1.482-5.284,0.959-6.836-1.16
		l-46.69-63.871c-1.552-2.121-1.007-5.042,1.218-6.522l1.51-1.002c2.226-1.48,5.285-0.962,6.837,1.16L1099.208,316.03z"/>
</g>
<g>
	<path fill="#E5E1DF" d="M1144.469,224.12c1.554-2.122,1.008-5.043-1.216-6.521l-1.511-1.005c-2.223-1.48-5.281-0.961-6.835,1.163
		l-46.69,63.869c-1.552,2.123-1.008,5.043,1.217,6.522l1.511,1.005c2.223,1.48,5.284,0.959,6.836-1.163L1144.469,224.12z"/>
	<path fill="#E5E1DF" d="M1134.63,224.309c-1.554-2.121-1.008-5.04,1.215-6.521l1.511-1.006c2.223-1.479,5.284-0.958,6.836,1.162
		l46.69,63.871c1.552,2.119,1.008,5.042-1.218,6.522l-1.508,1.003c-2.225,1.48-5.284,0.961-6.838-1.16L1134.63,224.309z"/>
</g>
<g>
	<path fill="#E5E1DF" d="M1100.467,369.312c-1.551,2.121-1.005,5.041,1.22,6.521l1.509,1.006c2.225,1.48,5.284,0.959,6.834-1.164
		l46.692-63.869c1.552-2.121,1.008-5.041-1.218-6.521l-1.508-1.004c-2.225-1.482-5.285-0.963-6.838,1.16L1100.467,369.312z"/>
	<path fill="#E5E1DF" d="M1110.31,369.12c1.552,2.123,1.008,5.043-1.219,6.523l-1.509,1.004c-2.223,1.48-5.284,0.959-6.834-1.162
		l-46.691-63.869c-1.552-2.121-1.008-5.041,1.216-6.521l1.51-1.006c2.225-1.48,5.286-0.959,6.835,1.16L1110.31,369.12z"/>
</g>
<g>
	<path fill="#E5E1DF" d="M1155.572,277.208c1.553-2.121,1.007-5.042-1.218-6.521l-1.509-1.006c-2.223-1.479-5.284-0.959-6.836,1.164
		l-46.691,63.871c-1.553,2.119-1.006,5.041,1.218,6.521l1.509,1.004c2.223,1.482,5.284,0.961,6.836-1.162L1155.572,277.208z"/>
	<path fill="#E5E1DF" d="M1145.73,277.397c-1.552-2.12-1.008-5.041,1.218-6.521l1.509-1.005c2.224-1.48,5.284-0.96,6.836,1.161
		l46.69,63.872c1.551,2.119,1.007,5.043-1.219,6.521l-1.509,1.004c-2.224,1.482-5.284,0.961-6.834-1.158L1145.73,277.397z"/>
</g>
<g>
	<path fill="#E5E1DF" d="M1184.402,94.558c-1.549,2.124-1.008,5.042,1.219,6.523l1.51,1.005c2.225,1.479,5.283,0.958,6.835-1.163
		l46.691-63.872c1.553-2.12,1.008-5.041-1.218-6.519l-1.509-1.006c-2.225-1.48-5.284-0.959-6.835,1.164L1184.402,94.558z"/>
	<path fill="#E5E1DF" d="M1194.246,94.369c1.551,2.121,1.007,5.042-1.219,6.521l-1.509,1.006c-2.224,1.48-5.284,0.959-6.834-1.163
		l-46.693-63.87c-1.55-2.122-1.005-5.042,1.22-6.522l1.509-1.006c2.224-1.479,5.284-0.959,6.833,1.162L1194.246,94.369z"/>
</g>
<g>
	<path fill="#E5E1DF" d="M1239.509,2.457c1.551-2.123,1.006-5.042-1.22-6.522l-1.508-1.006c-2.226-1.479-5.286-0.958-6.837,1.164
		l-46.692,63.87c-1.55,2.122-1.006,5.042,1.22,6.521l1.509,1.006c2.224,1.48,5.284,0.959,6.836-1.164L1239.509,2.457z"/>
	<path fill="#E5E1DF" d="M1229.663,2.645c-1.549-2.121-1.006-5.041,1.222-6.521l1.507-1.006c2.224-1.48,5.284-0.959,6.835,1.162
		l46.691,63.871c1.553,2.12,1.008,5.041-1.219,6.523l-1.506,1.003c-2.225,1.479-5.286,0.96-6.838-1.161L1229.663,2.645z"/>
</g>
<g>
	<path fill="#E5E1DF" d="M1195.506,147.647c-1.552,2.121-1.008,5.042,1.219,6.521l1.507,1.006c2.225,1.48,5.286,0.96,6.836-1.163
		l46.692-63.871c1.551-2.122,1.006-5.041-1.217-6.521l-1.51-1.005c-2.225-1.48-5.284-0.96-6.835,1.163L1195.506,147.647z"/>
	<path fill="#E5E1DF" d="M1205.349,147.458c1.551,2.12,1.005,5.041-1.218,6.521l-1.512,1.006c-2.224,1.48-5.281,0.96-6.834-1.162
		l-46.691-63.869c-1.552-2.121-1.005-5.042,1.218-6.522l1.509-1.005c2.224-1.479,5.284-0.96,6.836,1.162L1205.349,147.458z"/>
</g>
<g>
	<path fill="#E5E1DF" d="M1250.609,55.544c1.554-2.123,1.008-5.042-1.218-6.522l-1.508-1.006c-2.225-1.479-5.285-0.959-6.836,1.163
		l-46.692,63.872c-1.553,2.122-1.006,5.042,1.217,6.521l1.511,1.004c2.225,1.48,5.284,0.959,6.834-1.162L1250.609,55.544z"/>
	<path fill="#E5E1DF" d="M1240.767,55.732c-1.552-2.119-1.008-5.041,1.219-6.519l1.509-1.005c2.223-1.481,5.284-0.96,6.836,1.161
		l46.691,63.871c1.551,2.122,1.006,5.042-1.219,6.522l-1.506,1.004c-2.228,1.479-5.286,0.96-6.838-1.162L1240.767,55.732z"/>
</g>
<g>
	<path fill="#E5E1DF" d="M1206.062,201.463c-1.549,2.121-1.005,5.042,1.221,6.521l1.51,1.006c2.223,1.479,5.283,0.959,6.836-1.164
		l46.69-63.87c1.551-2.122,1.006-5.041-1.217-6.521l-1.512-1.004c-2.224-1.479-5.284-0.961-6.833,1.164L1206.062,201.463z"/>
	<path fill="#E5E1DF" d="M1215.908,201.274c1.549,2.122,1.005,5.043-1.219,6.521l-1.51,1.004c-2.224,1.48-5.285,0.96-6.835-1.162
		l-46.691-63.87c-1.553-2.122-1.008-5.043,1.218-6.523l1.509-1.003c2.223-1.481,5.284-0.961,6.836,1.161L1215.908,201.274z"/>
</g>
<g>
	<path fill="#E5E1DF" d="M1261.169,109.36c1.552-2.119,1.008-5.041-1.219-6.521l-1.507-1.005c-2.224-1.479-5.284-0.96-6.838,1.163
		l-46.691,63.871c-1.553,2.12-1.005,5.041,1.218,6.521l1.511,1.005c2.223,1.48,5.282,0.96,6.834-1.163L1261.169,109.36z"/>
	<path fill="#E5E1DF" d="M1251.326,109.551c-1.552-2.122-1.006-5.042,1.218-6.521l1.51-1.003c2.224-1.48,5.283-0.96,6.836,1.162
		l46.691,63.871c1.552,2.121,1.007,5.042-1.218,6.522l-1.509,1.004c-2.225,1.479-5.287,0.96-6.836-1.162L1251.326,109.551z"/>
</g>
<g>
	<path fill="#E5E1DF" d="M1217.166,254.552c-1.552,2.122-1.005,5.042,1.219,6.521l1.509,1.006c2.223,1.479,5.283,0.96,6.836-1.163
		l46.691-63.871c1.551-2.122,1.005-5.042-1.218-6.521l-1.509-1.005c-2.225-1.479-5.284-0.961-6.836,1.163L1217.166,254.552z"/>
	<path fill="#E5E1DF" d="M1227.009,254.362c1.552,2.121,1.008,5.04-1.219,6.521l-1.507,1.003c-2.223,1.48-5.284,0.961-6.838-1.161
		l-46.691-63.871c-1.55-2.121-1.005-5.042,1.218-6.521l1.511-1.005c2.223-1.479,5.283-0.96,6.834,1.16L1227.009,254.362z"/>
</g>
<g>
	<path fill="#E5E1DF" d="M1272.271,162.45c1.554-2.122,1.007-5.042-1.217-6.521l-1.509-1.005c-2.226-1.479-5.283-0.96-6.836,1.163
		l-46.691,63.87c-1.553,2.122-1.008,5.041,1.217,6.521l1.51,1.005c2.223,1.48,5.284,0.961,6.836-1.163L1272.271,162.45z"/>
	<path fill="#E5E1DF" d="M1262.427,162.638c-1.552-2.122-1.005-5.042,1.219-6.521l1.509-1.005c2.223-1.479,5.283-0.959,6.836,1.162
		l46.691,63.87c1.553,2.122,1.007,5.043-1.218,6.523l-1.509,1.003c-2.224,1.481-5.284,0.961-6.836-1.159L1262.427,162.638z"/>
</g>
<g>
	<path fill="#E5E1DF" d="M836.766,436.997c-1.551,2.123-1.006,5.043,1.219,6.523l1.509,1.004c2.224,1.48,5.284,0.961,6.835-1.16
		l46.691-63.871c1.552-2.121,1.007-5.043-1.219-6.521l-1.51-1.006c-2.223-1.48-5.283-0.959-6.834,1.162L836.766,436.997z"/>
	<path fill="#E5E1DF" d="M846.609,436.808c1.55,2.121,1.006,5.043-1.219,6.521l-1.51,1.006c-2.223,1.48-5.283,0.959-6.835-1.162
		l-46.692-63.869c-1.551-2.121-1.005-5.043,1.22-6.523l1.51-1.004c2.224-1.48,5.282-0.959,6.835,1.162L846.609,436.808z"/>
</g>
<g>
	<path fill="#E5E1DF" d="M891.87,344.896c1.552-2.121,1.006-5.043-1.219-6.521l-1.51-1.006c-2.224-1.48-5.284-0.959-6.835,1.164
		l-46.691,63.867c-1.553,2.123-1.006,5.043,1.219,6.523l1.508,1.004c2.224,1.48,5.284,0.959,6.835-1.162L891.87,344.896z"/>
	<path fill="#E5E1DF" d="M882.027,345.085c-1.551-2.121-1.006-5.041,1.221-6.521l1.509-1.006c2.224-1.48,5.282-0.959,6.835,1.162
		l46.692,63.871c1.551,2.119,1.007,5.039-1.218,6.521l-1.51,1.006c-2.224,1.479-5.284,0.957-6.836-1.162L882.027,345.085z"/>
</g>
<g>
	<path fill="#E5E1DF" d="M847.867,490.087c-1.551,2.121-1.006,5.041,1.218,6.521l1.509,1.006c2.225,1.48,5.284,0.959,6.836-1.162
		l46.692-63.871c1.552-2.119,1.005-5.039-1.218-6.523l-1.51-1.004c-2.223-1.479-5.283-0.959-6.835,1.162L847.867,490.087z"/>
	<path fill="#E5E1DF" d="M857.709,489.897c1.553,2.119,1.007,5.041-1.218,6.521l-1.511,1.006c-2.223,1.48-5.283,0.957-6.834-1.162
		l-46.69-63.871c-1.552-2.121-1.007-5.043,1.218-6.523l1.51-1.004c2.223-1.48,5.284-0.959,6.834,1.16L857.709,489.897z"/>
</g>
<g>
	<path fill="#E5E1DF" d="M902.973,397.983c1.551-2.121,1.007-5.043-1.22-6.523l-1.509-1.004c-2.223-1.48-5.283-0.959-6.836,1.162
		l-46.692,63.873c-1.55,2.121-1.007,5.041,1.22,6.521l1.508,1.004c2.225,1.48,5.284,0.959,6.837-1.162L902.973,397.983z"/>
	<path fill="#E5E1DF" d="M893.128,398.173c-1.551-2.121-1.007-5.043,1.218-6.521l1.51-1.006c2.224-1.48,5.284-0.959,6.836,1.162
		l46.689,63.871c1.553,2.121,1.008,5.041-1.218,6.521l-1.509,1.008c-2.223,1.477-5.283,0.957-6.836-1.164L893.128,398.173z"/>
</g>
<g>
	<path fill="#E5E1DF" d="M858.428,543.903c-1.553,2.119-1.008,5.043,1.217,6.521l1.51,1.006c2.224,1.48,5.283,0.959,6.835-1.162
		l46.69-63.871c1.551-2.121,1.008-5.041-1.218-6.523l-1.51-1.002c-2.224-1.48-5.284-0.961-6.835,1.16L858.428,543.903z"/>
	<path fill="#E5E1DF" d="M868.27,543.712c1.551,2.121,1.006,5.043-1.219,6.523l-1.51,1.006c-2.223,1.48-5.283,0.957-6.834-1.164
		l-46.691-63.869c-1.552-2.121-1.006-5.043,1.217-6.523l1.51-1.002c2.224-1.482,5.284-0.963,6.836,1.16L868.27,543.712z"/>
</g>
<g>
	<path fill="#E5E1DF" d="M913.531,451.798c1.551-2.119,1.007-5.041-1.219-6.518l-1.509-1.008c-2.224-1.48-5.284-0.959-6.837,1.16
		l-46.689,63.873c-1.551,2.119-1.008,5.041,1.219,6.521l1.508,1.006c2.224,1.48,5.284,0.959,6.835-1.162L913.531,451.798z"/>
	<path fill="#E5E1DF" d="M903.688,451.989c-1.551-2.121-1.007-5.043,1.218-6.523l1.51-1.002c2.223-1.48,5.284-0.961,6.836,1.16
		l46.691,63.871c1.551,2.121,1.005,5.041-1.218,6.523l-1.51,1.002c-2.224,1.482-5.284,0.961-6.835-1.16L903.688,451.989z"/>
</g>
<g>
	<path fill="#E5E1DF" d="M869.527,596.993c-1.551,2.121-1.006,5.041,1.219,6.52l1.509,1.008c2.223,1.479,5.284,0.957,6.835-1.162
		l46.691-63.871c1.551-2.119,1.007-5.043-1.217-6.523l-1.51-1.004c-2.225-1.48-5.284-0.959-6.836,1.162L869.527,596.993z"/>
	<path fill="#E5E1DF" d="M879.371,596.802c1.551,2.121,1.007,5.041-1.218,6.521l-1.509,1.006c-2.225,1.48-5.285,0.959-6.836-1.162
		l-46.69-63.871c-1.551-2.121-1.006-5.041,1.218-6.521l1.51-1.006c2.223-1.479,5.284-0.957,6.834,1.162L879.371,596.802z"/>
</g>
<g>
	<path fill="#E5E1DF" d="M924.633,504.888c1.551-2.121,1.006-5.041-1.219-6.521l-1.509-1.004c-2.224-1.482-5.284-0.959-6.836,1.16
		l-46.69,63.871c-1.553,2.119-1.008,5.043,1.217,6.521l1.51,1.008c2.225,1.479,5.284,0.957,6.836-1.164L924.633,504.888z"/>
	<path fill="#E5E1DF" d="M914.791,505.079c-1.552-2.123-1.008-5.043,1.217-6.521l1.51-1.006c2.224-1.48,5.284-0.959,6.836,1.164
		l46.689,63.867c1.552,2.123,1.008,5.043-1.218,6.523l-1.508,1.004c-2.224,1.48-5.284,0.959-6.837-1.162L914.791,505.079z"/>
</g>
<g>
	<path fill="#E5E1DF" d="M953.465,322.239c-1.551,2.121-1.007,5.043,1.218,6.521l1.511,1.006c2.223,1.479,5.283,0.959,6.834-1.164
		l46.692-63.871c1.551-2.12,1.005-5.042-1.218-6.521l-1.511-1.004c-2.223-1.48-5.283-0.96-6.834,1.162L953.465,322.239z"/>
	<path fill="#E5E1DF" d="M963.307,322.05c1.552,2.119,1.006,5.041-1.218,6.521l-1.509,1.004c-2.223,1.48-5.284,0.959-6.836-1.16
		l-46.691-63.872c-1.551-2.121-1.005-5.042,1.218-6.522l1.511-1.004c2.223-1.479,5.283-0.96,6.834,1.162L963.307,322.05z"/>
</g>
<g>
	<path fill="#E5E1DF" d="M1008.569,230.136c1.551-2.122,1.008-5.043-1.219-6.521l-1.509-1.005c-2.223-1.481-5.284-0.961-6.837,1.162
		l-46.69,63.869c-1.551,2.122-1.006,5.042,1.22,6.522l1.509,1.005c2.223,1.48,5.283,0.959,6.835-1.163L1008.569,230.136z"/>
	<path fill="#E5E1DF" d="M998.726,230.326c-1.551-2.121-1.006-5.042,1.218-6.521l1.51-1.005c2.224-1.479,5.283-0.959,6.835,1.162
		l46.69,63.87c1.552,2.121,1.008,5.042-1.218,6.522l-1.509,1.005c-2.224,1.479-5.284,0.959-6.836-1.162L998.726,230.326z"/>
</g>
<g>
	<path fill="#E5E1DF" d="M964.564,375.327c-1.55,2.121-1.006,5.043,1.22,6.523l1.509,1.006c2.223,1.477,5.284,0.957,6.835-1.164
		l46.692-63.869c1.55-2.123,1.006-5.043-1.219-6.523l-1.51-1.004c-2.224-1.48-5.283-0.961-6.835,1.16L964.564,375.327z"/>
	<path fill="#E5E1DF" d="M974.408,375.136c1.551,2.123,1.006,5.045-1.218,6.523l-1.51,1.004c-2.224,1.484-5.284,0.961-6.836-1.16
		l-46.69-63.871c-1.552-2.121-1.006-5.043,1.219-6.521l1.51-1.006c2.223-1.48,5.282-0.959,6.835,1.162L974.408,375.136z"/>
</g>
<g>
	<path fill="#E5E1DF" d="M1019.67,283.224c1.553-2.121,1.007-5.041-1.218-6.521l-1.509-1.005c-2.225-1.48-5.284-0.96-6.836,1.163
		l-46.691,63.87c-1.552,2.121-1.006,5.043,1.219,6.521l1.51,1.006c2.223,1.48,5.284,0.961,6.835-1.164L1019.67,283.224z"/>
	<path fill="#E5E1DF" d="M1009.827,283.415c-1.553-2.121-1.007-5.042,1.218-6.521l1.51-1.006c2.224-1.48,5.283-0.96,6.835,1.162
		l46.692,63.87c1.551,2.121,1.007,5.043-1.218,6.523l-1.509,1.004c-2.225,1.48-5.286,0.961-6.836-1.16L1009.827,283.415z"/>
</g>
<g>
	<path fill="#E5E1DF" d="M975.126,429.144c-1.551,2.123-1.007,5.043,1.22,6.521l1.508,1.008c2.225,1.48,5.284,0.959,6.836-1.164
		l46.691-63.869c1.551-2.121,1.005-5.043-1.218-6.523l-1.51-1.006c-2.224-1.48-5.284-0.959-6.836,1.164L975.126,429.144z"/>
	<path fill="#E5E1DF" d="M984.968,428.956c1.552,2.119,1.006,5.039-1.217,6.518l-1.51,1.008c-2.224,1.48-5.284,0.959-6.835-1.162
		l-46.692-63.871c-1.552-2.119-1.007-5.043,1.218-6.523l1.51-1.004c2.223-1.479,5.284-0.959,6.835,1.162L984.968,428.956z"/>
</g>
<g>
	<path fill="#E5E1DF" d="M1030.229,337.04c1.551-2.121,1.008-5.043-1.218-6.521l-1.51-1.006c-2.223-1.479-5.284-0.959-6.834,1.164
		l-46.69,63.867c-1.553,2.123-1.008,5.045,1.217,6.523l1.508,1.004c2.225,1.484,5.284,0.961,6.837-1.16L1030.229,337.04z"/>
	<path fill="#E5E1DF" d="M1020.387,337.229c-1.552-2.121-1.007-5.041,1.219-6.521l1.508-1.006c2.224-1.479,5.284-0.959,6.837,1.162
		l46.691,63.871c1.552,2.121,1.006,5.041-1.218,6.523l-1.51,1.004c-2.223,1.479-5.283,0.959-6.836-1.162L1020.387,337.229z"/>
</g>
<g>
	<path fill="#E5E1DF" d="M986.226,482.233c-1.551,2.121-1.005,5.041,1.22,6.521l1.51,1.006c2.224,1.48,5.284,0.961,6.835-1.162
		l46.69-63.871c1.551-2.121,1.007-5.041-1.218-6.521l-1.51-1.006c-2.223-1.479-5.284-0.959-6.835,1.164L986.226,482.233z"/>
	<path fill="#E5E1DF" d="M996.07,482.044c1.551,2.121,1.006,5.041-1.22,6.52l-1.51,1.006c-2.223,1.48-5.283,0.959-6.835-1.16
		l-46.69-63.871c-1.552-2.119-1.007-5.043,1.218-6.521l1.508-1.006c2.225-1.48,5.285-0.961,6.838,1.16L996.07,482.044z"/>
</g>
<g>
	<path fill="#E5E1DF" d="M1041.33,390.13c1.553-2.121,1.007-5.041-1.217-6.521l-1.509-1.008c-2.224-1.479-5.284-0.959-6.837,1.164
		l-46.69,63.871c-1.55,2.121-1.007,5.039,1.219,6.52l1.509,1.006c2.224,1.48,5.284,0.959,6.835-1.162L1041.33,390.13z"/>
	<path fill="#E5E1DF" d="M1031.488,390.321c-1.553-2.123-1.008-5.043,1.218-6.523l1.508-1.004c2.225-1.482,5.284-0.963,6.836,1.16
		l46.69,63.869c1.554,2.121,1.01,5.043-1.216,6.523l-1.509,1.006c-2.224,1.48-5.284,0.959-6.837-1.16L1031.488,390.321z"/>
</g>
<g>
	<path fill="#E5E1DF" d="M881.346,653.997c-1.552,2.121-1.006,5.041,1.217,6.521l1.511,1.006c2.223,1.48,5.284,0.957,6.835-1.162
		l46.689-63.871c1.552-2.121,1.008-5.041-1.217-6.521l-1.51-1.006c-2.224-1.48-5.285-0.959-6.836,1.162L881.346,653.997z"/>
	<path fill="#E5E1DF" d="M891.188,653.806c1.552,2.123,1.006,5.043-1.217,6.523l-1.511,1.004c-2.224,1.48-5.284,0.959-6.835-1.162
		l-46.691-63.869c-1.551-2.123-1.006-5.043,1.217-6.521l1.511-1.006c2.224-1.482,5.284-0.959,6.835,1.162L891.188,653.806z"/>
</g>
<g>
	<path fill="#E5E1DF" d="M936.449,561.892c1.551-2.119,1.008-5.039-1.219-6.521l-1.508-1.004c-2.224-1.48-5.284-0.959-6.838,1.16
		l-46.689,63.873c-1.551,2.119-1.007,5.041,1.219,6.52l1.509,1.006c2.223,1.48,5.284,0.959,6.837-1.16L936.449,561.892z"/>
	<path fill="#E5E1DF" d="M926.607,562.083c-1.551-2.119-1.006-5.041,1.217-6.521l1.51-1.006c2.225-1.48,5.285-0.957,6.836,1.162
		l46.691,63.871c1.551,2.121,1.006,5.041-1.218,6.521l-1.51,1.006c-2.223,1.48-5.284,0.959-6.834-1.16L926.607,562.083z"/>
</g>
<g>
	<path fill="#E5E1DF" d="M892.445,707.085c-1.551,2.123-1.006,5.043,1.22,6.521l1.508,1.008c2.225,1.479,5.284,0.959,6.837-1.164
		l46.69-63.869c1.551-2.121,1.007-5.043-1.218-6.523l-1.51-1.004c-2.224-1.48-5.284-0.959-6.836,1.162L892.445,707.085z"/>
	<path fill="#E5E1DF" d="M902.29,706.896c1.55,2.121,1.007,5.041-1.218,6.521l-1.51,1.006c-2.225,1.479-5.284,0.959-6.836-1.162
		l-46.691-63.871c-1.553-2.121-1.008-5.043,1.218-6.523l1.51-1.004c2.224-1.48,5.284-0.961,6.835,1.162L902.29,706.896z"/>
</g>
<g>
	<path fill="#E5E1DF" d="M947.551,614.981c1.552-2.119,1.006-5.043-1.219-6.521l-1.508-1.004c-2.224-1.482-5.285-0.961-6.837,1.16
		l-46.69,63.871c-1.553,2.121-1.006,5.043,1.218,6.521l1.511,1.006c2.223,1.48,5.283,0.959,6.834-1.162L947.551,614.981z"/>
	<path fill="#E5E1DF" d="M937.709,615.173c-1.551-2.121-1.008-5.043,1.217-6.521l1.511-1.006c2.224-1.48,5.284-0.959,6.836,1.16
		l46.69,63.871c1.552,2.121,1.006,5.043-1.219,6.523l-1.509,1.004c-2.223,1.48-5.284,0.959-6.836-1.162L937.709,615.173z"/>
</g>
<g>
	<path fill="#E5E1DF" d="M903.006,760.901c-1.551,2.121-1.006,5.041,1.22,6.523l1.51,1.004c2.223,1.48,5.282,0.961,6.835-1.16
		l46.691-63.873c1.551-2.119,1.007-5.039-1.217-6.521l-1.51-1.004c-2.225-1.48-5.284-0.959-6.836,1.162L903.006,760.901z"/>
	<path fill="#E5E1DF" d="M912.849,760.712c1.553,2.121,1.007,5.041-1.218,6.521l-1.51,1.006c-2.223,1.48-5.283,0.957-6.835-1.162
		l-46.69-63.873c-1.551-2.119-1.008-5.041,1.219-6.521l1.509-1.004c2.224-1.48,5.284-0.959,6.835,1.16L912.849,760.712z"/>
</g>
<g>
	<path fill="#E5E1DF" d="M958.11,668.798c1.554-2.119,1.007-5.041-1.218-6.521l-1.51-1.006c-2.223-1.48-5.283-0.959-6.834,1.162
		l-46.691,63.871c-1.551,2.121-1.007,5.041,1.219,6.521l1.509,1.006c2.224,1.479,5.284,0.959,6.837-1.162L958.11,668.798z"/>
	<path fill="#E5E1DF" d="M948.268,668.987c-1.551-2.119-1.005-5.041,1.219-6.521l1.509-1.004c2.226-1.48,5.284-0.959,6.837,1.162
		l46.691,63.869c1.552,2.121,1.006,5.043-1.219,6.521l-1.51,1.006c-2.224,1.48-5.284,0.959-6.835-1.16L948.268,668.987z"/>
</g>
<g>
	<path fill="#E5E1DF" d="M969.212,721.888c1.552-2.123,1.006-5.043-1.219-6.523l-1.51-1.004c-2.224-1.48-5.282-0.961-6.835,1.162
		l-46.691,63.869c-1.553,2.121-1.006,5.041,1.219,6.523l1.508,1.004c2.225,1.48,5.284,0.961,6.836-1.162L969.212,721.888z"/>
	<path fill="#E5E1DF" d="M959.369,722.075c-1.551-2.119-1.007-5.041,1.219-6.52l1.51-1.006c2.223-1.48,5.283-0.959,6.834,1.162
		l46.693,63.871c1.55,2.119,1.005,5.043-1.22,6.523l-1.509,1.002c-2.224,1.48-5.283,0.961-6.836-1.16L959.369,722.075z"/>
</g>
<g>
	<path fill="#E5E1DF" d="M998.044,539.237c-1.551,2.121-1.007,5.043,1.218,6.523l1.509,1.006c2.225,1.477,5.284,0.957,6.836-1.164
		l46.692-63.871c1.551-2.119,1.005-5.041-1.218-6.52l-1.509-1.008c-2.227-1.48-5.285-0.957-6.836,1.164L998.044,539.237z"/>
	<path fill="#E5E1DF" d="M1007.887,539.048c1.553,2.121,1.007,5.041-1.218,6.52l-1.51,1.008c-2.224,1.48-5.283,0.959-6.835-1.162
		l-46.691-63.871c-1.551-2.123-1.006-5.043,1.218-6.523l1.509-1.006c2.224-1.479,5.285-0.961,6.835,1.162L1007.887,539.048z"/>
</g>
<g>
	<path fill="#E5E1DF" d="M1053.148,447.136c1.551-2.125,1.007-5.045-1.22-6.523l-1.509-1.008c-2.223-1.479-5.283-0.957-6.834,1.164
		l-46.69,63.871c-1.553,2.121-1.007,5.043,1.218,6.521l1.511,1.004c2.223,1.484,5.283,0.961,6.834-1.162L1053.148,447.136z"/>
	<path fill="#E5E1DF" d="M1043.307,447.323c-1.552-2.119-1.008-5.039,1.217-6.521l1.511-1.006c2.224-1.479,5.284-0.959,6.834,1.162
		l46.691,63.871c1.554,2.121,1.01,5.041-1.217,6.523l-1.509,1.004c-2.225,1.479-5.283,0.959-6.836-1.162L1043.307,447.323z"/>
</g>
<g>
	<path fill="#E5E1DF" d="M1009.145,592.327c-1.551,2.121-1.007,5.041,1.219,6.52l1.509,1.008c2.225,1.48,5.283,0.957,6.837-1.162
		l46.69-63.871c1.553-2.121,1.005-5.041-1.218-6.521l-1.509-1.006c-2.225-1.479-5.285-0.959-6.836,1.164L1009.145,592.327z"/>
	<path fill="#E5E1DF" d="M1018.987,592.136c1.551,2.121,1.006,5.043-1.218,6.521l-1.51,1.006c-2.224,1.48-5.284,0.957-6.835-1.162
		l-46.69-63.871c-1.551-2.121-1.008-5.041,1.217-6.521l1.509-1.006c2.226-1.479,5.284-0.959,6.837,1.162L1018.987,592.136z"/>
</g>
<g>
	<path fill="#E5E1DF" d="M1064.249,500.224c1.553-2.121,1.007-5.041-1.218-6.521l-1.511-1.008c-2.223-1.477-5.283-0.957-6.834,1.162
		l-46.692,63.873c-1.551,2.119-1.006,5.039,1.22,6.52l1.508,1.006c2.224,1.48,5.284,0.959,6.837-1.162L1064.249,500.224z"/>
	<path fill="#E5E1DF" d="M1054.405,500.413c-1.552-2.121-1.006-5.041,1.219-6.521l1.509-1.004c2.225-1.48,5.285-0.961,6.836,1.16
		l46.691,63.869c1.553,2.121,1.005,5.043-1.218,6.523l-1.509,1.006c-2.223,1.48-5.284,0.959-6.836-1.162L1054.405,500.413z"/>
</g>
<g>
	<path fill="#E5E1DF" d="M1019.703,646.142c-1.549,2.123-1.005,5.043,1.22,6.523l1.51,1.006c2.225,1.479,5.284,0.957,6.835-1.164
		l46.691-63.869c1.552-2.121,1.008-5.043-1.218-6.521l-1.509-1.004c-2.225-1.482-5.284-0.963-6.835,1.162L1019.703,646.142z"/>
	<path fill="#E5E1DF" d="M1029.548,645.952c1.551,2.123,1.006,5.043-1.218,6.521l-1.512,1.006c-2.223,1.48-5.283,0.959-6.834-1.162
		l-46.691-63.869c-1.551-2.121-1.007-5.043,1.22-6.523l1.508-1.002c2.224-1.482,5.284-0.961,6.835,1.158L1029.548,645.952z"/>
</g>
<g>
	<path fill="#E5E1DF" d="M1074.808,554.038c1.552-2.121,1.008-5.041-1.216-6.52l-1.509-1.006c-2.225-1.48-5.287-0.961-6.836,1.16
		l-46.692,63.871c-1.553,2.121-1.007,5.043,1.219,6.521l1.508,1.006c2.223,1.48,5.284,0.959,6.836-1.162L1074.808,554.038z"/>
	<path fill="#E5E1DF" d="M1064.968,554.229c-1.552-2.121-1.008-5.041,1.218-6.521l1.509-1.006c2.224-1.479,5.284-0.959,6.836,1.162
		l46.69,63.871c1.551,2.119,1.007,5.041-1.219,6.521l-1.508,1.004c-2.225,1.48-5.284,0.959-6.835-1.16L1064.968,554.229z"/>
</g>
<g>
	<path fill="#E5E1DF" d="M1030.807,699.229c-1.551,2.123-1.006,5.043,1.218,6.521l1.51,1.008c2.224,1.479,5.284,0.959,6.835-1.164
		l46.692-63.871c1.55-2.119,1.006-5.041-1.217-6.521l-1.509-1.004c-2.227-1.48-5.287-0.961-6.836,1.162L1030.807,699.229z"/>
	<path fill="#E5E1DF" d="M1040.649,699.042c1.551,2.121,1.007,5.039-1.219,6.523l-1.509,1.002c-2.224,1.48-5.284,0.961-6.836-1.16
		l-46.69-63.871c-1.552-2.121-1.008-5.041,1.217-6.521l1.511-1.004c2.223-1.482,5.283-0.961,6.834,1.16L1040.649,699.042z"/>
</g>
<g>
	<path fill="#E5E1DF" d="M1085.911,607.128c1.552-2.121,1.008-5.043-1.219-6.521l-1.507-1.004c-2.224-1.48-5.284-0.961-6.836,1.16
		l-46.691,63.871c-1.551,2.121-1.007,5.041,1.218,6.52l1.51,1.008c2.224,1.479,5.284,0.959,6.837-1.164L1085.911,607.128z"/>
	<path fill="#E5E1DF" d="M1076.068,607.317c-1.552-2.119-1.005-5.043,1.218-6.521l1.509-1.004c2.224-1.48,5.284-0.959,6.837,1.162
		l46.691,63.869c1.551,2.121,1.005,5.043-1.218,6.523l-1.509,1.004c-2.224,1.48-5.284,0.961-6.837-1.162L1076.068,607.317z"/>
</g>
<g>
	<path fill="#E5E1DF" d="M1114.732,424.812c-1.553,2.121-1.007,5.039,1.218,6.521l1.508,1.006c2.224,1.48,5.283,0.959,6.836-1.164
		l46.693-63.869c1.552-2.121,1.005-5.043-1.219-6.521l-1.509-1.004c-2.223-1.484-5.284-0.963-6.836,1.16L1114.732,424.812z"/>
	<path fill="#E5E1DF" d="M1124.574,424.62c1.553,2.123,1.007,5.043-1.217,6.523l-1.51,1.004c-2.224,1.48-5.284,0.961-6.836-1.162
		l-46.69-63.869c-1.553-2.121-1.007-5.043,1.216-6.523l1.51-1.004c2.223-1.479,5.283-0.959,6.837,1.162L1124.574,424.62z"/>
</g>
<g>
	<path fill="#E5E1DF" d="M1169.835,332.706c1.554-2.121,1.008-5.041-1.215-6.521l-1.511-1.006c-2.223-1.48-5.284-0.959-6.836,1.164
		l-46.69,63.869c-1.552,2.121-1.008,5.043,1.218,6.521l1.51,1.004c2.223,1.482,5.283,0.959,6.836-1.16L1169.835,332.706z"/>
	<path fill="#E5E1DF" d="M1159.996,332.897c-1.554-2.121-1.008-5.041,1.215-6.521l1.51-1.006c2.224-1.48,5.284-0.959,6.837,1.162
		l46.69,63.871c1.552,2.119,1.008,5.039-1.216,6.52l-1.51,1.008c-2.225,1.479-5.286,0.959-6.838-1.162L1159.996,332.897z"/>
</g>
<g>
	<path fill="#E5E1DF" d="M1125.833,477.899c-1.551,2.121-1.005,5.039,1.22,6.521l1.507,1.006c2.226,1.479,5.284,0.959,6.836-1.164
		l46.693-63.871c1.551-2.119,1.007-5.039-1.22-6.52l-1.509-1.006c-2.223-1.48-5.283-0.961-6.833,1.162L1125.833,477.899z"/>
	<path fill="#E5E1DF" d="M1135.675,477.708c1.553,2.123,1.008,5.043-1.218,6.523l-1.509,1.004c-2.224,1.48-5.284,0.959-6.836-1.162
		l-46.69-63.869c-1.554-2.121-1.007-5.041,1.217-6.521l1.51-1.004c2.225-1.482,5.282-0.961,6.835,1.158L1135.675,477.708z"/>
</g>
<g>
	<path fill="#E5E1DF" d="M1180.938,385.796c1.553-2.121,1.008-5.043-1.218-6.523l-1.509-1.004c-2.224-1.479-5.284-0.959-6.836,1.162
		l-46.692,63.871c-1.552,2.121-1.006,5.041,1.219,6.521l1.509,1.006c2.223,1.479,5.283,0.959,6.836-1.164L1180.938,385.796z"/>
	<path fill="#E5E1DF" d="M1171.095,385.987c-1.552-2.121-1.006-5.043,1.22-6.523l1.509-1.006c2.223-1.479,5.281-0.957,6.835,1.162
		l46.69,63.871c1.552,2.121,1.008,5.043-1.217,6.521l-1.511,1.006c-2.223,1.48-5.283,0.959-6.836-1.16L1171.095,385.987z"/>
</g>
<g>
	<path fill="#E5E1DF" d="M1136.394,531.714c-1.551,2.121-1.007,5.043,1.217,6.523l1.509,1.004c2.228,1.48,5.287,0.961,6.837-1.162
		l46.69-63.869c1.553-2.121,1.008-5.041-1.216-6.521l-1.511-1.006c-2.223-1.48-5.284-0.959-6.836,1.162L1136.394,531.714z"/>
	<path fill="#E5E1DF" d="M1146.237,531.524c1.552,2.121,1.006,5.043-1.218,6.523l-1.509,1.006c-2.224,1.48-5.284,0.957-6.835-1.164
		l-46.693-63.869c-1.552-2.121-1.005-5.043,1.218-6.523l1.509-1.004c2.224-1.479,5.284-0.959,6.836,1.162L1146.237,531.524z"/>
</g>
<g>
	<path fill="#E5E1DF" d="M1191.498,439.612c1.552-2.121,1.005-5.041-1.218-6.521l-1.508-1.006c-2.225-1.48-5.284-0.959-6.838,1.16
		l-46.691,63.871c-1.551,2.121-1.005,5.043,1.218,6.523l1.509,1.004c2.225,1.48,5.286,0.959,6.836-1.162L1191.498,439.612z"/>
	<path fill="#E5E1DF" d="M1181.655,439.802c-1.552-2.119-1.008-5.041,1.219-6.523l1.509-1.004c2.223-1.479,5.284-0.957,6.836,1.162
		l46.691,63.871c1.551,2.121,1.005,5.041-1.218,6.521l-1.509,1.006c-2.225,1.479-5.284,0.959-6.836-1.162L1181.655,439.802z"/>
</g>
<g>
	<path fill="#E5E1DF" d="M1147.494,584.804c-1.551,2.121-1.007,5.041,1.22,6.521l1.509,1.006c2.223,1.48,5.281,0.959,6.833-1.162
		l46.694-63.871c1.55-2.121,1.006-5.043-1.219-6.523l-1.511-1.002c-2.223-1.48-5.284-0.961-6.833,1.162L1147.494,584.804z"/>
	<path fill="#E5E1DF" d="M1157.338,584.614c1.552,2.119,1.008,5.041-1.218,6.521l-1.509,1.006c-2.224,1.479-5.284,0.957-6.836-1.164
		l-46.692-63.869c-1.552-2.121-1.007-5.043,1.218-6.523l1.509-1.004c2.227-1.48,5.284-0.959,6.837,1.162L1157.338,584.614z"/>
</g>
<g>
	<path fill="#E5E1DF" d="M1202.599,492.7c1.552-2.119,1.008-5.039-1.218-6.52l-1.509-1.006c-2.224-1.48-5.284-0.961-6.837,1.162
		l-46.691,63.871c-1.551,2.119-1.005,5.039,1.221,6.521l1.506,1.004c2.227,1.48,5.284,0.959,6.836-1.162L1202.599,492.7z"/>
	<path fill="#E5E1DF" d="M1192.756,492.89c-1.552-2.121-1.008-5.041,1.219-6.521l1.509-1.006c2.226-1.48,5.282-0.959,6.836,1.162
		l46.691,63.869c1.55,2.121,1.007,5.043-1.218,6.523l-1.51,1.004c-2.224,1.48-5.284,0.961-6.835-1.16L1192.756,492.89z"/>
</g>
<g>
	<path fill="#E5E1DF" d="M1231.432,310.052c-1.552,2.121-1.008,5.043,1.218,6.52l1.509,1.008c2.224,1.48,5.284,0.959,6.836-1.162
		l46.692-63.872c1.552-2.121,1.005-5.042-1.218-6.521l-1.511-1.005c-2.225-1.479-5.282-0.959-6.835,1.162L1231.432,310.052z"/>
	<path fill="#E5E1DF" d="M1241.273,309.86c1.553,2.121,1.007,5.041-1.218,6.525l-1.51,1.002c-2.224,1.48-5.284,0.959-6.835-1.16
		l-46.69-63.873c-1.554-2.121-1.01-5.042,1.217-6.521l1.509-1.005c2.223-1.479,5.284-0.959,6.836,1.162L1241.273,309.86z"/>
</g>
<g>
	<path fill="#E5E1DF" d="M1286.537,217.948c1.553-2.122,1.007-5.042-1.221-6.521l-1.508-1.006c-2.224-1.481-5.283-0.96-6.837,1.163
		l-46.692,63.869c-1.552,2.121-1.005,5.042,1.222,6.522l1.509,1.006c2.223,1.48,5.284,0.959,6.833-1.163L1286.537,217.948z"/>
	<path fill="#E5E1DF" d="M1276.693,218.137c-1.552-2.121-1.009-5.042,1.217-6.521l1.509-1.004c2.224-1.48,5.284-0.96,6.838,1.162
		l46.69,63.87c1.552,2.122,1.006,5.042-1.218,6.522l-1.511,1.005c-2.223,1.48-5.282,0.959-6.835-1.162L1276.693,218.137z"/>
</g>
<g>
	<path fill="#E5E1DF" d="M1242.532,363.14c-1.552,2.121-1.005,5.043,1.218,6.523l1.509,1.006c2.224,1.479,5.284,0.957,6.836-1.164
		l46.692-63.869c1.552-2.121,1.005-5.043-1.218-6.522l-1.509-1.005c-2.224-1.48-5.284-0.961-6.837,1.16L1242.532,363.14z"/>
	<path fill="#E5E1DF" d="M1252.375,362.95c1.552,2.121,1.008,5.043-1.216,6.521l-1.51,1.006c-2.225,1.48-5.284,0.959-6.838-1.162
		l-46.689-63.871c-1.553-2.121-1.008-5.042,1.216-6.522l1.51-1.004c2.224-1.48,5.284-0.96,6.836,1.16L1252.375,362.95z"/>
</g>
<g>
	<path fill="#E5E1DF" d="M1297.637,271.037c1.552-2.122,1.006-5.042-1.22-6.521l-1.506-1.006c-2.226-1.48-5.284-0.96-6.838,1.163
		l-46.69,63.869c-1.552,2.123-1.008,5.043,1.217,6.523l1.511,1.006c2.223,1.48,5.284,0.961,6.836-1.164L1297.637,271.037z"/>
	<path fill="#E5E1DF" d="M1287.794,271.226c-1.552-2.121-1.008-5.042,1.217-6.521l1.509-1.004c2.224-1.48,5.284-0.96,6.836,1.162
		l46.692,63.87c1.552,2.121,1.007,5.041-1.217,6.523l-1.51,1.004c-2.224,1.48-5.284,0.961-6.837-1.162L1287.794,271.226z"/>
</g>
<g>
	<path fill="#E5E1DF" d="M1253.092,416.956c-1.55,2.123-1.008,5.043,1.218,6.521l1.509,1.008c2.226,1.479,5.287,0.957,6.836-1.164
		l46.692-63.869c1.552-2.121,1.006-5.043-1.217-6.523l-1.512-1.004c-2.224-1.48-5.284-0.961-6.835,1.162L1253.092,416.956z"/>
	<path fill="#E5E1DF" d="M1262.934,416.767c1.553,2.121,1.008,5.041-1.215,6.521l-1.511,1.006c-2.225,1.48-5.285,0.959-6.834-1.162
		l-46.692-63.871c-1.552-2.119-1.008-5.041,1.218-6.521l1.51-1.004c2.223-1.48,5.283-0.959,6.833,1.16L1262.934,416.767z"/>
</g>
<g>
	<path fill="#E5E1DF" d="M1308.196,324.853c1.55-2.121,1.006-5.041-1.219-6.521l-1.509-1.004c-2.225-1.48-5.285-0.961-6.836,1.16
		l-46.691,63.871c-1.551,2.121-1.007,5.043,1.219,6.521l1.507,1.006c2.227,1.48,5.286,0.959,6.837-1.164L1308.196,324.853z"/>
	<path fill="#E5E1DF" d="M1298.353,325.042c-1.553-2.119-1.007-5.041,1.221-6.52l1.508-1.006c2.223-1.482,5.283-0.961,6.836,1.16
		l46.691,63.871c1.552,2.121,1.007,5.043-1.22,6.523l-1.509,1.004c-2.223,1.479-5.284,0.959-6.836-1.16L1298.353,325.042z"/>
</g>
<g>
	<path fill="#E5E1DF" d="M1264.192,470.044c-1.553,2.121-1.007,5.041,1.218,6.523l1.509,1.004c2.224,1.479,5.285,0.959,6.836-1.16
		l46.69-63.873c1.554-2.119,1.008-5.041-1.217-6.521l-1.509-1.004c-2.223-1.48-5.283-0.959-6.836,1.16L1264.192,470.044z"/>
	<path fill="#E5E1DF" d="M1274.037,469.853c1.551,2.123,1.005,5.043-1.218,6.523l-1.509,1.004c-2.223,1.482-5.284,0.959-6.836-1.162
		l-46.692-63.869c-1.552-2.121-1.008-5.041,1.219-6.521l1.509-1.006c2.223-1.48,5.283-0.959,6.836,1.162L1274.037,469.853z"/>
</g>
<g>
	<path fill="#E5E1DF" d="M1319.298,377.94c1.553-2.119,1.005-5.041-1.218-6.521l-1.509-1.006c-2.224-1.479-5.284-0.957-6.836,1.164
		l-46.692,63.871c-1.552,2.119-1.005,5.039,1.219,6.52l1.507,1.006c2.225,1.48,5.285,0.959,6.838-1.162L1319.298,377.94z"/>
	<path fill="#E5E1DF" d="M1309.456,378.132c-1.553-2.119-1.007-5.043,1.218-6.52l1.509-1.008c2.223-1.48,5.284-0.959,6.836,1.162
		l46.692,63.869c1.551,2.123,1.006,5.043-1.219,6.523l-1.509,1.006c-2.223,1.479-5.283,0.959-6.834-1.162L1309.456,378.132z"/>
</g>
<g>
	<path fill="#E5E1DF" d="M1159.313,641.808c-1.553,2.121-1.007,5.043,1.217,6.521l1.51,1.006c2.224,1.48,5.284,0.959,6.836-1.162
		l46.69-63.869c1.551-2.121,1.007-5.041-1.217-6.521l-1.509-1.006c-2.226-1.48-5.286-0.959-6.836,1.162L1159.313,641.808z"/>
	<path fill="#E5E1DF" d="M1169.155,641.618c1.553,2.119,1.005,5.043-1.218,6.521l-1.509,1.004c-2.226,1.48-5.284,0.959-6.836-1.162
		l-46.692-63.869c-1.552-2.121-1.008-5.041,1.219-6.521l1.507-1.006c2.225-1.48,5.284-0.959,6.838,1.162L1169.155,641.618z"/>
</g>
<g>
	<path fill="#E5E1DF" d="M1214.416,549.706c1.553-2.121,1.008-5.041-1.218-6.521l-1.508-1.008c-2.224-1.479-5.283-0.957-6.837,1.164
		l-46.689,63.871c-1.552,2.119-1.009,5.043,1.216,6.521l1.51,1.004c2.224,1.48,5.284,0.961,6.836-1.162L1214.416,549.706z"/>
	<path fill="#E5E1DF" d="M1204.574,549.896c-1.553-2.123-1.005-5.041,1.218-6.523l1.509-1.004c2.223-1.48,5.284-0.961,6.836,1.162
		l46.692,63.869c1.552,2.121,1.005,5.043-1.219,6.523l-1.509,1.004c-2.223,1.48-5.283,0.961-6.836-1.162L1204.574,549.896z"/>
</g>
<g>
	<path fill="#E5E1DF" d="M1170.412,694.897c-1.55,2.121-1.006,5.041,1.22,6.521l1.509,1.004c2.224,1.482,5.284,0.961,6.833-1.16
		l46.692-63.869c1.552-2.123,1.009-5.043-1.217-6.523l-1.508-1.006c-2.226-1.48-5.286-0.957-6.837,1.164L1170.412,694.897z"/>
	<path fill="#E5E1DF" d="M1180.256,694.708c1.553,2.119,1.005,5.041-1.218,6.52l-1.508,1.006c-2.224,1.48-5.285,0.959-6.837-1.16
		l-46.692-63.871c-1.552-2.121-1.005-5.043,1.219-6.523l1.509-1.004c2.225-1.48,5.284-0.959,6.836,1.162L1180.256,694.708z"/>
</g>
<g>
	<path fill="#E5E1DF" d="M1225.517,602.794c1.553-2.121,1.008-5.043-1.216-6.523l-1.511-1.006c-2.223-1.479-5.284-0.959-6.836,1.164
		l-46.689,63.871c-1.553,2.119-1.008,5.041,1.216,6.521l1.509,1.004c2.225,1.48,5.284,0.961,6.837-1.162L1225.517,602.794z"/>
	<path fill="#E5E1DF" d="M1215.675,602.983c-1.552-2.121-1.005-5.041,1.218-6.521l1.508-1.006c2.225-1.48,5.284-0.959,6.837,1.162
		l46.692,63.869c1.551,2.121,1.005,5.043-1.218,6.523l-1.51,1.004c-2.223,1.48-5.285,0.961-6.836-1.162L1215.675,602.983z"/>
</g>
<g>
	<path fill="#E5E1DF" d="M1180.974,748.714c-1.553,2.121-1.005,5.041,1.218,6.521l1.509,1.006c2.223,1.479,5.284,0.959,6.836-1.162
		l46.692-63.871c1.552-2.121,1.005-5.041-1.219-6.521l-1.509-1.006c-2.223-1.48-5.284-0.959-6.836,1.162L1180.974,748.714z"/>
	<path fill="#E5E1DF" d="M1190.815,748.522c1.552,2.121,1.008,5.043-1.215,6.523l-1.511,1.004c-2.225,1.48-5.285,0.959-6.837-1.162
		l-46.689-63.869c-1.552-2.123-1.008-5.043,1.215-6.521l1.511-1.006c2.225-1.48,5.285-0.959,6.836,1.16L1190.815,748.522z"/>
</g>
<g>
	<path fill="#E5E1DF" d="M1236.079,656.61c1.551-2.123,1.005-5.043-1.221-6.521l-1.509-1.006c-2.224-1.48-5.281-0.959-6.833,1.162
		l-46.692,63.871c-1.552,2.119-1.008,5.041,1.218,6.52l1.509,1.006c2.224,1.48,5.284,0.959,6.837-1.164L1236.079,656.61z"/>
	<path fill="#E5E1DF" d="M1226.234,656.8c-1.55-2.121-1.008-5.041,1.218-6.521l1.509-1.006c2.226-1.48,5.285-0.957,6.836,1.162
		l46.691,63.871c1.553,2.119,1.007,5.041-1.218,6.521l-1.509,1.004c-2.225,1.48-5.284,0.961-6.836-1.16L1226.234,656.8z"/>
</g>
<g>
	<path fill="#E5E1DF" d="M1247.18,709.698c1.551-2.123,1.005-5.043-1.218-6.521l-1.509-1.006c-2.225-1.48-5.286-0.959-6.838,1.162
		l-46.69,63.871c-1.552,2.119-1.008,5.041,1.218,6.521l1.51,1.006c2.223,1.48,5.283,0.959,6.836-1.164L1247.18,709.698z"/>
	<path fill="#E5E1DF" d="M1237.338,709.888c-1.554-2.121-1.008-5.041,1.218-6.52l1.507-1.008c2.225-1.479,5.284-0.957,6.837,1.162
		l46.69,63.871c1.552,2.121,1.009,5.043-1.217,6.523l-1.509,1.004c-2.224,1.48-5.284,0.959-6.838-1.162L1237.338,709.888z"/>
</g>
<g>
	<path fill="#E5E1DF" d="M1276.01,527.05c-1.549,2.121-1.005,5.039,1.22,6.521l1.51,1.006c2.224,1.479,5.281,0.959,6.834-1.164
		l46.692-63.871c1.55-2.119,1.007-5.039-1.219-6.52l-1.509-1.006c-2.224-1.48-5.286-0.961-6.835,1.164L1276.01,527.05z"/>
	<path fill="#E5E1DF" d="M1285.853,526.86c1.552,2.119,1.009,5.041-1.219,6.52l-1.507,1.006c-2.225,1.48-5.284,0.961-6.838-1.162
		l-46.688-63.869c-1.554-2.121-1.008-5.041,1.218-6.523l1.509-1.004c2.223-1.479,5.284-0.961,6.835,1.16L1285.853,526.86z"/>
</g>
<g>
	<path fill="#E5E1DF" d="M1331.114,434.948c1.552-2.123,1.008-5.043-1.217-6.523l-1.509-1.006c-2.225-1.479-5.284-0.959-6.837,1.162
		l-46.69,63.871c-1.553,2.121-1.007,5.043,1.218,6.521l1.509,1.006c2.225,1.48,5.284,0.959,6.836-1.164L1331.114,434.948z"/>
	<path fill="#E5E1DF" d="M1321.271,435.138c-1.552-2.123-1.007-5.043,1.221-6.521l1.508-1.006c2.223-1.48,5.282-0.959,6.835,1.16
		l46.691,63.871c1.552,2.121,1.008,5.043-1.218,6.523l-1.509,1.004c-2.224,1.479-5.284,0.959-6.836-1.162L1321.271,435.138z"/>
</g>
<g>
	<path fill="#E5E1DF" d="M1287.112,580.138c-1.553,2.121-1.008,5.041,1.216,6.521l1.511,1.006c2.223,1.479,5.284,0.959,6.835-1.162
		l46.691-63.871c1.552-2.119,1.008-5.041-1.217-6.521l-1.509-1.004c-2.226-1.48-5.285-0.959-6.836,1.16L1287.112,580.138z"/>
	<path fill="#E5E1DF" d="M1296.956,579.948c1.552,2.119,1.005,5.043-1.219,6.521l-1.51,1.004c-2.225,1.48-5.283,0.959-6.835-1.162
		l-46.691-63.869c-1.553-2.121-1.005-5.041,1.218-6.521l1.509-1.006c2.223-1.48,5.284-0.959,6.836,1.16L1296.956,579.948z"/>
</g>
<g>
	<path fill="#E5E1DF" d="M1342.217,488.034c1.552-2.121,1.006-5.041-1.219-6.521l-1.51-1.006c-2.225-1.479-5.285-0.957-6.836,1.164
		l-46.69,63.869c-1.553,2.121-1.007,5.041,1.218,6.523l1.509,1.004c2.225,1.479,5.284,0.959,6.838-1.162L1342.217,488.034z"/>
	<path fill="#E5E1DF" d="M1332.374,488.226c-1.552-2.123-1.008-5.043,1.218-6.523l1.509-1.006c2.224-1.48,5.284-0.957,6.837,1.162
		l46.691,63.871c1.554,2.119,1.007,5.043-1.221,6.521l-1.505,1.006c-2.226,1.48-5.284,0.959-6.836-1.16L1332.374,488.226z"/>
</g>
<g>
	<path fill="#E5E1DF" d="M1297.671,633.954c-1.552,2.121-1.008,5.043,1.219,6.521l1.507,1.006c2.225,1.48,5.284,0.959,6.836-1.162
		l46.69-63.871c1.554-2.121,1.01-5.041-1.216-6.52l-1.51-1.008c-2.223-1.48-5.283-0.959-6.833,1.164L1297.671,633.954z"/>
	<path fill="#E5E1DF" d="M1307.514,633.765c1.552,2.119,1.006,5.041-1.217,6.521l-1.511,1.004c-2.223,1.48-5.283,0.961-6.834-1.162
		l-46.692-63.869c-1.552-2.121-1.008-5.041,1.219-6.521l1.509-1.006c2.226-1.48,5.284-0.959,6.836,1.162L1307.514,633.765z"/>
</g>
<g>
	<path fill="#E5E1DF" d="M1352.775,541.851c1.553-2.121,1.005-5.041-1.218-6.521l-1.509-1.008c-2.223-1.479-5.284-0.957-6.836,1.164
		l-46.692,63.871c-1.55,2.119-1.006,5.043,1.219,6.521l1.507,1.004c2.224,1.48,5.285,0.961,6.838-1.162L1352.775,541.851z"/>
	<path fill="#E5E1DF" d="M1342.934,542.04c-1.553-2.119-1.007-5.041,1.218-6.521l1.509-1.004c2.227-1.48,5.284-0.959,6.836,1.16
		l46.69,63.871c1.553,2.121,1.01,5.041-1.216,6.523l-1.51,1.004c-2.223,1.479-5.283,0.959-6.837-1.162L1342.934,542.04z"/>
</g>
<g>
	<path fill="#E5E1DF" d="M1308.773,687.044c-1.552,2.121-1.005,5.041,1.218,6.52l1.509,1.008c2.224,1.479,5.284,0.959,6.836-1.162
		l46.692-63.871c1.552-2.119,1.005-5.043-1.218-6.521l-1.508-1.006c-2.225-1.48-5.284-0.959-6.838,1.162L1308.773,687.044z"/>
	<path fill="#E5E1DF" d="M1318.615,686.853c1.553,2.121,1.007,5.041-1.218,6.521l-1.509,1.006c-2.225,1.48-5.284,0.959-6.836-1.162
		l-46.69-63.871c-1.554-2.121-1.007-5.041,1.217-6.521l1.509-1.006c2.223-1.479,5.284-0.959,6.836,1.162L1318.615,686.853z"/>
</g>
<g>
	<path fill="#E5E1DF" d="M1363.879,594.94c1.553-2.123,1.007-5.043-1.221-6.521l-1.506-1.008c-2.225-1.479-5.284-0.957-6.835,1.164
		l-46.691,63.871c-1.554,2.119-1.01,5.039,1.217,6.52l1.509,1.006c2.223,1.48,5.284,0.959,6.836-1.164L1363.879,594.94z"/>
	<path fill="#E5E1DF" d="M1354.035,595.13c-1.551-2.123-1.006-5.043,1.217-6.521l1.509-1.006c2.225-1.48,5.287-0.959,6.838,1.162
		l46.69,63.869c1.552,2.121,1.006,5.043-1.217,6.523l-1.51,1.002c-2.224,1.484-5.284,0.963-6.837-1.158L1354.035,595.13z"/>
</g>
<g>
	<g>
		<g>
			<g>
				<g>
					<g>
						<g>
							<circle fill="#E5E1DF" cx="-57.489" cy="-8.053" r="13.259"/>
							<circle fill="#E5E1DF" cx="-25.286" cy="-8.163" r="13.259"/>
							<circle fill="#E5E1DF" cx="6.075" cy="-8.27" r="13.259"/>
							<circle fill="#E5E1DF" cx="39.117" cy="-8.382" r="13.26"/>
						</g>
						<g>
							<circle fill="#E5E1DF" cx="-57.375" cy="25.208" r="13.259"/>
							<circle fill="#E5E1DF" cx="-25.172" cy="25.098" r="13.259"/>
							<circle fill="#E5E1DF" cx="6.188" cy="24.991" r="13.259"/>
							<circle fill="#E5E1DF" cx="39.23" cy="24.879" r="13.26"/>
						</g>
					</g>
					<g>
						<g>
							<circle fill="#E5E1DF" cx="-57.264" cy="57.828" r="13.259"/>
							<circle fill="#E5E1DF" cx="-25.061" cy="57.718" r="13.259"/>
							<circle fill="#E5E1DF" cx="6.3" cy="57.611" r="13.259"/>
							<circle fill="#E5E1DF" cx="39.342" cy="57.499" r="13.26"/>
						</g>
						<g>
							<circle fill="#E5E1DF" cx="-57.15" cy="91.09" r="13.259"/>
							<circle fill="#E5E1DF" cx="-24.948" cy="90.98" r="13.259"/>
							<circle fill="#E5E1DF" cx="6.413" cy="90.873" r="13.259"/>
							<circle fill="#E5E1DF" cx="39.455" cy="90.761" r="13.26"/>
						</g>
					</g>
				</g>
				<g>
					<g>
						<g>
							<circle fill="#E5E1DF" cx="-57.049" cy="120.754" r="13.259"/>
							<circle fill="#E5E1DF" cx="-24.846" cy="120.644" r="13.259"/>
							<circle fill="#E5E1DF" cx="6.514" cy="120.537" r="13.259"/>
							<circle fill="#E5E1DF" cx="39.556" cy="120.424" r="13.26"/>
						</g>
						<g>
							<circle fill="#E5E1DF" cx="-56.936" cy="154.016" r="13.259"/>
							<circle fill="#E5E1DF" cx="-24.733" cy="153.906" r="13.259"/>
							<circle fill="#E5E1DF" cx="6.627" cy="153.799" r="13.259"/>
							<circle fill="#E5E1DF" cx="39.669" cy="153.686" r="13.259"/>
						</g>
					</g>
					<g>
						<g>
							<circle fill="#E5E1DF" cx="-56.825" cy="186.636" r="13.258"/>
							<circle fill="#E5E1DF" cx="-24.622" cy="186.527" r="13.258"/>
							<circle fill="#E5E1DF" cx="6.739" cy="186.419" r="13.259"/>
							<circle fill="#E5E1DF" cx="39.78" cy="186.307" r="13.259"/>
						</g>
						<g>
							<circle fill="#E5E1DF" cx="-56.712" cy="219.897" r="13.259"/>
							<circle fill="#E5E1DF" cx="-24.509" cy="219.788" r="13.259"/>
							<circle fill="#E5E1DF" cx="6.852" cy="219.681" r="13.259"/>
							<circle fill="#E5E1DF" cx="39.893" cy="219.568" r="13.26"/>
						</g>
					</g>
				</g>
			</g>
			<g>
				<g>
					<g>
						<g>
							<circle fill="#E5E1DF" cx="73.857" cy="-8.501" r="13.259"/>
							<circle fill="#E5E1DF" cx="106.06" cy="-8.611" r="13.259"/>
							<circle fill="#E5E1DF" cx="137.42" cy="-8.717" r="13.259"/>
							<circle fill="#E5E1DF" cx="170.461" cy="-8.83" r="13.26"/>
						</g>
						<g>
							<circle fill="#E5E1DF" cx="73.97" cy="24.76" r="13.259"/>
							<circle fill="#E5E1DF" cx="106.173" cy="24.651" r="13.259"/>
							<circle fill="#E5E1DF" cx="137.534" cy="24.544" r="13.259"/>
							<circle fill="#E5E1DF" cx="170.574" cy="24.431" r="13.26"/>
						</g>
					</g>
					<g>
						<g>
							<circle fill="#E5E1DF" cx="74.081" cy="57.38" r="13.259"/>
							<circle fill="#E5E1DF" cx="106.284" cy="57.271" r="13.259"/>
							<circle fill="#E5E1DF" cx="137.644" cy="57.164" r="13.259"/>
							<circle fill="#E5E1DF" cx="170.686" cy="57.051" r="13.26"/>
						</g>
						<g>
							<circle fill="#E5E1DF" cx="74.195" cy="90.642" r="13.259"/>
							<circle fill="#E5E1DF" cx="106.397" cy="90.532" r="13.259"/>
							<circle fill="#E5E1DF" cx="137.758" cy="90.426" r="13.26"/>
							<circle fill="#E5E1DF" cx="170.799" cy="90.313" r="13.26"/>
						</g>
					</g>
				</g>
				<g>
					<g>
						<g>
							<circle fill="#E5E1DF" cx="74.296" cy="120.306" r="13.259"/>
							<circle fill="#E5E1DF" cx="106.499" cy="120.196" r="13.259"/>
							<circle fill="#E5E1DF" cx="137.859" cy="120.089" r="13.259"/>
							<circle fill="#E5E1DF" cx="170.9" cy="119.976" r="13.259"/>
						</g>
						<g>
							<circle fill="#E5E1DF" cx="74.409" cy="153.568" r="13.259"/>
							<circle fill="#E5E1DF" cx="106.612" cy="153.458" r="13.259"/>
							<circle fill="#E5E1DF" cx="137.973" cy="153.351" r="13.259"/>
							<circle fill="#E5E1DF" cx="171.014" cy="153.239" r="13.26"/>
						</g>
					</g>
					<g>
						<g>
							<circle fill="#E5E1DF" cx="74.521" cy="186.188" r="13.259"/>
							<circle fill="#E5E1DF" cx="106.723" cy="186.078" r="13.259"/>
							<circle fill="#E5E1DF" cx="138.084" cy="185.972" r="13.259"/>
							<circle fill="#E5E1DF" cx="171.125" cy="185.859" r="13.259"/>
						</g>
						<g>
							<circle fill="#E5E1DF" cx="74.634" cy="219.45" r="13.259"/>
							<circle fill="#E5E1DF" cx="106.836" cy="219.34" r="13.259"/>
							<circle fill="#E5E1DF" cx="138.197" cy="219.233" r="13.259"/>
							<circle fill="#E5E1DF" cx="171.238" cy="219.12" r="13.259"/>
						</g>
					</g>
				</g>
			</g>
		</g>
		<g>
			<g>
				<g>
					<g>
						<g>
							<circle fill="#E5E1DF" cx="207.24" cy="-8.955" r="13.259"/>
							<circle fill="#E5E1DF" cx="239.444" cy="-9.065" r="13.258"/>
							<circle fill="#E5E1DF" cx="270.803" cy="-9.172" r="13.259"/>
							<circle fill="#E5E1DF" cx="303.846" cy="-9.285" r="13.26"/>
						</g>
						<g>
							<circle fill="#E5E1DF" cx="207.354" cy="24.306" r="13.259"/>
							<circle fill="#E5E1DF" cx="239.557" cy="24.197" r="13.258"/>
							<circle fill="#E5E1DF" cx="270.917" cy="24.089" r="13.259"/>
							<circle fill="#E5E1DF" cx="303.959" cy="23.977" r="13.259"/>
						</g>
					</g>
					<g>
						<g>
							<circle fill="#E5E1DF" cx="207.465" cy="56.926" r="13.259"/>
							<circle fill="#E5E1DF" cx="239.668" cy="56.816" r="13.258"/>
							<circle fill="#E5E1DF" cx="271.028" cy="56.709" r="13.259"/>
							<circle fill="#E5E1DF" cx="304.069" cy="56.596" r="13.259"/>
						</g>
						<g>
							<circle fill="#E5E1DF" cx="207.579" cy="90.188" r="13.258"/>
							<circle fill="#E5E1DF" cx="239.781" cy="90.078" r="13.258"/>
							<circle fill="#E5E1DF" cx="271.142" cy="89.971" r="13.259"/>
							<circle fill="#E5E1DF" cx="304.184" cy="89.858" r="13.259"/>
						</g>
					</g>
				</g>
				<g>
					<g>
						<g>
							<circle fill="#E5E1DF" cx="207.679" cy="119.851" r="13.258"/>
							<circle fill="#E5E1DF" cx="239.882" cy="119.741" r="13.258"/>
							<circle fill="#E5E1DF" cx="271.242" cy="119.635" r="13.259"/>
							<circle fill="#E5E1DF" cx="304.285" cy="119.522" r="13.26"/>
						</g>
						<g>
							<circle fill="#E5E1DF" cx="207.792" cy="153.113" r="13.259"/>
							<circle fill="#E5E1DF" cx="239.996" cy="153.004" r="13.258"/>
							<circle fill="#E5E1DF" cx="271.355" cy="152.896" r="13.259"/>
							<circle fill="#E5E1DF" cx="304.398" cy="152.784" r="13.259"/>
						</g>
					</g>
					<g>
						<g>
							<circle fill="#E5E1DF" cx="207.903" cy="185.734" r="13.259"/>
							<circle fill="#E5E1DF" cx="240.107" cy="185.624" r="13.258"/>
							<circle fill="#E5E1DF" cx="271.467" cy="185.517" r="13.259"/>
							<circle fill="#E5E1DF" cx="304.509" cy="185.405" r="13.26"/>
						</g>
						<g>
							<circle fill="#E5E1DF" cx="208.018" cy="218.995" r="13.259"/>
							<circle fill="#E5E1DF" cx="240.22" cy="218.885" r="13.258"/>
							<circle fill="#E5E1DF" cx="271.58" cy="218.779" r="13.259"/>
							<circle fill="#E5E1DF" cx="304.622" cy="218.666" r="13.259"/>
						</g>
					</g>
				</g>
			</g>
			<g>
				<g>
					<g>
						<g>
							<circle fill="#E5E1DF" cx="338.585" cy="-9.403" r="13.259"/>
							<circle fill="#E5E1DF" cx="370.789" cy="-9.513" r="13.259"/>
							<circle fill="#E5E1DF" cx="402.149" cy="-9.62" r="13.26"/>
							<circle fill="#E5E1DF" cx="435.19" cy="-9.732" r="13.26"/>
						</g>
						<g>
							<circle fill="#E5E1DF" cx="338.698" cy="23.858" r="13.259"/>
							<circle fill="#E5E1DF" cx="370.901" cy="23.748" r="13.259"/>
							<circle fill="#E5E1DF" cx="402.263" cy="23.642" r="13.259"/>
							<circle fill="#E5E1DF" cx="435.303" cy="23.529" r="13.26"/>
						</g>
					</g>
					<g>
						<g>
							<circle fill="#E5E1DF" cx="338.81" cy="56.478" r="13.258"/>
							<circle fill="#E5E1DF" cx="371.013" cy="56.368" r="13.258"/>
							<circle fill="#E5E1DF" cx="402.374" cy="56.261" r="13.259"/>
							<circle fill="#E5E1DF" cx="435.414" cy="56.149" r="13.26"/>
						</g>
						<g>
							<circle fill="#E5E1DF" cx="338.923" cy="89.74" r="13.259"/>
							<circle fill="#E5E1DF" cx="371.127" cy="89.63" r="13.259"/>
							<circle fill="#E5E1DF" cx="402.486" cy="89.523" r="13.259"/>
							<circle fill="#E5E1DF" cx="435.528" cy="89.411" r="13.26"/>
						</g>
					</g>
				</g>
				<g>
					<g>
						<g>
							<circle fill="#E5E1DF" cx="339.025" cy="119.404" r="13.259"/>
							<circle fill="#E5E1DF" cx="371.228" cy="119.294" r="13.259"/>
							<circle fill="#E5E1DF" cx="402.588" cy="119.187" r="13.259"/>
							<circle fill="#E5E1DF" cx="435.63" cy="119.075" r="13.259"/>
						</g>
						<g>
							<circle fill="#E5E1DF" cx="339.138" cy="152.665" r="13.259"/>
							<circle fill="#E5E1DF" cx="371.341" cy="152.556" r="13.259"/>
							<circle fill="#E5E1DF" cx="402.701" cy="152.449" r="13.26"/>
							<circle fill="#E5E1DF" cx="435.743" cy="152.336" r="13.26"/>
						</g>
					</g>
					<g>
						<g>
							<circle fill="#E5E1DF" cx="339.249" cy="185.286" r="13.259"/>
							<circle fill="#E5E1DF" cx="371.452" cy="185.177" r="13.259"/>
							<circle fill="#E5E1DF" cx="402.812" cy="185.07" r="13.26"/>
							<circle fill="#E5E1DF" cx="435.854" cy="184.958" r="13.26"/>
						</g>
						<g>
							<circle fill="#E5E1DF" cx="339.363" cy="218.548" r="13.259"/>
							<circle fill="#E5E1DF" cx="371.566" cy="218.438" r="13.259"/>
							<circle fill="#E5E1DF" cx="402.926" cy="218.331" r="13.259"/>
							<circle fill="#E5E1DF" cx="435.969" cy="218.218" r="13.26"/>
						</g>
					</g>
				</g>
			</g>
		</g>
	</g>
	<g>
		<g>
			<g>
				<g>
					<g>
						<g>
							<circle fill="#E5E1DF" cx="-57.489" cy="253.455" r="13.259"/>
							<circle fill="#E5E1DF" cx="-25.286" cy="253.344" r="13.259"/>
							<circle fill="#E5E1DF" cx="6.075" cy="253.238" r="13.259"/>
							<circle fill="#E5E1DF" cx="39.117" cy="253.125" r="13.26"/>
						</g>
						<g>
							<circle fill="#E5E1DF" cx="-57.375" cy="286.716" r="13.259"/>
							<circle fill="#E5E1DF" cx="-25.172" cy="286.605" r="13.259"/>
							<circle fill="#E5E1DF" cx="6.188" cy="286.499" r="13.259"/>
							<circle fill="#E5E1DF" cx="39.23" cy="286.387" r="13.26"/>
						</g>
					</g>
					<g>
						<g>
							<circle fill="#E5E1DF" cx="-57.264" cy="319.335" r="13.259"/>
							<circle fill="#E5E1DF" cx="-25.061" cy="319.227" r="13.259"/>
							<circle fill="#E5E1DF" cx="6.3" cy="319.119" r="13.259"/>
							<circle fill="#E5E1DF" cx="39.342" cy="319.006" r="13.26"/>
						</g>
						<g>
							<circle fill="#E5E1DF" cx="-57.15" cy="352.598" r="13.259"/>
							<circle fill="#E5E1DF" cx="-24.948" cy="352.488" r="13.259"/>
							<circle fill="#E5E1DF" cx="6.413" cy="352.381" r="13.259"/>
							<circle fill="#E5E1DF" cx="39.455" cy="352.269" r="13.26"/>
						</g>
					</g>
				</g>
				<g>
					<g>
						<g>
							<circle fill="#E5E1DF" cx="-57.049" cy="382.262" r="13.259"/>
							<circle fill="#E5E1DF" cx="-24.846" cy="382.152" r="13.259"/>
							<circle fill="#E5E1DF" cx="6.514" cy="382.045" r="13.259"/>
							<circle fill="#E5E1DF" cx="39.556" cy="381.932" r="13.26"/>
						</g>
						<g>
							<circle fill="#E5E1DF" cx="-56.936" cy="415.523" r="13.259"/>
							<circle fill="#E5E1DF" cx="-24.733" cy="415.414" r="13.259"/>
							<circle fill="#E5E1DF" cx="6.627" cy="415.307" r="13.259"/>
							<circle fill="#E5E1DF" cx="39.669" cy="415.193" r="13.259"/>
						</g>
					</g>
					<g>
						<g>
							<circle fill="#E5E1DF" cx="-56.825" cy="448.144" r="13.258"/>
							<circle fill="#E5E1DF" cx="-24.622" cy="448.035" r="13.258"/>
							<circle fill="#E5E1DF" cx="6.739" cy="447.927" r="13.259"/>
							<circle fill="#E5E1DF" cx="39.78" cy="447.814" r="13.259"/>
						</g>
						<g>
							<circle fill="#E5E1DF" cx="-56.712" cy="481.405" r="13.259"/>
							<circle fill="#E5E1DF" cx="-24.509" cy="481.295" r="13.259"/>
							<circle fill="#E5E1DF" cx="6.852" cy="481.189" r="13.259"/>
							<circle fill="#E5E1DF" cx="39.893" cy="481.076" r="13.26"/>
						</g>
					</g>
				</g>
			</g>
			<g>
				<g>
					<g>
						<g>
							<circle fill="#E5E1DF" cx="73.857" cy="253.007" r="13.259"/>
							<circle fill="#E5E1DF" cx="106.06" cy="252.897" r="13.259"/>
							<circle fill="#E5E1DF" cx="137.42" cy="252.791" r="13.259"/>
							<circle fill="#E5E1DF" cx="170.461" cy="252.678" r="13.26"/>
						</g>
						<g>
							<path fill="#E5E1DF" d="M87.229,286.223c0.025,7.322-5.891,13.279-13.214,13.305c-7.322,0.025-13.278-5.892-13.304-13.215
								c-0.025-7.32,5.891-13.277,13.214-13.303C81.248,272.984,87.204,278.9,87.229,286.223z"/>
							<circle fill="#E5E1DF" cx="106.173" cy="286.159" r="13.259"/>
							<circle fill="#E5E1DF" cx="137.534" cy="286.051" r="13.259"/>
							<circle fill="#E5E1DF" cx="170.574" cy="285.939" r="13.26"/>
						</g>
					</g>
					<g>
						<g>
							<circle fill="#E5E1DF" cx="74.081" cy="318.888" r="13.259"/>
							<circle fill="#E5E1DF" cx="106.284" cy="318.778" r="13.259"/>
							<circle fill="#E5E1DF" cx="137.644" cy="318.672" r="13.259"/>
							<circle fill="#E5E1DF" cx="170.686" cy="318.559" r="13.26"/>
						</g>
						<g>
							<circle fill="#E5E1DF" cx="74.195" cy="352.15" r="13.259"/>
							<circle fill="#E5E1DF" cx="106.397" cy="352.041" r="13.259"/>
							<circle fill="#E5E1DF" cx="137.758" cy="351.933" r="13.26"/>
							<circle fill="#E5E1DF" cx="170.799" cy="351.82" r="13.26"/>
						</g>
					</g>
				</g>
				<g>
					<g>
						<g>
							<circle fill="#E5E1DF" cx="74.296" cy="381.814" r="13.259"/>
							<circle fill="#E5E1DF" cx="106.499" cy="381.704" r="13.259"/>
							<circle fill="#E5E1DF" cx="137.859" cy="381.597" r="13.259"/>
							<circle fill="#E5E1DF" cx="170.9" cy="381.484" r="13.259"/>
						</g>
						<g>
							<circle fill="#E5E1DF" cx="74.409" cy="415.076" r="13.259"/>
							<circle fill="#E5E1DF" cx="106.612" cy="414.966" r="13.259"/>
							<circle fill="#E5E1DF" cx="137.973" cy="414.859" r="13.259"/>
							<circle fill="#E5E1DF" cx="171.014" cy="414.746" r="13.26"/>
						</g>
					</g>
					<g>
						<g>
							<circle fill="#E5E1DF" cx="74.521" cy="447.696" r="13.259"/>
							<circle fill="#E5E1DF" cx="106.723" cy="447.586" r="13.259"/>
							<circle fill="#E5E1DF" cx="138.084" cy="447.479" r="13.259"/>
							<circle fill="#E5E1DF" cx="171.125" cy="447.367" r="13.259"/>
						</g>
						<g>
							<circle fill="#E5E1DF" cx="74.634" cy="480.957" r="13.259"/>
							<circle fill="#E5E1DF" cx="106.836" cy="480.848" r="13.259"/>
							<circle fill="#E5E1DF" cx="138.197" cy="480.741" r="13.259"/>
							<circle fill="#E5E1DF" cx="171.238" cy="480.628" r="13.259"/>
						</g>
					</g>
				</g>
			</g>
		</g>
		<g>
			<g>
				<g>
					<g>
						<g>
							<circle fill="#E5E1DF" cx="207.24" cy="252.553" r="13.259"/>
							<circle fill="#E5E1DF" cx="239.444" cy="252.443" r="13.258"/>
							<circle fill="#E5E1DF" cx="270.803" cy="252.336" r="13.259"/>
							<circle fill="#E5E1DF" cx="303.846" cy="252.223" r="13.26"/>
						</g>
						<g>
							<circle fill="#E5E1DF" cx="207.354" cy="285.813" r="13.259"/>
							<circle fill="#E5E1DF" cx="239.557" cy="285.705" r="13.258"/>
							<circle fill="#E5E1DF" cx="270.917" cy="285.597" r="13.259"/>
							<circle fill="#E5E1DF" cx="303.959" cy="285.484" r="13.259"/>
						</g>
					</g>
					<g>
						<g>
							<circle fill="#E5E1DF" cx="207.465" cy="318.434" r="13.259"/>
							<circle fill="#E5E1DF" cx="239.668" cy="318.324" r="13.258"/>
							<circle fill="#E5E1DF" cx="271.028" cy="318.217" r="13.259"/>
							<circle fill="#E5E1DF" cx="304.069" cy="318.104" r="13.259"/>
						</g>
						<g>
							<circle fill="#E5E1DF" cx="207.579" cy="351.695" r="13.258"/>
							<circle fill="#E5E1DF" cx="239.781" cy="351.586" r="13.258"/>
							<circle fill="#E5E1DF" cx="271.142" cy="351.479" r="13.259"/>
							<circle fill="#E5E1DF" cx="304.184" cy="351.366" r="13.259"/>
						</g>
					</g>
				</g>
				<g>
					<g>
						<g>
							<circle fill="#E5E1DF" cx="207.679" cy="381.359" r="13.258"/>
							<circle fill="#E5E1DF" cx="239.882" cy="381.25" r="13.258"/>
							<circle fill="#E5E1DF" cx="271.242" cy="381.142" r="13.259"/>
							<circle fill="#E5E1DF" cx="304.285" cy="381.029" r="13.26"/>
						</g>
						<g>
							<circle fill="#E5E1DF" cx="207.792" cy="414.621" r="13.259"/>
							<circle fill="#E5E1DF" cx="239.996" cy="414.512" r="13.258"/>
							<circle fill="#E5E1DF" cx="271.355" cy="414.404" r="13.259"/>
							<circle fill="#E5E1DF" cx="304.398" cy="414.292" r="13.259"/>
						</g>
					</g>
					<g>
						<g>
							<circle fill="#E5E1DF" cx="207.903" cy="447.242" r="13.259"/>
							<circle fill="#E5E1DF" cx="240.107" cy="447.132" r="13.258"/>
							<circle fill="#E5E1DF" cx="271.467" cy="447.025" r="13.259"/>
							<circle fill="#E5E1DF" cx="304.509" cy="446.913" r="13.26"/>
						</g>
						<g>
							<circle fill="#E5E1DF" cx="208.018" cy="480.502" r="13.259"/>
							<circle fill="#E5E1DF" cx="240.22" cy="480.393" r="13.258"/>
							<circle fill="#E5E1DF" cx="271.58" cy="480.287" r="13.259"/>
							<circle fill="#E5E1DF" cx="304.622" cy="480.174" r="13.259"/>
						</g>
					</g>
				</g>
			</g>
			<g>
				<g>
					<g>
						<g>
							<circle fill="#E5E1DF" cx="338.585" cy="252.105" r="13.259"/>
							<circle fill="#E5E1DF" cx="370.789" cy="251.995" r="13.259"/>
							<circle fill="#E5E1DF" cx="402.149" cy="251.889" r="13.26"/>
							<circle fill="#E5E1DF" cx="435.19" cy="251.775" r="13.26"/>
						</g>
						<g>
							<circle fill="#E5E1DF" cx="338.698" cy="285.366" r="13.259"/>
							<circle fill="#E5E1DF" cx="370.901" cy="285.256" r="13.259"/>
							<circle fill="#E5E1DF" cx="402.263" cy="285.15" r="13.259"/>
							<circle fill="#E5E1DF" cx="435.303" cy="285.037" r="13.26"/>
						</g>
					</g>
					<g>
						<g>
							<circle fill="#E5E1DF" cx="338.81" cy="317.986" r="13.258"/>
							<circle fill="#E5E1DF" cx="371.013" cy="317.875" r="13.258"/>
							<circle fill="#E5E1DF" cx="402.374" cy="317.77" r="13.259"/>
							<circle fill="#E5E1DF" cx="435.414" cy="317.657" r="13.26"/>
						</g>
						<g>
							<circle fill="#E5E1DF" cx="338.923" cy="351.248" r="13.259"/>
							<circle fill="#E5E1DF" cx="371.127" cy="351.139" r="13.259"/>
							<circle fill="#E5E1DF" cx="402.486" cy="351.031" r="13.259"/>
							<circle fill="#E5E1DF" cx="435.528" cy="350.918" r="13.26"/>
						</g>
					</g>
				</g>
				<g>
					<g>
						<g>
							<circle fill="#E5E1DF" cx="339.025" cy="380.912" r="13.259"/>
							<circle fill="#E5E1DF" cx="371.228" cy="380.802" r="13.259"/>
							<circle fill="#E5E1DF" cx="402.588" cy="380.695" r="13.259"/>
							<circle fill="#E5E1DF" cx="435.63" cy="380.582" r="13.259"/>
						</g>
						<g>
							<circle fill="#E5E1DF" cx="339.138" cy="414.173" r="13.259"/>
							<circle fill="#E5E1DF" cx="371.341" cy="414.063" r="13.259"/>
							<circle fill="#E5E1DF" cx="402.701" cy="413.957" r="13.26"/>
							<circle fill="#E5E1DF" cx="435.743" cy="413.844" r="13.26"/>
						</g>
					</g>
					<g>
						<g>
							<circle fill="#E5E1DF" cx="339.249" cy="446.794" r="13.259"/>
							<circle fill="#E5E1DF" cx="371.452" cy="446.684" r="13.259"/>
							<circle fill="#E5E1DF" cx="402.812" cy="446.578" r="13.26"/>
							<circle fill="#E5E1DF" cx="435.854" cy="446.465" r="13.26"/>
						</g>
						<g>
							<circle fill="#E5E1DF" cx="339.363" cy="480.055" r="13.259"/>
							<circle fill="#E5E1DF" cx="371.566" cy="479.945" r="13.259"/>
							<circle fill="#E5E1DF" cx="402.926" cy="479.839" r="13.259"/>
							<circle fill="#E5E1DF" cx="435.969" cy="479.727" r="13.26"/>
						</g>
					</g>
				</g>
			</g>
		</g>
	</g>
</g>
<g>
	<g>
		<g>
			<g>
				<g>
					<g>
						<circle fill="#E5E1DF" cx="-57.489" cy="512.941" r="13.259"/>
						<circle fill="#E5E1DF" cx="-25.286" cy="512.831" r="13.259"/>
						<circle fill="#E5E1DF" cx="6.075" cy="512.725" r="13.259"/>
						<circle fill="#E5E1DF" cx="39.117" cy="512.612" r="13.26"/>
					</g>
					<g>
						<circle fill="#E5E1DF" cx="-57.375" cy="546.202" r="13.259"/>
						<circle fill="#E5E1DF" cx="-25.172" cy="546.092" r="13.259"/>
						<circle fill="#E5E1DF" cx="6.188" cy="545.985" r="13.259"/>
						<circle fill="#E5E1DF" cx="39.23" cy="545.873" r="13.26"/>
					</g>
				</g>
				<g>
					<g>
						<circle fill="#E5E1DF" cx="-57.264" cy="578.822" r="13.259"/>
						<circle fill="#E5E1DF" cx="-25.061" cy="578.713" r="13.259"/>
						<circle fill="#E5E1DF" cx="6.3" cy="578.605" r="13.259"/>
						<circle fill="#E5E1DF" cx="39.342" cy="578.493" r="13.26"/>
					</g>
					<g>
						<circle fill="#E5E1DF" cx="-57.15" cy="612.084" r="13.259"/>
						<circle fill="#E5E1DF" cx="-24.948" cy="611.974" r="13.259"/>
						<circle fill="#E5E1DF" cx="6.413" cy="611.867" r="13.259"/>
						<circle fill="#E5E1DF" cx="39.455" cy="611.755" r="13.26"/>
					</g>
				</g>
			</g>
			<g>
				<g>
					<g>
						<circle fill="#E5E1DF" cx="-57.049" cy="641.748" r="13.259"/>
						<circle fill="#E5E1DF" cx="-24.846" cy="641.638" r="13.259"/>
						<circle fill="#E5E1DF" cx="6.514" cy="641.531" r="13.259"/>
						<circle fill="#E5E1DF" cx="39.556" cy="641.418" r="13.26"/>
					</g>
					<g>
						<circle fill="#E5E1DF" cx="-56.936" cy="675.01" r="13.259"/>
						<circle fill="#E5E1DF" cx="-24.733" cy="674.9" r="13.259"/>
						<circle fill="#E5E1DF" cx="6.627" cy="674.793" r="13.259"/>
						<circle fill="#E5E1DF" cx="39.669" cy="674.68" r="13.259"/>
					</g>
				</g>
				<g>
					<g>
						<circle fill="#E5E1DF" cx="-56.825" cy="707.63" r="13.258"/>
						<circle fill="#E5E1DF" cx="-24.622" cy="707.521" r="13.258"/>
						<circle fill="#E5E1DF" cx="6.739" cy="707.414" r="13.259"/>
						<circle fill="#E5E1DF" cx="39.78" cy="707.301" r="13.259"/>
					</g>
					<g>
						<circle fill="#E5E1DF" cx="-56.712" cy="740.891" r="13.259"/>
						<circle fill="#E5E1DF" cx="-24.509" cy="740.782" r="13.259"/>
						<circle fill="#E5E1DF" cx="6.852" cy="740.675" r="13.259"/>
						<circle fill="#E5E1DF" cx="39.893" cy="740.562" r="13.26"/>
					</g>
				</g>
			</g>
		</g>
		<g>
			<g>
				<g>
					<g>
						<circle fill="#E5E1DF" cx="73.857" cy="512.494" r="13.259"/>
						<circle fill="#E5E1DF" cx="106.06" cy="512.383" r="13.259"/>
						<circle fill="#E5E1DF" cx="137.42" cy="512.277" r="13.259"/>
						<circle fill="#E5E1DF" cx="170.461" cy="512.164" r="13.26"/>
					</g>
					<g>
						<path fill="#E5E1DF" d="M87.229,545.709c0.025,7.322-5.891,13.279-13.214,13.305c-7.322,0.025-13.278-5.892-13.304-13.215
							c-0.025-7.32,5.891-13.277,13.214-13.303C81.248,532.471,87.204,538.387,87.229,545.709z"/>
						<circle fill="#E5E1DF" cx="106.173" cy="545.645" r="13.259"/>
						<circle fill="#E5E1DF" cx="137.534" cy="545.538" r="13.259"/>
						<circle fill="#E5E1DF" cx="170.574" cy="545.426" r="13.26"/>
					</g>
				</g>
				<g>
					<g>
						<circle fill="#E5E1DF" cx="74.081" cy="578.375" r="13.259"/>
						<circle fill="#E5E1DF" cx="106.284" cy="578.265" r="13.259"/>
						<circle fill="#E5E1DF" cx="137.644" cy="578.158" r="13.259"/>
						<circle fill="#E5E1DF" cx="170.686" cy="578.045" r="13.26"/>
					</g>
					<g>
						<circle fill="#E5E1DF" cx="74.195" cy="611.637" r="13.259"/>
						<circle fill="#E5E1DF" cx="106.397" cy="611.527" r="13.259"/>
						<circle fill="#E5E1DF" cx="137.758" cy="611.419" r="13.26"/>
						<circle fill="#E5E1DF" cx="170.799" cy="611.307" r="13.26"/>
					</g>
				</g>
			</g>
			<g>
				<g>
					<g>
						<circle fill="#E5E1DF" cx="74.296" cy="641.301" r="13.259"/>
						<circle fill="#E5E1DF" cx="106.499" cy="641.19" r="13.259"/>
						<circle fill="#E5E1DF" cx="137.859" cy="641.083" r="13.259"/>
						<circle fill="#E5E1DF" cx="170.9" cy="640.971" r="13.259"/>
					</g>
					<g>
						<circle fill="#E5E1DF" cx="74.409" cy="674.562" r="13.259"/>
						<circle fill="#E5E1DF" cx="106.612" cy="674.452" r="13.259"/>
						<circle fill="#E5E1DF" cx="137.973" cy="674.346" r="13.259"/>
						<circle fill="#E5E1DF" cx="171.014" cy="674.232" r="13.26"/>
					</g>
				</g>
				<g>
					<g>
						<circle fill="#E5E1DF" cx="74.521" cy="707.182" r="13.259"/>
						<circle fill="#E5E1DF" cx="106.723" cy="707.072" r="13.259"/>
						<circle fill="#E5E1DF" cx="138.084" cy="706.966" r="13.259"/>
						<circle fill="#E5E1DF" cx="171.125" cy="706.853" r="13.259"/>
					</g>
					<g>
						<circle fill="#E5E1DF" cx="74.634" cy="740.443" r="13.259"/>
						<circle fill="#E5E1DF" cx="106.836" cy="740.334" r="13.259"/>
						<circle fill="#E5E1DF" cx="138.197" cy="740.227" r="13.259"/>
						<circle fill="#E5E1DF" cx="171.238" cy="740.114" r="13.259"/>
					</g>
				</g>
			</g>
		</g>
	</g>
	<g>
		<g>
			<g>
				<g>
					<g>
						<circle fill="#E5E1DF" cx="207.24" cy="512.039" r="13.259"/>
						<circle fill="#E5E1DF" cx="239.444" cy="511.93" r="13.258"/>
						<circle fill="#E5E1DF" cx="270.803" cy="511.822" r="13.259"/>
						<circle fill="#E5E1DF" cx="303.846" cy="511.709" r="13.26"/>
					</g>
					<g>
						<circle fill="#E5E1DF" cx="207.354" cy="545.3" r="13.259"/>
						<circle fill="#E5E1DF" cx="239.557" cy="545.191" r="13.258"/>
						<circle fill="#E5E1DF" cx="270.917" cy="545.083" r="13.259"/>
						<circle fill="#E5E1DF" cx="303.959" cy="544.971" r="13.259"/>
					</g>
				</g>
				<g>
					<g>
						<circle fill="#E5E1DF" cx="207.465" cy="577.92" r="13.259"/>
						<circle fill="#E5E1DF" cx="239.668" cy="577.81" r="13.258"/>
						<circle fill="#E5E1DF" cx="271.028" cy="577.703" r="13.259"/>
						<circle fill="#E5E1DF" cx="304.069" cy="577.59" r="13.259"/>
					</g>
					<g>
						<circle fill="#E5E1DF" cx="207.579" cy="611.182" r="13.258"/>
						<circle fill="#E5E1DF" cx="239.781" cy="611.072" r="13.258"/>
						<circle fill="#E5E1DF" cx="271.142" cy="610.965" r="13.259"/>
						<circle fill="#E5E1DF" cx="304.184" cy="610.853" r="13.259"/>
					</g>
				</g>
			</g>
			<g>
				<g>
					<g>
						<circle fill="#E5E1DF" cx="207.679" cy="640.846" r="13.258"/>
						<circle fill="#E5E1DF" cx="239.882" cy="640.736" r="13.258"/>
						<circle fill="#E5E1DF" cx="271.242" cy="640.628" r="13.259"/>
						<circle fill="#E5E1DF" cx="304.285" cy="640.516" r="13.26"/>
					</g>
					<g>
						<circle fill="#E5E1DF" cx="207.792" cy="674.107" r="13.259"/>
						<circle fill="#E5E1DF" cx="239.996" cy="673.998" r="13.258"/>
						<circle fill="#E5E1DF" cx="271.355" cy="673.891" r="13.259"/>
						<circle fill="#E5E1DF" cx="304.398" cy="673.778" r="13.259"/>
					</g>
				</g>
				<g>
					<g>
						<circle fill="#E5E1DF" cx="207.903" cy="706.728" r="13.259"/>
						<circle fill="#E5E1DF" cx="240.107" cy="706.618" r="13.258"/>
						<circle fill="#E5E1DF" cx="271.467" cy="706.512" r="13.259"/>
						<circle fill="#E5E1DF" cx="304.509" cy="706.399" r="13.26"/>
					</g>
					<g>
						<circle fill="#E5E1DF" cx="208.018" cy="739.989" r="13.259"/>
						<circle fill="#E5E1DF" cx="240.22" cy="739.879" r="13.258"/>
						<circle fill="#E5E1DF" cx="271.58" cy="739.773" r="13.259"/>
						<circle fill="#E5E1DF" cx="304.622" cy="739.66" r="13.259"/>
					</g>
				</g>
			</g>
		</g>
		<g>
			<g>
				<g>
					<g>
						<circle fill="#E5E1DF" cx="338.585" cy="511.591" r="13.259"/>
						<circle fill="#E5E1DF" cx="370.789" cy="511.481" r="13.259"/>
						<circle fill="#E5E1DF" cx="402.149" cy="511.375" r="13.26"/>
						<circle fill="#E5E1DF" cx="435.19" cy="511.262" r="13.26"/>
					</g>
					<g>
						<circle fill="#E5E1DF" cx="338.698" cy="544.852" r="13.259"/>
						<circle fill="#E5E1DF" cx="370.901" cy="544.742" r="13.259"/>
						<circle fill="#E5E1DF" cx="402.263" cy="544.636" r="13.259"/>
						<circle fill="#E5E1DF" cx="435.303" cy="544.523" r="13.26"/>
					</g>
				</g>
				<g>
					<g>
						<circle fill="#E5E1DF" cx="338.81" cy="577.472" r="13.258"/>
						<circle fill="#E5E1DF" cx="371.013" cy="577.362" r="13.258"/>
						<circle fill="#E5E1DF" cx="402.374" cy="577.256" r="13.259"/>
						<circle fill="#E5E1DF" cx="435.414" cy="577.143" r="13.26"/>
					</g>
					<g>
						<circle fill="#E5E1DF" cx="338.923" cy="610.734" r="13.259"/>
						<circle fill="#E5E1DF" cx="371.127" cy="610.625" r="13.259"/>
						<circle fill="#E5E1DF" cx="402.486" cy="610.518" r="13.259"/>
						<circle fill="#E5E1DF" cx="435.528" cy="610.404" r="13.26"/>
					</g>
				</g>
			</g>
			<g>
				<g>
					<g>
						<circle fill="#E5E1DF" cx="339.025" cy="640.398" r="13.259"/>
						<circle fill="#E5E1DF" cx="371.228" cy="640.288" r="13.259"/>
						<circle fill="#E5E1DF" cx="402.588" cy="640.181" r="13.259"/>
						<circle fill="#E5E1DF" cx="435.63" cy="640.068" r="13.259"/>
					</g>
					<g>
						<circle fill="#E5E1DF" cx="339.138" cy="673.66" r="13.259"/>
						<circle fill="#E5E1DF" cx="371.341" cy="673.55" r="13.259"/>
						<circle fill="#E5E1DF" cx="402.701" cy="673.443" r="13.26"/>
						<circle fill="#E5E1DF" cx="435.743" cy="673.331" r="13.26"/>
					</g>
				</g>
				<g>
					<g>
						<circle fill="#E5E1DF" cx="339.249" cy="706.281" r="13.259"/>
						<circle fill="#E5E1DF" cx="371.452" cy="706.17" r="13.259"/>
						<circle fill="#E5E1DF" cx="402.812" cy="706.064" r="13.26"/>
						<circle fill="#E5E1DF" cx="435.854" cy="705.952" r="13.26"/>
					</g>
					<g>
						<circle fill="#E5E1DF" cx="339.363" cy="739.542" r="13.259"/>
						<circle fill="#E5E1DF" cx="371.566" cy="739.432" r="13.259"/>
						<circle fill="#E5E1DF" cx="402.926" cy="739.325" r="13.259"/>
						<circle fill="#E5E1DF" cx="435.969" cy="739.213" r="13.26"/>
					</g>
				</g>
			</g>
		</g>
	</g>
</g>
</svg>
