<?xml version="1.0" encoding="utf-8"?>
<!-- Generator: Adobe Illustrator 16.0.3, SVG Export Plug-In . SVG Version: 6.00 Build 0)  -->
<!DOCTYPE svg PUBLIC "-//W3C//DTD SVG 1.1//EN" "http://www.w3.org/Graphics/SVG/1.1/DTD/svg11.dtd">
<svg version="1.1" id="Layer_1" xmlns="http://www.w3.org/2000/svg" xmlns:xlink="http://www.w3.org/1999/xlink" x="0px" y="0px"
	 width="144px" height="144px" viewBox="0 0 144 144" enable-background="new 0 0 144 144" xml:space="preserve">
<circle fill="#F1EE8C" cx="72.375" cy="73.456" r="60.887"/>
<path fill="#465F7F" d="M72.319,6.916c-36.744,0-66.528,29.786-66.528,66.528c0,36.743,29.785,66.528,66.528,66.528
	c36.743,0,66.527-29.785,66.527-66.528C138.846,36.701,109.062,6.916,72.319,6.916z M72.319,131.677
	c-32.163,0-58.233-26.072-58.233-58.233S40.156,15.21,72.319,15.21c32.16,0,58.232,26.072,58.232,58.233
	S104.479,131.677,72.319,131.677z"/>
<g>
	<g>
		<g>
			<g>
				<path fill="#465F7F" d="M80.717,61.169c0,0-3.864-18.779,0.912-39.034c0,0,1.78-7.368,5.563,0.734
					c3.785,8.103,13.825,30.826,7.097,48.121L80.717,61.169z"/>
			</g>
		</g>
		<g>
			<g>
				<path fill="#465F7F" d="M84.037,59.17c0,0-2.104-12.839-0.745-28.875c0,0,0.995-8.238,3.287-2.473
					c5.256,13.232,8.495,29.28,5.491,37.508L84.037,59.17z"/>
			</g>
		</g>
	</g>
	<g>
		<g>
			<path fill="#465F7F" d="M61.257,61.169c0,0,5.392-18.4,2.286-38.979c0,0-1.169-7.489-5.604,0.276
				c-4.436,7.767-16.302,29.59-11.013,47.375L61.257,61.169z"/>
		</g>
	</g>
	<g>
		<g>
			<g>
				<path fill="#465F7F" d="M72.523,46.928c0.229,1.349,0.08,2.442-0.181,3.46c-0.274,1.008-0.7,1.918-1.252,2.742
					c-0.549,0.824-1.231,1.558-2.061,2.194c-0.847,0.625-1.807,1.172-3.146,1.466c-0.235-1.352-0.087-2.447,0.172-3.465
					c0.278-1.007,0.703-1.917,1.26-2.739c0.556-0.819,1.236-1.555,2.066-2.189C70.229,47.772,71.188,47.223,72.523,46.928z"/>
			</g>
		</g>
		<g>
			<g>
				<path fill="#465F7F" d="M76.995,49.026c0.23,1.347,0.082,2.443-0.176,3.461c-0.279,1.008-0.706,1.917-1.254,2.741
					c-0.552,0.823-1.234,1.559-2.065,2.193c-0.845,0.626-1.804,1.175-3.144,1.468c-0.232-1.354-0.088-2.448,0.176-3.466
					c0.275-1.008,0.699-1.917,1.254-2.738c0.556-0.82,1.239-1.555,2.069-2.19C74.701,49.871,75.66,49.32,76.995,49.026z"/>
			</g>
		</g>
	</g>
	<g>
		<g>
			<g>
				<path fill="#465F7F" d="M97.105,79.667c-0.437-2.354-1.506-7.03-1.506-7.03c-2.021-11.129-11.821-19.729-24.536-19.729v70.467
					c16.787,0,28.879-11.663,28.879-26.053C99.942,90.502,98.304,86.127,97.105,79.667z"/>
			</g>
		</g>
		<g>
			<g>
				<g>
					<path fill="#465F7F" d="M45.041,79.667c0.435-2.354,1.505-7.03,1.505-7.03c2.024-11.129,11.821-19.729,24.534-19.729v70.467
						c-16.785,0-28.877-11.663-28.877-26.053C42.204,90.502,43.843,86.127,45.041,79.667z"/>
				</g>
			</g>
		</g>
	</g>
	<g>
		<g>
			<path fill="#465F7F" d="M94.842,109.568c0,8.589-10.646,15.556-23.778,15.556c-13.13,0-23.776-6.967-23.776-15.556
				c0-8.595,10.646-15.557,23.776-15.557C84.196,94.012,94.842,100.974,94.842,109.568z"/>
		</g>
	</g>
</g>
<g>
	<g>
		<path fill="#718BA5" d="M83.633,55.895c0,0-1.953-11.595-0.691-26.075c0,0,0.922-7.44,3.05-2.233
			c4.877,11.949,7.884,26.44,5.096,33.87L83.633,55.895z"/>
	</g>
</g>
<g>
	<g>
		<path fill="#718BA5" d="M59.352,55.986c0,0,2.922-11.401,2.882-25.932c0,0-0.292-7.489-2.85-2.47
			c-5.867,11.521-10.033,25.737-7.878,33.364L59.352,55.986z"/>
	</g>
</g>
<g>
	<g>
		<path fill="#465F7F" d="M95.462,108.352c0,9.195-10.884,16.651-24.312,16.651c-13.425,0-24.311-7.456-24.311-16.651
			c0-9.199,10.887-16.652,24.311-16.652C84.578,91.699,95.462,99.152,95.462,108.352z"/>
	</g>
</g>
<g>
	<g>
		<path fill="#9C9B9B" d="M94.341,111.27c0,8.238-10.211,14.919-22.808,14.919c-12.594,0-22.806-6.682-22.806-14.919
			c0-8.244,10.212-14.925,22.806-14.925C84.13,96.345,94.341,103.025,94.341,111.27z"/>
	</g>
</g>
<g>
	<g>
		<g>
			<circle fill="#3E3E3D" cx="57.925" cy="108.961" r="3.275"/>
		</g>
	</g>
	<g>
		<g>
			<path fill="#3E3E3D" d="M85.218,105.687c1.811,0,3.277,1.466,3.277,3.274c0,1.81-1.467,3.275-3.277,3.275
				c-1.807,0-3.274-1.466-3.274-3.275C81.943,107.152,83.411,105.687,85.218,105.687z"/>
		</g>
	</g>
</g>
<path fill="#3E3E3D" d="M71.859,122.801c-9.591,0-16.294-4.985-16.576-5.195"/>
</svg>
