<?xml version="1.0" encoding="utf-8"?>
<!-- Generator: Adobe Illustrator 16.0.3, SVG Export Plug-In . SVG Version: 6.00 Build 0)  -->
<!DOCTYPE svg PUBLIC "-//W3C//DTD SVG 1.1//EN" "http://www.w3.org/Graphics/SVG/1.1/DTD/svg11.dtd" [
	<!ENTITY ns_flows "http://ns.adobe.com/Flows/1.0/">
	<!ENTITY ns_extend "http://ns.adobe.com/Extensibility/1.0/">
	<!ENTITY ns_ai "http://ns.adobe.com/AdobeIllustrator/10.0/">
	<!ENTITY ns_graphs "http://ns.adobe.com/Graphs/1.0/">
]>
<svg version="1.1" id="Layer_1" xmlns:x="&ns_extend;" xmlns:i="&ns_ai;" xmlns:graph="&ns_graphs;"
	 xmlns="http://www.w3.org/2000/svg" xmlns:xlink="http://www.w3.org/1999/xlink" xmlns:a="http://ns.adobe.com/AdobeSVGViewerExtensions/3.0/"
	 x="0px" y="0px" width="108px" height="108px" viewBox="0 0 108 108" enable-background="new 0 0 108 108" xml:space="preserve">
<g>
	<g>
		<g>
			<g>
				<g>
					<path fill="#5EAABC" d="M62.106,67.396c0,0,2.404,14.821,11.545,28.315c0,0,3.355,4.896,3.867-2.09
						c0.512-6.988,1.527-26.411-8.217-37.196L62.106,67.396z"/>
				</g>
			</g>
			<g>
				<g>
					<path fill="#CD637A" d="M65.091,67.936c0,0,2.036,9.983,7.503,21.337c0,0,3.026,5.752,3.093,0.898
						c0.163-11.15-1.982-23.791-6.478-28.975L65.091,67.936z"/>
				</g>
			</g>
		</g>
	</g>
	<g>
		<g>
			<g>
				<g>
					<path fill="#45677B" d="M44.973,66.562c0,0-3.334,14.64-13.308,27.53c0,0-3.655,4.676-3.727-2.324
						c-0.071-7.008,0.141-26.458,10.544-36.608L44.973,66.562z"/>
				</g>
			</g>
			<g>
				<g>
					<path fill="#C04A60" d="M41.959,66.912c0,0-2.663,9.835-8.833,20.821c0,0-3.382,5.551-3.142,0.703
						c0.541-11.135,3.478-23.619,8.287-28.509L41.959,66.912z"/>
				</g>
			</g>
		</g>
	</g>
	<g>
		<g>
			<g>
				<g opacity="0.39">
					<g>
						<path fill="#C6CCD6" d="M53.753,92.7c6.817,0,12.566-3.455,14.402-8.193c-1.836-6.33-7.585-9.789-14.402-9.789
							c-6.822,0-12.57,3.459-14.406,9.789C41.183,89.245,46.933,92.7,53.753,92.7z"/>
					</g>
				</g>
				<g>
					<g>
						<path fill="#45677B" d="M53.753,92.7c6.817,0,12.566-3.455,14.402-8.193c-1.836-6.33-7.585-9.789-14.402-9.789
							c-6.822,0-12.57,3.459-14.406,9.789C41.183,89.245,46.933,92.7,53.753,92.7z"/>
					</g>
				</g>
				<g>
					<g>
						<path fill="#45677B" d="M39.348,84.509c-0.401,1.373-0.623,2.879-0.623,4.516c0,6.311,3.902,11.43,15.029,11.43V92.7
							C46.933,92.7,41.183,89.245,39.348,84.509z"/>
					</g>
				</g>
				<g>
					<g>
						<path fill="#5EAABC" d="M68.122,84.509c0.399,1.373,0.621,2.879,0.621,4.516c0,6.311-3.816,11.752-15.028,11.43V92.7
							C60.536,92.7,66.286,89.245,68.122,84.509z"/>
					</g>
				</g>
			</g>
		</g>
		<g>
			<g>
				<g>
					<rect x="44.638" y="96.458" fill="#45677B" width="6.259" height="8.629"/>
				</g>
			</g>
			<g>
				<g>
					<rect x="56.605" y="96.458" fill="#5EAABC" width="6.262" height="8.629"/>
				</g>
			</g>
			<g>
				<g>
					<g>
						<path fill="#3F3F3E" d="M47.703,106.206c0.264,0,0.479,0.219,0.479,0.482v1.199h5.035c0-3.01-2.439-5.447-5.449-5.447
							c-3.008,0-5.447,2.438-5.447,5.447h4.902v-1.199C47.222,106.421,47.435,106.206,47.703,106.206z"/>
					</g>
				</g>
			</g>
			<g>
				<g>
					<g>
						<path fill="#3F3F3E" d="M59.668,106.206c0.267,0,0.485,0.219,0.485,0.482v1.199h5.035c0-3.01-2.44-5.447-5.448-5.447
							c-3.014,0-5.452,2.438-5.452,5.447h4.906v-1.199C59.194,106.421,59.407,106.206,59.668,106.206z"/>
					</g>
				</g>
			</g>
		</g>
	</g>
	<g>
		<g>
			<g>
				<g>
					<path fill="#45677B" d="M44.692,41.859c0.835-0.223,1.531-0.193,2.188-0.093c0.65,0.118,1.25,0.329,1.799,0.63
						c0.549,0.297,1.053,0.682,1.502,1.166c0.443,0.495,0.845,1.066,1.109,1.893c-0.836,0.229-1.535,0.199-2.191,0.098
						c-0.649-0.115-1.246-0.33-1.796-0.633c-1.461-1.062-2.117-1.84-1.502-1.17C45.36,43.254,44.956,42.683,44.692,41.859z"/>
				</g>
			</g>
			<g>
				<g>
					<path fill="#5EAABC" d="M51.466,38.666c0.666,0.551,1.049,1.135,1.347,1.729c0.285,0.598,0.458,1.207,0.534,1.828
						c0.08,0.619,0.053,1.256-0.079,1.904c-0.146,0.646-0.376,1.307-0.896,2c-0.67-0.551-1.056-1.133-1.35-1.729
						c-0.283-0.597-0.458-1.208-0.529-1.828c-0.073-0.622-0.055-1.255,0.08-1.901C50.721,40.02,50.946,39.358,51.466,38.666z"/>
				</g>
			</g>
		</g>
		<g>
			<g>
				<g>
					<path fill="#5EAABC" d="M70.188,60.297c-0.278-1.486-0.953-4.442-0.953-4.442c-1.276-7.035-7.472-12.47-15.507-12.47v44.536
						c10.61,0,18.25-7.371,18.25-16.466C71.978,67.145,70.941,64.379,70.188,60.297z"/>
				</g>
			</g>
			<g>
				<g>
					<g>
						<path fill="#45677B" d="M37.282,60.297c0.276-1.486,0.95-4.442,0.95-4.442c1.278-7.035,7.473-12.47,15.506-12.47v44.536
							c-10.606,0-18.249-7.371-18.249-16.466C35.488,67.145,36.525,64.379,37.282,60.297z"/>
					</g>
				</g>
			</g>
		</g>
		<g>
			<g>
				<path fill="#9C9B9B" d="M68.754,79.194c0,5.43-6.729,9.828-15.027,9.828c-8.299,0-15.025-4.398-15.025-9.828
					c0-5.432,6.729-9.831,15.025-9.831C62.024,69.363,68.754,73.763,68.754,79.194z"/>
			</g>
		</g>
		<g>
			<g>
				<g>
					<circle fill="#3F3F3E" cx="44.762" cy="77.677" r="2.158"/>
				</g>
			</g>
			<g>
				<g>
					<circle fill="#3F3F3E" cx="62.744" cy="77.677" r="2.158"/>
				</g>
			</g>
		</g>
		<g>
			<g>
				<g>
					<circle fill="#A55E5F" cx="45.527" cy="59.769" r="3.446"/>
				</g>
			</g>
		</g>
		<g>
			<g>
				<g>
					<circle fill="#A55E5F" cx="62.991" cy="59.769" r="3.446"/>
				</g>
			</g>
		</g>
		<g>
			<g>
				<g>
					<circle fill="#3F3F3E" cx="62.991" cy="59.769" r="1.931"/>
				</g>
			</g>
		</g>
		<g>
			<g>
				<circle fill="#FFFFFF" cx="46.294" cy="59.314" r="0.682"/>
			</g>
		</g>
		<g>
			<g>
				<circle fill="#FFFFFF" cx="63.99" cy="59.366" r="0.683"/>
			</g>
		</g>
		<g>
			<g>
				<g>
					<path fill="#F2F4EB" d="M50.514,84.95c0,1.332,0.612,1.309,1.41,1.406l0,0c0.882,0.062,1.413,0.064,1.413-1.406v-0.898
						c0,0.15-2.821-0.209-2.821-0.209v1.107H50.514z"/>
				</g>
			</g>
			<g>
				<g>
					<path fill="#F6F9F2" d="M56.575,84.603c0,1.336-0.61,1.311-1.41,1.41l0,0c-0.885,0.061-1.408,0.064-1.408-1.41v-0.896
						c0,0.15,2.554,0.484,2.554,0.484L56.575,84.603L56.575,84.603z"/>
				</g>
			</g>
		</g>
		<g>
			<g>
				<g>
					<circle fill="#3F3F3E" cx="45.527" cy="59.769" r="1.931"/>
				</g>
			</g>
		</g>
	</g>
	<g>
		<g>
			<g>
				<path fill="#3F3F3E" d="M39.827,107.579c0.062-0.789,0.252-3.082-1.302-5.447c-0.683-1.041-1.188-1.602-1.574-2.021
					c-0.394-0.412-1.285-1.137-1.89-1.381c-0.067,0.791-0.141,0.936-0.139,1.924c0,0.617,0.142,1.492,0.409,2.008
					s0.565,1.062,1.181,1.674C36.906,104.749,39.229,106.167,39.827,107.579z"/>
			</g>
		</g>
		<g>
			<g>
				<g>
					<path fill="#45677B" d="M34.802,99.351c0.078,0.332,0.178,0.674,0.303,1.021c0.248,0.691,0.844,1.059,1.328,0.826
						c0.486-0.234,0.678-0.982,0.433-1.67c-1.464-4.082,3.312-6.91,3.36-6.938c0.469-0.273,0.631-1.041,0.352-1.717
						c-0.274-0.674-0.88-0.998-1.351-0.725C38.978,90.294,33.46,93.583,34.802,99.351z"/>
				</g>
			</g>
		</g>
	</g>
	<circle fill="#AA9951" cx="39.565" cy="70.133" r="2.855"/>
	<path fill="#AA9951" d="M70.67,70.25c0,1.576-1.276,2.857-2.859,2.857c-1.574,0-2.851-1.281-2.851-2.857s1.276-2.854,2.851-2.854
		C69.393,67.396,70.67,68.674,70.67,70.25z"/>
	<path fill="#3F3F3E" d="M40.699,56.083c0,0,0.83-1.799,4.073-1.764c2.276,0.026,1.645,0.644,1.035,0.7
		c-2.147,0.203-3.549,0.299-4.183,1.164C40.689,57.461,40.346,56.625,40.699,56.083z"/>
	<path fill="#3F3F3E" d="M67.638,56.242c0,0-0.831-1.801-4.073-1.765c-2.278,0.026-1.644,0.645-1.036,0.7
		c2.147,0.201,3.551,0.299,4.185,1.164C67.646,57.618,67.992,56.785,67.638,56.242z"/>
	<g>
		<g>
			<g>
				<path fill="#5A5858" d="M45.551,62.801c1.906,0,3.393-2.205,3.381-1.877c-0.063,1.904-1.543,3.447-3.446,3.447
					c-1.905,0-3.507-1.545-3.45-3.447C42.039,60.757,43.647,62.801,45.551,62.801z"/>
			</g>
		</g>
	</g>
	<g>
		<g>
			<g>
				<path fill="#3F3F3E" d="M54.237,84.323c-5.119,0-8.618,0.51-8.768,0.396c-0.114-0.086-0.137-0.248-0.05-0.361
					c0.086-0.115,0.248-0.139,0.364-0.055c0.034,0.027,3.643-0.838,8.583-0.838c4.931,0,8.11,0.875,8.143,0.846
					c0.109-0.09,0.274-0.076,0.366,0.033c0.091,0.109,0.077,0.275-0.032,0.365C62.703,84.825,59.366,84.323,54.237,84.323z"/>
			</g>
		</g>
	</g>
	<path fill="#707071" d="M63.296,60.852c1.497,0,2.609-1.387,3.108-0.098c0.094-0.305,0.156-0.621,0.156-0.954
		c0-1.891-1.567-3.421-3.502-3.421c-1.933,0-3.498,1.53-3.498,3.421c0,0.427,0.089,0.831,0.234,1.208
		C60.22,59.587,61.705,60.852,63.296,60.852z"/>
	<path fill="#707071" d="M45.701,60.66c1.497,0,2.608-1.389,3.108-0.098c0.093-0.305,0.155-0.623,0.155-0.955
		c0-1.89-1.567-3.421-3.502-3.421c-1.934,0-3.499,1.531-3.499,3.421c0,0.428,0.089,0.832,0.236,1.207
		C42.624,59.395,44.109,60.66,45.701,60.66z"/>
	<g>
		<g>
			<g>
				<path fill="#5A5858" d="M63.146,62.672c1.905,0,3.393-2.205,3.381-1.877c-0.063,1.904-1.544,3.447-3.447,3.447
					c-1.904,0-3.507-1.545-3.449-3.447C59.635,60.629,61.243,62.672,63.146,62.672z"/>
			</g>
		</g>
	</g>
</g>
</svg>
