<?xml version="1.0" encoding="utf-8"?>
<!-- Generator: Adobe Illustrator 16.0.3, SVG Export Plug-In . SVG Version: 6.00 Build 0)  -->
<!DOCTYPE svg PUBLIC "-//W3C//DTD SVG 1.1//EN" "http://www.w3.org/Graphics/SVG/1.1/DTD/svg11.dtd" [
	<!ENTITY ns_flows "http://ns.adobe.com/Flows/1.0/">
	<!ENTITY ns_extend "http://ns.adobe.com/Extensibility/1.0/">
	<!ENTITY ns_ai "http://ns.adobe.com/AdobeIllustrator/10.0/">
	<!ENTITY ns_graphs "http://ns.adobe.com/Graphs/1.0/">
]>
<svg version="1.1" id="Layer_1" xmlns:x="&ns_extend;" xmlns:i="&ns_ai;" xmlns:graph="&ns_graphs;"
	 xmlns="http://www.w3.org/2000/svg" xmlns:xlink="http://www.w3.org/1999/xlink" xmlns:a="http://ns.adobe.com/AdobeSVGViewerExtensions/3.0/"
	 x="0px" y="0px" width="108px" height="108px" viewBox="0 0 108 108" enable-background="new 0 0 108 108" xml:space="preserve">
<g>
	<g>
		<g>
			<g>
				<g>
					<path fill="#5E9BC4" d="M62.789,46.243c0,0,4.832-11.079,14.651-19.779c0,0,3.593-3.148,2.599,2.399
						c-0.992,5.548-4.078,20.902-13.825,27.365L62.789,46.243z"/>
				</g>
			</g>
			<g>
				<g>
					<path fill="#C04A60" d="M65.224,46.417c0,0,3.581-7.377,10.105-15.145c0,0,3.509-3.882,2.593-0.08
						c-2.098,8.727-6.257,18.17-10.795,21.317L65.224,46.417z"/>
				</g>
			</g>
		</g>
		<g>
			<g>
				<g>
					<path fill="#476080" d="M44.881,47.242c0,0-3.906-11.438-12.979-20.912c0,0-3.324-3.433-2.789,2.178
						c0.536,5.614,2.351,21.167,11.537,28.41L44.881,47.242z"/>
				</g>
			</g>
			<g>
				<g>
					<path fill="#C04A60" d="M42.44,47.216c0,0-2.964-7.647-8.831-15.92c0,0-3.175-4.158-2.574-0.294
						c1.376,8.869,4.781,18.611,9.045,22.118L42.44,47.216z"/>
				</g>
			</g>
		</g>
	</g>
	<g>
		<g>
			<g>
				<g opacity="0.39">
					<g>
						<path fill="#C6CCD6" d="M54.104,92.852c6.801,0,12.536-3.447,14.366-8.172c-1.83-6.315-7.565-9.767-14.366-9.767
							c-6.805,0-12.537,3.451-14.369,9.767C41.568,89.404,47.301,92.852,54.104,92.852z"/>
					</g>
				</g>
				<g>
					<g>
						<path fill="#476080" d="M54.104,92.852c6.801,0,12.536-3.447,14.366-8.172c-1.83-6.315-7.565-9.767-14.366-9.767
							c-6.805,0-12.537,3.451-14.369,9.767C41.568,89.404,47.301,92.852,54.104,92.852z"/>
					</g>
				</g>
				<g>
					<g>
						<path fill="#476080" d="M39.735,84.68c-0.399,1.37-0.622,2.873-0.622,4.506c0,6.294,3.895,11.399,14.991,11.399v-7.732
							C47.301,92.852,41.568,89.404,39.735,84.68z"/>
					</g>
				</g>
				<g>
					<g>
						<path fill="#5E9BC4" d="M68.437,84.68c0.397,1.37,0.62,2.873,0.62,4.506c0,6.294-3.807,11.722-14.99,11.399v-7.732
							C60.872,92.852,66.604,89.404,68.437,84.68z"/>
					</g>
				</g>
			</g>
		</g>
		<g>
			<g>
				<g>
					<rect x="45.013" y="96.599" fill="#476080" width="6.242" height="8.609"/>
				</g>
			</g>
			<g>
				<g>
					<rect x="56.95" y="96.599" fill="#5E9BC4" width="6.244" height="8.609"/>
				</g>
			</g>
			<g>
				<g>
					<g>
						<path fill="#3F3F3E" d="M48.07,106.324c0.264,0,0.477,0.215,0.477,0.48V108h5.023c0-3.001-2.435-5.435-5.436-5.435
							c-3.002,0-5.433,2.434-5.433,5.435h4.89v-1.195C47.591,106.537,47.804,106.324,48.07,106.324z"/>
					</g>
				</g>
			</g>
			<g>
				<g>
					<g>
						<path fill="#3F3F3E" d="M60.004,106.324c0.268,0,0.483,0.215,0.483,0.48V108h5.022c0-3.001-2.432-5.435-5.435-5.435
							c-3.002,0-5.438,2.434-5.438,5.435h4.893v-1.195C59.53,106.537,59.744,106.324,60.004,106.324z"/>
					</g>
				</g>
			</g>
		</g>
	</g>
	<g>
		<g>
			<g>
				<g>
					<path fill="#476080" d="M51.649,38.958c0.526,0.683,0.767,1.335,0.922,1.979c0.143,0.643,0.179,1.276,0.113,1.898
						c-0.062,0.619-0.225,1.23-0.499,1.831c-0.286,0.598-0.658,1.185-1.319,1.746c-0.529-0.683-0.771-1.339-0.928-1.981
						c-0.142-0.642-0.173-1.275-0.107-1.896c0.421-1.751,0.883-2.655,0.505-1.831C50.622,40.106,50.993,39.517,51.649,38.958z"/>
				</g>
			</g>
			<g>
				<g>
					<path fill="#527A97" d="M57.607,39.409c0.524,0.683,0.765,1.338,0.922,1.979c0.145,0.645,0.176,1.275,0.113,1.896
						c-0.062,0.619-0.229,1.233-0.501,1.832c-0.285,0.6-0.656,1.189-1.315,1.747c-0.529-0.685-0.774-1.337-0.926-1.98
						c-0.144-0.644-0.179-1.276-0.111-1.896c0.068-0.622,0.23-1.231,0.502-1.832C56.578,40.558,56.948,39.967,57.607,39.409z"/>
				</g>
			</g>
		</g>
		<g>
			<g>
				<g>
					<path fill="#5E9BC4" d="M70.499,60.53c-0.279-1.484-0.954-4.431-0.954-4.431c-1.272-7.017-7.451-12.438-15.467-12.438v44.423
						c10.583,0,18.204-7.354,18.204-16.425C72.282,67.362,71.251,64.602,70.499,60.53z"/>
				</g>
			</g>
			<g>
				<g>
					<g>
						<path fill="#476080" d="M37.678,60.53c0.272-1.484,0.947-4.431,0.947-4.431c1.275-7.017,7.452-12.438,15.465-12.438v44.423
							c-10.579,0-18.202-7.354-18.202-16.425C35.887,67.362,36.92,64.602,37.678,60.53z"/>
					</g>
				</g>
			</g>
		</g>
		<g>
			<g>
				<path fill="#9C9B9B" d="M69.067,79.381c0,5.414-6.712,9.805-14.989,9.805c-8.276,0-14.986-4.391-14.986-9.805
					c0-5.418,6.711-9.808,14.986-9.808C62.355,69.573,69.067,73.962,69.067,79.381z"/>
			</g>
		</g>
		<g>
			<g>
				<g>
					<circle fill="#3F3F3E" cx="45.135" cy="77.866" r="2.154"/>
				</g>
			</g>
			<g>
				<g>
					<circle fill="#3F3F3E" cx="63.074" cy="77.866" r="2.154"/>
				</g>
			</g>
		</g>
		<g>
			<g>
				<g>
					<circle fill="#9C9B9B" cx="45.9" cy="60.003" r="3.439"/>
				</g>
			</g>
		</g>
		<g>
			<g>
				<g>
					<circle fill="#9C9B9B" cx="63.319" cy="60.003" r="3.439"/>
				</g>
			</g>
		</g>
		<g>
			<g>
				<g>
					<circle fill="#3F3F3E" cx="45.9" cy="60.003" r="1.925"/>
				</g>
			</g>
		</g>
		<g>
			<g>
				<g>
					<circle fill="#3F3F3E" cx="63.319" cy="60.003" r="1.926"/>
				</g>
			</g>
		</g>
		<g>
			<g>
				<circle fill="#FFFFFF" cx="45.766" cy="60.025" r="0.68"/>
			</g>
		</g>
		<g>
			<g>
				<circle fill="#FFFFFF" cx="63.262" cy="60.13" r="0.681"/>
			</g>
		</g>
		<g>
			<g>
				<g>
					<path fill="#F6E9E5" d="M51.015,84.275c0,1.331,0.609,1.306,1.407,1.403l0,0c0.878,0.061,1.404,0.064,1.404-1.403V83.38
						c0,0.149-2.811-0.208-2.811-0.208L51.015,84.275L51.015,84.275z"/>
				</g>
			</g>
			<g>
				<g>
					<path fill="#F6E9E5" d="M56.999,84.436c0,1.33-0.608,1.306-1.407,1.403l0,0c-0.881,0.061-1.403,0.064-1.403-1.403V83.54
						c0,0.149,2.812-0.209,2.812-0.209L56.999,84.436L56.999,84.436z"/>
				</g>
			</g>
		</g>
		<g>
			<g>
				<g>
					<path fill="#3F3F3E" d="M54.256,83.55c-6.301,0-10.608,0.626-10.791,0.487c-0.143-0.106-0.169-0.305-0.063-0.446
						c0.105-0.143,0.306-0.17,0.447-0.066c0.043,0.034,4.485-1.03,10.567-1.03c6.069,0,9.982,1.075,10.024,1.04
						c0.133-0.111,0.336-0.094,0.449,0.041c0.111,0.136,0.094,0.338-0.041,0.448C64.678,84.167,60.569,83.55,54.256,83.55z"/>
				</g>
			</g>
		</g>
	</g>
	<g>
		<g>
			<g>
				<path fill="#3F3F3E" d="M25.16,95.094c0.901-0.397,3.524-1.56,6.701,0.056c1.402,0.708,2.19,1.314,2.784,1.777
					c0.59,0.479,1.675,1.646,2.123,2.526c-0.901,0.404-1.052,0.575-2.202,0.943c-0.72,0.232-1.78,0.333-2.455,0.094
					c-0.673-0.238-1.392-0.511-2.269-1.275C29.25,98.737,26.969,95.526,25.16,95.094z"/>
			</g>
		</g>
		<g>
			<g>
				<g>
					<path fill="#476080" d="M36.114,100.105c-0.409,0-0.833-0.035-1.274-0.106c-0.871-0.141-1.462-0.961-1.32-1.831
						c0.141-0.869,0.959-1.46,1.83-1.321c5.153,0.83,7.156-7.923,7.177-8.01c0.19-0.857,1.041-1.405,1.903-1.211
						c0.861,0.191,1.401,1.044,1.211,1.904C45.541,89.985,43.202,100.105,36.114,100.105z"/>
				</g>
			</g>
		</g>
	</g>
	<circle fill="#EA8592" cx="39.636" cy="70.656" r="2.849"/>
	<path fill="#EA8592" d="M71.389,70.551c0,1.572-1.274,2.849-2.851,2.849c-1.574,0-2.847-1.276-2.847-2.849s1.272-2.848,2.847-2.848
		C70.114,67.703,71.389,68.979,71.389,70.551z"/>
	<path fill="#3F3F3E" d="M43.002,53.873c0,0,1.263-1.262,3.248,0.105c1.394,0.961,0.744,1.25,0.346,1.05
		c-1.409-0.705-2.315-1.196-3.067-0.686C42.42,55.096,42.556,54.209,43.002,53.873z"/>
	<path fill="#3F3F3E" d="M65.843,54.265c0,0-1.261-1.264-3.245,0.101c-1.397,0.961-0.751,1.25-0.347,1.048
		c1.408-0.702,2.314-1.194,3.065-0.684C66.424,55.487,66.287,54.601,65.843,54.265z"/>
	<path fill="#707071" d="M63.359,58.738c1.472,0,2.717,0.927,3.208,2.224c0.09-0.307,0.152-0.624,0.152-0.958
		c0-1.899-1.539-3.439-3.439-3.439c-1.899,0-3.44,1.538-3.44,3.439c0,0.428,0.089,0.836,0.234,1.214
		C60.491,59.788,61.795,58.738,63.359,58.738z"/>
	<path fill="#707071" d="M45.97,58.778c1.47,0,2.716,0.926,3.206,2.223c0.091-0.306,0.155-0.623,0.155-0.959
		c0-1.898-1.541-3.439-3.44-3.439s-3.439,1.54-3.439,3.439c0,0.43,0.087,0.837,0.232,1.216C43.1,59.828,44.403,58.778,45.97,58.778z
		"/>
</g>
</svg>
