<?xml version="1.0" encoding="utf-8"?>
<!-- Generator: Adobe Illustrator 16.0.3, SVG Export Plug-In . SVG Version: 6.00 Build 0)  -->
<!DOCTYPE svg PUBLIC "-//W3C//DTD SVG 1.1//EN" "http://www.w3.org/Graphics/SVG/1.1/DTD/svg11.dtd" [
	<!ENTITY ns_flows "http://ns.adobe.com/Flows/1.0/">
	<!ENTITY ns_extend "http://ns.adobe.com/Extensibility/1.0/">
	<!ENTITY ns_ai "http://ns.adobe.com/AdobeIllustrator/10.0/">
	<!ENTITY ns_graphs "http://ns.adobe.com/Graphs/1.0/">
]>
<svg version="1.1" id="Layer_1" xmlns:x="&ns_extend;" xmlns:i="&ns_ai;" xmlns:graph="&ns_graphs;"
	 xmlns="http://www.w3.org/2000/svg" xmlns:xlink="http://www.w3.org/1999/xlink" xmlns:a="http://ns.adobe.com/AdobeSVGViewerExtensions/3.0/"
	 x="0px" y="0px" width="108px" height="108px" viewBox="0 0 108 108" enable-background="new 0 0 108 108" xml:space="preserve">
<g>
	<g>
		<g>
			<g>
				<g>
					<path fill="#5D9BC4" d="M59.939,49.923c0,0-2.394-11.627,0.564-24.168c0,0,1.102-4.562,3.445,0.454
						c2.343,5.017,8.558,19.087,4.394,29.795L59.939,49.923z"/>
				</g>
			</g>
			<g>
				<g>
					<path fill="#BF495F" d="M61.996,48.686c0,0-1.305-7.95-0.463-17.878c0,0,0.615-5.101,2.035-1.531
						c3.256,8.192,5.26,18.129,3.402,23.223L61.996,48.686z"/>
				</g>
			</g>
		</g>
		<g>
			<g>
				<g>
					<path fill="#465F7F" d="M47.892,49.923c0,0,3.339-11.393,1.413-24.135c0,0-0.721-4.637-3.47,0.172
						c-2.747,4.811-10.093,18.321-6.818,29.334L47.892,49.923z"/>
				</g>
			</g>
			<g>
				<g>
					<path fill="#BF495F" d="M45.944,48.521c0,0,1.949-7.815,1.922-17.779c0,0-0.194-5.135-1.901-1.693
						c-3.915,7.899-6.692,17.646-5.257,22.876L45.944,48.521z"/>
				</g>
			</g>
		</g>
	</g>
	<g>
		<g>
			<g>
				<g opacity="0.39">
					<g>
						<path fill="#C6CCD6" d="M53.986,93.121c6.679,0,12.313-3.389,14.112-8.025c-1.8-6.205-7.434-9.592-14.112-9.592
							c-6.682,0-12.316,3.387-14.113,9.592C41.671,89.732,47.306,93.121,53.986,93.121z"/>
					</g>
				</g>
				<g>
					<g>
						<path fill="#465F7F" d="M53.986,93.121c6.679,0,12.313-3.389,14.112-8.025c-1.8-6.205-7.434-9.592-14.112-9.592
							c-6.682,0-12.316,3.387-14.113,9.592C41.671,89.732,47.306,93.121,53.986,93.121z"/>
					</g>
				</g>
				<g>
					<g>
						<path fill="#465F7F" d="M39.874,85.096c-0.391,1.344-0.609,2.818-0.609,4.424c0,6.183,3.821,11.197,14.724,11.197v-7.596
							C47.306,93.121,41.671,89.732,39.874,85.096z"/>
					</g>
				</g>
				<g>
					<g>
						<path fill="#5D9BC4" d="M68.064,85.096c0.392,1.344,0.607,2.818,0.607,4.424c0,6.183-3.74,11.515-14.721,11.197v-7.596
							C60.634,93.121,66.264,89.732,68.064,85.096z"/>
					</g>
				</g>
			</g>
		</g>
		<g>
			<g>
				<g>
					<rect x="45.058" y="96.803" fill="#465F7F" width="6.13" height="8.455"/>
				</g>
			</g>
			<g>
				<g>
					<rect x="56.783" y="96.803" fill="#5D9BC4" width="6.134" height="8.455"/>
				</g>
			</g>
			<g>
				<g>
					<g>
						<path fill="#3E3E3D" d="M48.061,106.355c0.258,0,0.47,0.211,0.47,0.471V108h4.934c0-2.947-2.393-5.338-5.342-5.338
							c-2.946,0-5.338,2.391-5.338,5.338h4.807v-1.174C47.588,106.564,47.8,106.355,48.061,106.355z"/>
					</g>
				</g>
			</g>
			<g>
				<g>
					<g>
						<path fill="#3E3E3D" d="M59.784,106.355c0.261,0,0.472,0.211,0.472,0.471V108h4.932c0-2.947-2.388-5.338-5.336-5.338
							c-2.949,0-5.338,2.391-5.338,5.338h4.805v-1.174C59.316,106.564,59.525,106.355,59.784,106.355z"/>
					</g>
				</g>
			</g>
		</g>
	</g>
	<g>
		<g>
			<g>
				<g>
					<path fill="#465F7F" d="M54.866,41.106c0.141,0.834,0.051,1.512-0.111,2.142c-0.172,0.625-0.434,1.188-0.776,1.698
						c-0.341,0.51-0.762,0.965-1.277,1.359c-0.522,0.386-1.118,0.725-1.946,0.906c-0.146-0.836-0.054-1.514,0.108-2.145
						c0.169-0.623,0.435-1.187,0.78-1.695c0.341-0.508,0.764-0.963,1.275-1.357C53.447,41.628,54.039,41.288,54.866,41.106z"/>
				</g>
			</g>
			<g>
				<g>
					<path fill="#507997" d="M57.637,42.405c0.139,0.834,0.049,1.512-0.109,2.143c-0.174,0.624-0.437,1.188-0.778,1.697
						c-0.339,0.51-0.763,0.965-1.274,1.359c-0.526,0.387-1.119,0.727-1.948,0.906c-0.145-0.836-0.055-1.515,0.107-2.145
						c0.171-0.625,0.432-1.188,0.779-1.695c0.344-0.508,0.765-0.963,1.28-1.355C56.214,42.928,56.807,42.588,57.637,42.405z"/>
				</g>
			</g>
		</g>
		<g>
			<g>
				<g>
					<path fill="#5D9BC4" d="M70.088,61.376c-0.271-1.457-0.934-4.353-0.934-4.353c-1.254-6.892-7.318-12.216-15.191-12.216v43.628
						c10.395,0,17.881-7.22,17.881-16.129C71.844,68.082,70.829,65.376,70.088,61.376z"/>
				</g>
			</g>
			<g>
				<g>
					<g>
						<path fill="#465F7F" d="M37.851,61.376c0.269-1.457,0.933-4.353,0.933-4.353c1.253-6.892,7.319-12.216,15.19-12.216v43.628
							c-10.395,0-17.878-7.22-17.878-16.129C36.096,68.082,37.11,65.376,37.851,61.376z"/>
					</g>
				</g>
			</g>
		</g>
		<g>
			<g>
				<path fill="#9C9B9B" d="M68.686,79.891c0,5.318-6.594,9.629-14.723,9.629c-8.131,0-14.721-4.312-14.721-9.629
					c0-5.322,6.592-9.635,14.721-9.635S68.686,74.568,68.686,79.891z"/>
			</g>
		</g>
		<g>
			<g>
				<g>
					<path fill="#3E3E3D" d="M45.178,76.285c1.169,0,2.118,0.947,2.118,2.113c0,1.17-0.949,2.115-2.118,2.115
						c-1.167,0-2.113-0.945-2.113-2.115C43.064,77.232,44.011,76.285,45.178,76.285z"/>
				</g>
			</g>
			<g>
				<g>
					<circle fill="#3E3E3D" cx="62.797" cy="78.399" r="2.114"/>
				</g>
			</g>
		</g>
		<g>
			<g>
				<g>
					<circle fill="#9C9B9B" cx="45.93" cy="60.857" r="3.379"/>
				</g>
			</g>
		</g>
		<g>
			<g>
				<g>
					<circle fill="#9C9B9B" cx="63.038" cy="60.857" r="3.379"/>
				</g>
			</g>
		</g>
		<g>
			<g>
				<g>
					<circle fill="#3E3E3D" cx="45.93" cy="60.858" r="1.891"/>
				</g>
			</g>
		</g>
		<g>
			<g>
				<g>
					<circle fill="#3E3E3D" cx="63.038" cy="60.859" r="1.892"/>
				</g>
			</g>
		</g>
		<g>
			<g>
				<circle fill="#FFFFFF" cx="46.626" cy="60.259" r="0.668"/>
			</g>
		</g>
		<g>
			<g>
				<circle fill="#FFFFFF" cx="63.709" cy="60.259" r="0.668"/>
			</g>
		</g>
		<g>
			<g>
				<g>
					<path fill="#F6E9E5" d="M50.951,87.65c0,1.307,0.601,1.283,1.381,1.379l0,0c0.868,0.061,1.385,0.062,1.385-1.379V86.77
						c0,0.148-2.766-0.203-2.766-0.203V87.65L50.951,87.65z"/>
				</g>
			</g>
			<g>
				<g>
					<path fill="#F6E9E5" d="M56.988,87.65c0,1.307-0.604,1.283-1.385,1.379l0,0c-0.867,0.061-1.382,0.062-1.382-1.379V86.77
						c0,0.148,2.763-0.203,2.763-0.203v1.084H56.988L56.988,87.65z"/>
				</g>
			</g>
		</g>
		<g>
			<g>
				<g>
					<path fill="#3E3E3D" d="M54.173,87.334c-6.19,0-10.518-3.219-10.699-3.354c-0.138-0.107-0.166-0.304-0.06-0.439
						c0.102-0.139,0.298-0.166,0.438-0.064c0.044,0.035,4.35,3.23,10.321,3.23c5.962,0,9.86-3.188,9.902-3.221
						c0.133-0.107,0.331-0.092,0.444,0.041c0.107,0.133,0.09,0.328-0.043,0.44C64.312,84.107,60.372,87.334,54.173,87.334z"/>
				</g>
			</g>
		</g>
	</g>
	<g>
		<g>
			<g>
				<path fill="#3E3E3D" d="M25.559,95.326c0.884-0.395,3.46-1.533,6.582,0.049c1.375,0.699,2.151,1.295,2.735,1.75
					c0.578,0.467,1.645,1.613,2.083,2.479c-0.888,0.398-1.035,0.568-2.164,0.933c-0.706,0.225-1.748,0.321-2.412,0.088
					c-0.659-0.233-1.363-0.502-2.228-1.254C29.576,98.9,27.335,95.748,25.559,95.326z"/>
			</g>
		</g>
		<g>
			<g>
				<g>
					<path fill="#465F7F" d="M36.318,100.244c-0.402,0-0.82-0.031-1.254-0.104c-0.853-0.14-1.435-0.943-1.299-1.798
						c0.139-0.854,0.945-1.436,1.801-1.301c5.06,0.815,7.029-7.778,7.049-7.865c0.187-0.844,1.023-1.379,1.871-1.188
						c0.843,0.188,1.375,1.022,1.188,1.868C45.577,90.307,43.278,100.244,36.318,100.244z"/>
				</g>
			</g>
		</g>
	</g>
</g>
</svg>
