<?xml version="1.0" encoding="utf-8"?>
<!-- Generator: Adobe Illustrator 16.0.3, SVG Export Plug-In . SVG Version: 6.00 Build 0)  -->
<!DOCTYPE svg PUBLIC "-//W3C//DTD SVG 1.1//EN" "http://www.w3.org/Graphics/SVG/1.1/DTD/svg11.dtd" [
	<!ENTITY ns_flows "http://ns.adobe.com/Flows/1.0/">
	<!ENTITY ns_extend "http://ns.adobe.com/Extensibility/1.0/">
	<!ENTITY ns_ai "http://ns.adobe.com/AdobeIllustrator/10.0/">
	<!ENTITY ns_graphs "http://ns.adobe.com/Graphs/1.0/">
]>
<svg version="1.1" id="Layer_1" xmlns:x="&ns_extend;" xmlns:i="&ns_ai;" xmlns:graph="&ns_graphs;"
	 xmlns="http://www.w3.org/2000/svg" xmlns:xlink="http://www.w3.org/1999/xlink" xmlns:a="http://ns.adobe.com/AdobeSVGViewerExtensions/3.0/"
	 x="0px" y="0px" width="108px" height="108px" viewBox="0 0 108 108" enable-background="new 0 0 108 108" xml:space="preserve">
<path fill="#3E3E3D" d="M73.858,67.723v37.008c-7.226-2.59-15.005,3.188-23.112,3.188s-15.887-5.775-23.114-3.188V67.723
	c0-12.866,10.348-23.297,23.112-23.297C63.511,44.426,73.858,54.857,73.858,67.723z"/>
<path fill="#5F615D" d="M75.238,67.23v34.238c-6.738-2.396-13.992,2.948-21.553,2.948s-14.814-5.345-21.554-2.948V67.23
	c0-11.903,9.65-21.555,21.553-21.555C65.59,45.676,75.238,55.326,75.238,67.23z"/>
<path fill="#4D3C28" d="M88.518,108H18.854c4.126-2.661,8.577-4.862,13.278-6.531c6.74-2.396,13.994-3.699,21.554-3.699
	s14.814,1.305,21.552,3.699C79.94,103.139,84.391,105.339,88.518,108z"/>
<path fill="#3E2C1D" d="M57.322,97.874c-1.203-0.067-2.416-0.104-3.636-0.104c-7.562,0-14.815,1.305-21.554,3.699
	c-4.702,1.669-9.152,3.87-13.278,6.531h7.271c4.126-2.661,8.578-4.862,13.279-6.531C45.055,99.46,51.068,98.223,57.322,97.874z"/>
<path fill="#919B8A" d="M36,67.23c0-9.752,7.933-17.688,17.685-17.688c9.753,0,17.687,7.934,17.687,17.688v28.986
	C65.629,94.679,59.703,93.9,53.686,93.9s-11.943,0.777-17.688,2.315L36,67.23L36,67.23z"/>
<g>
	<path fill="#5F615D" d="M51.17,58.946c0-1.599-1.301-2.898-2.898-2.898h-2.209c-0.382,0-0.691,0.31-0.691,0.69v4.417v3.68
		c0,0.382,0.31,0.69,0.691,0.69c0.381,0,0.689-0.309,0.689-0.69v-2.989h1.518c0.838,0,1.52,0.681,1.52,1.518v1.472
		c0,0.382,0.309,0.69,0.689,0.69s0.69-0.309,0.69-0.69v-1.472c0-0.884-0.397-1.676-1.024-2.208
		C50.771,60.623,51.17,59.831,51.17,58.946z M46.752,60.465v-3.037h1.52c0.836,0,1.518,0.682,1.518,1.519s-0.682,1.519-1.518,1.519
		H46.752L46.752,60.465z"/>
	<path fill="#5F615D" d="M60.273,56.048h-2.209c-0.382,0-0.691,0.31-0.691,0.69v4.417v3.68c0,0.382,0.311,0.69,0.691,0.69
		s0.69-0.309,0.69-0.69v-2.989h1.518c1.599,0,2.899-1.301,2.899-2.899S61.871,56.048,60.273,56.048z M60.273,60.465h-1.519v-3.037
		h1.519c0.836,0,1.518,0.682,1.518,1.519C61.791,59.784,61.109,60.465,60.273,60.465z"/>
	<path fill="#5F615D" d="M54.182,56.048c-0.382,0-0.691,0.31-0.691,0.69v8.097c0,0.382,0.31,0.69,0.691,0.69
		c0.381,0,0.689-0.309,0.689-0.69v-8.097C54.871,56.357,54.562,56.048,54.182,56.048z"/>
</g>
<g>
	<path fill="#5F615D" d="M68.072,82.932H39.299c-0.514,0-0.928-0.416-0.928-0.928c0-0.514,0.416-0.93,0.928-0.93h28.773
		c0.514,0,0.93,0.416,0.93,0.93C69,82.516,68.586,82.932,68.072,82.932z"/>
	<path fill="#5F615D" d="M64.803,87.805H42.567c-0.513,0-0.928-0.416-0.928-0.928c0-0.514,0.416-0.93,0.928-0.93h22.236
		c0.513,0,0.929,0.416,0.929,0.93C65.732,87.389,65.316,87.805,64.803,87.805z"/>
</g>
</svg>
