<?xml version="1.0" encoding="utf-8"?>
<!-- Generator: Adobe Illustrator 16.0.3, SVG Export Plug-In . SVG Version: 6.00 Build 0)  -->
<!DOCTYPE svg PUBLIC "-//W3C//DTD SVG 1.1//EN" "http://www.w3.org/Graphics/SVG/1.1/DTD/svg11.dtd" [
	<!ENTITY ns_flows "http://ns.adobe.com/Flows/1.0/">
	<!ENTITY ns_extend "http://ns.adobe.com/Extensibility/1.0/">
	<!ENTITY ns_ai "http://ns.adobe.com/AdobeIllustrator/10.0/">
	<!ENTITY ns_graphs "http://ns.adobe.com/Graphs/1.0/">
]>
<svg version="1.1" id="Layer_1" xmlns:x="&ns_extend;" xmlns:i="&ns_ai;" xmlns:graph="&ns_graphs;"
	 xmlns="http://www.w3.org/2000/svg" xmlns:xlink="http://www.w3.org/1999/xlink" xmlns:a="http://ns.adobe.com/AdobeSVGViewerExtensions/3.0/"
	 x="0px" y="0px" width="108px" height="108px" viewBox="0 0 108 108" enable-background="new 0 0 108 108" xml:space="preserve">
<g>
	<g>
		<g>
			<g>
				<path fill="#5CBA87" d="M62.344,68.691c0,0,2.34,14.424,11.236,27.557c0,0,3.266,4.766,3.764-2.033
					c0.498-6.801,1.486-25.705-7.997-36.201L62.344,68.691z"/>
			</g>
		</g>
		<g>
			<g>
				<path fill="#CD637A" d="M65.249,69.215c0,0,1.981,9.717,7.302,20.768c0,0,2.945,5.598,3.01,0.873
					c0.159-10.852-1.929-23.154-6.304-28.198L65.249,69.215z"/>
			</g>
		</g>
	</g>
</g>
<g>
	<g>
		<g>
			<g>
				<path fill="#447763" d="M45.668,67.88c0,0-3.244,14.247-12.951,26.794c0,0-3.558,4.551-3.627-2.264
					c-0.069-6.82,0.137-25.75,10.262-35.628L45.668,67.88z"/>
			</g>
		</g>
		<g>
			<g>
				<path fill="#C04A60" d="M42.735,68.221c0,0-2.592,9.57-8.597,20.264c0,0-3.292,5.402-3.058,0.684
					c0.526-10.838,3.385-22.986,8.065-27.746L42.735,68.221z"/>
			</g>
		</g>
	</g>
</g>
<g>
	<g>
		<g>
			<g opacity="0.39">
				<g>
					<path fill="#C6CCD6" d="M54.214,93.318c6.635,0,12.23-3.363,14.018-7.975c-1.787-6.16-7.383-9.527-14.018-9.527
						c-6.64,0-12.234,3.367-14.021,9.527C41.979,89.955,47.576,93.318,54.214,93.318z"/>
				</g>
			</g>
			<g>
				<g>
					<path fill="#447763" d="M54.214,93.318c6.635,0,12.23-3.363,14.018-7.975c-1.787-6.16-7.383-9.527-14.018-9.527
						c-6.64,0-12.234,3.367-14.021,9.527C41.979,89.955,47.576,93.318,54.214,93.318z"/>
				</g>
			</g>
			<g>
				<g>
					<path fill="#447763" d="M40.193,85.346c-0.391,1.336-0.606,2.803-0.606,4.395c0,6.143,3.799,11.125,14.628,11.125v-7.547
						C47.576,93.318,41.979,89.955,40.193,85.346z"/>
				</g>
			</g>
			<g>
				<g>
					<path fill="#5CBA87" d="M68.199,85.346c0.389,1.336,0.604,2.803,0.604,4.395c0,6.143-3.715,11.438-14.627,11.125v-7.547
						C60.815,93.318,66.412,89.955,68.199,85.346z"/>
				</g>
			</g>
		</g>
	</g>
	<g>
		<g>
			<g>
				<rect x="45.343" y="96.977" fill="#447763" width="6.091" height="8.396"/>
			</g>
		</g>
		<g>
			<g>
				<rect x="56.99" y="96.977" fill="#5CBA87" width="6.094" height="8.396"/>
			</g>
		</g>
		<g>
			<g>
				<g>
					<path fill="#3F3F3E" d="M48.326,106.463c0.256,0,0.466,0.213,0.466,0.471v1.166h4.9c0-2.93-2.375-5.303-5.304-5.303
						c-2.928,0-5.302,2.373-5.302,5.303h4.771v-1.166C47.857,106.672,48.064,106.463,48.326,106.463z"/>
				</g>
			</g>
		</g>
		<g>
			<g>
				<g>
					<path fill="#3F3F3E" d="M59.971,106.463c0.26,0,0.473,0.213,0.473,0.471v1.166h4.9c0-2.93-2.375-5.303-5.303-5.303
						c-2.933,0-5.308,2.373-5.308,5.303h4.775v-1.166C59.51,106.672,59.717,106.463,59.971,106.463z"/>
				</g>
			</g>
		</g>
	</g>
</g>
<g>
	<g>
		<g>
			<g>
				<path fill="#447763" d="M45.396,43.837c0.812-0.217,1.49-0.188,2.13-0.09c0.633,0.114,1.217,0.319,1.751,0.612
					c0.534,0.289,1.024,0.664,1.462,1.136c0.432,0.481,0.822,1.037,1.079,1.842c-0.813,0.222-1.494,0.192-2.133,0.095
					c-0.632-0.113-1.212-0.322-1.747-0.615c-1.422-1.035-2.061-1.791-1.462-1.141C46.046,45.193,45.652,44.639,45.396,43.837z"/>
			</g>
		</g>
		<g>
			<g>
				<path fill="#5CBA87" d="M51.988,40.729c0.647,0.535,1.021,1.104,1.311,1.682c0.277,0.583,0.445,1.176,0.52,1.779
					c0.078,0.604,0.052,1.224-0.077,1.854c-0.142,0.63-0.365,1.271-0.871,1.947c-0.652-0.536-1.027-1.102-1.313-1.684
					c-0.275-0.58-0.446-1.175-0.516-1.779c-0.071-0.604-0.053-1.221,0.078-1.85C51.263,42.045,51.482,41.402,51.988,40.729z"/>
			</g>
		</g>
	</g>
	<g>
		<g>
			<g>
				<path fill="#5CBA87" d="M70.209,61.782c-0.271-1.448-0.928-4.324-0.928-4.324C68.039,50.611,62.01,45.32,54.189,45.32v43.346
					c10.326,0,17.762-7.174,17.762-16.025C71.951,68.445,70.942,65.754,70.209,61.782z"/>
			</g>
		</g>
		<g>
			<g>
				<g>
					<path fill="#447763" d="M38.184,61.782c0.269-1.448,0.925-4.324,0.925-4.324c1.244-6.847,7.272-12.138,15.091-12.138v43.346
						c-10.322,0-17.761-7.174-17.761-16.025C36.438,68.445,37.447,65.754,38.184,61.782z"/>
				</g>
			</g>
		</g>
	</g>
	<g>
		<g>
			<path fill="#9C9B9B" d="M68.813,80.174c0,5.283-6.549,9.566-14.625,9.566c-8.077,0-14.624-4.283-14.624-9.566
				c0-5.287,6.549-9.568,14.624-9.568C62.265,70.605,68.813,74.887,68.813,80.174z"/>
		</g>
	</g>
	<g>
		<g>
			<g>
				<circle fill="#3F3F3E" cx="45.463" cy="78.696" r="2.101"/>
			</g>
		</g>
		<g>
			<g>
				<circle fill="#3F3F3E" cx="62.965" cy="78.696" r="2.101"/>
			</g>
		</g>
	</g>
	<g>
		<g>
			<g>
				<circle fill="#A55E5F" cx="46.208" cy="61.267" r="3.355"/>
			</g>
		</g>
	</g>
	<g>
		<g>
			<g>
				<circle fill="#A55E5F" cx="63.205" cy="61.267" r="3.355"/>
			</g>
		</g>
	</g>
	<g>
		<g>
			<g>
				<circle fill="#3F3F3E" cx="63.205" cy="61.268" r="1.879"/>
			</g>
		</g>
	</g>
	<g>
		<g>
			<circle fill="#FFFFFF" cx="46.954" cy="60.825" r="0.664"/>
		</g>
	</g>
	<g>
		<g>
			<circle fill="#FFFFFF" cx="64.178" cy="60.876" r="0.664"/>
		</g>
	</g>
	<g>
		<g>
			<g>
				<path fill="#F2F4EB" d="M51.062,85.775c0,1.297,0.596,1.273,1.372,1.369l0,0c0.858,0.061,1.375,0.062,1.375-1.369V84.9
					c0,0.146-2.745-0.203-2.745-0.203v1.078H51.062z"/>
			</g>
		</g>
		<g>
			<g>
				<path fill="#F6F9F2" d="M56.961,85.438c0,1.299-0.596,1.275-1.373,1.371l0,0c-0.859,0.059-1.37,0.062-1.37-1.371v-0.873
					c0,0.146,2.485,0.471,2.485,0.471L56.961,85.438L56.961,85.438z"/>
			</g>
		</g>
	</g>
	<g>
		<g>
			<g>
				<circle fill="#3F3F3E" cx="46.208" cy="61.268" r="1.879"/>
			</g>
		</g>
	</g>
</g>
<g>
	<g>
		<g>
			<path fill="#3F3F3E" d="M40.66,107.799c0.062-0.768,0.245-3-1.267-5.301c-0.664-1.014-1.157-1.561-1.532-1.967
				c-0.383-0.402-1.251-1.107-1.839-1.344c-0.065,0.768-0.137,0.908-0.135,1.871c0,0.6,0.138,1.453,0.397,1.955
				c0.261,0.502,0.551,1.033,1.149,1.627C37.817,105.045,40.079,106.424,40.66,107.799z"/>
		</g>
	</g>
	<g>
		<g>
			<g>
				<path fill="#447763" d="M35.77,99.791c0.076,0.324,0.173,0.654,0.295,0.994c0.241,0.672,0.82,1.031,1.292,0.803
					c0.474-0.227,0.66-0.955,0.421-1.625c-1.425-3.973,3.225-6.725,3.271-6.752c0.457-0.266,0.614-1.014,0.343-1.67
					c-0.268-0.656-0.856-0.971-1.314-0.705C39.834,90.977,34.464,94.178,35.77,99.791z"/>
			</g>
		</g>
	</g>
</g>
<circle fill="#AA9951" cx="40.405" cy="71.354" r="2.779"/>
<path fill="#AA9951" d="M70.679,71.469c0,1.533-1.242,2.779-2.783,2.779c-1.532,0-2.774-1.246-2.774-2.779
	c0-1.535,1.242-2.779,2.774-2.779C69.436,68.689,70.679,69.934,70.679,71.469z"/>
<path fill="#3F3F3E" d="M41.509,57.68c0,0,0.809-1.75,3.965-1.716c2.216,0.024,1.601,0.626,1.008,0.681
	c-2.091,0.197-3.454,0.291-4.071,1.133C41.5,59.021,41.165,58.208,41.509,57.68z"/>
<path fill="#3F3F3E" d="M67.728,57.834c0,0-0.809-1.751-3.965-1.716c-2.217,0.024-1.6,0.626-1.008,0.681
	c2.09,0.196,3.455,0.291,4.072,1.133C67.735,59.175,68.072,58.363,67.728,57.834z"/>
<g>
	<g>
		<g>
			<path fill="#5A5858" d="M46.231,64.219c1.854,0,3.302-2.146,3.29-1.828c-0.062,1.854-1.502,3.355-3.354,3.355
				c-1.854,0-3.413-1.503-3.357-3.355C42.813,62.229,44.379,64.219,46.231,64.219z"/>
		</g>
	</g>
</g>
<g>
	<g>
		<g>
			<path fill="#3F3F3E" d="M54.686,85.164c-4.982,0-8.388,0.496-8.533,0.387c-0.111-0.084-0.133-0.24-0.049-0.352
				c0.084-0.113,0.241-0.135,0.354-0.053c0.033,0.025,3.545-0.816,8.354-0.816c4.799,0,7.894,0.852,7.925,0.824
				c0.106-0.088,0.268-0.074,0.356,0.033c0.089,0.105,0.075,0.266-0.031,0.354C62.925,85.652,59.677,85.164,54.686,85.164z"/>
		</g>
	</g>
</g>
<path fill="#707071" d="M63.502,62.322c1.457,0,2.539-1.352,3.025-0.096c0.091-0.297,0.151-0.605,0.151-0.929
	c0-1.84-1.525-3.329-3.408-3.329c-1.881,0-3.404,1.489-3.404,3.329c0,0.415,0.087,0.81,0.229,1.175
	C60.508,61.09,61.953,62.322,63.502,62.322z"/>
<path fill="#707071" d="M46.377,62.135c1.457,0,2.539-1.351,3.025-0.096c0.091-0.297,0.151-0.605,0.151-0.928
	c0-1.84-1.525-3.33-3.408-3.33c-1.882,0-3.405,1.49-3.405,3.33c0,0.414,0.086,0.809,0.229,1.175
	C43.383,60.902,44.828,62.135,46.377,62.135z"/>
<g>
	<g>
		<g>
			<path fill="#5A5858" d="M63.356,64.094c1.854,0,3.302-2.146,3.29-1.828c-0.062,1.854-1.502,3.355-3.354,3.355
				c-1.854,0-3.413-1.503-3.357-3.355C59.938,62.104,61.504,64.094,63.356,64.094z"/>
		</g>
	</g>
</g>
</svg>
