<?xml version="1.0" encoding="utf-8"?>
<!-- Generator: Adobe Illustrator 16.0.3, SVG Export Plug-In . SVG Version: 6.00 Build 0)  -->
<!DOCTYPE svg PUBLIC "-//W3C//DTD SVG 1.1//EN" "http://www.w3.org/Graphics/SVG/1.1/DTD/svg11.dtd" [
	<!ENTITY ns_flows "http://ns.adobe.com/Flows/1.0/">
	<!ENTITY ns_extend "http://ns.adobe.com/Extensibility/1.0/">
	<!ENTITY ns_ai "http://ns.adobe.com/AdobeIllustrator/10.0/">
	<!ENTITY ns_graphs "http://ns.adobe.com/Graphs/1.0/">
]>
<svg version="1.1" id="Layer_1" xmlns:x="&ns_extend;" xmlns:i="&ns_ai;" xmlns:graph="&ns_graphs;"
	 xmlns="http://www.w3.org/2000/svg" xmlns:xlink="http://www.w3.org/1999/xlink" xmlns:a="http://ns.adobe.com/AdobeSVGViewerExtensions/3.0/"
	 x="0px" y="0px" width="108px" height="108px" viewBox="0 0 108 108" enable-background="new 0 0 108 108" xml:space="preserve">
<g>
	<g>
		<g>
			<g>
				<g>
					<path fill="#5E9BC4" d="M62.98,64.236c0,0,4.718,14.32,15.909,26.26c0,0,4.097,4.328,3.506-2.68
						c-0.594-7.008-2.646-26.432-14.008-35.59L62.98,64.236z"/>
				</g>
			</g>
			<g>
				<g>
					<path fill="#CD637A" d="M66.024,64.301c0,0,3.594,9.578,10.803,19.977c0,0,3.904,5.227,3.206,0.404
						C78.438,73.6,74.32,61.4,69.049,56.969L66.024,64.301z"/>
				</g>
			</g>
		</g>
	</g>
	<g>
		<g>
			<g>
				<g>
					<path fill="#476080" d="M45.398,63.646c0,0-4.72,14.32-15.908,26.262c0,0-4.097,4.326-3.506-2.678
						c0.592-7.014,2.646-26.436,14.007-35.592L45.398,63.646z"/>
				</g>
			</g>
			<g>
				<g>
					<path fill="#C04A60" d="M42.354,63.713c0,0-3.594,9.578-10.803,19.977c0,0-3.904,5.225-3.206,0.402
						c1.595-11.078,5.713-23.277,10.983-27.711L42.354,63.713z"/>
				</g>
			</g>
		</g>
	</g>
	<g>
		<g>
			<g>
				<g opacity="0.39">
					<g>
						<path fill="#C6CCD6" d="M54.006,92.969c6.848,0,12.621-3.471,14.462-8.227c-1.841-6.357-7.614-9.83-14.462-9.83
							c-6.849,0-12.62,3.473-14.463,9.83C41.387,89.498,47.159,92.969,54.006,92.969z"/>
					</g>
				</g>
				<g>
					<g>
						<path fill="#476080" d="M54.006,92.969c6.848,0,12.621-3.471,14.462-8.227c-1.841-6.357-7.614-9.83-14.462-9.83
							c-6.849,0-12.62,3.473-14.463,9.83C41.387,89.498,47.159,92.969,54.006,92.969z"/>
					</g>
				</g>
				<g>
					<g>
						<path fill="#476080" d="M39.543,84.742c-0.403,1.381-0.626,2.893-0.626,4.535c0,6.338,3.92,11.477,15.089,11.477v-7.785
							C47.159,92.969,41.387,89.498,39.543,84.742z"/>
					</g>
				</g>
				<g>
					<g>
						<path fill="#5E9BC4" d="M68.433,84.742c0.402,1.381,0.627,2.893,0.627,4.535c0,6.338-3.834,11.801-15.091,11.477v-7.785
							C60.819,92.969,66.592,89.498,68.433,84.742z"/>
					</g>
				</g>
			</g>
		</g>
		<g>
			<g>
				<g>
					<rect x="44.855" y="96.74" fill="#476080" width="6.283" height="8.664"/>
				</g>
			</g>
			<g>
				<g>
					<rect x="56.871" y="96.74" fill="#5E9BC4" width="6.286" height="8.664"/>
				</g>
			</g>
			<g>
				<g>
					<g>
						<path fill="#3F3F3E" d="M47.933,106.529c0.265,0,0.479,0.219,0.479,0.484v1.203h5.057c0-3.021-2.45-5.471-5.471-5.471
							c-3.021,0-5.47,2.449-5.47,5.471h4.924v-1.203C47.45,106.744,47.664,106.529,47.933,106.529z"/>
					</g>
				</g>
			</g>
			<g>
				<g>
					<g>
						<path fill="#3F3F3E" d="M59.945,106.529c0.27,0,0.488,0.219,0.488,0.484v1.203h5.055c0-3.021-2.45-5.471-5.47-5.471
							c-3.023,0-5.474,2.449-5.474,5.471h4.925v-1.203C59.47,106.744,59.684,106.529,59.945,106.529z"/>
					</g>
				</g>
			</g>
		</g>
	</g>
	<g>
		<g>
			<g>
				<g>
					<path fill="#476080" d="M52.592,39.144c0.691,0.523,1.102,1.092,1.425,1.674c0.312,0.586,0.514,1.191,0.616,1.812
						c0.106,0.616,0.112,1.252,0.006,1.91c-0.115,0.656-0.319,1.328-0.812,2.047c-0.697-0.521-1.105-1.092-1.431-1.673
						c-0.311-0.585-0.511-1.19-0.611-1.81c-0.062-1.812,0.146-2.812-0.001-1.912C51.902,40.534,52.105,39.863,52.592,39.144z"/>
				</g>
			</g>
			<g>
				<g>
					<path fill="#527A97" d="M56.525,38.542c0.669,0.552,1.054,1.139,1.351,1.733c0.288,0.602,0.459,1.213,0.538,1.836
						c0.078,0.623,0.052,1.263-0.08,1.911c-0.146,0.649-0.378,1.313-0.9,2.01c-0.673-0.553-1.061-1.137-1.354-1.736
						c-0.285-0.599-0.46-1.212-0.532-1.835c-0.074-0.624-0.054-1.26,0.08-1.909C55.776,39.898,56.006,39.237,56.525,38.542z"/>
				</g>
			</g>
		</g>
		<g>
			<g>
				<g>
					<path fill="#5E9BC4" d="M70.51,60.432c-0.281-1.494-0.96-4.461-0.96-4.461c-1.281-7.063-7.5-12.52-15.568-12.52v44.717
						c10.652,0,18.323-7.4,18.323-16.533C72.305,67.307,71.268,64.531,70.51,60.432z"/>
				</g>
			</g>
			<g>
				<g>
					<g>
						<path fill="#476080" d="M37.471,60.432c0.275-1.494,0.955-4.461,0.955-4.461c1.282-7.063,7.501-12.52,15.565-12.52v44.717
							c-10.649,0-18.321-7.4-18.321-16.533C35.668,67.307,36.708,64.531,37.471,60.432z"/>
					</g>
				</g>
			</g>
		</g>
		<g>
			<g>
				<path fill="#9C9B9B" d="M69.068,79.406c0,5.451-6.756,9.869-15.087,9.869c-8.332,0-15.086-4.418-15.086-9.869
					c0-5.453,6.755-9.871,15.086-9.871S69.068,73.953,69.068,79.406z"/>
			</g>
		</g>
		<g>
			<g>
				<g>
					<circle fill="#3F3F3E" cx="44.979" cy="77.882" r="2.169"/>
				</g>
			</g>
			<g>
				<g>
					<circle fill="#3F3F3E" cx="63.036" cy="77.882" r="2.169"/>
				</g>
			</g>
		</g>
		<g>
			<g>
				<g>
					<circle fill="#9C9B9B" cx="45.748" cy="59.901" r="3.462"/>
				</g>
			</g>
		</g>
		<g>
			<g>
				<g>
					<circle fill="#9C9B9B" cx="63.282" cy="59.901" r="3.462"/>
				</g>
			</g>
		</g>
		<g>
			<g>
				<g>
					<circle fill="#3F3F3E" cx="45.748" cy="59.902" r="1.938"/>
				</g>
			</g>
		</g>
		<g>
			<g>
				<g>
					<circle fill="#3F3F3E" cx="63.282" cy="59.901" r="1.938"/>
				</g>
			</g>
		</g>
		<g>
			<g>
				<circle fill="#FFFFFF" cx="46.517" cy="59.446" r="0.685"/>
			</g>
		</g>
		<g>
			<g>
				<circle fill="#FFFFFF" cx="64.286" cy="59.497" r="0.685"/>
			</g>
		</g>
		<g>
			<g>
				<g>
					<path fill="#F6E9E5" d="M50.79,84.627c0,1.34,0.612,1.314,1.415,1.412l0,0c0.885,0.061,1.417,0.064,1.417-1.412v-0.9
						c0,0.15-2.83-0.211-2.83-0.211v1.111H50.79z"/>
				</g>
			</g>
			<g>
				<g>
					<path fill="#F6E9E5" d="M56.842,84.84c0,1.338-0.613,1.314-1.416,1.412l0,0c-0.886,0.061-1.412,0.064-1.412-1.412v-0.902
						c0,0.152,2.563,0.486,2.563,0.486L56.842,84.84L56.842,84.84z"/>
				</g>
			</g>
		</g>
		<g>
			<g>
				<g>
					<path fill="#3F3F3E" d="M54.242,84.344c-6.076-1.83-10.762-0.109-10.945-0.25c-0.144-0.107-0.17-0.307-0.063-0.447
						c0.106-0.145,0.307-0.172,0.451-0.064c0.042,0.031,5.253-1.494,10.663,0.178c5.838,1.805,10.021-0.135,10.062-0.17
						c0.134-0.113,0.339-0.094,0.452,0.043c0.113,0.135,0.096,0.338-0.039,0.449C64.65,84.225,58.909,85.75,54.242,84.344z"/>
				</g>
			</g>
		</g>
	</g>
	<g>
		<g>
			<g>
				<path fill="#3F3F3E" d="M24.871,95.225c0.907-0.398,3.547-1.568,6.746,0.055c1.409,0.715,2.205,1.324,2.802,1.791
					c0.595,0.48,1.686,1.656,2.138,2.543c-0.908,0.408-1.059,0.58-2.218,0.951c-0.725,0.232-1.792,0.332-2.471,0.094
					c-0.678-0.24-1.401-0.516-2.283-1.283C28.989,98.891,26.691,95.662,24.871,95.225z"/>
			</g>
		</g>
		<g>
			<g>
				<g>
					<path fill="#476080" d="M35.898,100.268c-0.412,0-0.84-0.031-1.284-0.105c-0.877-0.141-1.473-0.967-1.328-1.842
						c0.142-0.877,0.965-1.469,1.842-1.33c5.187,0.832,7.203-7.977,7.225-8.062c0.19-0.865,1.049-1.414,1.914-1.219
						c0.868,0.191,1.412,1.049,1.221,1.918C45.387,90.082,43.033,100.268,35.898,100.268z"/>
				</g>
			</g>
		</g>
	</g>
	<circle fill="#AA9951" cx="39.76" cy="70.308" r="2.866"/>
	<path fill="#AA9951" d="M70.819,70.34c0,1.584-1.281,2.867-2.869,2.867c-1.585,0-2.864-1.283-2.864-2.867s1.279-2.867,2.864-2.867
		C69.538,67.473,70.819,68.756,70.819,70.34z"/>
	<path fill="#3F3F3E" d="M40.899,56.201c0,0,0.834-1.807,4.091-1.772c2.286,0.027,1.65,0.647,1.039,0.704
		c-2.157,0.203-3.563,0.301-4.201,1.17C40.891,57.586,40.547,56.746,40.899,56.201z"/>
	<path fill="#3F3F3E" d="M67.948,56.361c0,0-0.833-1.807-4.09-1.772c-2.286,0.027-1.649,0.645-1.039,0.704
		c2.156,0.201,3.564,0.299,4.202,1.168C67.957,57.744,68.304,56.906,67.948,56.361z"/>
	<path fill="#707071" d="M45.942,59.201c1.505,0,2.601,0.201,3.102,1.496c0.094-0.307,0.156-0.623,0.156-0.957
		c0-1.898-1.573-3.434-3.514-3.434c-1.942,0-3.516,1.535-3.516,3.434c0,0.428,0.09,0.834,0.239,1.213
		C42.834,59.525,44.345,59.201,45.942,59.201z"/>
	<path fill="#707071" d="M63.527,59.361c1.505,0,2.6,0.201,3.103,1.496c0.093-0.307,0.156-0.625,0.156-0.957
		c0-1.898-1.571-3.436-3.515-3.436c-1.942,0-3.515,1.537-3.515,3.436c0,0.426,0.09,0.834,0.236,1.211
		C60.418,59.684,61.932,59.361,63.527,59.361z"/>
</g>
</svg>
