<?xml version="1.0" encoding="utf-8"?>
<!-- Generator: Adobe Illustrator 16.0.3, SVG Export Plug-In . SVG Version: 6.00 Build 0)  -->
<!DOCTYPE svg PUBLIC "-//W3C//DTD SVG 1.1//EN" "http://www.w3.org/Graphics/SVG/1.1/DTD/svg11.dtd" [
	<!ENTITY ns_flows "http://ns.adobe.com/Flows/1.0/">
	<!ENTITY ns_extend "http://ns.adobe.com/Extensibility/1.0/">
	<!ENTITY ns_ai "http://ns.adobe.com/AdobeIllustrator/10.0/">
	<!ENTITY ns_graphs "http://ns.adobe.com/Graphs/1.0/">
]>
<svg version="1.1" id="Layer_1" xmlns:x="&ns_extend;" xmlns:i="&ns_ai;" xmlns:graph="&ns_graphs;"
	 xmlns="http://www.w3.org/2000/svg" xmlns:xlink="http://www.w3.org/1999/xlink" xmlns:a="http://ns.adobe.com/AdobeSVGViewerExtensions/3.0/"
	 x="0px" y="0px" width="108px" height="108px" viewBox="0 0 108 108" enable-background="new 0 0 108 108" xml:space="preserve">
<g>
	<g>
		<g>
			<g>
				<g>
					<path fill="#5E9BC4" d="M65.539,46.879c0,0,8.556-8.885,21.038-13.72c0,0,4.556-1.737,1.636,3.22
						C85.291,41.334,76.891,54.928,65.27,57.65L65.539,46.879z"/>
				</g>
			</g>
			<g>
				<g>
					<path fill="#C04A60" d="M67.807,47.91c0,0,6.047-5.785,15.045-10.9c0,0,4.734-2.468,2.508,0.844
						c-5.106,7.604-12.438,15.162-17.896,16.559L67.807,47.91z"/>
				</g>
			</g>
		</g>
		<g>
			<g>
				<g>
					<path fill="#476080" d="M41.72,47.408c0,0-8.509-8.926-20.968-13.824c0,0-4.547-1.761-1.651,3.21
						c2.898,4.972,11.229,18.606,22.837,21.39L41.72,47.408z"/>
				</g>
			</g>
			<g>
				<g>
					<path fill="#C04A60" d="M39.448,48.431c0,0-6.018-5.817-14.99-10.974c0,0-4.721-2.494-2.513,0.828
						c5.067,7.629,12.39,15.197,17.84,16.624L39.448,48.431z"/>
				</g>
			</g>
		</g>
	</g>
	<g>
		<g>
			<g>
				<g opacity="0.39">
					<g>
						<path fill="#C6CCD6" d="M53.79,92.394c6.939,0,12.792-3.52,14.66-8.339c-1.868-6.444-7.721-9.966-14.66-9.966
							c-6.943,0-12.795,3.521-14.663,9.966C40.996,88.874,46.849,92.394,53.79,92.394z"/>
					</g>
				</g>
				<g>
					<g>
						<path fill="#476080" d="M53.79,92.394c6.939,0,12.792-3.52,14.66-8.339c-1.868-6.444-7.721-9.966-14.66-9.966
							c-6.943,0-12.795,3.521-14.663,9.966C40.996,88.874,46.849,92.394,53.79,92.394z"/>
					</g>
				</g>
				<g>
					<g>
						<path fill="#476080" d="M39.128,84.055c-0.408,1.398-0.635,2.931-0.635,4.597c0,6.421,3.973,11.634,15.298,11.634v-7.892
							C46.849,92.394,40.996,88.874,39.128,84.055z"/>
					</g>
				</g>
				<g>
					<g>
						<path fill="#5E9BC4" d="M68.415,84.055c0.407,1.398,0.635,2.931,0.635,4.597c0,6.421-3.885,11.959-15.298,11.634v-7.892
							C60.695,92.394,66.547,88.874,68.415,84.055z"/>
					</g>
				</g>
			</g>
		</g>
		<g>
			<g>
				<g>
					<rect x="44.514" y="96.217" fill="#476080" width="6.371" height="8.785"/>
				</g>
			</g>
			<g>
				<g>
					<rect x="56.693" y="96.217" fill="#5E9BC4" width="6.372" height="8.785"/>
				</g>
			</g>
			<g>
				<g>
					<g>
						<path fill="#3F3F3E" d="M47.633,106.14c0.268,0,0.487,0.221,0.487,0.493v1.218h5.126c0-3.062-2.485-5.545-5.548-5.545
							s-5.543,2.484-5.543,5.545h4.989v-1.218C47.142,106.358,47.359,106.14,47.633,106.14z"/>
					</g>
				</g>
			</g>
			<g>
				<g>
					<g>
						<path fill="#3F3F3E" d="M59.812,106.14c0.271,0,0.493,0.221,0.493,0.493v1.218h5.124c0-3.062-2.482-5.545-5.546-5.545
							c-3.062,0-5.547,2.484-5.547,5.545h4.994v-1.218C59.328,106.358,59.544,106.14,59.812,106.14z"/>
					</g>
				</g>
			</g>
		</g>
	</g>
	<g>
		<g>
			<g>
				<g>
					<path fill="#476080" d="M49.792,38.329c0.191,0.858,0.133,1.565-0.001,2.229c-0.146,0.655-0.388,1.257-0.718,1.804
						c-0.324,0.546-0.738,1.04-1.25,1.477c-0.521,0.43-1.122,0.812-1.975,1.045c-0.194-0.859-0.135-1.57-0.001-2.232
						c0.145-0.656,0.389-1.254,0.719-1.799c1.146-1.439,1.964-2.074,1.258-1.475C48.348,38.947,48.944,38.561,49.792,38.329z"/>
				</g>
			</g>
			<g>
				<g>
					<path fill="#527A97" d="M58.009,38.397c0.825,0.302,1.391,0.733,1.878,1.201c0.476,0.478,0.848,1.005,1.133,1.573
						s0.477,1.188,0.567,1.854c0.082,0.67,0.084,1.383-0.18,2.225c-0.829-0.301-1.398-0.729-1.881-1.201
						c-0.476-0.477-0.849-1.002-1.129-1.574c-0.281-0.572-0.476-1.188-0.568-1.854C57.75,39.948,57.745,39.238,58.009,38.397z"/>
				</g>
			</g>
		</g>
		<g>
			<g>
				<g>
					<path fill="#5E9BC4" d="M70.52,59.413c-0.283-1.516-0.974-4.522-0.974-4.522c-1.298-7.16-7.603-12.693-15.779-12.693v45.332
						c10.798,0,18.574-7.503,18.574-16.762C72.34,66.381,71.286,63.566,70.52,59.413z"/>
				</g>
			</g>
			<g>
				<g>
					<g>
						<path fill="#476080" d="M37.026,59.413c0.279-1.516,0.968-4.522,0.968-4.522c1.3-7.16,7.604-12.693,15.78-12.693v45.332
							c-10.796,0-18.574-7.503-18.574-16.762C35.2,66.381,36.256,63.566,37.026,59.413z"/>
					</g>
				</g>
			</g>
		</g>
		<g>
			<g>
				<path fill="#9C9B9B" d="M69.059,78.646c0,5.527-6.848,10.006-15.293,10.006c-8.448,0-15.296-4.479-15.296-10.006
					c0-5.529,6.849-10.005,15.296-10.005C62.211,68.641,69.059,73.116,69.059,78.646z"/>
			</g>
		</g>
		<g>
			<g>
				<g>
					<circle fill="#3F3F3E" cx="44.639" cy="77.1" r="2.197"/>
				</g>
			</g>
			<g>
				<g>
					<circle fill="#3F3F3E" cx="62.942" cy="77.1" r="2.197"/>
				</g>
			</g>
		</g>
		<g>
			<g>
				<g>
					<circle fill="#9C9B9B" cx="45.418" cy="58.874" r="3.509"/>
				</g>
			</g>
		</g>
		<g>
			<g>
				<g>
					<circle fill="#9C9B9B" cx="63.194" cy="58.874" r="3.509"/>
				</g>
			</g>
		</g>
		<g>
			<g>
				<g>
					<circle fill="#3F3F3E" cx="45.418" cy="58.874" r="1.966"/>
				</g>
			</g>
		</g>
		<g>
			<g>
				<g>
					<circle fill="#3F3F3E" cx="63.194" cy="58.874" r="1.966"/>
				</g>
			</g>
		</g>
		<g>
			<g>
				<circle fill="#FFFFFF" cx="46.197" cy="58.411" r="0.694"/>
			</g>
		</g>
		<g>
			<g>
				<circle fill="#FFFFFF" cx="64.21" cy="58.464" r="0.694"/>
			</g>
		</g>
		<g>
			<g>
				<g>
					<path fill="#F6E9E5" d="M50.53,84.206c0,1.356,0.622,1.334,1.435,1.432l0,0c0.898,0.062,1.437,0.067,1.437-1.432v-0.914
						c0,0.153-2.869-0.212-2.869-0.212v1.124H50.53V84.206z"/>
				</g>
			</g>
			<g>
				<g>
					<path fill="#F6E9E5" d="M56.663,84.152c0,1.358-0.622,1.334-1.436,1.435l0,0c-0.899,0.062-1.433,0.064-1.433-1.435v-0.914
						c0,0.153,2.868-0.214,2.868-0.214V84.152L56.663,84.152z"/>
				</g>
			</g>
		</g>
		<g>
			<g>
				<g>
					<path fill="#3F3F3E" d="M53.973,83.437c-6.432,0-10.854,0.103-11.041-0.038c-0.145-0.109-0.171-0.312-0.062-0.452
						c0.107-0.147,0.31-0.175,0.454-0.069c0.044,0.033,4.657,0.024,10.862,0.024c6.195,0,10.106,0.021,10.147-0.014
						c0.137-0.116,0.345-0.096,0.459,0.04c0.117,0.141,0.098,0.346-0.041,0.458C64.578,83.53,60.414,83.437,53.973,83.437z"/>
				</g>
			</g>
		</g>
	</g>
	<g>
		<g>
			<g>
				<path fill="#3F3F3E" d="M24.254,94.683c0.921-0.406,3.595-1.593,6.838,0.056c1.429,0.723,2.236,1.343,2.841,1.815
					c0.6,0.486,1.709,1.677,2.164,2.576c-0.92,0.415-1.071,0.589-2.248,0.966c-0.732,0.234-1.815,0.337-2.504,0.096
					c-0.687-0.245-1.419-0.524-2.314-1.303C28.428,98.4,26.1,95.124,24.254,94.683z"/>
			</g>
		</g>
		<g>
			<g>
				<g>
					<path fill="#476080" d="M35.433,99.794c-0.416,0-0.852-0.035-1.301-0.106c-0.888-0.146-1.492-0.981-1.347-1.869
						c0.143-0.888,0.979-1.49,1.866-1.35c5.259,0.846,7.304-8.085,7.324-8.172c0.195-0.877,1.063-1.437,1.942-1.236
						c0.879,0.194,1.432,1.066,1.236,1.943C45.051,89.47,42.664,99.794,35.433,99.794z"/>
				</g>
			</g>
		</g>
	</g>
	<circle fill="#E8647B" cx="39.025" cy="69.744" r="2.906"/>
	<path fill="#E8647B" d="M71.428,69.637c0,1.606-1.302,2.906-2.909,2.906c-1.606,0-2.904-1.303-2.904-2.906
		c0-1.604,1.298-2.904,2.904-2.904C70.127,66.732,71.428,68.031,71.428,69.637z"/>
	<path fill="#3F3F3E" d="M44.882,50.392c0,0,1.93-0.584,4.095,1.91c1.518,1.752,0.619,1.687,0.166,1.261
		c-1.604-1.499-2.624-2.5-3.711-2.4C43.825,51.315,44.229,50.488,44.882,50.392z"/>
	<path fill="#3F3F3E" d="M62.669,50.445c0,0-1.833-1.242-4.114,1.855c-1.602,2.178-0.728,2.273-0.252,1.758
		c1.665-1.797,2.729-3.01,3.776-2.635C63.628,51.979,63.295,50.716,62.669,50.445z"/>
	<path fill="#707071" d="M63.41,58.324c1.501,0,2.596,0.204,3.098,1.528c0.091-0.313,0.157-0.637,0.157-0.979
		c0-1.938-1.573-3.509-3.511-3.509c-1.938,0-3.509,1.57-3.509,3.509c0,0.438,0.089,0.853,0.236,1.239
		C60.306,58.654,61.815,58.324,63.41,58.324z"/>
	<path fill="#707071" d="M45.664,58.324c1.501,0,2.596,0.205,3.098,1.528c0.092-0.313,0.157-0.637,0.157-0.978
		c0-1.939-1.571-3.509-3.511-3.509s-3.51,1.569-3.51,3.509c0,0.438,0.09,0.852,0.237,1.238
		C42.561,58.654,44.069,58.324,45.664,58.324z"/>
</g>
</svg>
