<?xml version="1.0" encoding="utf-8"?>
<!-- Generator: Adobe Illustrator 16.0.3, SVG Export Plug-In . SVG Version: 6.00 Build 0)  -->
<!DOCTYPE svg PUBLIC "-//W3C//DTD SVG 1.1//EN" "http://www.w3.org/Graphics/SVG/1.1/DTD/svg11.dtd" [
	<!ENTITY ns_flows "http://ns.adobe.com/Flows/1.0/">
	<!ENTITY ns_extend "http://ns.adobe.com/Extensibility/1.0/">
	<!ENTITY ns_ai "http://ns.adobe.com/AdobeIllustrator/10.0/">
	<!ENTITY ns_graphs "http://ns.adobe.com/Graphs/1.0/">
]>
<svg version="1.1" id="Layer_1" xmlns:x="&ns_extend;" xmlns:i="&ns_ai;" xmlns:graph="&ns_graphs;"
	 xmlns="http://www.w3.org/2000/svg" xmlns:xlink="http://www.w3.org/1999/xlink" xmlns:a="http://ns.adobe.com/AdobeSVGViewerExtensions/3.0/"
	 x="0px" y="0px" width="108px" height="108px" viewBox="0 0 108 108" enable-background="new 0 0 108 108" xml:space="preserve">
<g>
	<g>
		<g>
			<g>
				<path fill="#9FB95C" d="M61.983,68.591c0,0,2.34,14.425,11.236,27.558c0,0,3.266,4.766,3.764-2.033
					c0.498-6.801,1.486-25.705-7.997-36.201L61.983,68.591z"/>
			</g>
		</g>
		<g>
			<g>
				<path fill="#CD637A" d="M64.889,69.115c0,0,1.981,9.717,7.302,20.768c0,0,2.945,5.598,3.01,0.873
					c0.159-10.852-1.929-23.154-6.304-28.199L64.889,69.115z"/>
			</g>
		</g>
	</g>
</g>
<g>
	<g>
		<g>
			<g>
				<path fill="#447648" d="M45.308,67.779c0,0-3.244,14.248-12.951,26.795c0,0-3.558,4.55-3.627-2.264
					c-0.069-6.82,0.137-25.75,10.262-35.629L45.308,67.779z"/>
			</g>
		</g>
		<g>
			<g>
				<path fill="#C04A60" d="M42.375,68.12c0,0-2.592,9.571-8.597,20.264c0,0-3.292,5.403-3.058,0.685
					c0.526-10.838,3.385-22.987,8.065-27.746L42.375,68.12z"/>
			</g>
		</g>
	</g>
</g>
<g>
	<g>
		<g>
			<g opacity="0.39">
				<g>
					<path fill="#C6CCD6" d="M53.854,93.218c6.635,0,12.23-3.362,14.018-7.974c-1.787-6.161-7.383-9.528-14.018-9.528
						c-6.64,0-12.234,3.367-14.021,9.528C41.619,89.855,47.216,93.218,53.854,93.218z"/>
				</g>
			</g>
			<g>
				<g>
					<path fill="#447648" d="M53.854,93.218c6.635,0,12.23-3.362,14.018-7.974c-1.787-6.161-7.383-9.528-14.018-9.528
						c-6.64,0-12.234,3.367-14.021,9.528C41.619,89.855,47.216,93.218,53.854,93.218z"/>
				</g>
			</g>
			<g>
				<g>
					<path fill="#447648" d="M39.833,85.245c-0.391,1.337-0.606,2.803-0.606,4.396c0,6.143,3.799,11.124,14.628,11.124v-7.546
						C47.216,93.218,41.619,89.855,39.833,85.245z"/>
				</g>
			</g>
			<g>
				<g>
					<path fill="#9FB95C" d="M67.839,85.245c0.389,1.337,0.604,2.803,0.604,4.396c0,6.143-3.715,11.438-14.627,11.124v-7.546
						C60.455,93.218,66.052,89.855,67.839,85.245z"/>
				</g>
			</g>
		</g>
	</g>
	<g>
		<g>
			<g>
				<rect x="44.982" y="96.876" fill="#447648" width="6.091" height="8.397"/>
			</g>
		</g>
		<g>
			<g>
				<rect x="56.63" y="96.876" fill="#9FB95C" width="6.094" height="8.397"/>
			</g>
		</g>
		<g>
			<g>
				<g>
					<path fill="#3F3F3E" d="M47.966,106.363c0.256,0,0.466,0.213,0.466,0.47V108h4.9c0-2.93-2.375-5.303-5.304-5.303
						c-2.928,0-5.302,2.373-5.302,5.303h4.771v-1.167C47.497,106.572,47.704,106.363,47.966,106.363z"/>
				</g>
			</g>
		</g>
		<g>
			<g>
				<g>
					<path fill="#3F3F3E" d="M59.61,106.363c0.26,0,0.473,0.213,0.473,0.47V108h4.9c0-2.93-2.375-5.303-5.303-5.303
						c-2.933,0-5.308,2.373-5.308,5.303h4.775v-1.167C59.149,106.572,59.356,106.363,59.61,106.363z"/>
				</g>
			</g>
		</g>
	</g>
</g>
<g>
	<g>
		<g>
			<g>
				<path fill="#447648" d="M45.035,43.736c0.812-0.217,1.49-0.188,2.13-0.09c0.633,0.114,1.217,0.32,1.751,0.613
					c0.534,0.288,1.024,0.663,1.462,1.135c0.432,0.481,0.822,1.037,1.079,1.842c-0.813,0.222-1.494,0.193-2.133,0.095
					c-0.632-0.112-1.212-0.321-1.747-0.615c-1.422-1.035-2.061-1.791-1.462-1.14C45.686,45.094,45.292,44.538,45.035,43.736z"/>
			</g>
		</g>
		<g>
			<g>
				<path fill="#9FB95C" d="M51.628,40.629c0.647,0.535,1.021,1.104,1.311,1.682c0.277,0.582,0.445,1.176,0.52,1.779
					c0.078,0.604,0.052,1.223-0.077,1.854c-0.142,0.629-0.365,1.271-0.871,1.946c-0.652-0.536-1.027-1.102-1.313-1.683
					c-0.275-0.581-0.446-1.176-0.516-1.779c-0.071-0.605-0.053-1.221,0.078-1.851C50.902,41.945,51.122,41.303,51.628,40.629z"/>
			</g>
		</g>
	</g>
	<g>
		<g>
			<g>
				<path fill="#9FB95C" d="M69.849,61.682c-0.271-1.447-0.928-4.324-0.928-4.324c-1.242-6.847-7.271-12.137-15.092-12.137v43.346
					c10.326,0,17.762-7.174,17.762-16.025C71.591,68.346,70.582,65.654,69.849,61.682z"/>
			</g>
		</g>
		<g>
			<g>
				<g>
					<path fill="#447648" d="M37.823,61.682c0.269-1.447,0.925-4.324,0.925-4.324c1.244-6.847,7.272-12.137,15.091-12.137v43.346
						c-10.322,0-17.761-7.174-17.761-16.025C36.077,68.346,37.087,65.654,37.823,61.682z"/>
				</g>
			</g>
		</g>
	</g>
	<g>
		<g>
			<path fill="#9C9B9B" d="M68.453,80.074c0,5.283-6.549,9.565-14.625,9.565c-8.077,0-14.624-4.282-14.624-9.565
				c0-5.287,6.549-9.569,14.624-9.569C61.904,70.505,68.453,74.787,68.453,80.074z"/>
		</g>
	</g>
	<g>
		<g>
			<g>
				<circle fill="#3F3F3E" cx="45.103" cy="78.596" r="2.101"/>
			</g>
		</g>
		<g>
			<g>
				<circle fill="#3F3F3E" cx="62.604" cy="78.596" r="2.101"/>
			</g>
		</g>
	</g>
	<g>
		<g>
			<g>
				<circle fill="#A55E5F" cx="45.848" cy="61.167" r="3.354"/>
			</g>
		</g>
	</g>
	<g>
		<g>
			<g>
				<circle fill="#A55E5F" cx="62.845" cy="61.167" r="3.354"/>
			</g>
		</g>
	</g>
	<g>
		<g>
			<g>
				<circle fill="#3F3F3E" cx="62.845" cy="61.167" r="1.879"/>
			</g>
		</g>
	</g>
	<g>
		<g>
			<circle fill="#FFFFFF" cx="46.594" cy="60.725" r="0.664"/>
		</g>
	</g>
	<g>
		<g>
			<circle fill="#FFFFFF" cx="63.817" cy="60.775" r="0.664"/>
		</g>
	</g>
	<g>
		<g>
			<g>
				<path fill="#F2F4EB" d="M50.701,85.675c0,1.298,0.596,1.274,1.372,1.37l0,0c0.858,0.061,1.375,0.062,1.375-1.37v-0.874
					c0,0.146-2.745-0.204-2.745-0.204v1.078H50.701z"/>
			</g>
		</g>
		<g>
			<g>
				<path fill="#F6F9F2" d="M56.601,85.338c0,1.299-0.596,1.275-1.373,1.371l0,0c-0.859,0.059-1.37,0.062-1.37-1.371v-0.873
					c0,0.146,2.485,0.471,2.485,0.471L56.601,85.338L56.601,85.338z"/>
			</g>
		</g>
	</g>
	<g>
		<g>
			<g>
				<circle fill="#3F3F3E" cx="45.848" cy="61.167" r="1.879"/>
			</g>
		</g>
	</g>
</g>
<g>
	<g>
		<g>
			<path fill="#3F3F3E" d="M40.3,107.699c0.062-0.769,0.245-3-1.267-5.301c-0.664-1.015-1.157-1.561-1.532-1.968
				c-0.383-0.401-1.251-1.106-1.839-1.344c-0.065,0.769-0.137,0.909-0.135,1.871c0,0.601,0.138,1.453,0.397,1.955
				c0.261,0.502,0.551,1.034,1.149,1.628C37.457,104.945,39.719,106.324,40.3,107.699z"/>
		</g>
	</g>
	<g>
		<g>
			<g>
				<path fill="#447648" d="M35.409,99.691c0.076,0.323,0.173,0.654,0.295,0.994c0.241,0.672,0.82,1.03,1.292,0.803
					c0.474-0.228,0.66-0.955,0.421-1.625c-1.425-3.973,3.225-6.726,3.271-6.752c0.457-0.267,0.614-1.014,0.343-1.67
					c-0.268-0.656-0.856-0.972-1.314-0.705C39.474,90.877,34.104,94.078,35.409,99.691z"/>
			</g>
		</g>
	</g>
</g>
<circle fill="#AA9951" cx="40.045" cy="71.254" r="2.779"/>
<path fill="#AA9951" d="M70.318,71.368c0,1.534-1.242,2.78-2.783,2.78c-1.532,0-2.774-1.246-2.774-2.78s1.242-2.778,2.774-2.778
	C69.075,68.59,70.318,69.834,70.318,71.368z"/>
<path fill="#3F3F3E" d="M41.148,57.58c0,0,0.809-1.751,3.965-1.717c2.216,0.025,1.601,0.627,1.008,0.682
	c-2.091,0.197-3.454,0.291-4.071,1.133C41.14,58.921,40.805,58.107,41.148,57.58z"/>
<path fill="#3F3F3E" d="M67.367,57.734c0,0-0.809-1.752-3.965-1.717c-2.217,0.025-1.6,0.627-1.008,0.682
	c2.09,0.195,3.455,0.291,4.072,1.133C67.375,59.074,67.712,58.263,67.367,57.734z"/>
<g>
	<g>
		<g>
			<path fill="#5A5858" d="M45.871,64.118c1.854,0,3.302-2.146,3.29-1.827c-0.062,1.854-1.502,3.355-3.354,3.355
				c-1.854,0-3.413-1.504-3.357-3.355C42.453,62.129,44.019,64.118,45.871,64.118z"/>
		</g>
	</g>
</g>
<g>
	<g>
		<g>
			<path fill="#3F3F3E" d="M54.325,85.064c-4.982,0-8.388,0.496-8.533,0.387c-0.111-0.084-0.133-0.241-0.049-0.352
				c0.084-0.113,0.241-0.136,0.354-0.053c0.033,0.025,3.545-0.816,8.354-0.816c4.799,0,7.894,0.852,7.925,0.823
				c0.106-0.088,0.268-0.073,0.356,0.033s0.075,0.267-0.031,0.354C62.564,85.553,59.316,85.064,54.325,85.064z"/>
		</g>
	</g>
</g>
<path fill="#707071" d="M63.142,62.222c1.457,0,2.539-1.351,3.025-0.096c0.091-0.297,0.151-0.604,0.151-0.929
	c0-1.84-1.525-3.329-3.408-3.329c-1.881,0-3.404,1.489-3.404,3.329c0,0.416,0.087,0.81,0.229,1.176
	C60.147,60.99,61.593,62.222,63.142,62.222z"/>
<path fill="#707071" d="M46.017,62.035c1.457,0,2.539-1.352,3.025-0.096c0.091-0.297,0.151-0.605,0.151-0.929
	c0-1.84-1.525-3.33-3.408-3.33c-1.882,0-3.405,1.49-3.405,3.33c0,0.415,0.086,0.81,0.229,1.175
	C43.022,60.803,44.468,62.035,46.017,62.035z"/>
<g>
	<g>
		<g>
			<path fill="#5A5858" d="M62.996,63.993c1.854,0,3.302-2.146,3.29-1.827c-0.062,1.854-1.502,3.355-3.354,3.355
				c-1.854,0-3.413-1.504-3.357-3.355C59.578,62.004,61.144,63.993,62.996,63.993z"/>
		</g>
	</g>
</g>
</svg>
