<?xml version="1.0" encoding="utf-8"?>
<!-- Generator: Adobe Illustrator 16.0.3, SVG Export Plug-In . SVG Version: 6.00 Build 0)  -->
<!DOCTYPE svg PUBLIC "-//W3C//DTD SVG 1.1//EN" "http://www.w3.org/Graphics/SVG/1.1/DTD/svg11.dtd" [
	<!ENTITY ns_flows "http://ns.adobe.com/Flows/1.0/">
	<!ENTITY ns_extend "http://ns.adobe.com/Extensibility/1.0/">
	<!ENTITY ns_ai "http://ns.adobe.com/AdobeIllustrator/10.0/">
	<!ENTITY ns_graphs "http://ns.adobe.com/Graphs/1.0/">
]>
<svg version="1.1" id="Layer_1" xmlns:x="&ns_extend;" xmlns:i="&ns_ai;" xmlns:graph="&ns_graphs;"
	 xmlns="http://www.w3.org/2000/svg" xmlns:xlink="http://www.w3.org/1999/xlink" xmlns:a="http://ns.adobe.com/AdobeSVGViewerExtensions/3.0/"
	 x="0px" y="0px" width="144px" height="108px" viewBox="0 0 144 108" enable-background="new 0 0 144 108" xml:space="preserve">
<g>
	<path fill="#ECEFF2" d="M47.82,30.655c0,1.105-0.931,2.001-2.079,2.001h-1.782c-1.148,0-2.079-0.896-2.079-2.001l0,0
		c0-1.105,0.931-2.002,2.079-2.002h1.782C46.889,28.653,47.82,29.55,47.82,30.655L47.82,30.655z"/>
	<path fill="#ECEFF2" d="M53.166,32.085c0,0.948-0.798,1.716-1.782,1.716l0,0c-0.984,0-1.782-0.768-1.782-1.716v-1.716
		c0-0.948,0.798-1.716,1.782-1.716l0,0c0.984,0,1.782,0.768,1.782,1.716V32.085z"/>
	<path fill="#ECEFF2" d="M69.351,30.44c0,0.987-0.832,1.788-1.856,1.788h-0.148c-1.025,0-1.856-0.8-1.856-1.788l0,0
		c0-0.986,0.831-1.787,1.856-1.787h0.148C68.519,28.653,69.351,29.454,69.351,30.44L69.351,30.44z"/>
	<path fill="#ECEFF2" d="M80.041,30.44c0,0.987-0.831,1.788-1.857,1.788h-0.146c-1.025,0-1.856-0.8-1.856-1.788l0,0
		c0-0.986,0.831-1.787,1.856-1.787h0.146C79.21,28.653,80.041,29.454,80.041,30.44L80.041,30.44z"/>
	<path fill="#ECEFF2" d="M90.287,30.44c0,0.987-0.832,1.788-1.856,1.788h-0.148c-1.026,0-1.856-0.8-1.856-1.788l0,0
		c0-0.986,0.83-1.787,1.856-1.787h0.148C89.455,28.653,90.287,29.454,90.287,30.44L90.287,30.44z"/>
	<path fill="#ECEFF2" d="M98.897,30.44c0,0.987-0.831,1.788-1.854,1.788h-0.149c-1.025,0-1.856-0.8-1.856-1.788l0,0
		c0-0.986,0.831-1.787,1.856-1.787h0.149C98.066,28.653,98.897,29.454,98.897,30.44L98.897,30.44z"/>
	<path fill="#ECEFF2" d="M38.465,30.941c0,1.58-1.329,2.86-2.97,2.86l0,0c-1.641,0-2.97-1.28-2.97-2.86V19.787
		c0-1.58,1.329-2.859,2.97-2.859l0,0c1.641,0,2.97,1.28,2.97,2.859V30.941z"/>
	<path fill="#ECEFF2" d="M111.816,30.941c0,1.58-1.329,2.86-2.97,2.86l0,0c-1.641,0-2.97-1.28-2.97-2.86V19.787
		c0-1.58,1.329-2.859,2.97-2.859l0,0c1.641,0,2.97,1.28,2.97,2.859V30.941z"/>
	<path fill="#ECEFF2" d="M125.032,84.424c0,7.582-6.382,13.729-14.255,13.729H31.784c-7.873,0-14.255-6.146-14.255-13.729V44.669
		c0-7.582,6.382-13.728,14.255-13.728h78.994c7.873,0,14.255,6.146,14.255,13.728V84.424z"/>
	<path fill="#ECEFF2" d="M120.947,78.703c0,8.846-5.184,16.018-11.58,16.018H33.937c-6.396,0-11.582-7.172-11.582-16.018l0,0
		c0-8.846,5.186-16.016,11.582-16.016h75.431C115.764,62.688,120.947,69.857,120.947,78.703L120.947,78.703z"/>
	<path fill="#ECEFF2" d="M40.393,65.125c-7.859,0-14.253,6.156-14.253,13.725c0,7.566,6.394,13.725,14.253,13.725
		c7.858,0,14.251-6.158,14.251-13.725C54.645,71.281,48.251,65.125,40.393,65.125z"/>
	<path fill="#ECEFF2" d="M102.757,65.697c-7.858,0-14.253,6.156-14.253,13.725c0,7.566,6.395,13.725,14.253,13.725
		s14.251-6.158,14.251-13.725C117.008,71.854,110.615,65.697,102.757,65.697z"/>
	<path fill="#ECEFF2" stroke="#D1D152" stroke-width="1.1657" stroke-miterlimit="10" d="M118.499,44.669
		c0,3.001-2.526,5.434-5.643,5.434h-45.14c-3.117,0-5.643-2.432-5.643-5.434l0,0c0-3.001,2.526-5.434,5.643-5.434h45.14
		C115.973,39.235,118.499,41.667,118.499,44.669L118.499,44.669z"/>
	<path fill="#ECEFF2" d="M40.321,64.951c-8.037,0-14.552,6.275-14.552,14.014c0,7.74,6.515,14.014,14.552,14.014
		s14.551-6.273,14.551-14.014C54.873,71.227,48.358,64.951,40.321,64.951z M40.321,91.119c-6.97,0-12.62-5.441-12.62-12.154
		c0-6.711,5.65-12.154,12.62-12.154s12.62,5.443,12.62,12.154C52.941,85.678,47.292,91.119,40.321,91.119z"/>
	<path fill="#ECEFF2" d="M40.321,68.812c-5.823,0-10.542,4.547-10.542,10.152c0,5.607,4.72,10.154,10.542,10.154
		c5.822,0,10.543-4.547,10.543-10.154C50.864,73.359,46.144,68.812,40.321,68.812z M40.321,87.771c-5.05,0-9.143-3.943-9.143-8.807
		c0-4.861,4.093-8.805,9.143-8.805c5.049,0,9.143,3.943,9.143,8.805C49.464,83.828,45.371,87.771,40.321,87.771z"/>
	<path fill="#ECEFF2" d="M102.796,65.322c-8.037,0-14.552,6.273-14.552,14.012c0,7.74,6.515,14.016,14.552,14.016
		s14.552-6.275,14.552-14.016C117.348,71.596,110.833,65.322,102.796,65.322z M102.796,91.488c-6.971,0-12.62-5.441-12.62-12.154
		c0-6.711,5.649-12.152,12.62-12.152c6.97,0,12.62,5.441,12.62,12.152C115.416,86.047,109.766,91.488,102.796,91.488z"/>
	<path fill="#ECEFF2" d="M102.796,69.184c-5.823,0-10.542,4.545-10.542,10.15c0,5.607,4.719,10.154,10.542,10.154
		s10.543-4.547,10.543-10.154C113.339,73.729,108.619,69.184,102.796,69.184z M102.796,88.141c-5.05,0-9.142-3.941-9.142-8.807
		c0-4.861,4.092-8.805,9.142-8.805c5.051,0,9.145,3.943,9.145,8.805C111.94,84.199,107.847,88.141,102.796,88.141z"/>
	<ellipse fill="#ECEFF2" cx="40.321" cy="78.965" rx="4.306" ry="4.148"/>
	<ellipse fill="#ECEFF2" cx="102.797" cy="79.334" rx="4.307" ry="4.148"/>
	<rect x="57.323" y="62.545" fill="#ECEFF2" width="28.51" height="32.176"/>
	
		<ellipse fill="#ECEFF2" stroke="#F05E7B" stroke-width="1.1657" stroke-miterlimit="10" cx="30.818" cy="43.382" rx="4.9" ry="4.719"/>
	<ellipse fill="#ECEFF2" cx="43.365" cy="56.109" rx="4.751" ry="4.576"/>
	<ellipse fill="#ECEFF2" cx="30.892" cy="56.395" rx="4.751" ry="4.576"/>
	<path fill="#ECEFF2" d="M119.686,57.111c0,0.867-0.729,1.572-1.633,1.572H61.035c-0.902,0-1.634-0.705-1.634-1.572l0,0
		c0-0.869,0.731-1.572,1.634-1.572h57.018C118.956,55.539,119.686,56.242,119.686,57.111L119.686,57.111z"/>
	<path fill="#ECEFF2" d="M85.684,69.123c0,0.396-0.345,0.719-0.77,0.719H58.091c-0.424,0-0.768-0.322-0.768-0.719l0,0
		c0-0.398,0.344-0.721,0.768-0.721h26.823C85.339,68.402,85.684,68.725,85.684,69.123L85.684,69.123z"/>
	<path fill="#ECEFF2" d="M85.684,74.842c0,0.398-0.343,0.721-0.77,0.721H58.091c-0.424,0-0.768-0.322-0.768-0.721l0,0
		c0-0.396,0.344-0.719,0.768-0.719h26.823C85.341,74.123,85.684,74.445,85.684,74.842L85.684,74.842z"/>
	<path fill="#ECEFF2" d="M85.833,83.709c0,0.396-0.347,0.721-0.773,0.721H58.095c-0.426,0-0.771-0.324-0.771-0.721l0,0
		c0-0.398,0.346-0.721,0.771-0.721H85.06C85.486,82.988,85.833,83.311,85.833,83.709L85.833,83.709z"/>
	<path fill="#ECEFF2" d="M113.747,15.14c0,3.593-2.759,6.506-6.163,6.506H36.61c-3.404,0-6.163-2.913-6.163-6.506l0,0
		c0-3.594,2.759-6.507,6.163-6.507h70.974C110.988,8.633,113.747,11.546,113.747,15.14L113.747,15.14z"/>
	<ellipse fill="#ECEFF2" cx="30.818" cy="43.382" rx="2.673" ry="2.574"/>
</g>
<path fill="#3F4245" d="M48.764,31.794c0,1.07-0.901,1.938-2.012,1.938h-1.725c-1.111,0-2.012-0.868-2.012-1.938l0,0
	c0-1.07,0.901-1.938,2.012-1.938h1.725C47.863,29.856,48.764,30.724,48.764,31.794L48.764,31.794z"/>
<path fill="#3F4245" d="M53.938,33.178c0,0.917-0.772,1.661-1.725,1.661l0,0c-0.953,0-1.725-0.743-1.725-1.661v-1.661
	c0-0.917,0.772-1.661,1.725-1.661l0,0c0.953,0,1.725,0.743,1.725,1.661V33.178z"/>
<path fill="#3F4245" d="M69.604,31.586c0,0.955-0.805,1.73-1.797,1.73h-0.144c-0.992,0-1.797-0.775-1.797-1.73l0,0
	c0-0.956,0.805-1.73,1.797-1.73h0.144C68.799,29.856,69.604,30.631,69.604,31.586L69.604,31.586z"/>
<path fill="#3F4245" d="M79.951,31.586c0,0.955-0.804,1.73-1.797,1.73h-0.144c-0.992,0-1.796-0.775-1.796-1.73l0,0
	c0-0.956,0.804-1.73,1.796-1.73h0.144C79.147,29.856,79.951,30.631,79.951,31.586L79.951,31.586z"/>
<path fill="#3F4245" d="M89.868,31.586c0,0.955-0.804,1.73-1.797,1.73h-0.144c-0.992,0-1.797-0.775-1.797-1.73l0,0
	c0-0.956,0.805-1.73,1.797-1.73h0.144C89.064,29.856,89.868,30.631,89.868,31.586L89.868,31.586z"/>
<path fill="#3F4245" d="M98.204,31.586c0,0.955-0.805,1.73-1.797,1.73h-0.144c-0.993,0-1.797-0.775-1.797-1.73l0,0
	c0-0.956,0.804-1.73,1.797-1.73h0.144C97.399,29.856,98.204,30.631,98.204,31.586L98.204,31.586z"/>
<path fill="#3F4245" d="M39.709,32.071c0,1.529-1.287,2.768-2.875,2.768l0,0c-1.587,0-2.875-1.239-2.875-2.768V21.275
	c0-1.529,1.287-2.769,2.875-2.769l0,0c1.588,0,2.875,1.239,2.875,2.769V32.071z"/>
<path fill="#3F4245" d="M110.707,32.071c0,1.529-1.286,2.768-2.874,2.768l0,0c-1.588,0-2.874-1.239-2.874-2.768V21.275
	c0-1.529,1.286-2.769,2.874-2.769l0,0c1.588,0,2.874,1.239,2.874,2.769V32.071z"/>
<path fill="#BAAD4D" stroke="#666868" stroke-miterlimit="10" d="M123.498,83.838c0,7.338-6.178,13.287-13.797,13.287H33.242
	c-7.62,0-13.797-5.949-13.797-13.287V45.358c0-7.339,6.177-13.288,13.797-13.288h76.459c7.619,0,13.797,5.949,13.797,13.288V83.838z
	"/>
<path fill="#75A2CC" d="M119.546,78.301c0,8.562-5.019,15.502-11.21,15.502h-73.01c-6.191,0-11.21-6.939-11.21-15.502l0,0
	c0-8.562,5.019-15.502,11.21-15.502h73.01C114.527,62.799,119.546,69.738,119.546,78.301L119.546,78.301z"/>
<path fill="#666E79" d="M41.576,65.156c-7.607,0-13.795,5.961-13.795,13.285s6.188,13.285,13.795,13.285
	c7.606,0,13.794-5.961,13.794-13.285S49.182,65.156,41.576,65.156z"/>
<path fill="#666E79" d="M101.938,65.711c-7.607,0-13.795,5.959-13.795,13.285c0,7.322,6.188,13.283,13.795,13.283
	c7.605,0,13.794-5.961,13.794-13.283C115.732,71.67,109.544,65.711,101.938,65.711z"/>
<path fill="#6990B1" stroke="#D1D152" stroke-width="1.1283" stroke-miterlimit="10" d="M117.175,45.358
	c0,2.905-2.445,5.26-5.461,5.26H68.022c-3.017,0-5.461-2.355-5.461-5.26l0,0c0-2.905,2.445-5.26,5.461-5.26h43.691
	C114.729,40.099,117.175,42.453,117.175,45.358L117.175,45.358z"/>
<path fill="#3F4245" d="M41.506,64.99c-7.779,0-14.084,6.072-14.084,13.564c0,7.49,6.306,13.562,14.084,13.562
	s14.085-6.072,14.085-13.562C55.591,71.062,49.285,64.99,41.506,64.99z M41.506,90.318c-6.746,0-12.215-5.268-12.215-11.764
	c0-6.498,5.469-11.764,12.215-11.764c6.747,0,12.215,5.266,12.215,11.764C53.721,85.051,48.252,90.318,41.506,90.318z"/>
<path fill="#3F4245" d="M41.506,68.727c-5.636,0-10.204,4.4-10.204,9.828s4.568,9.826,10.204,9.826s10.204-4.398,10.204-9.826
	S47.142,68.727,41.506,68.727z M41.506,87.076c-4.888,0-8.849-3.814-8.849-8.521s3.961-8.523,8.849-8.523s8.85,3.816,8.85,8.523
	S46.394,87.076,41.506,87.076z"/>
<path fill="#3F4245" d="M101.977,65.348c-7.779,0-14.085,6.074-14.085,13.564c0,7.492,6.306,13.564,14.085,13.564
	c7.778,0,14.084-6.072,14.084-13.564C116.061,71.422,109.755,65.348,101.977,65.348z M101.977,90.676
	c-6.746,0-12.215-5.266-12.215-11.764s5.469-11.764,12.215-11.764s12.215,5.266,12.215,11.764S108.723,90.676,101.977,90.676z"/>
<path fill="#3F4245" d="M101.977,69.086c-5.637,0-10.204,4.398-10.204,9.826s4.567,9.828,10.204,9.828
	c5.635,0,10.204-4.4,10.204-9.828S107.611,69.086,101.977,69.086z M101.977,87.436c-4.888,0-8.851-3.816-8.851-8.523
	s3.963-8.523,8.851-8.523s8.85,3.816,8.85,8.523S106.864,87.436,101.977,87.436z"/>
<ellipse fill="#3F4245" cx="41.434" cy="78.555" rx="4.168" ry="4.014"/>
<ellipse fill="#3F4245" cx="101.904" cy="78.912" rx="4.168" ry="4.014"/>
<rect x="57.962" y="62.66" fill="#82909E" width="27.595" height="31.143"/>
<ellipse fill="#8F4557" stroke="#F05E7B" stroke-width="1.1283" stroke-miterlimit="10" cx="32.308" cy="44.113" rx="4.743" ry="4.567"/>
<ellipse fill="#C0CDD8" stroke="#515559" stroke-miterlimit="10" cx="44.452" cy="56.432" rx="4.599" ry="4.43"/>
<ellipse fill="#C0CDD8" stroke="#515559" stroke-miterlimit="10" cx="32.38" cy="56.709" rx="4.599" ry="4.428"/>
<path fill="#3F4245" d="M118.324,57.4c0,0.842-0.707,1.523-1.58,1.523H61.555c-0.873,0-1.581-0.682-1.581-1.523l0,0
	c0-0.842,0.708-1.521,1.581-1.521h55.189C117.617,55.879,118.324,56.559,118.324,57.4L118.324,57.4z"/>
<path fill="#3F4245" d="M85.412,69.027c0,0.385-0.332,0.697-0.743,0.697H58.706c-0.411,0-0.744-0.312-0.744-0.697l0,0
	c0-0.385,0.333-0.697,0.744-0.697h25.963C85.08,68.33,85.412,68.643,85.412,69.027L85.412,69.027z"/>
<path fill="#3F4245" d="M85.412,74.564c0,0.385-0.332,0.697-0.743,0.697H58.706c-0.411,0-0.744-0.312-0.744-0.697l0,0
	c0-0.387,0.333-0.699,0.744-0.699h25.963C85.08,73.865,85.412,74.178,85.412,74.564L85.412,74.564z"/>
<path fill="#3F4245" d="M85.557,83.145c0,0.385-0.335,0.697-0.748,0.697h-26.1c-0.412,0-0.747-0.312-0.747-0.697l0,0
	c0-0.385,0.335-0.697,0.747-0.697h26.1C85.222,82.447,85.557,82.76,85.557,83.145L85.557,83.145z"/>
<path fill="#1C95D2" stroke="#3C3E3F" stroke-miterlimit="10" d="M112.576,16.776c0,3.478-2.671,6.298-5.965,6.298H37.914
	c-3.294,0-5.965-2.82-5.965-6.298l0,0c0-3.478,2.67-6.298,5.965-6.298h68.698C109.905,10.479,112.576,13.298,112.576,16.776
	L112.576,16.776z"/>
<ellipse fill="#590F20" cx="32.308" cy="44.113" rx="2.587" ry="2.491"/>
<ellipse fill="#C0CDD8" stroke="#515559" stroke-width="0.4206" stroke-miterlimit="10" cx="41.434" cy="78.66" rx="1.934" ry="1.862"/>
<ellipse fill="#C0CDD8" stroke="#515559" stroke-width="0.4206" stroke-miterlimit="10" cx="101.905" cy="78.908" rx="1.934" ry="1.862"/>
<g>
	<path fill="#F4E9EC" d="M91.969,46.485c0.016,0.108-0.149,0.204-0.239,0.276c-0.194,0.156-0.404,0.3-0.658,0.408
		c-0.21,0.084-0.449,0.12-0.689,0.084c-0.074,0-0.134-0.012-0.209-0.036l-0.09-0.024c-0.06-0.012-0.045-0.012-0.075,0.024l-0.27,0.3
		c-0.254,0.264-0.568,0.503-0.958,0.624c-0.359,0.108-0.778,0.084-1.062-0.12c-0.314-0.216-0.345-0.576-0.3-0.887
		c0.03-0.348,0.15-0.708,0.285-1.043l-0.374,0.348c-0.061,0.06-0.135,0.156-0.225,0.168l-0.27,0.264l-1.003,0.948l-0.27,0.264
		c-0.09,0.084-0.27,0.06-0.3-0.06c-0.015-0.06,0.016-0.096,0.061-0.144c0.523-0.48,1.032-0.972,1.541-1.452
		c0.03-0.036,0.075-0.06,0.12-0.072l0.194-0.192c0.15-0.144,0.314-0.288,0.449-0.432l0.255-0.216
		c0.029-0.048,0.074-0.084,0.119-0.12c0.016-0.036,0.03-0.084,0.061-0.12c0.164-0.372,0.344-0.731,0.538-1.091
		c0.33-0.624,0.674-1.259,1.078-1.859c0.21-0.312,0.449-0.66,0.793-0.888c0.15-0.108,0.33-0.18,0.539-0.167
		c0.21,0.024,0.404,0.144,0.479,0.3c0.06,0.12,0.045,0.264,0.015,0.396c-0.075,0.288-0.255,0.552-0.449,0.792
		c-0.239,0.336-0.523,0.636-0.823,0.936c-0.434,0.444-0.913,0.875-1.377,1.307c-0.149,0.156-0.314,0.3-0.479,0.456
		c-0.044,0.048-0.089,0.084-0.119,0.156l-0.06,0.144c-0.045,0.084-0.075,0.18-0.12,0.276c-0.12,0.3-0.239,0.612-0.3,0.936
		c-0.045,0.252-0.104,0.576,0.09,0.803c0.225,0.24,0.688,0.192,0.974,0.048c0.389-0.168,0.688-0.48,0.913-0.78
		c-0.314-0.192-0.465-0.516-0.494-0.828c-0.03-0.312,0.029-0.647,0.209-0.936c0.165-0.228,0.524-0.503,0.884-0.359
		c0.359,0.156,0.374,0.587,0.344,0.863c-0.045,0.408-0.254,0.804-0.493,1.164c0.224,0.072,0.464,0.072,0.688,0
		c0.299-0.12,0.554-0.324,0.778-0.528C91.76,46.342,91.939,46.377,91.969,46.485z M88.661,44.771l0.539-0.492
		c0.419-0.396,0.838-0.804,1.212-1.235c0.194-0.216,0.39-0.444,0.539-0.684c0.12-0.168,0.239-0.36,0.239-0.552
		c0.015-0.072,0-0.156-0.06-0.204c-0.075-0.06-0.18-0.084-0.284-0.048c-0.09,0.024-0.165,0.084-0.24,0.144
		c-0.225,0.18-0.403,0.42-0.554,0.647c-0.464,0.648-0.823,1.332-1.183,2.015L88.661,44.771z M90.367,45.718
		c0-0.144,0-0.324-0.075-0.468c-0.06-0.108-0.149-0.12-0.284-0.06c-0.135,0.06-0.225,0.18-0.284,0.288
		c-0.075,0.156-0.12,0.324-0.135,0.492c-0.015,0.288,0.045,0.624,0.329,0.839C90.128,46.474,90.322,46.102,90.367,45.718z"/>
	<path fill="#F4E9EC" d="M95.995,42.084c-0.09,0.204-0.239,0.396-0.374,0.576c-0.345,0.456-0.733,0.887-1.138,1.319
		c-0.494,0.54-1.003,1.067-1.512,1.595c-0.045,0.036-0.075,0.072-0.105,0.12l-0.06,0.144l-0.135,0.288
		c-0.09,0.192-0.165,0.372-0.225,0.552c-0.06,0.156-0.104,0.312-0.135,0.468c-0.029,0.18-0.045,0.372,0.045,0.54
		c0.284,0.552,1.422-0.516,1.632-0.695l0.464-0.408c0.104-0.096,0.314-0.36,0.479-0.204c0.074,0.084,0.015,0.156-0.045,0.216
		c-0.09,0.084-0.18,0.156-0.255,0.24l-0.494,0.419c-0.254,0.228-0.523,0.444-0.823,0.624c-0.209,0.12-0.434,0.24-0.703,0.228
		c-0.464,0-0.644-0.348-0.659-0.671c-0.015-0.384,0.15-0.768,0.3-1.14c-0.104,0.096-0.194,0.192-0.284,0.288
		c-0.09,0.084-0.27,0.096-0.314-0.036c-0.045-0.108,0.164-0.252,0.239-0.324l0.359-0.372c0.09-0.072,0.164-0.156,0.254-0.24
		c0.03-0.036,0.09-0.084,0.105-0.132c0.029-0.036,0.045-0.084,0.074-0.132c0.135-0.288,0.27-0.564,0.42-0.84
		c0.209-0.432,0.419-0.863,0.658-1.283c0.165-0.288,0.345-0.576,0.523-0.863c0.165-0.252,0.345-0.516,0.584-0.732
		c0.21-0.204,0.584-0.456,0.929-0.312C96.145,41.448,96.115,41.844,95.995,42.084z M95.681,41.58
		c-0.045-0.048-0.135-0.036-0.194-0.024c-0.285,0.096-0.479,0.348-0.629,0.552c-0.18,0.216-0.329,0.456-0.464,0.696
		c-0.225,0.348-0.419,0.695-0.599,1.043l-0.449,0.9c0.464-0.492,0.928-0.983,1.362-1.475c0.329-0.384,0.673-0.768,0.928-1.188
		C95.711,41.952,95.815,41.712,95.681,41.58z"/>
	<path fill="#F4E9EC" d="M99.767,46.533c-0.016,0.06-0.075,0.096-0.105,0.132c-0.149,0.132-0.299,0.264-0.434,0.396
		c-0.329,0.3-0.659,0.624-1.063,0.875c-0.284,0.192-0.673,0.36-1.047,0.216c-0.42-0.144-0.404-0.527-0.345-0.839
		c-0.284,0.288-0.629,0.576-1.033,0.744c-0.344,0.132-0.808,0.204-1.138,0.024c-0.27-0.144-0.374-0.408-0.374-0.66
		c0.016-0.3,0.165-0.6,0.345-0.863c0.225-0.36,0.554-0.672,0.928-0.948c0.3-0.228,0.644-0.432,1.018-0.576
		c0.465-0.18,0.988-0.276,1.497-0.228c0.09,0.012,0.18,0.024,0.27,0.048c0.239,0.06,0.03,0.324-0.03,0.432
		c-0.179,0.324-0.374,0.624-0.583,0.936c-0.061,0.096-0.135,0.192-0.21,0.288c-0.06,0.096-0.12,0.18-0.165,0.288
		c-0.074,0.18-0.149,0.36-0.194,0.552c-0.029,0.144-0.06,0.324,0.03,0.468c0.06,0.096,0.225,0.132,0.359,0.108
		c0.164-0.024,0.299-0.096,0.419-0.168c0.165-0.108,0.329-0.228,0.464-0.348c0.39-0.312,0.749-0.66,1.107-0.996
		C99.602,46.317,99.796,46.414,99.767,46.533z M96.204,47.433c0.284-0.228,0.523-0.504,0.748-0.78
		c0.075-0.072,0.12-0.156,0.165-0.24l0.134-0.228c0.075-0.156,0.165-0.3,0.255-0.444c0.149-0.228,0.3-0.443,0.464-0.66
		c-0.464-0.048-0.928,0.048-1.332,0.204c-0.39,0.156-0.719,0.372-1.018,0.612c-0.359,0.276-0.674,0.6-0.868,0.959
		c-0.12,0.228-0.225,0.516-0.15,0.768c0.03,0.108,0.105,0.216,0.24,0.264c0.164,0.048,0.359,0.024,0.523-0.012
		C95.694,47.805,95.964,47.625,96.204,47.433z"/>
	<path fill="#F4E9EC" d="M103.389,46.593c-0.12,0.12-0.225,0.24-0.359,0.36c-0.27,0.252-0.569,0.492-0.913,0.696
		c-0.659,0.408-1.527,0.72-2.38,0.563c-0.42-0.072-0.794-0.252-1.108-0.492c-0.074-0.048-0.194-0.12-0.209-0.204
		c0-0.072,0.06-0.144,0.149-0.144c0.12-0.012,0.194,0.084,0.27,0.144c0.075,0.06,0.165,0.12,0.255,0.167
		c0.164,0.096,0.358,0.18,0.554,0.228c0.104,0.036,0.209,0.048,0.314,0.06c0.09,0.012,0.194,0.024,0.284,0.012
		c0.27-0.048,0.449-0.216,0.539-0.42c0.119-0.264,0.135-0.564,0.135-0.852c0-0.384-0.061-0.78-0.03-1.175
		c-0.3,0.288-0.599,0.563-0.913,0.839l-0.27,0.228c-0.045,0.048-0.149,0.06-0.21,0.012c-0.209-0.12,0.09-0.3,0.195-0.384
		c0.464-0.408,0.897-0.839,1.347-1.259l0.18-0.167c0.135-0.12,0.359,0.012,0.284,0.144c-0.045,0.084-0.149,0.12-0.18,0.204
		c-0.074,0.144-0.09,0.312-0.104,0.479c-0.015,0.396,0.045,0.804,0.03,1.2c0,0.335-0.03,0.719-0.255,1.019
		c0.479-0.144,0.898-0.384,1.272-0.66c0.314-0.228,0.599-0.479,0.838-0.755C103.238,46.293,103.508,46.45,103.389,46.593z"/>
	<path fill="#F4E9EC" d="M106.666,46.474c0.029,0.06-0.016,0.108-0.06,0.156c-0.09,0.084-0.18,0.18-0.285,0.264
		c-0.329,0.324-0.644,0.672-1.062,0.936c-0.3,0.192-0.703,0.348-1.093,0.252c-0.3-0.06-0.449-0.264-0.494-0.492
		c-0.045-0.24-0.015-0.479,0.045-0.708c0.09-0.36,0.225-0.72,0.374-1.067c-0.194,0.228-0.403,0.456-0.613,0.684
		c-0.075,0.072-0.194,0.216-0.329,0.12c-0.15-0.084-0.016-0.204,0.074-0.288c0.404-0.432,0.778-0.864,1.108-1.332h-0.674
		c-0.135,0-0.225-0.096-0.165-0.191c0.045-0.084,0.15-0.072,0.24-0.072h0.793l0.149-0.252c0.284-0.443,0.524-0.911,0.764-1.379
		c0.06-0.12,0.299-0.108,0.314,0.036c0.015,0.072-0.06,0.168-0.09,0.228l-0.225,0.456c-0.165,0.3-0.314,0.6-0.464,0.912h1.032
		c0.12,0,0.345-0.036,0.404,0.072c0.061,0.096-0.045,0.191-0.164,0.191h-1.407c-0.03,0-0.105,0.204-0.12,0.228l-0.119,0.252
		l-0.24,0.528c-0.135,0.324-0.254,0.647-0.329,0.983c-0.045,0.216-0.104,0.479,0.015,0.684c0.165,0.312,0.688,0.132,0.929-0.012
		c0.404-0.228,0.703-0.551,1.018-0.863l0.39-0.372C106.456,46.354,106.621,46.377,106.666,46.474z"/>
	<path fill="#F4E9EC" d="M109.72,46.701l-0.359,0.324c-0.21,0.18-0.419,0.348-0.659,0.516c-0.479,0.324-1.107,0.66-1.766,0.6
		c-0.314-0.036-0.584-0.168-0.719-0.408c-0.15-0.276-0.105-0.6-0.03-0.888c0.18-0.6,0.599-1.188,1.168-1.607
		c0.239-0.18,0.523-0.336,0.838-0.384c0.345-0.048,0.749,0.024,0.868,0.312c0.149,0.432-0.359,0.804-0.748,1.02
		c-0.345,0.168-0.704,0.288-1.078,0.384c-0.12,0.036-0.239,0.06-0.359,0.084l-0.18,0.036c-0.029,0-0.06,0.012-0.09,0.012
		c-0.015,0-0.015,0.048-0.029,0.048c-0.075,0.192-0.12,0.396-0.12,0.6c0.015,0.132,0.045,0.288,0.165,0.396
		c0.104,0.072,0.239,0.12,0.374,0.12c0.284,0.024,0.568-0.06,0.823-0.156c0.344-0.156,0.658-0.36,0.958-0.588
		c0.18-0.132,0.344-0.288,0.509-0.432l0.27-0.264c0.06-0.06,0.165-0.072,0.239-0.024C109.929,46.498,109.794,46.617,109.72,46.701z
		 M107.444,45.538c-0.285,0.252-0.509,0.54-0.688,0.852c0.613-0.12,1.302-0.312,1.736-0.684c0.119-0.096,0.225-0.216,0.254-0.348
		c0.03-0.216-0.225-0.264-0.449-0.24C107.968,45.142,107.669,45.346,107.444,45.538z"/>
	<path fill="#F4E9EC" d="M113.686,46.569l-0.15,0.144l-0.523,0.468c-0.284,0.264-0.584,0.528-0.913,0.755
		c-0.21,0.144-0.449,0.3-0.719,0.324c-0.419,0.036-0.599-0.312-0.554-0.588c0.075-0.384,0.374-0.731,0.629-1.056
		c0.135-0.18,0.27-0.348,0.404-0.54c0.074-0.12,0.209-0.3,0.194-0.444c-0.015-0.084-0.359-0.048-0.435-0.048
		c-0.194-0.012-0.389-0.048-0.464-0.216c-0.329,0.336-0.688,0.647-1.032,0.959l-0.285,0.24c-0.074,0.06-0.149,0.108-0.254,0.06
		c-0.255-0.108,0.104-0.336,0.209-0.42c0.3-0.251,0.584-0.516,0.868-0.779l0.479-0.468l0.225-0.204
		c0.104-0.108,0.314-0.036,0.299,0.096c-0.015,0.084-0.09,0.156-0.135,0.24c-0.015,0.048-0.045,0.084-0.045,0.132
		c-0.015,0.06-0.015,0.072,0.075,0.084c0.194,0.012,0.39-0.024,0.569,0.036c0.209,0.06,0.284,0.228,0.254,0.384
		c-0.045,0.168-0.135,0.336-0.239,0.479c-0.12,0.192-0.27,0.36-0.404,0.54c-0.21,0.288-0.479,0.587-0.569,0.923
		c-0.015,0.096-0.029,0.276,0.12,0.312c0.09,0.024,0.225-0.036,0.3-0.072c0.314-0.156,0.568-0.384,0.823-0.6l1.032-0.923
		C113.596,46.258,113.835,46.438,113.686,46.569z"/>
</g>
</svg>
