<?xml version="1.0" encoding="utf-8"?>
<!-- Generator: Adobe Illustrator 16.0.3, SVG Export Plug-In . SVG Version: 6.00 Build 0)  -->
<!DOCTYPE svg PUBLIC "-//W3C//DTD SVG 1.1//EN" "http://www.w3.org/Graphics/SVG/1.1/DTD/svg11.dtd" [
	<!ENTITY ns_flows "http://ns.adobe.com/Flows/1.0/">
	<!ENTITY ns_extend "http://ns.adobe.com/Extensibility/1.0/">
	<!ENTITY ns_ai "http://ns.adobe.com/AdobeIllustrator/10.0/">
	<!ENTITY ns_graphs "http://ns.adobe.com/Graphs/1.0/">
]>
<svg version="1.1" id="Layer_1" xmlns:x="&ns_extend;" xmlns:i="&ns_ai;" xmlns:graph="&ns_graphs;"
	 xmlns="http://www.w3.org/2000/svg" xmlns:xlink="http://www.w3.org/1999/xlink" xmlns:a="http://ns.adobe.com/AdobeSVGViewerExtensions/3.0/"
	 x="0px" y="0px" width="72px" height="72px" viewBox="0 0 72 72" enable-background="new 0 0 72 72" xml:space="preserve">
<g>
	<path fill="#F2DC14" d="M49.416,63.001c-0.111-0.468-0.541-2.089-1.193-4.488c-0.354,0.863-0.754,1.72-1.217,2.561
		c-1.6,2.898-3.281,5.174-4.777,6.896c2.672-0.358,4.963-0.838,6.834-1.318C49.453,65.717,49.754,64.425,49.416,63.001z"/>
	<path fill="#576313" d="M52.604,57.209l-2.258-7.027c-0.314,2.508-0.936,5.448-2.123,8.331c0.652,2.399,1.082,4.021,1.193,4.488
		c0.338,1.424,0.037,2.716-0.354,3.65c0.227-0.059,0.445-0.115,0.656-0.173C50.84,64.021,51.914,60.933,52.604,57.209z"/>
	<path fill="#194219" d="M48.223,58.513c1.188-2.883,1.809-5.823,2.123-8.331l-2.34-7.277c-0.436,2.25-1.061,4.931-1.924,7.75
		C46.918,53.706,47.656,56.408,48.223,58.513z"/>
	<path fill="#194219" d="M39.033,25.183c0.611-2.12,1.107-4.031,1.486-5.59l-2.373-7.389c-0.357,1.434-0.807,3.152-1.35,5.059
		C37.453,19.556,38.213,22.257,39.033,25.183z"/>
	<path fill="#576313" d="M46.082,50.654c0.863-2.819,1.488-5.5,1.924-7.75l-2.902-9.041c-0.297,2.037-0.771,4.767-1.51,7.741
		C44.473,44.786,45.316,47.863,46.082,50.654z"/>
	<path fill="#194219" d="M54.996,64.662l-2.393-7.453c-0.689,3.724-1.764,6.812-2.885,9.27
		C53.148,65.549,54.996,64.662,54.996,64.662z"/>
	<path fill="#576313" d="M36.797,17.263c0.543-1.907,0.992-3.625,1.35-5.059l-1.633-5.076c-0.422,1.17-0.926,2.531-1.491,4.02
		C35.408,12.414,36.029,14.554,36.797,17.263z"/>
	<path fill="#576313" d="M41.354,33.509c0.711-2.398,1.24-4.521,1.625-6.265l-2.459-7.651c-0.379,1.559-0.875,3.47-1.486,5.589
		C39.771,27.821,40.555,30.641,41.354,33.509z"/>
	<path fill="#194219" d="M34.704,10.141c0.074,0.215,0.181,0.555,0.319,1.007c0.565-1.489,1.069-2.85,1.491-4.02L34.77,1.693
		l-2.085,5.526C33.345,7.587,34.103,8.401,34.704,10.141z"/>
	<path fill="#194219" d="M43.594,41.604c0.738-2.975,1.213-5.704,1.51-7.741l-2.125-6.619c-0.385,1.744-0.914,3.867-1.625,6.265
		C42.1,36.203,42.857,38.94,43.594,41.604z"/>
</g>
<g>
	<path fill="#376B2A" d="M46.082,50.654c-0.443,1.438-0.947,2.912-1.523,4.384c-1.254,3.185-3.318,6.25-5.475,8.893
		c0.189,1.67,0.357,3.14,0.492,4.342c0.922-0.087,1.807-0.188,2.652-0.303c1.496-1.723,3.178-3.998,4.777-6.896
		c0.463-0.841,0.863-1.697,1.217-2.561C47.656,56.408,46.918,53.706,46.082,50.654z"/>
	<path fill="#4BB232" d="M34.865,68.554c1.66-0.043,3.234-0.141,4.711-0.281c-0.135-1.202-0.301-2.672-0.492-4.342
		C37.648,65.688,36.173,67.26,34.865,68.554z"/>
	<path fill="#4BB232" d="M30.855,33.994c-1.392,3.112-3.37,6.17-5.552,9.008c-1.407,4.895-2.798,9.836-3.976,14.061
		c2.657-2.762,5.48-6.029,8.06-9.691c2.466-3.502,4.543-7.81,6.244-12.113c-0.49-3.755-0.963-7.181-1.377-9.898
		C33.267,28.19,32.134,31.13,30.855,33.994z"/>
	<path fill="#376B2A" d="M35.627,35.258c1.384-3.504,2.519-7.008,3.404-10.075c-0.818-2.926-1.578-5.626-2.234-7.919
		c-0.693,2.452-1.542,5.217-2.544,8.096C34.667,28.077,35.14,31.502,35.627,35.258z"/>
	<path fill="#376B2A" d="M21.327,57.062c1.178-4.225,2.569-9.166,3.976-14.062c-3.419,4.45-7.34,8.356-10.292,11.062l-3.569,9.458
		c0,0,0.629,0.413,1.849,1.005C15.278,62.884,18.186,60.329,21.327,57.062z"/>
	<path fill="#A1AF38" d="M38.098,55.4c0.369,3.137,0.705,6.054,0.986,8.53c2.156-2.643,4.221-5.708,5.475-8.893
		c0.576-1.472,1.08-2.946,1.523-4.384c-0.766-2.791-1.609-5.868-2.488-9.05c-1.064,4.297-2.672,9.109-5.074,13.105
		C38.381,54.941,38.24,55.172,38.098,55.4z"/>
	<path fill="#F2DC14" d="M39.084,63.931c-0.281-2.477-0.617-5.394-0.986-8.53c-3.312,5.305-7.652,9.884-10.826,12.88
		c1.765,0.188,3.667,0.297,5.703,0.297c0.643,0,1.272-0.009,1.891-0.023C36.173,67.26,37.648,65.688,39.084,63.931z"/>
	<path fill="#F2DC14" d="M34.253,25.359c-0.576-3.766-1.046-6.169-1.308-6.195c-0.604-0.061-4.166,11.74-7.642,23.837
		c2.182-2.838,4.16-5.896,5.552-9.008C32.134,31.13,33.267,28.19,34.253,25.359z"/>
	<path fill="#A1AF38" d="M25.303,43.002c3.477-12.097,7.038-23.898,7.642-23.837c0.262,0.026,0.732,2.429,1.308,6.195
		c1.002-2.879,1.851-5.645,2.544-8.096c-0.768-2.709-1.389-4.85-1.774-6.115c-1.715,4.518-4.007,10.215-6.452,15.341
		c-2.027,4.25-4.657,7.766-7.113,10.485l-6.448,17.088C17.963,51.357,21.883,47.451,25.303,43.002z"/>
	<path fill="#A1AF38" d="M13.29,64.525c1.222,0.592,3.038,1.361,5.417,2.069c0.553-2.053,1.486-5.459,2.62-9.532
		C18.186,60.329,15.278,62.884,13.29,64.525z"/>
	<path fill="#A1AF38" d="M36.906,45.437c0.105-0.227,0.211-0.451,0.311-0.676c1.811-4.101,3.15-7.94,4.137-11.252
		c-0.799-2.868-1.582-5.688-2.32-8.326c-0.887,3.067-2.021,6.571-3.403,10.075C36.048,38.488,36.485,41.962,36.906,45.437z"/>
	<path fill="#F2DC14" d="M36.906,45.437c-0.421-3.475-0.858-6.948-1.279-10.179c-1.698,4.304-3.775,8.611-6.241,12.113
		c-2.579,3.662-5.403,6.93-8.06,9.691c-1.133,4.073-2.067,7.479-2.62,9.532c0.549,0.164,1.129,0.325,1.738,0.48
		C24.8,62.782,32.841,54.165,36.906,45.437z"/>
	<path fill="#4BB232" d="M35.022,11.148c-0.138-0.452-0.245-0.792-0.319-1.007c-0.601-1.74-1.359-2.554-2.019-2.921L21.457,36.975
		c2.456-2.719,5.086-6.234,7.113-10.485C31.016,21.363,33.308,15.667,35.022,11.148z"/>
	<path fill="#4BB232" d="M38.098,55.4c-0.369-3.171-0.777-6.567-1.191-9.964C32.841,54.165,24.8,62.782,20.445,67.075
		c1.972,0.499,4.252,0.934,6.827,1.205C30.446,65.284,34.786,60.705,38.098,55.4z"/>
	<path fill="#376B2A" d="M36.906,45.437c0.414,3.396,0.822,6.793,1.191,9.964c0.143-0.229,0.283-0.459,0.422-0.69
		c2.402-3.996,4.01-8.809,5.074-13.105c-0.736-2.664-1.494-5.401-2.24-8.096c-0.986,3.312-2.326,7.151-4.137,11.252
		C37.117,44.985,37.012,45.21,36.906,45.437z"/>
</g>
</svg>
