<?xml version="1.0" encoding="utf-8"?>
<!-- Generator: Adobe Illustrator 16.0.3, SVG Export Plug-In . SVG Version: 6.00 Build 0)  -->
<!DOCTYPE svg PUBLIC "-//W3C//DTD SVG 1.1//EN" "http://www.w3.org/Graphics/SVG/1.1/DTD/svg11.dtd" [
	<!ENTITY ns_flows "http://ns.adobe.com/Flows/1.0/">
	<!ENTITY ns_extend "http://ns.adobe.com/Extensibility/1.0/">
	<!ENTITY ns_ai "http://ns.adobe.com/AdobeIllustrator/10.0/">
	<!ENTITY ns_graphs "http://ns.adobe.com/Graphs/1.0/">
]>
<svg version="1.1" id="Layer_1" xmlns:x="&ns_extend;" xmlns:i="&ns_ai;" xmlns:graph="&ns_graphs;"
	 xmlns="http://www.w3.org/2000/svg" xmlns:xlink="http://www.w3.org/1999/xlink" xmlns:a="http://ns.adobe.com/AdobeSVGViewerExtensions/3.0/"
	 x="0px" y="0px" width="144px" height="144px" viewBox="0 0 144 144" enable-background="new 0 0 144 144" xml:space="preserve">
<g>
	<g>
		<g>
			<g>
				<path fill="#5C9AC4" d="M83.349,47.688c0,0-3.85-18.703,0.909-38.875c0,0,1.772-7.338,5.54,0.731
					c3.77,8.07,13.767,30.701,7.067,47.924L83.349,47.688z"/>
			</g>
		</g>
		<g>
			<g>
				<path fill="#BF495E" d="M86.655,45.696c0,0-2.095-12.786-0.742-28.756c0,0,0.991-8.204,3.273-2.463
					c5.236,13.178,8.461,29.16,5.469,37.353L86.655,45.696z"/>
			</g>
		</g>
	</g>
	<g>
		<g>
			<g>
				<path fill="#5C9AC4" d="M63.969,47.688c0,0,5.369-18.325,2.277-38.819c0,0-1.165-7.459-5.582,0.275
					c-4.418,7.735-16.236,29.469-10.969,47.184L63.969,47.688z"/>
			</g>
		</g>
		<g>
			<g>
				<path fill="#BF495E" d="M60.837,45.432c0,0,3.135-12.572,3.092-28.598c0,0-0.314-8.258-3.058-2.723
					c-6.298,12.705-10.767,28.383-8.456,36.795L60.837,45.432z"/>
			</g>
		</g>
	</g>
</g>
<g>
	<g>
		<g>
			<g opacity="0.39">
				<g>
					<path fill="#C6CCD6" d="M73.773,117.176c10.746,0,19.807-5.451,22.701-12.912c-2.895-9.977-11.955-15.43-22.701-15.43
						c-10.748,0-19.809,5.453-22.701,15.43C53.965,111.725,63.026,117.176,73.773,117.176z"/>
				</g>
			</g>
			<g>
				<g>
					<path fill="#455F7F" d="M73.773,117.176c10.746,0,19.807-5.451,22.701-12.912c-2.895-9.977-11.955-15.43-22.701-15.43
						c-10.748,0-19.809,5.453-22.701,15.43C53.965,111.725,63.026,117.176,73.773,117.176z"/>
				</g>
			</g>
			<g>
				<g>
					<path fill="#455F7F" d="M51.073,104.264c-0.63,2.166-0.982,4.535-0.982,7.117c0,9.947,6.151,18.01,23.683,18.01v-12.215
						C63.026,117.176,53.965,111.725,51.073,104.264z"/>
				</g>
			</g>
			<g>
				<g>
					<path fill="#5C9AC4" d="M96.418,104.264c0.629,2.166,0.98,4.535,0.98,7.117c0,9.947-6.016,18.516-23.681,18.01v-12.215
						C84.464,117.176,93.523,111.725,96.418,104.264z"/>
				</g>
			</g>
		</g>
	</g>
	<g>
		<g>
			<g>
				<rect x="59.41" y="123.096" fill="#455F7F" width="9.865" height="13.6"/>
			</g>
		</g>
		<g>
			<g>
				<rect x="78.27" y="123.096" fill="#5C9AC4" width="9.867" height="13.6"/>
			</g>
		</g>
		<g>
			<g>
				<g>
					<path fill="#3D3D3C" d="M64.239,138.459c0.416,0,0.755,0.34,0.755,0.758v1.889h7.936c0-4.742-3.845-8.586-8.588-8.586
						c-4.741,0-8.586,3.844-8.586,8.586h7.728v-1.889C63.482,138.799,63.82,138.459,64.239,138.459z"/>
				</g>
			</g>
		</g>
		<g>
			<g>
				<g>
					<path fill="#3D3D3C" d="M83.099,138.459c0.417,0,0.757,0.34,0.757,0.758v1.889h7.934c0-4.742-3.842-8.586-8.586-8.586
						c-4.741,0-8.585,3.844-8.585,8.586h7.727v-1.889C82.345,138.799,82.68,138.459,83.099,138.459z"/>
				</g>
			</g>
		</g>
	</g>
</g>
<g>
	<g>
		<g>
			<g>
				<path fill="#455F7F" d="M75.188,33.504c0.227,1.343,0.08,2.433-0.18,3.447c-0.275,1.004-0.696,1.91-1.247,2.73
					c-0.547,0.821-1.226,1.553-2.053,2.186c-0.843,0.623-1.8,1.168-3.134,1.46c-0.232-1.345-0.086-2.437,0.174-3.451
					c0.275-1.003,0.699-1.909,1.254-2.727c0.553-0.816,1.23-1.549,2.058-2.181C72.904,34.345,73.858,33.798,75.188,33.504z"/>
			</g>
		</g>
		<g>
			<g>
				<path fill="#4F7896" d="M79.642,35.594c0.229,1.342,0.081,2.433-0.176,3.447c-0.278,1.004-0.701,1.91-1.249,2.73
					s-1.228,1.552-2.056,2.185c-0.841,0.623-1.797,1.17-3.131,1.461c-0.231-1.347-0.087-2.438,0.175-3.452
					c0.275-1.004,0.697-1.91,1.251-2.726c0.553-0.817,1.232-1.549,2.059-2.182C77.359,36.435,78.312,35.888,79.642,35.594z"/>
			</g>
		</g>
	</g>
	<g>
		<g>
			<g>
				<path fill="#5C9AC4" d="M99.671,66.11c-0.435-2.344-1.501-7-1.501-7c-2.014-11.084-11.773-19.65-24.434-19.65v70.179
					c16.718,0,28.76-11.615,28.76-25.945C102.496,76.898,100.863,72.543,99.671,66.11z"/>
			</g>
		</g>
		<g>
			<g>
				<g>
					<path fill="#455F7F" d="M47.818,66.11c0.433-2.344,1.499-7,1.499-7c2.016-11.084,11.774-19.65,24.435-19.65v70.179
						c-16.717,0-28.759-11.615-28.759-25.945C44.993,76.898,46.626,72.543,47.818,66.11z"/>
				</g>
			</g>
		</g>
	</g>
	<g>
		<g>
			<path fill="#9C9B9B" d="M97.415,95.891c0,8.555-10.602,15.49-23.679,15.49c-13.078,0-23.68-6.936-23.68-15.49
				c0-8.561,10.603-15.494,23.68-15.494C86.813,80.396,97.415,87.33,97.415,95.891z"/>
		</g>
	</g>
	<g>
		<g>
			<g>
				<circle fill="#3D3D3C" cx="59.606" cy="93.494" r="3.401"/>
			</g>
		</g>
		<g>
			<g>
				<circle fill="#3D3D3C" cx="87.945" cy="93.494" r="3.401"/>
			</g>
		</g>
	</g>
	<g>
		<g>
			<g>
				<circle fill="#9C9B9B" cx="60.812" cy="65.278" r="5.434"/>
			</g>
		</g>
	</g>
	<g>
		<g>
			<g>
				<circle fill="#9C9B9B" cx="88.334" cy="65.278" r="5.434"/>
			</g>
		</g>
	</g>
	<g>
		<g>
			<g>
				<circle fill="#3D3D3C" cx="60.812" cy="65.278" r="3.041"/>
			</g>
		</g>
	</g>
	<g>
		<g>
			<g>
				<circle fill="#3D3D3C" cx="88.334" cy="65.278" r="3.042"/>
			</g>
		</g>
	</g>
	<g>
		<g>
			<circle fill="#FFFFFF" cx="61.933" cy="64.313" r="1.075"/>
		</g>
	</g>
	<g>
		<g>
			<circle fill="#FFFFFF" cx="89.41" cy="64.313" r="1.075"/>
		</g>
	</g>
	<g>
		<g>
			<g>
				<path fill="#F6E9E5" d="M69.708,100.615c0,2.105,0.965,2.064,2.222,2.221l0,0c1.393,0.094,2.223,0.1,2.223-2.221v-1.414
					c0,0.238-4.444-0.328-4.444-0.328V100.615z"/>
			</g>
		</g>
		<g>
			<g>
				<path fill="#F6E9E5" d="M80.23,100.616c0,2.105-0.967,2.064-2.224,2.221l0,0c-1.392,0.094-2.221,0.1-2.221-2.221v-1.414
					c0,0.238,4.444-0.328,4.444-0.328V100.616z"/>
			</g>
		</g>
	</g>
	<g>
		<g>
			<g>
				<path fill="#3D3D3C" d="M74.837,99.266c-9.958,0-17.274,3.014-17.566,2.795c-0.222-0.17-0.266-0.484-0.098-0.705
					c0.167-0.225,0.483-0.268,0.706-0.102c0.068,0.053,7.147-4.846,16.754-4.846c9.589,0,15.712,4.914,15.773,4.863
					c0.216-0.178,0.533-0.152,0.713,0.062c0.177,0.215,0.148,0.533-0.065,0.711C90.788,102.266,84.808,99.266,74.837,99.266z"/>
			</g>
		</g>
	</g>
</g>
<g>
	<g>
		<g>
			<path fill="#3D3D3C" d="M28.046,120.721c1.423-0.635,5.566-2.465,10.587,0.078c2.212,1.123,3.462,2.084,4.399,2.816
				c0.93,0.754,2.645,2.594,3.351,3.988c-1.425,0.643-1.661,0.912-3.481,1.496c-1.135,0.361-2.812,0.521-3.875,0.146
				c-1.063-0.377-2.2-0.809-3.586-2.02C34.508,126.469,30.902,121.398,28.046,120.721z"/>
		</g>
	</g>
	<g>
		<g>
			<g>
				<path fill="#455F7F" d="M45.354,128.633c-0.646,0-1.317-0.053-2.015-0.166c-1.374-0.223-2.309-1.518-2.086-2.891
					c0.222-1.375,1.516-2.309,2.891-2.09c8.142,1.311,11.307-12.514,11.337-12.654c0.303-1.357,1.648-2.219,3.009-1.912
					c1.36,0.303,2.216,1.648,1.914,3.008C60.243,112.646,56.548,128.633,45.354,128.633z"/>
			</g>
		</g>
	</g>
</g>
<path fill="#565656" d="M60.725,59.729c-2.916,0.014-5.263,2.274-5.486,5.127L66.265,64.8
	C66.011,61.947,63.637,59.713,60.725,59.729z"/>
<path fill="#565656" d="M88.255,59.525c-2.916,0.014-5.263,2.274-5.486,5.127l11.027-0.057
	C93.542,61.743,91.167,59.509,88.255,59.525z"/>
<g>
	<g>
		<g>
			<path fill="#3D3D3C" d="M56.922,72.069c2.614,1.177,5.06,0.873,5.098,0.993c0.029,0.092-0.014,0.219-0.097,0.285
				c-0.083,0.067-0.174,0.047-0.204-0.044c-0.008-0.028-2.721,1.033-5.243-0.102c-2.517-1.134-3.267-3.762-3.292-3.75
				c-0.088,0.043-0.167-0.004-0.176-0.108c-0.009-0.104,0.054-0.225,0.141-0.268C53.258,69.021,54.305,70.89,56.922,72.069z"/>
		</g>
	</g>
</g>
<g>
	<g>
		<g>
			<path fill="#3D3D3C" d="M56.217,74.341c2.761,0.775,5.134,0.111,5.189,0.225c0.043,0.087,0.018,0.219-0.053,0.297
				c-0.073,0.078-0.165,0.071-0.208-0.015c-0.013-0.025-2.538,1.426-5.2,0.679c-2.657-0.747-3.789-3.235-3.812-3.219
				c-0.081,0.056-0.166,0.021-0.19-0.081c-0.024-0.102,0.02-0.23,0.1-0.286C52.141,71.871,53.453,73.563,56.217,74.341z"/>
		</g>
	</g>
</g>
<g>
	<g>
		<g>
			<path fill="#3D3D3C" d="M91.838,71.885c-2.614,1.177-5.06,0.873-5.098,0.993c-0.029,0.092,0.015,0.219,0.097,0.285
				c0.084,0.067,0.174,0.047,0.203-0.044c0.009-0.028,2.722,1.033,5.243-0.102c2.517-1.134,3.267-3.762,3.292-3.75
				c0.088,0.043,0.167-0.004,0.176-0.108c0.01-0.104-0.053-0.225-0.141-0.268C95.503,68.837,94.456,70.707,91.838,71.885z"/>
		</g>
	</g>
</g>
<g>
	<g>
		<g>
			<path fill="#3D3D3C" d="M92.544,74.157c-2.761,0.775-5.134,0.111-5.189,0.225c-0.043,0.087-0.018,0.219,0.054,0.297
				c0.073,0.078,0.165,0.071,0.208-0.015c0.012-0.025,2.537,1.426,5.199,0.679c2.658-0.747,3.789-3.235,3.812-3.219
				c0.08,0.056,0.166,0.021,0.19-0.081c0.024-0.102-0.02-0.23-0.1-0.286C96.62,71.687,95.308,73.38,92.544,74.157z"/>
		</g>
	</g>
</g>
</svg>
