<?xml version="1.0" encoding="UTF-8" standalone="no"?>
<!DOCTYPE svg PUBLIC "-//W3C//DTD SVG 1.1//EN" "http://www.w3.org/Graphics/SVG/1.1/DTD/svg11.dtd">
<svg version="1.1" xmlns="http://www.w3.org/2000/svg" xmlns:xlink="http://www.w3.org/1999/xlink" preserveAspectRatio="xMidYMid meet" viewBox="0 0 640 640" width="640" height="640"><defs><path d="M626.17 322.42C626.17 492.3 488.24 630.23 318.35 630.23C148.47 630.23 10.54 492.3 10.54 322.42C10.54 152.53 148.47 14.6 318.35 14.6C488.24 14.6 626.17 152.53 626.17 322.42Z" id="c4ItoXIwsC"></path><path d="M91.32 259.72L91.35 259.41L91.4 259.1L91.45 258.8L91.52 258.5L91.6 258.21L91.69 257.92L91.79 257.64L91.9 257.36L92.02 257.08L92.15 256.82L92.3 256.56L92.45 256.3L92.61 256.05L92.78 255.81L92.96 255.58L93.15 255.35L93.34 255.13L93.55 254.92L93.76 254.71L93.98 254.51L94.21 254.33L94.44 254.15L94.68 253.98L94.93 253.82L95.19 253.66L95.45 253.52L95.72 253.39L95.99 253.27L96.27 253.16L96.55 253.06L96.84 252.97L97.13 252.89L97.43 252.82L97.73 252.76L98.04 252.72L98.35 252.69L98.66 252.67L98.98 252.66L252.64 252.66L252.64 99L252.65 98.68L252.67 98.37L252.7 98.06L252.74 97.75L252.8 97.45L252.87 97.15L252.94 96.86L253.03 96.57L253.14 96.29L253.25 96.01L253.37 95.74L253.5 95.47L253.64 95.21L253.79 94.95L253.96 94.7L254.13 94.46L254.31 94.23L254.49 94L254.69 93.78L254.89 93.57L255.11 93.36L255.33 93.17L255.55 92.98L255.79 92.8L256.03 92.63L256.28 92.47L256.54 92.32L256.8 92.17L257.06 92.04L257.34 91.92L257.61 91.81L257.9 91.71L258.19 91.62L258.48 91.54L258.78 91.47L259.08 91.42L259.39 91.37L259.7 91.34L260.01 91.32L260.33 91.32L383.26 91.32L383.57 91.32L383.89 91.34L384.2 91.37L384.5 91.42L384.8 91.47L385.1 91.54L385.4 91.62L385.68 91.71L385.97 91.81L386.25 91.92L386.52 92.04L386.79 92.17L387.05 92.32L387.3 92.47L387.55 92.63L387.79 92.8L388.03 92.98L388.26 93.17L388.48 93.36L388.69 93.57L388.89 93.78L389.09 94L389.28 94.23L389.46 94.46L389.63 94.7L389.79 94.95L389.94 95.21L390.08 95.47L390.21 95.74L390.34 96.01L390.45 96.29L390.55 96.57L390.64 96.86L390.72 97.15L390.78 97.45L390.84 97.75L390.88 98.06L390.92 98.37L390.93 98.68L390.94 99L390.94 252.66L544.6 252.66L544.92 252.67L545.23 252.69L545.54 252.72L545.85 252.76L546.15 252.82L546.45 252.89L546.74 252.97L547.03 253.06L547.32 253.16L547.59 253.27L547.87 253.39L548.13 253.52L548.4 253.66L548.65 253.82L548.9 253.98L549.14 254.15L549.38 254.33L549.6 254.51L549.82 254.71L550.04 254.92L550.24 255.13L550.44 255.35L550.63 255.58L550.8 255.81L550.97 256.05L551.14 256.3L551.29 256.56L551.43 256.82L551.56 257.08L551.68 257.36L551.8 257.64L551.9 257.92L551.99 258.21L552.06 258.5L552.13 258.8L552.19 259.1L552.23 259.41L552.26 259.72L552.28 260.03L552.29 260.35L552.29 383.28L552.28 383.59L552.26 383.91L552.23 384.22L552.19 384.52L552.13 384.83L552.06 385.12L551.99 385.42L551.9 385.71L551.8 385.99L551.68 386.27L551.56 386.54L551.43 386.81L551.29 387.07L551.14 387.32L550.97 387.57L550.8 387.81L550.63 388.05L550.44 388.28L550.24 388.5L550.04 388.71L549.82 388.91L549.6 389.11L549.38 389.3L549.14 389.48L548.9 389.65L548.65 389.81L548.4 389.96L548.13 390.1L547.87 390.24L547.59 390.36L547.32 390.47L547.03 390.57L546.74 390.66L546.45 390.74L546.15 390.81L545.85 390.86L545.54 390.9L545.23 390.94L544.92 390.95L544.6 390.96L390.94 390.96L390.94 544.63L390.93 544.94L390.92 545.26L390.88 545.57L390.84 545.87L390.78 546.17L390.72 546.47L390.64 546.76L390.55 547.05L390.45 547.34L390.34 547.61L390.21 547.89L390.08 548.16L389.94 548.42L389.79 548.67L389.63 548.92L389.46 549.16L389.28 549.4L389.09 549.62L388.89 549.84L388.69 550.06L388.48 550.26L388.26 550.46L388.03 550.65L387.79 550.83L387.55 551L387.3 551.16L387.05 551.31L386.79 551.45L386.52 551.58L386.25 551.7L385.97 551.82L385.68 551.92L385.4 552.01L385.1 552.09L384.8 552.15L384.5 552.21L384.2 552.25L383.89 552.28L383.57 552.3L383.26 552.31L260.33 552.31L260.01 552.3L259.7 552.28L259.39 552.25L259.08 552.21L258.78 552.15L258.48 552.09L258.19 552.01L257.9 551.92L257.61 551.82L257.34 551.7L257.06 551.58L256.8 551.45L256.54 551.31L256.28 551.16L256.03 551L255.79 550.83L255.55 550.65L255.33 550.46L255.11 550.26L254.89 550.06L254.69 549.84L254.49 549.62L254.31 549.4L254.13 549.16L253.96 548.92L253.79 548.67L253.64 548.42L253.5 548.16L253.37 547.89L253.25 547.61L253.14 547.34L253.03 547.05L252.94 546.76L252.87 546.47L252.8 546.17L252.74 545.87L252.7 545.57L252.67 545.26L252.65 544.94L252.64 544.63L252.64 390.96L98.98 390.96L98.66 390.95L98.35 390.94L98.04 390.9L97.73 390.86L97.43 390.81L97.13 390.74L96.84 390.66L96.55 390.57L96.27 390.47L95.99 390.36L95.72 390.24L95.45 390.1L95.19 389.96L94.93 389.81L94.68 389.65L94.44 389.48L94.21 389.3L93.98 389.11L93.76 388.91L93.55 388.71L93.34 388.5L93.15 388.28L92.96 388.05L92.78 387.81L92.61 387.57L92.45 387.32L92.3 387.07L92.15 386.81L92.02 386.54L91.9 386.27L91.79 385.99L91.69 385.71L91.6 385.42L91.52 385.12L91.45 384.83L91.4 384.52L91.35 384.22L91.32 383.91L91.3 383.59L91.3 383.28L91.3 260.35L91.3 260.03L91.32 259.72Z" id="i3tpxSJXxh"></path></defs><g><g><g><use xlink:href="#c4ItoXIwsC" opacity="1" fill="#2f95e3" fill-opacity="0.12"></use><g><use xlink:href="#c4ItoXIwsC" opacity="1" fill-opacity="0" stroke="#29c0e6" stroke-width="21" stroke-opacity="1"></use></g></g><g><use xlink:href="#i3tpxSJXxh" opacity="1" fill="#17bfe0" fill-opacity="1"></use><g><use xlink:href="#i3tpxSJXxh" opacity="1" fill-opacity="0" stroke="#18bfe0" stroke-width="12" stroke-opacity="0.39"></use></g></g></g></g></svg>