<?xml version="1.0" encoding="utf-8"?>
<!-- Generator: Adobe Illustrator 16.0.3, SVG Export Plug-In . SVG Version: 6.00 Build 0)  -->
<!DOCTYPE svg PUBLIC "-//W3C//DTD SVG 1.1//EN" "http://www.w3.org/Graphics/SVG/1.1/DTD/svg11.dtd" [
	<!ENTITY ns_flows "http://ns.adobe.com/Flows/1.0/">
	<!ENTITY ns_extend "http://ns.adobe.com/Extensibility/1.0/">
	<!ENTITY ns_ai "http://ns.adobe.com/AdobeIllustrator/10.0/">
	<!ENTITY ns_graphs "http://ns.adobe.com/Graphs/1.0/">
]>
<svg version="1.1" id="Layer_1" xmlns:x="&ns_extend;" xmlns:i="&ns_ai;" xmlns:graph="&ns_graphs;"
	 xmlns="http://www.w3.org/2000/svg" xmlns:xlink="http://www.w3.org/1999/xlink" xmlns:a="http://ns.adobe.com/AdobeSVGViewerExtensions/3.0/"
	 x="0px" y="0px" width="72px" height="72px" viewBox="0 0 72 72" enable-background="new 0 0 72 72" xml:space="preserve">
<path fill="#13597F" d="M8.984,23.25C-1.021,33.575,6.147,44.167,8.892,46.459c1.214,1.25,4.664,4.249,5.899,5.102
	S29.583,63.1,31.776,64.375c0.021,0.013,6.625-13.875,6.625-13.875l-7.75-2.5l5.125-6.875L26.401,35.5l8.125-6.875l-3.209-3.792
	C31.317,24.833,19.401,12.5,8.984,23.25z"/>
<path fill="#249CED" d="M58.766,22.167c10.005,10.325,2.837,20.917,0.093,23.209c-1.214,1.25-4.664,4.249-5.899,5.102
	S36.36,62.558,34.167,63.833c-0.021,0.013,7.167-14.5,7.167-14.5l-7.25-1.917l4.833-6.5l-8.75-5.5L37.75,29l-3.5-2.333
	C34.25,26.667,48.349,11.417,58.766,22.167z"/>
</svg>
