<?xml version="1.0" encoding="utf-8"?>
<!-- Generator: Adobe Illustrator 16.0.3, SVG Export Plug-In . SVG Version: 6.00 Build 0)  -->
<!DOCTYPE svg PUBLIC "-//W3C//DTD SVG 1.1//EN" "http://www.w3.org/Graphics/SVG/1.1/DTD/svg11.dtd" [
	<!ENTITY ns_flows "http://ns.adobe.com/Flows/1.0/">
	<!ENTITY ns_extend "http://ns.adobe.com/Extensibility/1.0/">
	<!ENTITY ns_ai "http://ns.adobe.com/AdobeIllustrator/10.0/">
	<!ENTITY ns_graphs "http://ns.adobe.com/Graphs/1.0/">
]>
<svg version="1.1" id="Layer_1" xmlns:x="&ns_extend;" xmlns:i="&ns_ai;" xmlns:graph="&ns_graphs;"
	 xmlns="http://www.w3.org/2000/svg" xmlns:xlink="http://www.w3.org/1999/xlink" xmlns:a="http://ns.adobe.com/AdobeSVGViewerExtensions/3.0/"
	 x="0px" y="0px" width="72px" height="72px" viewBox="0 0 72 72" enable-background="new 0 0 72 72" xml:space="preserve">
<path fill="#8CD3DB" stroke="#77B2BF" stroke-width="0.7985" stroke-miterlimit="10" d="M70.768,34.416
	c0-5.126-4.156-9.283-9.282-9.283c-0.412,0-0.817,0.03-1.216,0.082c-2.088-3.175-5.679-5.272-9.764-5.272
	c-0.544,0-1.078,0.04-1.603,0.112c-0.723-5.139-5.135-9.095-10.475-9.095c-5.843,0-10.579,4.737-10.579,10.58
	c0,1.089,0.165,2.139,0.47,3.127c-1.491-3.705-5.116-6.321-9.354-6.321c-5.567,0-10.081,4.513-10.081,10.081
	c0,0.238,0.011,0.473,0.027,0.707C4.573,30.837,1.5,35.061,1.5,40.005c0,6.449,5.228,11.678,11.677,11.678
	c2.122,0,4.11-0.569,5.824-1.558c1.439,0.981,3.181,1.558,5.055,1.558c1.763,0,3.404-0.51,4.792-1.387
	c1.426,5.615,6.515,9.771,12.574,9.771c7.167,0,12.977-5.809,12.977-12.976c0-1.483-0.253-2.907-0.712-4.235
	c0.817-0.23,1.599-0.546,2.332-0.94c1.534,1.121,3.423,1.782,5.466,1.782C66.611,43.697,70.768,39.541,70.768,34.416"/>
</svg>
