<?xml version="1.0" encoding="utf-8"?>
<!-- Generator: Adobe Illustrator 16.0.3, SVG Export Plug-In . SVG Version: 6.00 Build 0)  -->
<!DOCTYPE svg PUBLIC "-//W3C//DTD SVG 1.1//EN" "http://www.w3.org/Graphics/SVG/1.1/DTD/svg11.dtd" [
	<!ENTITY ns_flows "http://ns.adobe.com/Flows/1.0/">
	<!ENTITY ns_extend "http://ns.adobe.com/Extensibility/1.0/">
	<!ENTITY ns_ai "http://ns.adobe.com/AdobeIllustrator/10.0/">
	<!ENTITY ns_graphs "http://ns.adobe.com/Graphs/1.0/">
]>
<svg version="1.1" id="Layer_1" xmlns:x="&ns_extend;" xmlns:i="&ns_ai;" xmlns:graph="&ns_graphs;"
	 xmlns="http://www.w3.org/2000/svg" xmlns:xlink="http://www.w3.org/1999/xlink" xmlns:a="http://ns.adobe.com/AdobeSVGViewerExtensions/3.0/"
	 x="0px" y="0px" width="144px" height="144px" viewBox="0 0 144 144" enable-background="new 0 0 144 144" xml:space="preserve">
<path fill="#E5C86B" d="M125.43,103.294c2.227-4.591,3.527-9.929,3.527-15.65l-2.999-21.599c5.47-0.943,9.643-5.681,9.643-11.424
	c0-6.418-5.205-11.624-11.624-11.624s-11.624,5.206-11.624,11.624c0,4.719,2.824,8.759,6.861,10.581
	c-4.32,6.737-10.991,13.536-18.931,13.753c-12.846,0.35-19.679-4.2-24.022-12.937c4.43-1.64,7.605-5.866,7.605-10.867
	c0-6.418-5.205-11.624-11.624-11.624s-11.624,5.206-11.624,11.624c0,5.11,3.319,9.401,7.902,10.96
	c-4.048,9.012-10.553,13.94-25.069,13.004c-8.958-0.578-14.472-6.93-18.456-13.63c3.511-2,5.906-5.733,5.906-10.063
	c0-6.418-5.206-11.624-11.624-11.624S7.653,49.003,7.653,55.421c0,6.015,4.584,10.902,10.437,11.504l-2.413,20.718
	c0,5.684,1.283,10.988,3.481,15.555h-2.002c-5.252,0-9.509,4.26-9.509,9.511c0,5.253,4.257,9.511,9.509,9.511h107.36
	c5.253,0,9.511-4.258,9.511-9.511C134.027,107.771,130.248,103.759,125.43,103.294z"/>
<path fill="#DAA228" d="M125.109,103.134c2.227-4.591,3.527-9.929,3.527-15.649l-2.999-21.6c5.471-0.943,9.643-5.681,9.643-11.424
	c0-6.418-5.205-11.624-11.624-11.624s-11.624,5.206-11.624,11.624c0,4.718,2.824,8.76,6.861,10.581
	c-4.32,6.739-10.991,13.538-18.931,13.753c-12.848,0.35-19.679-4.2-24.023-12.938c4.433-1.638,7.606-5.863,7.606-10.866
	c0-6.418-5.205-11.624-11.624-11.624c-0.32,0-0.621,0.07-0.936,0.095v78.397H14.897c0.626,0.13,1.274,0.2,1.938,0.2h107.36
	c5.253,0,9.511-4.258,9.511-9.511C133.707,107.611,129.928,103.599,125.109,103.134z"/>
<polygon fill="#F59161" points="71.049,72.477 70.988,72.392 62.302,84.481 70.988,96.594 71.049,96.509 "/>
<polygon fill="#E85424" points="70.934,72.719 70.995,72.634 79.682,84.725 70.995,96.836 70.934,96.752 "/>
<polygon fill="#F59161" points="54.495,83.007 54.457,82.957 49.316,90.113 54.457,97.281 54.495,97.231 "/>
<polygon fill="#E85424" points="54.426,83.007 54.464,82.957 59.603,90.111 54.464,97.28 54.426,97.231 "/>
<polygon fill="#F59161" points="90.118,83.007 90.081,82.957 84.942,90.113 90.081,97.281 90.118,97.231 "/>
<polygon fill="#E85424" points="90.05,83.007 90.087,82.957 95.228,90.111 90.087,97.279 90.05,97.23 "/>
<circle fill="#77C167" cx="60.388" cy="114.335" r="3.602"/>
<circle fill="#40AD49" cx="81.905" cy="114.335" r="3.602"/>
<circle fill="#40AD49" cx="103.421" cy="114.335" r="3.602"/>
<circle fill="#77C167" cx="38.872" cy="114.335" r="3.602"/>
<circle fill="#40AD49" cx="124.937" cy="114.335" r="3.602"/>
<circle fill="#77C167" cx="17.356" cy="114.335" r="3.602"/>
<path fill="#B19230" d="M125.097,103.021c0,0.237-0.192,0.428-0.433,0.428H19.227c-0.236,0-0.43-0.19-0.43-0.428l0,0
	c0-0.234,0.194-0.426,0.43-0.426h105.437C124.904,102.595,125.097,102.786,125.097,103.021L125.097,103.021z"/>
<polygon fill="#F59161" points="19.275,48.107 19.237,48.057 14.097,55.214 19.237,62.38 19.275,62.331 "/>
<polygon fill="#E85424" points="19.206,48.107 19.244,48.057 24.383,55.211 19.244,62.38 19.206,62.331 "/>
<polygon fill="#F59161" points="71.464,48.428 71.427,48.377 66.286,55.534 71.427,62.701 71.464,62.65 "/>
<polygon fill="#E85424" points="71.396,48.428 71.433,48.377 76.572,55.532 71.433,62.701 71.396,62.65 "/>
<polygon fill="#F59161" points="123.654,47.467 123.616,47.417 118.476,54.574 123.616,61.74 123.654,61.69 "/>
<polygon fill="#E85424" points="123.586,47.467 123.621,47.417 128.762,54.571 123.621,61.74 123.586,61.69 "/>
<polygon fill="#F59161" points="23.757,86.529 23.72,86.479 18.58,93.636 23.72,100.802 23.757,100.752 "/>
<polygon fill="#E85424" points="23.688,86.529 23.726,86.479 28.865,93.633 23.726,100.802 23.688,100.752 "/>
<polygon fill="#F59161" points="121.093,87.17 121.055,87.119 115.914,94.276 121.055,101.442 121.093,101.393 "/>
<polygon fill="#E85424" points="121.024,87.17 121.06,87.119 126.2,94.273 121.06,101.442 121.024,101.393 "/>
</svg>
