<?xml version="1.0" encoding="utf-8"?>
<!-- Generator: Adobe Illustrator 16.0.3, SVG Export Plug-In . SVG Version: 6.00 Build 0)  -->
<!DOCTYPE svg PUBLIC "-//W3C//DTD SVG 1.1//EN" "http://www.w3.org/Graphics/SVG/1.1/DTD/svg11.dtd" [
	<!ENTITY ns_flows "http://ns.adobe.com/Flows/1.0/">
	<!ENTITY ns_extend "http://ns.adobe.com/Extensibility/1.0/">
	<!ENTITY ns_ai "http://ns.adobe.com/AdobeIllustrator/10.0/">
	<!ENTITY ns_graphs "http://ns.adobe.com/Graphs/1.0/">
]>
<svg version="1.1" id="Layer_1" xmlns:x="&ns_extend;" xmlns:i="&ns_ai;" xmlns:graph="&ns_graphs;"
	 xmlns="http://www.w3.org/2000/svg" xmlns:xlink="http://www.w3.org/1999/xlink" xmlns:a="http://ns.adobe.com/AdobeSVGViewerExtensions/3.0/"
	 x="0px" y="0px" width="144px" height="144px" viewBox="0 0 144 144" enable-background="new 0 0 144 144" xml:space="preserve">
<g>
	<g>
		<g>
			<g>
				<path fill="#5C9AC4" d="M88.553,46.93c0,0,17.207,8.279,30.361,24.295c0,0,4.761,5.859-3.94,3.962
					c-8.703-1.896-32.761-7.67-42.394-23.44L88.553,46.93z"/>
			</g>
		</g>
		<g>
			<g>
				<path fill="#BF495E" d="M88.133,50.766c0,0,11.437,6.088,23.315,16.848c0,0,5.923,5.764-0.026,4.096
					c-13.653-3.827-28.317-10.954-33.018-18.302L88.133,50.766z"/>
			</g>
		</g>
	</g>
	<g>
		<g>
			<g>
				<path fill="#455F7F" d="M55.876,47.333c-18.192,3.259-32.294,23.585-37.217,31.009c-4.922,7.422,2.263,5.109,2.263,5.109
					C40.619,77,54.575,63.968,54.575,63.968L55.876,47.333z"/>
			</g>
		</g>
		<g>
			<g>
				<path fill="#BF495E" d="M52.256,52.2c-8.554,1.717-20.549,12.757-29.067,24.094c-3.71,4.939,3.807,1.507,3.807,1.507
					c14.334-7.165,24.156-15.617,24.156-15.617L52.256,52.2z"/>
			</g>
		</g>
	</g>
</g>
<g>
	<g>
		<g>
			<g opacity="0.39">
				<g>
					<path fill="#C6CCD6" d="M73.773,117.176c10.746,0,19.807-5.451,22.701-12.912c-2.896-9.977-11.955-15.43-22.701-15.43
						c-10.749,0-19.81,5.453-22.702,15.43C53.965,111.725,63.026,117.176,73.773,117.176z"/>
				</g>
			</g>
			<g>
				<g>
					<path fill="#455F7F" d="M73.773,117.176c10.746,0,19.807-5.451,22.701-12.912c-2.896-9.977-11.955-15.43-22.701-15.43
						c-10.749,0-19.81,5.453-22.702,15.43C53.965,111.725,63.026,117.176,73.773,117.176z"/>
				</g>
			</g>
			<g>
				<g>
					<path fill="#455F7F" d="M51.073,104.264c-0.63,2.166-0.982,4.535-0.982,7.117c0,9.947,6.151,18.01,23.683,18.01v-12.215
						C63.026,117.176,53.965,111.725,51.073,104.264z"/>
				</g>
			</g>
			<g>
				<g>
					<path fill="#5C9AC4" d="M96.418,104.264c0.629,2.166,0.98,4.535,0.98,7.117c0,9.947-6.017,18.516-23.682,18.01v-12.215
						C84.464,117.176,93.523,111.725,96.418,104.264z"/>
				</g>
			</g>
		</g>
	</g>
	<g>
		<g>
			<g>
				<rect x="59.41" y="123.096" fill="#455F7F" width="9.865" height="13.6"/>
			</g>
		</g>
		<g>
			<g>
				<rect x="78.27" y="123.096" fill="#5C9AC4" width="9.867" height="13.6"/>
			</g>
		</g>
		<g>
			<g>
				<g>
					<path fill="#3D3D3C" d="M64.239,138.459c0.416,0,0.755,0.34,0.755,0.758v1.889h7.936c0-4.741-3.845-8.586-8.588-8.586
						c-4.741,0-8.586,3.845-8.586,8.586h7.728v-1.889C63.482,138.799,63.82,138.459,64.239,138.459z"/>
				</g>
			</g>
		</g>
		<g>
			<g>
				<g>
					<path fill="#3D3D3C" d="M83.1,138.459c0.416,0,0.756,0.34,0.756,0.758v1.889h7.935c0-4.741-3.842-8.586-8.586-8.586
						c-4.741,0-8.585,3.845-8.585,8.586h7.727v-1.889C82.346,138.799,82.68,138.459,83.1,138.459z"/>
				</g>
			</g>
		</g>
	</g>
</g>
<g>
	<g>
		<g>
			<g>
				<path fill="#455F7F" d="M75.188,33.504c0.228,1.343,0.08,2.433-0.18,3.447c-0.275,1.004-0.695,1.91-1.246,2.73
					c-0.548,0.821-1.227,1.553-2.054,2.186c-0.843,0.623-1.8,1.168-3.134,1.46c-0.232-1.345-0.086-2.437,0.174-3.451
					c0.275-1.003,0.699-1.909,1.254-2.727c0.553-0.816,1.23-1.549,2.058-2.181C72.904,34.345,73.857,33.798,75.188,33.504z"/>
			</g>
		</g>
		<g>
			<g>
				<path fill="#4F7896" d="M79.643,35.594c0.229,1.342,0.08,2.433-0.177,3.447c-0.278,1.004-0.7,1.91-1.249,2.73
					c-0.548,0.82-1.229,1.552-2.056,2.185c-0.841,0.623-1.798,1.17-3.132,1.461c-0.23-1.347-0.086-2.438,0.176-3.452
					c0.275-1.004,0.697-1.91,1.251-2.726c0.553-0.817,1.231-1.549,2.06-2.182C77.359,36.435,78.312,35.888,79.643,35.594z"/>
			</g>
		</g>
	</g>
	<g>
		<g>
			<g>
				<path fill="#5C9AC4" d="M99.671,66.11c-0.435-2.344-1.501-7-1.501-7c-2.014-11.084-11.773-19.65-24.434-19.65v70.179
					c16.718,0,28.76-11.615,28.76-25.945C102.496,76.898,100.863,72.543,99.671,66.11z"/>
			</g>
		</g>
		<g>
			<g>
				<g>
					<path fill="#455F7F" d="M47.818,66.11c0.433-2.344,1.499-7,1.499-7c2.016-11.084,11.774-19.65,24.435-19.65v70.179
						c-16.717,0-28.759-11.615-28.759-25.945C44.993,76.898,46.626,72.543,47.818,66.11z"/>
				</g>
			</g>
		</g>
	</g>
	<g>
		<g>
			<path fill="#9C9B9B" d="M97.415,95.891c0,8.555-10.603,15.49-23.679,15.49c-13.078,0-23.68-6.936-23.68-15.49
				c0-8.561,10.603-15.494,23.68-15.494C86.812,80.396,97.415,87.33,97.415,95.891z"/>
		</g>
	</g>
	<g>
		<g>
			<g>
				<circle fill="#3D3D3C" cx="87.945" cy="93.494" r="3.401"/>
			</g>
		</g>
		<g>
			<g>
				<circle fill="#3D3D3C" cx="59.606" cy="93.494" r="3.401"/>
			</g>
		</g>
	</g>
</g>
<g>
	<g>
		<g>
			<path fill="#3D3D3C" d="M28.046,120.721c1.423-0.635,5.566-2.465,10.587,0.078c2.212,1.123,3.462,2.084,4.399,2.816
				c0.93,0.754,2.645,2.594,3.351,3.988c-1.425,0.643-1.661,0.912-3.481,1.496c-1.135,0.36-2.812,0.521-3.875,0.146
				c-1.063-0.377-2.2-0.81-3.586-2.021C34.508,126.469,30.902,121.398,28.046,120.721z"/>
		</g>
	</g>
	<g>
		<g>
			<g>
				<path fill="#455F7F" d="M45.354,128.633c-0.646,0-1.317-0.053-2.015-0.166c-1.374-0.223-2.309-1.518-2.086-2.891
					c0.222-1.375,1.516-2.309,2.891-2.09c8.142,1.311,11.307-12.514,11.337-12.654c0.303-1.357,1.648-2.219,3.009-1.912
					c1.36,0.303,2.216,1.648,1.914,3.008C60.243,112.646,56.548,128.633,45.354,128.633z"/>
			</g>
		</g>
	</g>
</g>
<g>
	<g>
		<g>
			<path fill="#3D3D3C" d="M59.967,70.091c2.761,0.775,5.134,0.111,5.189,0.226c0.043,0.086,0.018,0.219-0.053,0.297
				c-0.073,0.078-0.165,0.07-0.208-0.016c-0.013-0.024-2.538,1.426-5.2,0.68c-2.657-0.748-3.789-3.235-3.812-3.219
				c-0.081,0.056-0.166,0.021-0.19-0.081s0.02-0.23,0.1-0.286C55.891,67.621,57.203,69.312,59.967,70.091z"/>
		</g>
	</g>
</g>
<g>
	<g>
		<g>
			<path fill="#3D3D3C" d="M88.75,71.25c-2.761,0.774-5.134,0.11-5.188,0.225c-0.043,0.087-0.019,0.22,0.054,0.298
				c0.073,0.077,0.165,0.07,0.208-0.016c0.012-0.025,2.537,1.426,5.199,0.679c2.658-0.747,3.789-3.235,3.812-3.219
				c0.08,0.056,0.166,0.021,0.19-0.081c0.023-0.102-0.021-0.23-0.101-0.286C92.826,68.78,91.515,70.473,88.75,71.25z"/>
		</g>
	</g>
</g>
<g>
	<g>
		<g>
			<path fill="#3D3D3C" d="M74.999,103.167c-9.958,0-17.437-0.388-17.728-0.606c-0.222-0.17-0.266-0.484-0.098-0.705
				c0.167-0.225,0.483-0.268,0.706-0.102c0.068,0.053,6.331,0.052,15.938,0.052c9.589,0,16.528,0.017,16.59-0.034
				c0.216-0.178,0.533-0.152,0.713,0.062c0.177,0.215,0.148,0.533-0.065,0.711C90.788,102.766,84.97,103.167,74.999,103.167z"/>
		</g>
	</g>
</g>
<path fill="#86D366" d="M78.625,103.188c0,0,4,3.562,2.25,6.562s-3.5,6-1.75,8s2.5,2.5,1.25,4s-1.25,3,0.75,2.25s2.25-4,2.25-4
	s-2.75-3.25-2.5-4.5s3.5-5.75,3.25-6.75S83,103,83,103L78.625,103.188z"/>
<g>
	<g>
		<g>
			<path fill="#F5E8E4" d="M68.892,103.361c0,2.105,0.965,2.064,2.222,2.221l0,0c1.393,0.094,2.223,0.1,2.223-2.221l0.139-1.553
				l-4.583-0.189V103.361z"/>
		</g>
	</g>
	<g>
		<g>
			<path fill="#F5E8E4" d="M78.08,103.797c0,2.105-0.967,2.064-2.224,2.221l0,0c-1.392,0.094-2.221,0.1-2.221-2.221l-0.053-2.047
				c0,0.238,4.541,0.042,4.541,0.042L78.08,103.797z"/>
		</g>
	</g>
</g>
<path fill="#86D366" d="M61.771,96.146c-0.477,1.044-3.958,1.595-2.208,2.888s3.5,2.586,1.75,3.447
	c-1.75,0.862-2.5,1.078-1.25,1.725s1.25,1.293-0.75,0.969c-2-0.322-2.25-1.724-2.25-1.724s2.75-1.4,2.5-1.939
	c-0.25-0.538-3.5-2.478-3.25-2.909c0.25-0.431,0.752-2.873,1.125-2.478C57.867,96.581,59.981,97.44,61.771,96.146z"/>
<g>
	<path fill="#2C2C2D" d="M87.776,68.022l-1.04-1.323c-0.425-0.506-0.691-0.834-0.946-1.181h-0.022
		c-0.23,0.346-0.46,0.666-0.885,1.189l-0.981,1.314h-1.21l2.494-3.028l-2.396-2.957h1.222l1.078,1.403
		c0.304,0.391,0.533,0.693,0.751,1.012h0.036c0.23-0.355,0.436-0.63,0.739-1.012l1.113-1.403h1.211l-2.482,2.912L89,68.022H87.776z"
		/>
</g>
<g>
	<path fill="#2C2C2D" d="M66.283,67.801l-1.035-1.315c-0.422-0.504-0.688-0.831-0.941-1.175h-0.022
		c-0.229,0.344-0.458,0.662-0.88,1.184l-0.977,1.307h-1.204l2.482-3.012l-2.386-2.942h1.216l1.072,1.396
		c0.303,0.389,0.531,0.688,0.748,1.007h0.036c0.229-0.354,0.434-0.626,0.735-1.007l1.108-1.396h1.206l-2.471,2.898l2.53,3.056
		H66.283z"/>
</g>
</svg>
