<?xml version="1.0" encoding="UTF-8" standalone="no"?>
<!DOCTYPE svg PUBLIC "-//W3C//DTD SVG 1.1//EN" "http://www.w3.org/Graphics/SVG/1.1/DTD/svg11.dtd">
<svg version="1.1" xmlns="http://www.w3.org/2000/svg" xmlns:xlink="http://www.w3.org/1999/xlink" preserveAspectRatio="xMidYMid meet" viewBox="0 0 640 640" width="640" height="640"><defs><path d="M626.17 322.42C626.17 492.3 488.24 630.23 318.35 630.23C148.47 630.23 10.54 492.3 10.54 322.42C10.54 152.53 148.47 14.6 318.35 14.6C488.24 14.6 626.17 152.53 626.17 322.42Z" id="c4ItoXIwsC"></path><path d="M202.73 114.94L202.97 114.74L203.22 114.55L203.47 114.38L203.73 114.22L203.99 114.07L204.26 113.92L204.53 113.8L204.81 113.68L205.09 113.57L205.37 113.48L205.66 113.39L205.94 113.32L206.23 113.26L206.53 113.21L206.82 113.17L207.11 113.14L207.41 113.12L207.7 113.12L208 113.12L208.29 113.14L208.59 113.17L208.88 113.21L209.17 113.26L209.46 113.32L209.75 113.39L210.03 113.48L210.31 113.57L210.59 113.68L210.87 113.8L211.14 113.92L211.41 114.07L211.67 114.22L211.93 114.38L212.18 114.55L212.43 114.74L212.67 114.94L212.91 115.14L213.13 115.36L321.79 224.02L430.45 115.36L430.68 115.14L430.91 114.94L431.15 114.74L431.4 114.55L431.65 114.38L431.91 114.22L432.17 114.07L432.44 113.92L432.71 113.8L432.99 113.68L433.27 113.57L433.55 113.48L433.84 113.39L434.12 113.32L434.41 113.26L434.71 113.21L435 113.17L435.29 113.14L435.59 113.12L435.88 113.12L436.18 113.12L436.47 113.14L436.76 113.17L437.06 113.21L437.35 113.26L437.64 113.32L437.93 113.39L438.21 113.48L438.49 113.57L438.77 113.68L439.05 113.8L439.32 113.92L439.59 114.07L439.85 114.22L440.11 114.38L440.36 114.55L440.61 114.74L440.85 114.94L441.09 115.14L441.31 115.36L528.24 202.29L528.46 202.52L528.67 202.75L528.86 202.99L529.05 203.24L529.22 203.49L529.39 203.75L529.54 204.02L529.68 204.28L529.81 204.56L529.93 204.83L530.03 205.11L530.13 205.39L530.21 205.68L530.29 205.97L530.35 206.25L530.4 206.55L530.44 206.84L530.47 207.13L530.48 207.43L530.49 207.72L530.48 208.02L530.47 208.31L530.44 208.61L530.4 208.9L530.35 209.19L530.29 209.48L530.21 209.77L530.13 210.05L530.03 210.34L529.93 210.61L529.81 210.89L529.68 211.16L529.54 211.43L529.39 211.69L529.22 211.95L529.05 212.2L528.86 212.45L528.67 212.69L528.46 212.93L528.24 213.16L419.58 321.81L528.24 430.47L528.46 430.7L528.67 430.93L528.86 431.17L529.05 431.42L529.22 431.67L529.39 431.93L529.54 432.2L529.68 432.46L529.81 432.73L529.93 433.01L530.03 433.29L530.13 433.57L530.21 433.86L530.29 434.14L530.35 434.43L530.4 434.73L530.44 435.02L530.47 435.31L530.48 435.61L530.49 435.9L530.48 436.2L530.47 436.49L530.44 436.79L530.4 437.08L530.35 437.37L530.29 437.66L530.21 437.95L530.13 438.23L530.03 438.51L529.93 438.79L529.81 439.07L529.68 439.34L529.54 439.61L529.39 439.87L529.22 440.13L529.05 440.38L528.86 440.63L528.67 440.87L528.46 441.11L528.24 441.34L441.31 528.26L441.09 528.48L440.85 528.69L440.61 528.88L440.36 529.07L440.11 529.24L439.85 529.41L439.59 529.56L439.32 529.7L439.05 529.83L438.77 529.95L438.49 530.05L438.21 530.15L437.93 530.23L437.64 530.31L437.35 530.37L437.06 530.42L436.76 530.46L436.47 530.49L436.18 530.5L435.88 530.51L435.59 530.5L435.29 530.49L435 530.46L434.71 530.42L434.41 530.37L434.12 530.31L433.84 530.23L433.55 530.15L433.27 530.05L432.99 529.95L432.71 529.83L432.44 529.7L432.17 529.56L431.91 529.41L431.65 529.24L431.4 529.07L431.15 528.88L430.91 528.69L430.68 528.48L430.45 528.26L321.79 419.6L213.13 528.26L212.91 528.48L212.67 528.69L212.43 528.88L212.18 529.07L211.93 529.24L211.67 529.41L211.41 529.56L211.14 529.7L210.87 529.83L210.59 529.95L210.31 530.05L210.03 530.15L209.75 530.23L209.46 530.31L209.17 530.37L208.88 530.42L208.59 530.46L208.29 530.49L208 530.5L207.7 530.51L207.41 530.5L207.11 530.49L206.82 530.46L206.53 530.42L206.23 530.37L205.94 530.31L205.66 530.23L205.37 530.15L205.09 530.05L204.81 529.95L204.53 529.83L204.26 529.7L203.99 529.56L203.73 529.41L203.47 529.24L203.22 529.07L202.97 528.88L202.73 528.69L202.5 528.48L202.27 528.26L115.34 441.34L115.12 441.11L114.92 440.87L114.72 440.63L114.53 440.38L114.36 440.13L114.2 439.87L114.04 439.61L113.9 439.34L113.77 439.07L113.66 438.79L113.55 438.51L113.45 438.23L113.37 437.95L113.3 437.66L113.24 437.37L113.18 437.08L113.15 436.79L113.12 436.49L113.1 436.2L113.09 435.9L113.1 435.61L113.12 435.31L113.15 435.02L113.18 434.73L113.24 434.43L113.3 434.14L113.37 433.86L113.45 433.57L113.55 433.29L113.66 433.01L113.77 432.73L113.9 432.46L114.04 432.2L114.2 431.93L114.36 431.67L114.53 431.42L114.72 431.17L114.92 430.93L115.12 430.7L115.34 430.47L224 321.81L115.34 213.16L115.12 212.93L114.92 212.69L114.72 212.45L114.53 212.2L114.36 211.95L114.2 211.69L114.04 211.43L113.9 211.16L113.77 210.89L113.66 210.61L113.55 210.34L113.45 210.05L113.37 209.77L113.3 209.48L113.24 209.19L113.18 208.9L113.15 208.61L113.12 208.31L113.1 208.02L113.09 207.72L113.1 207.43L113.12 207.13L113.15 206.84L113.18 206.55L113.24 206.25L113.3 205.97L113.37 205.68L113.45 205.39L113.55 205.11L113.66 204.83L113.77 204.56L113.9 204.28L114.04 204.02L114.2 203.75L114.36 203.49L114.53 203.24L114.72 202.99L114.92 202.75L115.12 202.52L115.34 202.29L202.27 115.36L202.5 115.14L202.73 114.94Z" id="a1KTBgrxGh"></path></defs><g><g><g><use xlink:href="#c4ItoXIwsC" opacity="1" fill="#2f95e3" fill-opacity="0.12"></use><g><use xlink:href="#c4ItoXIwsC" opacity="1" fill-opacity="0" stroke="#29c0e6" stroke-width="21" stroke-opacity="1"></use></g></g><g><use xlink:href="#a1KTBgrxGh" opacity="1" fill="#17bfe0" fill-opacity="1"></use><g><use xlink:href="#a1KTBgrxGh" opacity="1" fill-opacity="0" stroke="#18bfe0" stroke-width="12" stroke-opacity="0.39"></use></g></g></g></g></svg>