<?xml version="1.0" encoding="utf-8"?>
<!-- Generator: Adobe Illustrator 16.0.3, SVG Export Plug-In . SVG Version: 6.00 Build 0)  -->
<!DOCTYPE svg PUBLIC "-//W3C//DTD SVG 1.1//EN" "http://www.w3.org/Graphics/SVG/1.1/DTD/svg11.dtd" [
	<!ENTITY ns_flows "http://ns.adobe.com/Flows/1.0/">
	<!ENTITY ns_extend "http://ns.adobe.com/Extensibility/1.0/">
	<!ENTITY ns_ai "http://ns.adobe.com/AdobeIllustrator/10.0/">
	<!ENTITY ns_graphs "http://ns.adobe.com/Graphs/1.0/">
]>
<svg version="1.1" id="Layer_1" xmlns:x="&ns_extend;" xmlns:i="&ns_ai;" xmlns:graph="&ns_graphs;"
	 xmlns="http://www.w3.org/2000/svg" xmlns:xlink="http://www.w3.org/1999/xlink" xmlns:a="http://ns.adobe.com/AdobeSVGViewerExtensions/3.0/"
	 x="0px" y="0px" width="69.664px" height="63.574px" viewBox="1.168 3.588 69.664 63.574"
	 enable-background="new 1.168 3.588 69.664 63.574" xml:space="preserve">
<path fill="#3D3D3C" d="M56.173,26.885v37.008c-7.226-2.59-15.005,3.187-23.112,3.187c-8.108,0-15.887-5.776-23.114-3.187V26.885
	c0-12.866,10.348-23.297,23.112-23.297C45.825,3.588,56.173,14.019,56.173,26.885z"/>
<path fill="#5E605C" d="M57.553,26.392v34.239C50.815,58.235,43.561,63.579,36,63.579c-7.561,0-14.815-5.344-21.554-2.948V26.392
	c0-11.903,9.649-21.554,21.553-21.554C47.904,4.838,57.553,14.488,57.553,26.392z"/>
<path fill="#4C3B27" d="M70.832,67.162H1.168c4.126-2.661,8.577-4.862,13.278-6.531C21.186,58.235,28.44,56.932,36,56.932
	c7.561,0,14.815,1.304,21.552,3.699C62.255,62.301,66.705,64.501,70.832,67.162z"/>
<path fill="#3D2C1C" d="M39.637,57.036c-1.204-0.067-2.416-0.104-3.636-0.104c-7.561,0-14.815,1.304-21.554,3.699
	c-4.702,1.669-9.152,3.87-13.278,6.531h7.271c4.126-2.661,8.577-4.862,13.279-6.531C27.369,58.622,33.383,57.385,39.637,57.036z"/>
<path fill="#919B8A" d="M18.314,26.392c0-9.752,7.933-17.687,17.685-17.687c9.753,0,17.687,7.934,17.687,17.687v28.987
	C47.943,53.841,42.017,53.063,36,53.063s-11.944,0.777-17.687,2.315L18.314,26.392L18.314,26.392z"/>
<g>
	<path fill="#5E605C" d="M31.558,26.127c0-2.687-2.186-4.873-4.873-4.873h-3.713c-0.641,0-1.161,0.52-1.161,1.16v7.426v6.188
		c0,0.641,0.52,1.16,1.161,1.16c0.641,0,1.16-0.52,1.16-1.16v-5.027h2.552c1.408,0,2.553,1.145,2.553,2.552v2.475
		c0,0.641,0.52,1.16,1.16,1.16c0.641,0,1.16-0.52,1.16-1.16v-2.475c0-1.486-0.669-2.818-1.722-3.713
		C30.888,28.946,31.558,27.614,31.558,26.127z M24.132,28.68v-5.105h2.553c1.407,0,2.552,1.145,2.552,2.552
		s-1.145,2.553-2.552,2.553H24.132L24.132,28.68z"/>
	<path fill="#5E605C" d="M46.863,21.254H43.15c-0.642,0-1.161,0.52-1.161,1.16v7.426v6.188c0,0.641,0.52,1.16,1.161,1.16
		c0.641,0,1.16-0.52,1.16-1.16v-5.027h2.552c2.687,0,4.874-2.187,4.874-4.874S49.55,21.254,46.863,21.254z M46.863,28.68h-2.553
		v-5.105h2.553c1.406,0,2.552,1.145,2.552,2.552C49.415,27.535,48.27,28.68,46.863,28.68z"/>
	<path fill="#5E605C" d="M36.621,21.254c-0.641,0-1.161,0.52-1.161,1.16v13.614c0,0.641,0.52,1.16,1.161,1.16
		c0.641,0,1.16-0.52,1.16-1.16V22.415C37.781,21.774,37.262,21.254,36.621,21.254z"/>
</g>
<g>
	<path fill="#5E605C" d="M50.387,42.094H21.613c-0.513,0-0.928-0.416-0.928-0.928c0-0.514,0.416-0.929,0.928-0.929h28.774
		c0.514,0,0.929,0.415,0.929,0.929C51.315,41.678,50.9,42.094,50.387,42.094z"/>
	<path fill="#5E605C" d="M47.117,46.967H24.882c-0.513,0-0.928-0.416-0.928-0.928c0-0.513,0.416-0.929,0.928-0.929h22.236
		c0.513,0,0.929,0.416,0.929,0.929C48.047,46.551,47.631,46.967,47.117,46.967z"/>
</g>
</svg>
