<?xml version="1.0" encoding="utf-8"?>
<!-- Generator: Adobe Illustrator 16.0.3, SVG Export Plug-In . SVG Version: 6.00 Build 0)  -->
<!DOCTYPE svg PUBLIC "-//W3C//DTD SVG 1.1//EN" "http://www.w3.org/Graphics/SVG/1.1/DTD/svg11.dtd" [
	<!ENTITY ns_flows "http://ns.adobe.com/Flows/1.0/">
	<!ENTITY ns_extend "http://ns.adobe.com/Extensibility/1.0/">
	<!ENTITY ns_ai "http://ns.adobe.com/AdobeIllustrator/10.0/">
	<!ENTITY ns_graphs "http://ns.adobe.com/Graphs/1.0/">
]>
<svg version="1.1" id="Layer_1" xmlns:x="&ns_extend;" xmlns:i="&ns_ai;" xmlns:graph="&ns_graphs;"
	 xmlns="http://www.w3.org/2000/svg" xmlns:xlink="http://www.w3.org/1999/xlink" xmlns:a="http://ns.adobe.com/AdobeSVGViewerExtensions/3.0/"
	 x="0px" y="0px" width="43.529px" height="65.396px" viewBox="0 0 43.529 65.396" enable-background="new 0 0 43.529 65.396"
	 xml:space="preserve">
<g>
	<g>
		<g>
			<g>
				<path fill="#5D9BC4" d="M29.752,16.567c0,0,3.82-8.76,11.584-15.639c0,0,2.841-2.489,2.055,1.898
					c-0.785,4.387-3.224,16.527-10.931,21.637L29.752,16.567z"/>
			</g>
		</g>
		<g>
			<g>
				<path fill="#BF495F" d="M31.677,16.705c0,0,2.832-5.833,7.99-11.975c0,0,2.774-3.069,2.05-0.063
					c-1.659,6.9-4.948,14.367-8.536,16.854L31.677,16.705z"/>
			</g>
		</g>
	</g>
	<g>
		<g>
			<g>
				<path fill="#465F7F" d="M15.593,17.356c0,0-3.089-9.043-10.264-16.534c0,0-2.627-2.715-2.204,1.722
					c0.424,4.439,1.858,16.736,9.122,22.463L15.593,17.356z"/>
			</g>
		</g>
		<g>
			<g>
				<path fill="#BF495F" d="M13.663,17.337c0,0-2.344-6.047-6.983-12.588c0,0-2.51-3.287-2.036-0.233
					c1.088,7.013,3.782,14.715,7.153,17.488L13.663,17.337z"/>
			</g>
		</g>
	</g>
</g>
<g>
	<g>
		<g>
			<g opacity="0.39">
				<g>
					<path fill="#C6CCD6" d="M22.885,53.419c5.377,0,9.912-2.726,11.359-6.461c-1.447-4.993-5.982-7.722-11.359-7.722
						c-5.38,0-9.914,2.729-11.361,7.722C12.972,50.693,17.506,53.419,22.885,53.419z"/>
				</g>
			</g>
			<g>
				<g>
					<path fill="#465F7F" d="M22.885,53.419c5.377,0,9.912-2.726,11.359-6.461c-1.447-4.993-5.982-7.722-11.359-7.722
						c-5.38,0-9.914,2.729-11.361,7.722C12.972,50.693,17.506,53.419,22.885,53.419z"/>
				</g>
			</g>
			<g>
				<g>
					<path fill="#465F7F" d="M11.524,46.958c-0.316,1.083-0.492,2.271-0.492,3.562c0,4.977,3.079,9.014,11.853,9.014v-6.114
						C17.506,53.419,12.972,50.693,11.524,46.958z"/>
				</g>
			</g>
			<g>
				<g>
					<path fill="#5D9BC4" d="M34.217,46.958c0.315,1.083,0.491,2.271,0.491,3.562c0,4.977-3.011,9.268-11.853,9.014v-6.114
						C28.236,53.419,32.769,50.693,34.217,46.958z"/>
				</g>
			</g>
		</g>
	</g>
	<g>
		<g>
			<g>
				<rect x="15.697" y="56.382" fill="#465F7F" width="4.936" height="6.807"/>
			</g>
		</g>
		<g>
			<g>
				<rect x="25.135" y="56.382" fill="#5D9BC4" width="4.938" height="6.807"/>
			</g>
		</g>
		<g>
			<g>
				<g>
					<path fill="#3E3E3D" d="M18.114,64.071c0.208,0,0.377,0.171,0.377,0.38v0.945h3.972c0-2.373-1.925-4.297-4.298-4.297
						c-2.373,0-4.296,1.924-4.296,4.297h3.867v-0.945C17.735,64.24,17.903,64.071,18.114,64.071z"/>
				</g>
			</g>
		</g>
		<g>
			<g>
				<g>
					<path fill="#3E3E3D" d="M27.55,64.071c0.211,0,0.382,0.171,0.382,0.38v0.945h3.971c0-2.373-1.924-4.297-4.297-4.297
						c-2.374,0-4.299,1.924-4.299,4.297h3.869v-0.945C27.176,64.24,27.344,64.071,27.55,64.071z"/>
				</g>
			</g>
		</g>
	</g>
</g>
<g>
	<g>
		<g>
			<g>
				<path fill="#465F7F" d="M20.944,10.807c0.416,0.54,0.606,1.056,0.73,1.565c0.112,0.509,0.14,1.009,0.088,1.501
					c-0.049,0.489-0.177,0.972-0.394,1.447c-0.226,0.473-0.521,0.938-1.043,1.381c-0.419-0.54-0.609-1.059-0.733-1.566
					c-0.113-0.508-0.138-1.008-0.085-1.499c0.332-1.385,0.698-2.1,0.398-1.448C20.132,11.715,20.425,11.249,20.944,10.807z"/>
			</g>
		</g>
		<g>
			<g>
				<path fill="#507997" d="M25.655,11.164c0.414,0.54,0.605,1.057,0.729,1.564c0.114,0.51,0.139,1.009,0.089,1.5
					c-0.048,0.49-0.18,0.975-0.396,1.449c-0.226,0.473-0.519,0.939-1.04,1.38c-0.418-0.542-0.612-1.057-0.733-1.566
					c-0.113-0.509-0.14-1.009-0.086-1.499c0.053-0.491,0.181-0.974,0.396-1.448C24.841,12.072,25.134,11.605,25.655,11.164z"/>
			</g>
		</g>
	</g>
	<g>
		<g>
			<g>
				<path fill="#5D9BC4" d="M35.847,27.864c-0.22-1.174-0.753-3.504-0.753-3.504c-1.006-5.548-5.892-9.835-12.229-9.835v35.124
					c8.367,0,14.393-5.813,14.393-12.986C37.258,33.264,36.442,31.083,35.847,27.864z"/>
			</g>
		</g>
		<g>
			<g>
				<g>
					<path fill="#465F7F" d="M9.896,27.864c0.217-1.174,0.75-3.504,0.75-3.504c1.008-5.548,5.893-9.835,12.227-9.835v35.124
						c-8.364,0-14.391-5.813-14.391-12.986C8.481,33.264,9.298,31.083,9.896,27.864z"/>
				</g>
			</g>
		</g>
	</g>
	<g>
		<g>
			<path fill="#9C9B9B" d="M34.716,42.768c0,4.281-5.307,7.752-11.851,7.752c-6.545,0-11.85-3.471-11.85-7.752
				c0-4.284,5.306-7.754,11.85-7.754S34.716,38.483,34.716,42.768z"/>
		</g>
	</g>
	<g>
		<g>
			<g>
				<circle fill="#3E3E3D" cx="15.794" cy="41.57" r="1.703"/>
			</g>
		</g>
		<g>
			<g>
				<circle fill="#3E3E3D" cx="29.977" cy="41.57" r="1.703"/>
			</g>
		</g>
	</g>
	<g>
		<g>
			<g>
				<circle fill="#9C9B9B" cx="16.398" cy="27.447" r="2.719"/>
			</g>
		</g>
	</g>
	<g>
		<g>
			<g>
				<circle fill="#9C9B9B" cx="30.171" cy="27.447" r="2.719"/>
			</g>
		</g>
	</g>
	<g>
		<g>
			<g>
				<circle fill="#3E3E3D" cx="16.398" cy="27.447" r="1.522"/>
			</g>
		</g>
	</g>
	<g>
		<g>
			<g>
				<circle fill="#3E3E3D" cx="30.171" cy="27.447" r="1.523"/>
			</g>
		</g>
	</g>
	<g>
		<g>
			<circle fill="#FFFFFF" cx="16.293" cy="27.464" r="0.538"/>
		</g>
	</g>
	<g>
		<g>
			<circle fill="#FFFFFF" cx="30.125" cy="27.547" r="0.538"/>
		</g>
	</g>
	<g>
		<g>
			<g>
				<path fill="#F6E9E5" d="M20.442,46.638c0,1.052,0.482,1.033,1.112,1.11l0,0c0.695,0.048,1.112,0.051,1.112-1.11V45.93
					c0,0.119-2.223-0.165-2.223-0.165v0.873H20.442z"/>
			</g>
		</g>
		<g>
			<g>
				<path fill="#F6E9E5" d="M25.174,46.764c0,1.052-0.482,1.033-1.113,1.11l0,0c-0.696,0.048-1.109,0.051-1.109-1.11v-0.708
					c0,0.119,2.223-0.165,2.223-0.165V46.764L25.174,46.764z"/>
			</g>
		</g>
	</g>
	<g>
		<g>
			<g>
				<path fill="#3E3E3D" d="M23.005,46.063c-4.983,0-8.388,0.496-8.533,0.386c-0.112-0.084-0.133-0.241-0.049-0.352
					c0.084-0.113,0.241-0.135,0.354-0.052c0.033,0.026,3.545-0.816,8.354-0.816c4.799,0,7.893,0.851,7.925,0.823
					c0.106-0.088,0.267-0.074,0.356,0.033s0.075,0.266-0.031,0.354C31.245,46.552,27.997,46.063,23.005,46.063z"/>
			</g>
		</g>
	</g>
</g>
<g>
	<g>
		<g>
			<path fill="#3E3E3D" d="M0,55.192c0.713-0.314,2.786-1.233,5.299,0.043c1.107,0.561,1.732,1.04,2.201,1.406
				c0.466,0.378,1.324,1.301,1.678,1.997c-0.713,0.32-0.832,0.456-1.742,0.747c-0.568,0.183-1.407,0.262-1.94,0.074
				c-0.532-0.189-1.101-0.405-1.794-1.009C3.234,58.072,1.429,55.534,0,55.192z"/>
		</g>
	</g>
	<g>
		<g>
			<g>
				<path fill="#465F7F" d="M8.661,59.154c-0.323,0-0.659-0.027-1.008-0.084c-0.688-0.111-1.156-0.76-1.044-1.447
					c0.111-0.688,0.759-1.154,1.447-1.045c4.075,0.655,5.659-6.265,5.674-6.333c0.151-0.679,0.824-1.111,1.505-0.957
					c0.681,0.15,1.109,0.825,0.958,1.506C16.114,51.153,14.265,59.154,8.661,59.154z"/>
			</g>
		</g>
	</g>
</g>
<circle fill="#EA8592" cx="11.445" cy="35.87" r="2.252"/>
<path fill="#EA8592" d="M36.551,35.786c0,1.244-1.007,2.253-2.254,2.253c-1.244,0-2.25-1.009-2.25-2.253
	c0-1.243,1.006-2.251,2.25-2.251C35.544,33.535,36.551,34.543,36.551,35.786z"/>
<path fill="#3E3E3D" d="M14.106,22.599c0,0,0.999-0.998,2.569,0.083c1.101,0.76,0.588,0.989,0.273,0.83
	c-1.114-0.557-1.83-0.945-2.425-0.542C13.646,23.566,13.754,22.866,14.106,22.599z"/>
<path fill="#3E3E3D" d="M32.167,22.91c0,0-0.997-1-2.567,0.08c-1.104,0.76-0.593,0.988-0.273,0.828
	c1.113-0.556,1.829-0.943,2.423-0.54C32.626,23.876,32.518,23.175,32.167,22.91z"/>
<path fill="#706F70" d="M30.203,26.447c1.163,0,2.147,0.732,2.536,1.758c0.071-0.242,0.121-0.493,0.121-0.758
	c0-1.502-1.218-2.719-2.72-2.719s-2.719,1.216-2.719,2.719c0,0.339,0.069,0.661,0.184,0.96
	C27.934,27.277,28.966,26.447,30.203,26.447z"/>
<path fill="#706F70" d="M16.453,26.478c1.163,0,2.147,0.732,2.536,1.758c0.071-0.242,0.121-0.493,0.121-0.758
	c0-1.502-1.218-2.719-2.72-2.719s-2.719,1.216-2.719,2.719c0,0.339,0.069,0.661,0.184,0.96
	C14.184,27.308,15.216,26.478,16.453,26.478z"/>
</svg>
