<?xml version="1.0" encoding="utf-8"?>
<!-- Generator: Adobe Illustrator 16.0.3, SVG Export Plug-In . SVG Version: 6.00 Build 0)  -->
<!DOCTYPE svg PUBLIC "-//W3C//DTD SVG 1.1//EN" "http://www.w3.org/Graphics/SVG/1.1/DTD/svg11.dtd" [
	<!ENTITY ns_flows "http://ns.adobe.com/Flows/1.0/">
	<!ENTITY ns_extend "http://ns.adobe.com/Extensibility/1.0/">
	<!ENTITY ns_ai "http://ns.adobe.com/AdobeIllustrator/10.0/">
	<!ENTITY ns_graphs "http://ns.adobe.com/Graphs/1.0/">
]>
<svg version="1.1" id="Layer_1" xmlns:x="&ns_extend;" xmlns:i="&ns_ai;" xmlns:graph="&ns_graphs;"
	 xmlns="http://www.w3.org/2000/svg" xmlns:xlink="http://www.w3.org/1999/xlink" xmlns:a="http://ns.adobe.com/AdobeSVGViewerExtensions/3.0/"
	 x="0px" y="0px" width="108px" height="108px" viewBox="0 0 108 108" enable-background="new 0 0 108 108" xml:space="preserve">
<g>
	<g>
		<g>
			<g>
				<path fill="#5D9BC4" d="M61.195,48.043c0,0,1.277-11.797,7.93-22.828c0,0,2.443-4.004,3.139,1.486
					c0.697,5.49,2.312,20.781-4.93,29.697L61.195,48.043z"/>
			</g>
		</g>
		<g>
			<g>
				<path fill="#BF495F" d="M63.529,47.495c0,0,1.191-7.963,5.027-17.156c0,0,2.146-4.664,2.405-0.834
					c0.593,8.793-0.538,18.863-3.866,23.141L63.529,47.495z"/>
			</g>
		</g>
	</g>
	<g>
		<g>
			<g>
				<path fill="#465F7F" d="M46.627,47.27c0,0-0.419-11.859-6.254-23.342c0,0-2.147-4.172-3.239,1.254
					c-1.092,5.428-3.81,20.561,2.765,29.98L46.627,47.27z"/>
			</g>
		</g>
		<g>
			<g>
				<path fill="#BF495F" d="M44.338,46.553c0,0-0.61-8.029-3.772-17.473c0,0-1.802-4.811-2.336-1.008
					c-1.229,8.727-0.797,18.848,2.213,23.357L44.338,46.553z"/>
			</g>
		</g>
	</g>
</g>
<g>
	<g>
		<g>
			<g opacity="0.39">
				<g>
					<path fill="#C6CCD6" d="M53.724,93.125c6.68,0,12.311-3.387,14.108-8.023c-1.799-6.199-7.43-9.588-14.108-9.588
						s-12.311,3.389-14.106,9.588C41.414,89.74,47.045,93.125,53.724,93.125z"/>
				</g>
			</g>
			<g>
				<g>
					<path fill="#465F7F" d="M53.724,93.125c6.68,0,12.311-3.387,14.108-8.023c-1.799-6.199-7.43-9.588-14.108-9.588
						s-12.311,3.389-14.106,9.588C41.414,89.74,47.045,93.125,53.724,93.125z"/>
				</g>
			</g>
			<g>
				<g>
					<path fill="#465F7F" d="M39.617,85.102c-0.393,1.347-0.611,2.818-0.611,4.424c0,6.183,3.823,11.191,14.719,11.191v-7.592
						C47.045,93.125,41.414,89.74,39.617,85.102z"/>
				</g>
			</g>
			<g>
				<g>
					<path fill="#5D9BC4" d="M67.797,85.102c0.393,1.347,0.609,2.818,0.609,4.424c0,6.183-3.738,11.509-14.717,11.191v-7.592
						C60.368,93.125,65.998,89.74,67.797,85.102z"/>
				</g>
			</g>
		</g>
	</g>
	<g>
		<g>
			<g>
				<rect x="44.798" y="96.805" fill="#465F7F" width="6.13" height="8.453"/>
			</g>
		</g>
		<g>
			<g>
				<rect x="56.518" y="96.805" fill="#5D9BC4" width="6.133" height="8.453"/>
			</g>
		</g>
		<g>
			<g>
				<g>
					<path fill="#3E3E3D" d="M47.799,106.354c0.259,0,0.469,0.211,0.469,0.474V108h4.934c0-2.947-2.39-5.336-5.338-5.336
						c-2.946,0-5.336,2.389-5.336,5.336h4.803v-1.174C47.328,106.562,47.538,106.354,47.799,106.354z"/>
				</g>
			</g>
		</g>
		<g>
			<g>
				<g>
					<path fill="#3E3E3D" d="M59.521,106.354c0.26,0,0.471,0.211,0.471,0.474V108h4.932c0-2.947-2.389-5.336-5.336-5.336
						s-5.336,2.389-5.336,5.336h4.803v-1.174C59.051,106.562,59.26,106.354,59.521,106.354z"/>
				</g>
			</g>
		</g>
	</g>
</g>
<g>
	<g>
		<g>
			<g>
				<path fill="#465F7F" d="M54.604,41.127c0.142,0.834,0.051,1.512-0.111,2.141c-0.17,0.625-0.434,1.189-0.775,1.697
					c-0.34,0.51-0.762,0.965-1.275,1.359c-0.523,0.387-1.118,0.725-1.947,0.906c-0.145-0.836-0.053-1.514,0.106-2.145
					c0.172-0.623,0.436-1.188,0.779-1.695c0.344-0.506,0.766-0.963,1.279-1.354C53.184,41.649,53.777,41.309,54.604,41.127z"/>
			</g>
		</g>
		<g>
			<g>
				<path fill="#507997" d="M57.372,42.426c0.142,0.834,0.051,1.512-0.108,2.143c-0.173,0.623-0.437,1.188-0.777,1.697
					c-0.34,0.508-0.764,0.963-1.276,1.357c-0.522,0.387-1.117,0.727-1.946,0.908c-0.144-0.836-0.055-1.516,0.109-2.146
					c0.17-0.623,0.433-1.186,0.777-1.693c0.344-0.508,0.766-0.963,1.278-1.355C55.953,42.95,56.545,42.608,57.372,42.426z"/>
			</g>
		</g>
	</g>
	<g>
		<g>
			<g>
				<path fill="#5D9BC4" d="M69.82,61.389c-0.271-1.457-0.936-4.35-0.936-4.35c-1.251-6.888-7.314-12.21-15.185-12.21v43.612
					c10.391,0,17.874-7.219,17.874-16.125C71.574,68.096,70.561,65.389,69.82,61.389z"/>
			</g>
		</g>
		<g>
			<g>
				<g>
					<path fill="#465F7F" d="M37.593,61.389c0.271-1.457,0.933-4.35,0.933-4.35c1.253-6.888,7.316-12.21,15.186-12.21v43.612
						c-10.389,0-17.873-7.219-17.873-16.125C35.838,68.096,36.854,65.389,37.593,61.389z"/>
				</g>
			</g>
		</g>
	</g>
	<g>
		<g>
			<path fill="#9C9B9B" d="M68.417,79.898c0,5.315-6.589,9.627-14.716,9.627s-14.716-4.312-14.716-9.627
				c0-5.32,6.59-9.629,14.716-9.629C61.828,70.27,68.417,74.578,68.417,79.898z"/>
		</g>
	</g>
	<g>
		<g>
			<g>
				<circle fill="#3E3E3D" cx="44.92" cy="78.409" r="2.114"/>
			</g>
		</g>
		<g>
			<g>
				<circle fill="#3E3E3D" cx="62.531" cy="78.409" r="2.114"/>
			</g>
		</g>
	</g>
	<g>
		<g>
			<g>
				<circle fill="#9C9B9B" cx="45.669" cy="60.873" r="3.377"/>
			</g>
		</g>
	</g>
	<g>
		<g>
			<g>
				<circle fill="#9C9B9B" cx="62.773" cy="60.873" r="3.377"/>
			</g>
		</g>
	</g>
	<g>
		<g>
			<g>
				<circle fill="#3E3E3D" cx="45.669" cy="60.873" r="1.891"/>
			</g>
		</g>
	</g>
	<g>
		<g>
			<g>
				<circle fill="#3E3E3D" cx="62.773" cy="60.873" r="1.891"/>
			</g>
		</g>
	</g>
	<g>
		<g>
			<circle fill="#FFFFFF" cx="46.366" cy="60.273" r="0.668"/>
		</g>
	</g>
	<g>
		<g>
			<circle fill="#FFFFFF" cx="63.441" cy="60.273" r="0.668"/>
		</g>
	</g>
	<g>
		<g>
			<g>
				<path fill="#F6E9E5" d="M50.742,86.361c0,1.307,0.6,1.281,1.381,1.379l0,0c0.866,0.059,1.381,0.062,1.381-1.379V85.48
					c0,0.147-2.762-0.203-2.762-0.203V86.361L50.742,86.361z"/>
			</g>
		</g>
		<g>
			<g>
				<path fill="#F6E9E5" d="M56.568,86.361c0,1.307-0.603,1.281-1.383,1.379l0,0c-0.865,0.059-1.38,0.062-1.38-1.379V85.48
					c0,0.147,2.763-0.203,2.763-0.203V86.361L56.568,86.361z"/>
			</g>
		</g>
	</g>
	<g>
		<g>
			<g>
				<path fill="#3E3E3D" d="M53.916,85.627c-6.188,0-10.52-1.504-10.701-1.641c-0.138-0.105-0.165-0.303-0.061-0.439
					c0.104-0.139,0.3-0.166,0.438-0.062c0.042,0.031,4.3,1.47,10.271,1.47c5.96,0,9.907-1.427,9.944-1.459
					c0.135-0.109,0.332-0.093,0.443,0.041c0.109,0.133,0.092,0.33-0.041,0.438C64.045,84.115,60.111,85.627,53.916,85.627z"/>
			</g>
		</g>
	</g>
</g>
<g>
	<g>
		<g>
			<path fill="#3E3E3D" d="M25.306,95.328c0.886-0.395,3.459-1.531,6.58,0.051c1.375,0.697,2.152,1.293,2.734,1.748
				c0.578,0.469,1.644,1.613,2.083,2.479c-0.886,0.4-1.032,0.566-2.164,0.933c-0.705,0.226-1.748,0.323-2.408,0.09
				c-0.661-0.233-1.367-0.502-2.229-1.254C29.322,98.902,27.081,95.75,25.306,95.328z"/>
		</g>
	</g>
	<g>
		<g>
			<g>
				<path fill="#465F7F" d="M36.062,100.246c-0.401,0-0.818-0.033-1.252-0.104c-0.854-0.14-1.436-0.941-1.297-1.797
					c0.139-0.854,0.942-1.435,1.798-1.3c5.06,0.813,7.026-7.776,7.046-7.862c0.188-0.845,1.023-1.379,1.87-1.188
					c0.845,0.188,1.377,1.022,1.188,1.869C45.316,90.312,43.02,100.246,36.062,100.246z"/>
			</g>
		</g>
	</g>
</g>
<circle fill="#EE959D" cx="39.518" cy="71.334" r="2.797"/>
<circle fill="#EE959D" cx="67.898" cy="71.229" r="2.798"/>
<path fill="#3E3E3D" d="M42.077,55.59c0,0,0.307-1.726,2.673-1.744c1.663-0.012,1.304,0.584,0.869,0.648
	c-1.53,0.225-2.534,0.34-2.853,1.173C42.299,56.898,41.909,56.111,42.077,55.59z"/>
<path fill="#3E3E3D" d="M66.555,56.107c0,0-0.305-1.727-2.672-1.742c-1.664-0.014-1.305,0.584-0.869,0.646
	c1.529,0.228,2.534,0.341,2.854,1.175C66.334,57.418,66.725,56.629,66.555,56.107z"/>
</svg>
