<?xml version="1.0" encoding="utf-8"?>
<!-- Generator: Adobe Illustrator 16.0.3, SVG Export Plug-In . SVG Version: 6.00 Build 0)  -->
<!DOCTYPE svg PUBLIC "-//W3C//DTD SVG 1.1//EN" "http://www.w3.org/Graphics/SVG/1.1/DTD/svg11.dtd" [
	<!ENTITY ns_flows "http://ns.adobe.com/Flows/1.0/">
	<!ENTITY ns_extend "http://ns.adobe.com/Extensibility/1.0/">
	<!ENTITY ns_ai "http://ns.adobe.com/AdobeIllustrator/10.0/">
	<!ENTITY ns_graphs "http://ns.adobe.com/Graphs/1.0/">
]>
<svg version="1.1" id="Layer_1" xmlns:x="&ns_extend;" xmlns:i="&ns_ai;" xmlns:graph="&ns_graphs;"
	 xmlns="http://www.w3.org/2000/svg" xmlns:xlink="http://www.w3.org/1999/xlink" xmlns:a="http://ns.adobe.com/AdobeSVGViewerExtensions/3.0/"
	 x="0px" y="0px" width="63.836px" height="54.727px" viewBox="0 0 63.836 54.727" enable-background="new 0 0 63.836 54.727"
	 xml:space="preserve">
<g>
	<g>
		<g>
			<g>
				<path fill="#5D9BC4" d="M41.699,9.138c0,0,11.058,2.186,20.942,9.391c0,0,3.586,2.643-1.668,2.846
					c-5.251,0.205-19.851,0.464-27.686-7.122L41.699,9.138z"/>
			</g>
		</g>
		<g>
			<g>
				<path fill="#BF495F" d="M42.027,11.389c0,0,7.435,1.788,15.813,6.178c0,0,4.237,2.42,0.591,2.345
					c-8.367-0.167-17.8-2.069-21.57-5.573L42.027,11.389z"/>
			</g>
		</g>
	</g>
	<g>
		<g>
			<g>
				<path fill="#465F7F" d="M21.929,8.602c0,0-11.315,3.494-20.857,12.105c0,0-3.459,3.153,2.052,2.793
					c5.514-0.361,20.797-1.687,28.158-10.473L21.929,8.602z"/>
			</g>
		</g>
		<g>
			<g>
				<path fill="#BF495F" d="M21.833,10.993c0,0-7.575,2.68-15.847,8.187c0,0-4.164,2.989-0.365,2.512
					c8.726-1.089,18.366-4.142,21.925-8.215L21.833,10.993z"/>
			</g>
		</g>
	</g>
</g>
<g>
	<g>
		<g>
			<g opacity="0.39">
				<g>
					<path fill="#C6CCD6" d="M31.68,42.75c5.377,0,9.912-2.726,11.359-6.461c-1.447-4.993-5.982-7.722-11.359-7.722
						c-5.38,0-9.914,2.729-11.361,7.722C21.767,40.024,26.301,42.75,31.68,42.75z"/>
				</g>
			</g>
			<g>
				<g>
					<path fill="#465F7F" d="M31.68,42.75c5.377,0,9.912-2.726,11.359-6.461c-1.447-4.993-5.982-7.722-11.359-7.722
						c-5.38,0-9.914,2.729-11.361,7.722C21.767,40.024,26.301,42.75,31.68,42.75z"/>
				</g>
			</g>
			<g>
				<g>
					<path fill="#465F7F" d="M20.319,36.289c-0.316,1.083-0.492,2.271-0.492,3.562c0,4.977,3.079,9.014,11.853,9.014V42.75
						C26.301,42.75,21.767,40.024,20.319,36.289z"/>
				</g>
			</g>
			<g>
				<g>
					<path fill="#5D9BC4" d="M43.012,36.289c0.315,1.083,0.491,2.271,0.491,3.562c0,4.977-3.011,9.268-11.853,9.014V42.75
						C37.031,42.75,41.564,40.024,43.012,36.289z"/>
				</g>
			</g>
		</g>
	</g>
	<g>
		<g>
			<g>
				<rect x="24.492" y="45.712" fill="#465F7F" width="4.936" height="6.807"/>
			</g>
		</g>
		<g>
			<g>
				<rect x="33.93" y="45.712" fill="#5D9BC4" width="4.938" height="6.807"/>
			</g>
		</g>
		<g>
			<g>
				<g>
					<path fill="#3E3E3D" d="M26.909,53.402c0.208,0,0.377,0.171,0.377,0.38v0.945h3.972c0-2.373-1.925-4.297-4.298-4.297
						c-2.373,0-4.296,1.924-4.296,4.297h3.867v-0.945C26.53,53.571,26.698,53.402,26.909,53.402z"/>
				</g>
			</g>
		</g>
		<g>
			<g>
				<g>
					<path fill="#3E3E3D" d="M36.345,53.402c0.211,0,0.382,0.171,0.382,0.38v0.945h3.971c0-2.373-1.924-4.297-4.297-4.297
						c-2.374,0-4.299,1.924-4.299,4.297h3.869v-0.945C35.971,53.571,36.139,53.402,36.345,53.402z"/>
				</g>
			</g>
		</g>
	</g>
</g>
<g>
	<g>
		<g>
			<g>
				<path fill="#465F7F" d="M30.568,0.474c0.544,0.41,0.865,0.856,1.12,1.314c0.244,0.46,0.403,0.936,0.484,1.424
					c0.083,0.484,0.088,0.984,0.005,1.5c-0.091,0.516-0.252,1.043-0.638,1.608c-0.547-0.409-0.869-0.858-1.124-1.314
					c-0.244-0.46-0.401-0.935-0.48-1.422c-0.049-1.424,0.114-2.209-0.001-1.502C30.027,1.565,30.186,1.038,30.568,0.474z"/>
			</g>
		</g>
		<g>
			<g>
				<path fill="#507997" d="M33.658,0c0.525,0.434,0.828,0.895,1.062,1.362c0.225,0.472,0.359,0.953,0.421,1.442
					c0.062,0.489,0.041,0.991-0.063,1.501c-0.114,0.511-0.296,1.031-0.706,1.578c-0.528-0.434-0.833-0.893-1.064-1.363
					c-0.224-0.471-0.361-0.952-0.418-1.442c-0.058-0.49-0.042-0.989,0.063-1.5C33.07,1.066,33.25,0.546,33.658,0z"/>
			</g>
		</g>
	</g>
	<g>
		<g>
			<g>
				<path fill="#5D9BC4" d="M44.642,17.195c-0.22-1.174-0.753-3.504-0.753-3.504c-1.006-5.548-5.892-9.835-12.229-9.835V38.98
					c8.367,0,14.393-5.813,14.393-12.986C46.053,22.594,45.237,20.414,44.642,17.195z"/>
			</g>
		</g>
		<g>
			<g>
				<g>
					<path fill="#465F7F" d="M18.69,17.195c0.217-1.174,0.75-3.504,0.75-3.504c1.008-5.548,5.893-9.835,12.227-9.835V38.98
						c-8.364,0-14.391-5.813-14.391-12.986C17.276,22.594,18.093,20.414,18.69,17.195z"/>
				</g>
			</g>
		</g>
	</g>
	<g>
		<g>
			<path fill="#9C9B9B" d="M43.511,32.098c0,4.281-5.307,7.752-11.851,7.752c-6.545,0-11.85-3.471-11.85-7.752
				c0-4.284,5.306-7.754,11.85-7.754S43.511,27.814,43.511,32.098z"/>
		</g>
	</g>
	<g>
		<g>
			<g>
				<circle fill="#3E3E3D" cx="24.589" cy="30.9" r="1.703"/>
			</g>
		</g>
		<g>
			<g>
				<circle fill="#3E3E3D" cx="38.772" cy="30.9" r="1.703"/>
			</g>
		</g>
	</g>
	<g>
		<g>
			<g>
				<circle fill="#9C9B9B" cx="25.193" cy="16.777" r="2.719"/>
			</g>
		</g>
	</g>
	<g>
		<g>
			<g>
				<circle fill="#9C9B9B" cx="38.966" cy="16.777" r="2.719"/>
			</g>
		</g>
	</g>
	<g>
		<g>
			<g>
				<circle fill="#3E3E3D" cx="25.193" cy="16.778" r="1.522"/>
			</g>
		</g>
	</g>
	<g>
		<g>
			<g>
				<circle fill="#3E3E3D" cx="38.966" cy="16.777" r="1.523"/>
			</g>
		</g>
	</g>
	<g>
		<g>
			<circle fill="#FFFFFF" cx="25.797" cy="16.419" r="0.538"/>
		</g>
	</g>
	<g>
		<g>
			<circle fill="#FFFFFF" cx="39.754" cy="16.46" r="0.538"/>
		</g>
	</g>
	<g>
		<g>
			<g>
				<path fill="#F6E9E5" d="M29.153,36.198c0,1.052,0.482,1.033,1.112,1.11l0,0c0.695,0.048,1.113,0.051,1.113-1.11V35.49
					c0,0.119-2.223-0.165-2.223-0.165v0.873H29.153z"/>
			</g>
		</g>
		<g>
			<g>
				<path fill="#F6E9E5" d="M33.907,36.365c0,1.052-0.482,1.033-1.113,1.11l0,0c-0.696,0.048-1.109,0.051-1.109-1.11v-0.708
					c0,0.119,2.014,0.382,2.014,0.382L33.907,36.365L33.907,36.365z"/>
			</g>
		</g>
	</g>
	<g>
		<g>
			<g>
				<path fill="#3E3E3D" d="M31.864,35.976c-4.772-1.438-8.452-0.086-8.597-0.196c-0.112-0.084-0.133-0.241-0.049-0.352
					c0.084-0.113,0.241-0.135,0.354-0.052c0.033,0.026,4.126-1.172,8.376,0.142c4.585,1.417,7.87-0.107,7.902-0.135
					c0.106-0.088,0.267-0.074,0.356,0.033s0.075,0.266-0.031,0.354C40.04,35.882,35.531,37.081,31.864,35.976z"/>
			</g>
		</g>
	</g>
</g>
<g>
	<g>
		<g>
			<path fill="#3E3E3D" d="M8.795,44.523c0.713-0.314,2.786-1.233,5.299,0.043c1.107,0.561,1.732,1.04,2.201,1.406
				c0.466,0.378,1.324,1.301,1.678,1.997c-0.713,0.32-0.832,0.456-1.742,0.747c-0.568,0.183-1.407,0.262-1.94,0.074
				c-0.532-0.189-1.101-0.405-1.794-1.009C12.029,47.403,10.224,44.865,8.795,44.523z"/>
		</g>
	</g>
	<g>
		<g>
			<g>
				<path fill="#465F7F" d="M17.456,48.485c-0.323,0-0.659-0.027-1.008-0.084c-0.688-0.111-1.156-0.76-1.044-1.447
					c0.111-0.688,0.759-1.154,1.447-1.045c4.075,0.655,5.659-6.265,5.674-6.333c0.151-0.679,0.824-1.111,1.505-0.957
					c0.681,0.15,1.109,0.825,0.958,1.506C24.909,40.484,23.06,48.485,17.456,48.485z"/>
			</g>
		</g>
	</g>
</g>
<circle fill="#AA9952" cx="20.49" cy="24.951" r="2.252"/>
<path fill="#AA9952" d="M44.886,24.976c0,1.244-1.007,2.253-2.254,2.253c-1.244,0-2.25-1.009-2.25-2.253
	c0-1.243,1.006-2.251,2.25-2.251C43.879,22.725,44.886,23.733,44.886,24.976z"/>
<path fill="#3E3E3D" d="M21.385,13.871c0,0,0.655-1.419,3.213-1.391c1.795,0.021,1.296,0.508,0.816,0.552
	c-1.694,0.16-2.799,0.236-3.3,0.918C21.378,14.958,21.106,14.299,21.385,13.871z"/>
<path fill="#3E3E3D" d="M42.631,13.996c0,0-0.655-1.419-3.213-1.391c-1.796,0.021-1.296,0.507-0.816,0.552
	c1.694,0.159,2.799,0.235,3.3,0.918C42.638,15.083,42.91,14.424,42.631,13.996z"/>
<path fill="#706F70" d="M25.346,16.228c1.181,0,2.042,0.158,2.436,1.175c0.073-0.241,0.123-0.49,0.123-0.752
	c0-1.491-1.236-2.698-2.761-2.698c-1.525,0-2.76,1.207-2.76,2.698c0,0.336,0.07,0.655,0.187,0.952
	C22.904,16.482,24.091,16.228,25.346,16.228z"/>
<path fill="#706F70" d="M39.158,16.353c1.182,0,2.042,0.158,2.437,1.175c0.073-0.241,0.123-0.49,0.123-0.752
	c0-1.491-1.235-2.698-2.761-2.698s-2.761,1.207-2.761,2.698c0,0.336,0.07,0.655,0.187,0.952
	C36.716,16.607,37.904,16.353,39.158,16.353z"/>
</svg>
