<?xml version="1.0" encoding="utf-8"?>
<!-- Generator: Adobe Illustrator 16.0.3, SVG Export Plug-In . SVG Version: 6.00 Build 0)  -->
<!DOCTYPE svg PUBLIC "-//W3C//DTD SVG 1.1//EN" "http://www.w3.org/Graphics/SVG/1.1/DTD/svg11.dtd" [
	<!ENTITY ns_flows "http://ns.adobe.com/Flows/1.0/">
	<!ENTITY ns_extend "http://ns.adobe.com/Extensibility/1.0/">
	<!ENTITY ns_ai "http://ns.adobe.com/AdobeIllustrator/10.0/">
	<!ENTITY ns_graphs "http://ns.adobe.com/Graphs/1.0/">
]>
<svg version="1.1" id="Layer_1" xmlns:x="&ns_extend;" xmlns:i="&ns_ai;" xmlns:graph="&ns_graphs;"
	 xmlns="http://www.w3.org/2000/svg" xmlns:xlink="http://www.w3.org/1999/xlink" xmlns:a="http://ns.adobe.com/AdobeSVGViewerExtensions/3.0/"
	 x="0px" y="0px" width="144px" height="144px" viewBox="0 0 144 144" enable-background="new 0 0 144 144" xml:space="preserve">
<g>
	<g>
		<g>
			<g>
				<path fill="#5C9AC4" d="M85.268,44.912c0,0-3.85-18.703,0.909-38.875c0,0,1.772-7.338,5.54,0.731
					c3.77,8.07,13.767,30.701,7.067,47.924L85.268,44.912z"/>
			</g>
		</g>
		<g>
			<g>
				<path fill="#BF495E" d="M88.574,42.921c0,0-2.095-12.786-0.742-28.756c0,0,0.991-8.204,3.273-2.463
					c5.236,13.178,8.461,29.16,5.469,37.353L88.574,42.921z"/>
			</g>
		</g>
	</g>
	<g>
		<g>
			<g>
				<path fill="#5C9AC4" d="M65.888,44.912c0,0,5.369-18.325,2.277-38.819c0,0-1.165-7.459-5.582,0.275
					c-4.418,7.735-16.236,29.469-10.969,47.184L65.888,44.912z"/>
			</g>
		</g>
		<g>
			<g>
				<path fill="#BF495E" d="M62.756,42.656c0,0,3.135-12.572,3.092-28.598c0,0-0.314-8.258-3.058-2.723
					C56.493,24.04,52.024,39.718,54.335,48.13L62.756,42.656z"/>
			</g>
		</g>
	</g>
</g>
<g>
	<g>
		<g>
			<g opacity="0.39">
				<g>
					<path fill="#C6CCD6" d="M75.692,114.399c10.746,0,19.807-5.45,22.701-12.911c-2.895-9.977-11.955-15.43-22.701-15.43
						c-10.748,0-19.809,5.453-22.701,15.43C55.884,108.949,64.945,114.399,75.692,114.399z"/>
				</g>
			</g>
			<g>
				<g>
					<path fill="#455F7F" d="M75.692,114.399c10.746,0,19.807-5.45,22.701-12.911c-2.895-9.977-11.955-15.43-22.701-15.43
						c-10.748,0-19.809,5.453-22.701,15.43C55.884,108.949,64.945,114.399,75.692,114.399z"/>
				</g>
			</g>
			<g>
				<g>
					<path fill="#455F7F" d="M52.992,101.488c-0.63,2.165-0.982,4.534-0.982,7.117c0,9.946,6.151,18.01,23.683,18.01v-12.216
						C64.945,114.399,55.884,108.949,52.992,101.488z"/>
				</g>
			</g>
			<g>
				<g>
					<path fill="#5C9AC4" d="M98.337,101.488c0.629,2.165,0.98,4.534,0.98,7.117c0,9.946-6.016,18.516-23.681,18.01v-12.216
						C86.383,114.399,95.442,108.949,98.337,101.488z"/>
				</g>
			</g>
		</g>
	</g>
	<g>
		<g>
			<g>
				<rect x="61.329" y="120.319" fill="#455F7F" width="9.864" height="13.601"/>
			</g>
		</g>
		<g>
			<g>
				<rect x="80.188" y="120.319" fill="#5C9AC4" width="9.867" height="13.601"/>
			</g>
		</g>
		<g>
			<g>
				<g>
					<path fill="#3D3D3C" d="M66.158,135.683c0.416,0,0.755,0.34,0.755,0.758v1.889h7.936c0-4.742-3.844-8.585-8.588-8.585
						c-4.741,0-8.586,3.843-8.586,8.585h7.728v-1.889C65.401,136.022,65.739,135.683,66.158,135.683z"/>
				</g>
			</g>
		</g>
		<g>
			<g>
				<g>
					<path fill="#3D3D3C" d="M85.018,135.683c0.417,0,0.757,0.34,0.757,0.758v1.889h7.934c0-4.742-3.842-8.585-8.586-8.585
						c-4.741,0-8.585,3.843-8.585,8.585h7.727v-1.889C84.264,136.022,84.599,135.683,85.018,135.683z"/>
				</g>
			</g>
		</g>
	</g>
</g>
<g>
	<g>
		<g>
			<g>
				<path fill="#455F7F" d="M77.107,30.729c0.227,1.343,0.08,2.433-0.18,3.447c-0.275,1.004-0.696,1.91-1.247,2.73
					c-0.547,0.821-1.226,1.553-2.053,2.186c-0.843,0.623-1.799,1.168-3.133,1.46c-0.232-1.345-0.086-2.437,0.173-3.451
					c0.276-1.003,0.699-1.909,1.254-2.727c0.553-0.816,1.231-1.549,2.058-2.181C74.823,31.57,75.777,31.023,77.107,30.729z"/>
			</g>
		</g>
		<g>
			<g>
				<path fill="#4F7896" d="M81.561,32.819c0.229,1.342,0.081,2.433-0.176,3.447c-0.278,1.004-0.701,1.91-1.249,2.73
					s-1.228,1.552-2.056,2.185c-0.841,0.623-1.797,1.17-3.131,1.461c-0.231-1.347-0.087-2.438,0.175-3.452
					c0.275-1.004,0.697-1.91,1.251-2.726c0.553-0.817,1.232-1.549,2.059-2.182C79.278,33.66,80.231,33.112,81.561,32.819z"/>
			</g>
		</g>
	</g>
	<g>
		<g>
			<g>
				<path fill="#5C9AC4" d="M101.59,63.334c-0.435-2.344-1.501-7-1.501-7c-2.014-11.084-11.773-19.65-24.434-19.65v70.179
					c16.718,0,28.76-11.615,28.76-25.946C104.415,74.123,102.782,69.768,101.59,63.334z"/>
			</g>
		</g>
		<g>
			<g>
				<g>
					<path fill="#455F7F" d="M49.737,63.334c0.433-2.344,1.499-7,1.499-7c2.016-11.084,11.774-19.65,24.435-19.65v70.179
						c-16.717,0-28.759-11.615-28.759-25.946C46.912,74.123,48.545,69.768,49.737,63.334z"/>
				</g>
			</g>
		</g>
	</g>
	<g>
		<g>
			<path fill="#9C9B9B" d="M99.334,93.114c0,8.555-10.602,15.491-23.679,15.491c-13.078,0-23.68-6.937-23.68-15.491
				c0-8.56,10.603-15.494,23.68-15.494C88.732,77.62,99.334,84.555,99.334,93.114z"/>
		</g>
	</g>
	<g>
		<g>
			<g>
				<circle fill="#3D3D3C" cx="61.525" cy="90.719" r="3.401"/>
			</g>
		</g>
		<g>
			<g>
				<circle fill="#3D3D3C" cx="89.864" cy="90.719" r="3.401"/>
			</g>
		</g>
	</g>
	<g>
		<g>
			<g>
				<circle fill="#9C9B9B" cx="62.731" cy="62.502" r="5.434"/>
			</g>
		</g>
	</g>
	<g>
		<g>
			<g>
				<circle fill="#9C9B9B" cx="90.253" cy="62.502" r="5.434"/>
			</g>
		</g>
	</g>
	<g>
		<g>
			<g>
				<circle fill="#3D3D3C" cx="62.731" cy="62.502" r="3.041"/>
			</g>
		</g>
	</g>
	<g>
		<g>
			<g>
				<circle fill="#3D3D3C" cx="90.253" cy="62.502" r="3.042"/>
			</g>
		</g>
	</g>
	<g>
		<g>
			<circle fill="#FFFFFF" cx="63.852" cy="61.538" r="1.075"/>
		</g>
	</g>
	<g>
		<g>
			<circle fill="#FFFFFF" cx="91.329" cy="61.538" r="1.075"/>
		</g>
	</g>
	<g>
		<g>
			<g>
				<path fill="#F6E9E5" d="M70.811,105.596c0,2.104,0.965,2.063,2.222,2.22l0,0c1.393,0.095,2.223,0.1,2.223-2.22v-1.415
					c0,0.238-4.444-0.328-4.444-0.328V105.596z"/>
			</g>
		</g>
		<g>
			<g>
				<path fill="#F6E9E5" d="M80.518,105.596c0,2.104-0.967,2.063-2.224,2.22l0,0c-1.392,0.095-2.221,0.1-2.221-2.22v-1.415
					c0,0.238,4.444-0.328,4.444-0.328V105.596z"/>
			</g>
		</g>
	</g>
	<g>
		<g>
			<g>
				<path fill="#3D3D3C" d="M75.992,105.089c-9.958,0-16.919-5.177-17.21-5.396c-0.222-0.169-0.266-0.484-0.098-0.705
					c0.167-0.224,0.483-0.267,0.706-0.101c0.068,0.053,6.996,5.194,16.603,5.194c9.589,0,15.863-5.126,15.925-5.178
					c0.216-0.178,0.533-0.151,0.713,0.063c0.177,0.215,0.148,0.532-0.065,0.711C92.299,99.898,85.963,105.089,75.992,105.089z"/>
			</g>
		</g>
	</g>
</g>
<g>
	<g>
		<g>
			<path fill="#3D3D3C" d="M29.965,117.944c1.423-0.634,5.566-2.465,10.587,0.079c2.212,1.123,3.462,2.083,4.399,2.816
				c0.93,0.753,2.645,2.594,3.351,3.988c-1.425,0.642-1.661,0.911-3.481,1.495c-1.135,0.361-2.812,0.522-3.875,0.147
				c-1.063-0.378-2.2-0.81-3.586-2.02C36.427,123.693,32.821,118.623,29.965,117.944z"/>
		</g>
	</g>
	<g>
		<g>
			<g>
				<path fill="#455F7F" d="M47.272,125.857c-0.646,0-1.317-0.054-2.015-0.167c-1.374-0.222-2.309-1.517-2.086-2.891
					c0.222-1.374,1.516-2.308,2.891-2.089c8.142,1.31,11.307-12.515,11.337-12.654c0.303-1.358,1.648-2.219,3.009-1.912
					c1.36,0.302,2.216,1.648,1.914,3.008C62.162,109.871,58.467,125.857,47.272,125.857z"/>
			</g>
		</g>
	</g>
</g>
</svg>
