<?xml version="1.0" encoding="utf-8"?>
<!-- Generator: Adobe Illustrator 16.0.3, SVG Export Plug-In . SVG Version: 6.00 Build 0)  -->
<!DOCTYPE svg PUBLIC "-//W3C//DTD SVG 1.1//EN" "http://www.w3.org/Graphics/SVG/1.1/DTD/svg11.dtd" [
	<!ENTITY ns_flows "http://ns.adobe.com/Flows/1.0/">
	<!ENTITY ns_extend "http://ns.adobe.com/Extensibility/1.0/">
	<!ENTITY ns_ai "http://ns.adobe.com/AdobeIllustrator/10.0/">
	<!ENTITY ns_graphs "http://ns.adobe.com/Graphs/1.0/">
]>
<svg version="1.1" id="Layer_1" xmlns:x="&ns_extend;" xmlns:i="&ns_ai;" xmlns:graph="&ns_graphs;"
	 xmlns="http://www.w3.org/2000/svg" xmlns:xlink="http://www.w3.org/1999/xlink" xmlns:a="http://ns.adobe.com/AdobeSVGViewerExtensions/3.0/"
	 x="0px" y="0px" width="47.613px" height="85.603px" viewBox="38.632 25.589 47.613 85.603"
	 enable-background="new 38.632 25.589 47.613 85.603" xml:space="preserve">
<g>
	<g>
		<g>
			<g>
				<path fill="#5C9AC4" d="M74.522,51.237c0,0,1.278-11.798,7.929-22.829c0,0,2.444-4.004,3.139,1.486
					c0.697,5.491,2.311,20.782-4.93,29.699L74.522,51.237z"/>
			</g>
		</g>
		<g>
			<g>
				<path fill="#BF495E" d="M76.856,50.688c0,0,1.192-7.964,5.028-17.156c0,0,2.146-4.665,2.405-0.834
					c0.593,8.792-0.538,18.862-3.866,23.14L76.856,50.688z"/>
			</g>
		</g>
	</g>
	<g>
		<g>
			<g>
				<path fill="#455F7F" d="M59.953,50.464c0,0-0.419-11.86-6.254-23.343c0,0-2.147-4.172-3.239,1.255
					c-1.092,5.427-3.81,20.56,2.764,29.979L59.953,50.464z"/>
			</g>
		</g>
		<g>
			<g>
				<path fill="#BF495E" d="M57.664,49.747c0,0-0.611-8.029-3.773-17.474c0,0-1.801-4.81-2.336-1.008
					c-1.228,8.727-0.796,18.849,2.213,23.358L57.664,49.747z"/>
			</g>
		</g>
	</g>
</g>
<g>
	<g>
		<g>
			<g opacity="0.39">
				<g>
					<path fill="#C6CCD6" d="M67.05,96.318c6.679,0,12.31-3.386,14.108-8.022c-1.799-6.201-7.43-9.589-14.108-9.589
						c-6.679,0-12.311,3.388-14.107,9.589C54.74,92.933,60.371,96.318,67.05,96.318z"/>
				</g>
			</g>
			<g>
				<g>
					<path fill="#455F7F" d="M67.05,96.318c6.679,0,12.31-3.386,14.108-8.022c-1.799-6.201-7.43-9.589-14.108-9.589
						c-6.679,0-12.311,3.388-14.107,9.589C54.74,92.933,60.371,96.318,67.05,96.318z"/>
				</g>
			</g>
			<g>
				<g>
					<path fill="#455F7F" d="M52.943,88.296c-0.392,1.345-0.611,2.817-0.611,4.423c0,6.181,3.823,11.192,14.719,11.192v-7.593
						C60.371,96.318,54.74,92.933,52.943,88.296z"/>
				</g>
			</g>
			<g>
				<g>
					<path fill="#5C9AC4" d="M81.123,88.296c0.391,1.345,0.609,2.817,0.609,4.423c0,6.181-3.738,11.507-14.717,11.192v-7.593
						C73.694,96.318,79.324,92.933,81.123,88.296z"/>
				</g>
			</g>
		</g>
	</g>
	<g>
		<g>
			<g>
				<rect x="58.124" y="99.998" fill="#455F7F" width="6.13" height="8.453"/>
			</g>
		</g>
		<g>
			<g>
				<rect x="69.844" y="99.998" fill="#5C9AC4" width="6.132" height="8.453"/>
			</g>
		</g>
		<g>
			<g>
				<g>
					<path fill="#3D3D3C" d="M61.125,109.547c0.259,0,0.469,0.212,0.469,0.472v1.174h4.933c0-2.947-2.39-5.336-5.338-5.336
						c-2.946,0-5.336,2.389-5.336,5.336h4.803v-1.174C60.654,109.757,60.864,109.547,61.125,109.547z"/>
				</g>
			</g>
		</g>
		<g>
			<g>
				<g>
					<path fill="#3D3D3C" d="M72.846,109.547c0.26,0,0.471,0.212,0.471,0.472v1.174h4.932c0-2.947-2.389-5.336-5.336-5.336
						c-2.948,0-5.336,2.389-5.336,5.336h4.803v-1.174C72.377,109.757,72.586,109.547,72.846,109.547z"/>
				</g>
			</g>
		</g>
	</g>
</g>
<g>
	<g>
		<g>
			<g>
				<path fill="#455F7F" d="M67.93,44.32c0.141,0.834,0.05,1.512-0.112,2.142c-0.17,0.625-0.433,1.188-0.775,1.697
					c-0.34,0.51-0.762,0.965-1.276,1.358c-0.523,0.387-1.118,0.726-1.947,0.908c-0.144-0.836-0.053-1.515,0.107-2.145
					c0.171-0.624,0.435-1.187,0.779-1.695c0.344-0.507,0.765-0.963,1.279-1.355C66.51,44.843,67.103,44.503,67.93,44.32z"/>
			</g>
		</g>
		<g>
			<g>
				<path fill="#4F7896" d="M70.698,45.619c0.142,0.834,0.051,1.512-0.109,2.143c-0.172,0.624-0.436,1.187-0.777,1.697
					c-0.34,0.509-0.763,0.964-1.277,1.358c-0.523,0.387-1.117,0.727-1.946,0.908c-0.144-0.837-0.055-1.515,0.109-2.146
					c0.17-0.624,0.433-1.187,0.777-1.694c0.344-0.508,0.766-0.963,1.279-1.356C69.279,46.142,69.871,45.801,70.698,45.619z"/>
			</g>
		</g>
	</g>
	<g>
		<g>
			<g>
				<path fill="#5C9AC4" d="M83.146,64.583c-0.271-1.457-0.934-4.35-0.934-4.35c-1.251-6.889-7.315-12.212-15.185-12.212v43.615
					c10.391,0,17.874-7.219,17.874-16.125C84.9,71.289,83.886,68.583,83.146,64.583z"/>
			</g>
		</g>
		<g>
			<g>
				<g>
					<path fill="#455F7F" d="M50.919,64.583c0.27-1.457,0.932-4.35,0.932-4.35c1.253-6.889,7.317-12.212,15.186-12.212v43.615
						c-10.389,0-17.873-7.219-17.873-16.125C49.164,71.289,50.179,68.583,50.919,64.583z"/>
				</g>
			</g>
		</g>
	</g>
	<g>
		<g>
			<path fill="#9C9B9B" d="M81.743,83.092c0,5.316-6.589,9.627-14.716,9.627s-14.716-4.312-14.716-9.627
				c0-5.32,6.59-9.629,14.716-9.629C75.154,73.463,81.743,77.771,81.743,83.092z"/>
		</g>
	</g>
	<g>
		<g>
			<g>
				<circle fill="#3D3D3C" cx="58.246" cy="81.603" r="2.114"/>
			</g>
		</g>
		<g>
			<g>
				<circle fill="#3D3D3C" cx="75.857" cy="81.603" r="2.114"/>
			</g>
		</g>
	</g>
	<g>
		<g>
			<g>
				<circle fill="#9C9B9B" cx="58.995" cy="64.067" r="3.377"/>
			</g>
		</g>
	</g>
	<g>
		<g>
			<g>
				<circle fill="#9C9B9B" cx="76.1" cy="64.067" r="3.377"/>
			</g>
		</g>
	</g>
	<g>
		<g>
			<g>
				<circle fill="#3D3D3C" cx="58.995" cy="64.067" r="1.89"/>
			</g>
		</g>
	</g>
	<g>
		<g>
			<g>
				<circle fill="#3D3D3C" cx="76.1" cy="64.067" r="1.89"/>
			</g>
		</g>
	</g>
	<g>
		<g>
			<circle fill="#FFFFFF" cx="59.692" cy="63.467" r="0.668"/>
		</g>
	</g>
	<g>
		<g>
			<circle fill="#FFFFFF" cx="76.768" cy="63.467" r="0.668"/>
		</g>
	</g>
	<g>
		<g>
			<g>
				<path fill="#F6E9E5" d="M64.068,89.554c0,1.308,0.6,1.282,1.381,1.38l0,0c0.866,0.059,1.381,0.062,1.381-1.38v-0.879
					c0,0.147-2.762-0.204-2.762-0.204L64.068,89.554L64.068,89.554z"/>
			</g>
		</g>
		<g>
			<g>
				<path fill="#F6E9E5" d="M69.894,89.554c0,1.308-0.601,1.282-1.382,1.38l0,0c-0.865,0.059-1.38,0.062-1.38-1.38v-0.879
					c0,0.147,2.762-0.204,2.762-0.204V89.554L69.894,89.554z"/>
			</g>
		</g>
	</g>
	<g>
		<g>
			<g>
				<path fill="#3D3D3C" d="M67.242,88.821c-6.189,0-10.52-1.505-10.701-1.642c-0.138-0.105-0.165-0.301-0.061-0.438
					c0.104-0.14,0.3-0.166,0.439-0.063c0.042,0.032,4.3,1.469,10.271,1.469c5.96,0,9.906-1.427,9.945-1.459
					c0.133-0.11,0.331-0.093,0.443,0.04c0.109,0.134,0.092,0.33-0.041,0.441C77.371,87.308,73.438,88.821,67.242,88.821z"/>
			</g>
		</g>
	</g>
</g>
<g>
	<g>
		<g>
			<path fill="#3D3D3C" d="M38.632,98.522c0.885-0.394,3.459-1.532,6.58,0.05c1.375,0.697,2.152,1.294,2.734,1.749
				c0.578,0.468,1.644,1.613,2.083,2.479c-0.886,0.399-1.032,0.566-2.164,0.93c-0.705,0.225-1.748,0.324-2.408,0.091
				c-0.661-0.234-1.367-0.503-2.229-1.255C42.648,102.096,40.407,98.944,38.632,98.522z"/>
		</g>
	</g>
	<g>
		<g>
			<g>
				<path fill="#455F7F" d="M49.388,103.44c-0.401,0-0.818-0.034-1.252-0.104c-0.854-0.138-1.435-0.942-1.296-1.796
					c0.138-0.854,0.942-1.435,1.797-1.299c5.06,0.814,7.027-7.777,7.046-7.863c0.188-0.845,1.024-1.38,1.87-1.188
					c0.845,0.188,1.377,1.023,1.189,1.869C58.642,93.506,56.345,103.44,49.388,103.44z"/>
			</g>
		</g>
	</g>
</g>
<circle fill="#EF959C" cx="52.844" cy="74.527" r="2.797"/>
<circle fill="#EF959C" cx="81.225" cy="74.423" r="2.797"/>
<path fill="#3D3D3C" d="M55.403,58.783c0,0,0.307-1.727,2.673-1.743c1.663-0.012,1.304,0.584,0.869,0.648
	c-1.53,0.225-2.534,0.34-2.852,1.174C55.625,60.093,55.235,59.305,55.403,58.783z"/>
<path fill="#3D3D3C" d="M79.881,59.301c0,0-0.305-1.727-2.672-1.743c-1.664-0.012-1.305,0.584-0.869,0.648
	c1.529,0.225,2.534,0.34,2.852,1.174C79.66,60.611,80.051,59.823,79.881,59.301z"/>
</svg>
