<?xml version="1.0" encoding="utf-8"?>
<!-- Generator: Adobe Illustrator 16.0.3, SVG Export Plug-In . SVG Version: 6.00 Build 0)  -->
<!DOCTYPE svg PUBLIC "-//W3C//DTD SVG 1.1//EN" "http://www.w3.org/Graphics/SVG/1.1/DTD/svg11.dtd" [
	<!ENTITY ns_flows "http://ns.adobe.com/Flows/1.0/">
	<!ENTITY ns_extend "http://ns.adobe.com/Extensibility/1.0/">
	<!ENTITY ns_ai "http://ns.adobe.com/AdobeIllustrator/10.0/">
	<!ENTITY ns_graphs "http://ns.adobe.com/Graphs/1.0/">
]>
<svg version="1.1" id="Layer_1" xmlns:x="&ns_extend;" xmlns:i="&ns_ai;" xmlns:graph="&ns_graphs;"
	 xmlns="http://www.w3.org/2000/svg" xmlns:xlink="http://www.w3.org/1999/xlink" xmlns:a="http://ns.adobe.com/AdobeSVGViewerExtensions/3.0/"
	 x="0px" y="0px" width="45.228px" height="54.727px" viewBox="0 0 45.228 54.727" enable-background="new 0 0 45.228 54.727"
	 xml:space="preserve">
<g>
	<g>
		<g>
			<g>
				<path fill="#5D9BC4" d="M29.933,20.183c0,0,3.706,11.248,12.496,20.626c0,0,3.218,3.398,2.753-2.105
					c-0.465-5.506-2.078-20.761-11.001-27.956L29.933,20.183z"/>
			</g>
		</g>
		<g>
			<g>
				<path fill="#CC6279" d="M32.325,20.233c0,0,2.822,7.523,8.484,15.691c0,0,3.068,4.105,2.519,0.316
					c-1.253-8.704-4.487-18.285-8.628-21.766L32.325,20.233z"/>
			</g>
		</g>
	</g>
</g>
<g>
	<g>
		<g>
			<g>
				<path fill="#465F7F" d="M16.124,19.72c0,0-3.707,11.247-12.496,20.626c0,0-3.218,3.398-2.753-2.104
					c0.465-5.507,2.078-20.762,11.001-27.956L16.124,19.72z"/>
			</g>
		</g>
		<g>
			<g>
				<path fill="#BF495F" d="M13.731,19.771c0,0-2.822,7.524-8.484,15.691c0,0-3.068,4.105-2.519,0.316
					c1.253-8.703,4.488-18.284,8.627-21.766L13.731,19.771z"/>
			</g>
		</g>
	</g>
</g>
<g>
	<g>
		<g>
			<g opacity="0.39">
				<g>
					<path fill="#C6CCD6" d="M22.885,42.75c5.377,0,9.912-2.726,11.359-6.461c-1.447-4.993-5.982-7.722-11.359-7.722
						c-5.38,0-9.914,2.729-11.361,7.722C12.972,40.024,17.506,42.75,22.885,42.75z"/>
				</g>
			</g>
			<g>
				<g>
					<path fill="#465F7F" d="M22.885,42.75c5.377,0,9.912-2.726,11.359-6.461c-1.447-4.993-5.982-7.722-11.359-7.722
						c-5.38,0-9.914,2.729-11.361,7.722C12.972,40.024,17.506,42.75,22.885,42.75z"/>
				</g>
			</g>
			<g>
				<g>
					<path fill="#465F7F" d="M11.524,36.289c-0.316,1.083-0.492,2.271-0.492,3.562c0,4.977,3.079,9.014,11.853,9.014V42.75
						C17.506,42.75,12.972,40.024,11.524,36.289z"/>
				</g>
			</g>
			<g>
				<g>
					<path fill="#5D9BC4" d="M34.217,36.289c0.315,1.083,0.491,2.271,0.491,3.562c0,4.977-3.011,9.268-11.853,9.014V42.75
						C28.236,42.75,32.769,40.024,34.217,36.289z"/>
				</g>
			</g>
		</g>
	</g>
	<g>
		<g>
			<g>
				<rect x="15.697" y="45.712" fill="#465F7F" width="4.936" height="6.807"/>
			</g>
		</g>
		<g>
			<g>
				<rect x="25.135" y="45.712" fill="#5D9BC4" width="4.938" height="6.807"/>
			</g>
		</g>
		<g>
			<g>
				<g>
					<path fill="#3E3E3D" d="M18.114,53.402c0.208,0,0.377,0.171,0.377,0.38v0.945h3.972c0-2.373-1.925-4.297-4.298-4.297
						c-2.373,0-4.296,1.924-4.296,4.297h3.867v-0.945C17.735,53.571,17.903,53.402,18.114,53.402z"/>
				</g>
			</g>
		</g>
		<g>
			<g>
				<g>
					<path fill="#3E3E3D" d="M27.55,53.402c0.211,0,0.382,0.171,0.382,0.38v0.945h3.971c0-2.373-1.924-4.297-4.297-4.297
						c-2.374,0-4.299,1.924-4.299,4.297h3.869v-0.945C27.176,53.571,27.344,53.402,27.55,53.402z"/>
				</g>
			</g>
		</g>
	</g>
</g>
<g>
	<g>
		<g>
			<g>
				<path fill="#465F7F" d="M21.773,0.474c0.544,0.41,0.865,0.856,1.12,1.314c0.244,0.46,0.403,0.936,0.484,1.424
					c0.083,0.484,0.088,0.984,0.005,1.5c-0.091,0.516-0.252,1.043-0.638,1.608c-0.547-0.409-0.869-0.858-1.124-1.314
					c-0.244-0.46-0.401-0.935-0.48-1.422c-0.049-1.424,0.114-2.209-0.001-1.502C21.232,1.565,21.391,1.038,21.773,0.474z"/>
			</g>
		</g>
		<g>
			<g>
				<path fill="#507997" d="M24.863,0c0.525,0.434,0.828,0.895,1.062,1.362c0.225,0.472,0.359,0.953,0.421,1.442
					c0.062,0.489,0.041,0.991-0.063,1.501c-0.114,0.511-0.296,1.031-0.706,1.578c-0.528-0.434-0.833-0.893-1.064-1.363
					c-0.224-0.471-0.361-0.952-0.418-1.442c-0.058-0.49-0.042-0.989,0.063-1.5C24.275,1.066,24.455,0.546,24.863,0z"/>
			</g>
		</g>
	</g>
	<g>
		<g>
			<g>
				<path fill="#5D9BC4" d="M35.847,17.195c-0.22-1.174-0.753-3.504-0.753-3.504c-1.006-5.548-5.892-9.835-12.229-9.835V38.98
					c8.367,0,14.393-5.813,14.393-12.986C37.258,22.594,36.442,20.414,35.847,17.195z"/>
			</g>
		</g>
		<g>
			<g>
				<g>
					<path fill="#465F7F" d="M9.896,17.195c0.217-1.174,0.75-3.504,0.75-3.504c1.008-5.548,5.893-9.835,12.227-9.835V38.98
						c-8.364,0-14.391-5.813-14.391-12.986C8.481,22.594,9.298,20.414,9.896,17.195z"/>
				</g>
			</g>
		</g>
	</g>
	<g>
		<g>
			<path fill="#9C9B9B" d="M34.716,32.098c0,4.281-5.307,7.752-11.851,7.752c-6.545,0-11.85-3.471-11.85-7.752
				c0-4.284,5.306-7.754,11.85-7.754S34.716,27.814,34.716,32.098z"/>
		</g>
	</g>
	<g>
		<g>
			<g>
				<circle fill="#3E3E3D" cx="15.794" cy="30.9" r="1.703"/>
			</g>
		</g>
		<g>
			<g>
				<circle fill="#3E3E3D" cx="29.977" cy="30.9" r="1.703"/>
			</g>
		</g>
	</g>
	<g>
		<g>
			<g>
				<circle fill="#9C9B9B" cx="16.398" cy="16.777" r="2.719"/>
			</g>
		</g>
	</g>
	<g>
		<g>
			<g>
				<circle fill="#9C9B9B" cx="30.171" cy="16.777" r="2.719"/>
			</g>
		</g>
	</g>
	<g>
		<g>
			<g>
				<circle fill="#3E3E3D" cx="16.398" cy="16.778" r="1.522"/>
			</g>
		</g>
	</g>
	<g>
		<g>
			<g>
				<circle fill="#3E3E3D" cx="30.171" cy="16.777" r="1.523"/>
			</g>
		</g>
	</g>
	<g>
		<g>
			<circle fill="#FFFFFF" cx="17.002" cy="16.419" r="0.538"/>
		</g>
	</g>
	<g>
		<g>
			<circle fill="#FFFFFF" cx="30.959" cy="16.46" r="0.538"/>
		</g>
	</g>
	<g>
		<g>
			<g>
				<path fill="#F6E9E5" d="M20.358,36.198c0,1.052,0.482,1.033,1.112,1.11l0,0c0.695,0.048,1.113,0.051,1.113-1.11V35.49
					c0,0.119-2.223-0.165-2.223-0.165v0.873H20.358z"/>
			</g>
		</g>
		<g>
			<g>
				<path fill="#F6E9E5" d="M25.112,36.365c0,1.052-0.482,1.033-1.113,1.11l0,0c-0.696,0.048-1.109,0.051-1.109-1.11v-0.708
					c0,0.119,2.014,0.382,2.014,0.382L25.112,36.365L25.112,36.365z"/>
			</g>
		</g>
	</g>
	<g>
		<g>
			<g>
				<path fill="#3E3E3D" d="M23.069,35.976c-4.772-1.438-8.452-0.086-8.597-0.196c-0.112-0.084-0.133-0.241-0.049-0.352
					c0.084-0.113,0.241-0.135,0.354-0.052c0.033,0.026,4.126-1.172,8.376,0.142c4.585,1.417,7.87-0.107,7.902-0.135
					c0.106-0.088,0.267-0.074,0.356,0.033s0.075,0.266-0.031,0.354C31.245,35.882,26.736,37.081,23.069,35.976z"/>
			</g>
		</g>
	</g>
</g>
<g>
	<g>
		<g>
			<path fill="#3E3E3D" d="M0,44.523c0.713-0.314,2.786-1.233,5.299,0.043c1.107,0.561,1.732,1.04,2.201,1.406
				c0.466,0.378,1.324,1.301,1.678,1.997c-0.713,0.32-0.832,0.456-1.742,0.747c-0.568,0.183-1.407,0.262-1.94,0.074
				c-0.532-0.189-1.101-0.405-1.794-1.009C3.234,47.403,1.429,44.865,0,44.523z"/>
		</g>
	</g>
	<g>
		<g>
			<g>
				<path fill="#465F7F" d="M8.661,48.485c-0.323,0-0.659-0.027-1.008-0.084c-0.688-0.111-1.156-0.76-1.044-1.447
					c0.111-0.688,0.759-1.154,1.447-1.045c4.075,0.655,5.659-6.265,5.674-6.333c0.151-0.679,0.824-1.111,1.505-0.957
					c0.681,0.15,1.109,0.825,0.958,1.506C16.114,40.484,14.265,48.485,8.661,48.485z"/>
			</g>
		</g>
	</g>
</g>
<circle fill="#AA9952" cx="11.695" cy="24.951" r="2.252"/>
<path fill="#AA9952" d="M36.091,24.976c0,1.244-1.007,2.253-2.254,2.253c-1.244,0-2.25-1.009-2.25-2.253
	c0-1.243,1.006-2.251,2.25-2.251C35.084,22.725,36.091,23.733,36.091,24.976z"/>
<path fill="#3E3E3D" d="M12.59,13.871c0,0,0.655-1.419,3.213-1.391c1.795,0.021,1.296,0.508,0.816,0.552
	c-1.694,0.16-2.799,0.236-3.3,0.918C12.583,14.958,12.312,14.299,12.59,13.871z"/>
<path fill="#3E3E3D" d="M33.836,13.996c0,0-0.655-1.419-3.213-1.391c-1.796,0.021-1.296,0.507-0.816,0.552
	c1.694,0.159,2.799,0.235,3.3,0.918C33.843,15.083,34.115,14.424,33.836,13.996z"/>
<path fill="#706F70" d="M16.551,16.228c1.181,0,2.042,0.158,2.436,1.175c0.073-0.241,0.123-0.49,0.123-0.752
	c0-1.491-1.236-2.698-2.761-2.698c-1.525,0-2.76,1.207-2.76,2.698c0,0.336,0.07,0.655,0.187,0.952
	C14.109,16.482,15.296,16.228,16.551,16.228z"/>
<path fill="#706F70" d="M30.363,16.353c1.182,0,2.042,0.158,2.437,1.175c0.073-0.241,0.123-0.49,0.123-0.752
	c0-1.491-1.235-2.698-2.761-2.698s-2.761,1.207-2.761,2.698c0,0.336,0.07,0.655,0.187,0.952
	C27.921,16.607,29.109,16.353,30.363,16.353z"/>
</svg>
