<?xml version="1.0" encoding="utf-8"?>
<!-- Generator: Adobe Illustrator 16.0.3, SVG Export Plug-In . SVG Version: 6.00 Build 0)  -->
<!DOCTYPE svg PUBLIC "-//W3C//DTD SVG 1.1//EN" "http://www.w3.org/Graphics/SVG/1.1/DTD/svg11.dtd" [
	<!ENTITY ns_flows "http://ns.adobe.com/Flows/1.0/">
	<!ENTITY ns_extend "http://ns.adobe.com/Extensibility/1.0/">
	<!ENTITY ns_ai "http://ns.adobe.com/AdobeIllustrator/10.0/">
	<!ENTITY ns_graphs "http://ns.adobe.com/Graphs/1.0/">
]>
<svg version="1.1" id="Layer_1" xmlns:x="&ns_extend;" xmlns:i="&ns_ai;" xmlns:graph="&ns_graphs;"
	 xmlns="http://www.w3.org/2000/svg" xmlns:xlink="http://www.w3.org/1999/xlink" xmlns:a="http://ns.adobe.com/AdobeSVGViewerExtensions/3.0/"
	 x="0px" y="0px" width="108px" height="108px" viewBox="0 0 108 108" enable-background="new 0 0 108 108" xml:space="preserve">
<g>
	<g>
		<g>
			<g>
				<path fill="#B4A359" d="M61.837,68.21c0,0,2.362,14.564,11.345,27.824c0,0,3.297,4.812,3.8-2.053
					c0.503-6.866,1.501-25.953-8.073-36.55L61.837,68.21z"/>
			</g>
		</g>
		<g>
			<g>
				<path fill="#61454C" d="M64.771,68.739c0,0,2,9.812,7.371,20.969c0,0,2.974,5.651,3.039,0.882
					c0.161-10.956-1.946-23.379-6.363-28.472L64.771,68.739z"/>
			</g>
		</g>
	</g>
</g>
<g>
	<g>
		<g>
			<g>
				<path fill="#587241" d="M45.001,67.392c0,0-3.275,14.386-13.076,27.053c0,0-3.592,4.593-3.662-2.285
					c-0.07-6.886,0.138-25.999,10.361-35.973L45.001,67.392z"/>
			</g>
		</g>
		<g>
			<g>
				<path fill="#61454C" d="M42.041,67.734c0,0-2.617,9.665-8.68,20.459c0,0-3.324,5.457-3.087,0.692
					c0.532-10.942,3.417-23.21,8.144-28.015L42.041,67.734z"/>
			</g>
		</g>
	</g>
</g>
<g>
	<g>
		<g>
			<g opacity="0.39">
				<g>
					<path fill="#C6CCD6" d="M53.63,93.074c6.699,0,12.349-3.394,14.152-8.05c-1.804-6.221-7.453-9.621-14.152-9.621
						c-6.704,0-12.353,3.4-14.157,9.621C41.277,89.681,46.928,93.074,53.63,93.074z"/>
				</g>
			</g>
			<g>
				<g>
					<path fill="#587241" d="M53.63,93.074c6.699,0,12.349-3.394,14.152-8.05c-1.804-6.221-7.453-9.621-14.152-9.621
						c-6.704,0-12.353,3.4-14.157,9.621C41.277,89.681,46.928,93.074,53.63,93.074z"/>
				</g>
			</g>
			<g>
				<g>
					<path fill="#587241" d="M39.474,85.024c-0.394,1.352-0.612,2.83-0.612,4.439c0,6.201,3.835,11.23,14.769,11.23v-7.618
						C46.928,93.074,41.277,89.681,39.474,85.024z"/>
				</g>
			</g>
			<g>
				<g>
					<path fill="#B4A359" d="M67.749,85.024c0.393,1.352,0.611,2.83,0.611,4.439c0,6.201-3.751,11.548-14.768,11.23v-7.618
						C60.295,93.074,65.944,89.681,67.749,85.024z"/>
				</g>
			</g>
		</g>
	</g>
	<g>
		<g>
			<g>
				<rect x="44.673" y="96.768" fill="#587241" width="6.149" height="8.479"/>
			</g>
		</g>
		<g>
			<g>
				<rect x="56.432" y="96.768" fill="#B4A359" width="6.153" height="8.479"/>
			</g>
		</g>
		<g>
			<g>
				<g>
					<path fill="#3F3F3E" d="M47.685,106.348c0.258,0,0.47,0.215,0.47,0.473V108h4.948c0-2.958-2.398-5.354-5.355-5.354
						c-2.956,0-5.353,2.396-5.353,5.354h4.818v-1.18C47.212,106.559,47.421,106.348,47.685,106.348z"/>
				</g>
			</g>
		</g>
		<g>
			<g>
				<g>
					<path fill="#3F3F3E" d="M59.441,106.348c0.262,0,0.478,0.215,0.478,0.473V108h4.947c0-2.958-2.398-5.354-5.354-5.354
						c-2.96,0-5.358,2.396-5.358,5.354h4.821v-1.18C58.976,106.559,59.185,106.348,59.441,106.348z"/>
				</g>
			</g>
		</g>
	</g>
</g>
<g>
	<g>
		<g>
			<g>
				<path fill="#587241" d="M44.726,43.117c0.82-0.219,1.504-0.191,2.15-0.09c0.639,0.114,1.229,0.323,1.768,0.619
					c0.539,0.29,1.034,0.668,1.476,1.146c0.436,0.485,0.83,1.047,1.089,1.859c-0.821,0.223-1.509,0.195-2.153,0.095
					c-0.638-0.112-1.224-0.323-1.764-0.621c-1.436-1.045-2.08-1.808-1.476-1.15C45.383,44.487,44.985,43.925,44.726,43.117z"/>
			</g>
		</g>
		<g>
			<g>
				<path fill="#B4A359" d="M51.382,39.979c0.654,0.541,1.03,1.114,1.323,1.697c0.28,0.589,0.45,1.187,0.524,1.797
					c0.079,0.608,0.052,1.234-0.078,1.871c-0.143,0.636-0.369,1.285-0.879,1.965c-0.659-0.54-1.038-1.112-1.326-1.698
					c-0.278-0.587-0.451-1.187-0.521-1.796c-0.072-0.611-0.053-1.232,0.079-1.87C50.65,41.308,50.872,40.66,51.382,39.979z"/>
			</g>
		</g>
	</g>
	<g>
		<g>
			<g>
				<path fill="#B4A359" d="M69.778,61.235c-0.272-1.462-0.937-4.366-0.937-4.366c-1.254-6.914-7.342-12.253-15.237-12.253v43.763
					c10.426,0,17.933-7.243,17.933-16.18C71.537,67.964,70.52,65.245,69.778,61.235z"/>
			</g>
		</g>
		<g>
			<g>
				<g>
					<path fill="#587241" d="M37.445,61.235c0.271-1.462,0.934-4.366,0.934-4.366c1.256-6.914,7.342-12.253,15.236-12.253v43.763
						c-10.421,0-17.932-7.243-17.932-16.18C35.682,67.964,36.701,65.245,37.445,61.235z"/>
				</g>
			</g>
		</g>
	</g>
	<g>
		<g>
			<path fill="#9C9B9B" d="M68.37,79.805c0,5.334-6.611,9.657-14.766,9.657c-8.156,0-14.766-4.323-14.766-9.657
				c0-5.338,6.612-9.662,14.766-9.662C61.759,70.143,68.37,74.467,68.37,79.805z"/>
		</g>
	</g>
	<g>
		<g>
			<g>
				<circle fill="#3F3F3E" cx="44.794" cy="78.312" r="2.122"/>
			</g>
		</g>
		<g>
			<g>
				<circle fill="#3F3F3E" cx="62.464" cy="78.312" r="2.122"/>
			</g>
		</g>
	</g>
	<g>
		<g>
			<g>
				<circle fill="#A55E5F" cx="45.546" cy="60.715" r="3.387"/>
			</g>
		</g>
	</g>
	<g>
		<g>
			<g>
				<circle fill="#A55E5F" cx="62.707" cy="60.715" r="3.387"/>
			</g>
		</g>
	</g>
	<g>
		<g>
			<g>
				<circle fill="#3F3F3E" cx="62.707" cy="60.714" r="1.897"/>
			</g>
		</g>
	</g>
	<g>
		<g>
			<circle fill="#FFFFFF" cx="46.3" cy="60.269" r="0.67"/>
		</g>
	</g>
	<g>
		<g>
			<circle fill="#FFFFFF" cx="63.688" cy="60.32" r="0.67"/>
		</g>
	</g>
	<g>
		<g>
			<g>
				<path fill="#F2F4EB" d="M50.447,85.459c0,1.311,0.602,1.287,1.385,1.384l0,0c0.867,0.062,1.388,0.063,1.388-1.384v-0.882
					c0,0.147-2.771-0.207-2.771-0.207v1.089H50.447z"/>
			</g>
		</g>
		<g>
			<g>
				<path fill="#F6F9F2" d="M56.402,85.119c0,1.312-0.602,1.288-1.386,1.385l0,0c-0.868,0.059-1.383,0.062-1.383-1.385v-0.881
					c0,0.147,2.509,0.475,2.509,0.475L56.402,85.119L56.402,85.119z"/>
			</g>
		</g>
	</g>
	<g>
		<g>
			<g>
				<circle fill="#3F3F3E" cx="45.546" cy="60.714" r="1.897"/>
			</g>
		</g>
	</g>
</g>
<g>
	<g>
		<g>
			<path fill="#3F3F3E" d="M39.945,107.696c0.062-0.777,0.247-3.029-1.279-5.352c-0.671-1.025-1.168-1.576-1.547-1.988
				c-0.386-0.404-1.263-1.116-1.856-1.356c-0.066,0.777-0.138,0.919-0.136,1.889c0,0.607,0.139,1.468,0.401,1.975
				c0.263,0.507,0.556,1.045,1.161,1.645C37.075,104.916,39.358,106.308,39.945,107.696z"/>
		</g>
	</g>
	<g>
		<g>
			<g>
				<path fill="#587241" d="M35.007,99.611c0.077,0.325,0.174,0.66,0.298,1.004c0.244,0.678,0.828,1.039,1.304,0.811
					c0.479-0.231,0.667-0.965,0.425-1.641c-1.438-4.012,3.255-6.792,3.302-6.817c0.461-0.271,0.62-1.023,0.346-1.686
					c-0.27-0.663-0.865-0.982-1.327-0.712C39.111,90.712,33.689,93.944,35.007,99.611z"/>
			</g>
		</g>
	</g>
</g>
<circle fill="#AA9951" cx="39.688" cy="70.9" r="2.806"/>
<path fill="#AA825C" d="M70.254,71.014c0,1.551-1.255,2.809-2.811,2.809c-1.548,0-2.802-1.258-2.802-2.809
	c0-1.548,1.254-2.804,2.802-2.804C68.997,68.21,70.254,69.466,70.254,71.014z"/>
<path fill="#3F3F3E" d="M40.802,57.094c0,0,0.816-1.769,4.003-1.733c2.237,0.026,1.616,0.633,1.017,0.688
	c-2.111,0.198-3.487,0.294-4.11,1.144C40.793,58.447,40.455,57.627,40.802,57.094z"/>
<path fill="#3F3F3E" d="M67.273,57.249c0,0-0.816-1.768-4.003-1.732c-2.238,0.025-1.614,0.632-1.018,0.688
	c2.11,0.198,3.488,0.293,4.112,1.145C67.282,58.603,67.621,57.782,67.273,57.249z"/>
<g>
	<g>
		<g>
			<path fill="#5A5858" d="M45.57,63.694c1.872,0,3.333-2.167,3.321-1.844c-0.062,1.87-1.516,3.387-3.387,3.387
				c-1.871,0-3.446-1.518-3.39-3.387C42.119,61.687,43.7,63.694,45.57,63.694z"/>
		</g>
	</g>
</g>
<g>
	<g>
		<g>
			<path fill="#3F3F3E" d="M54.105,84.844c-5.03,0-8.468,0.501-8.615,0.39c-0.112-0.084-0.134-0.244-0.049-0.354
				c0.085-0.114,0.244-0.138,0.358-0.054c0.034,0.026,3.579-0.824,8.435-0.824c4.845,0,7.969,0.86,8,0.83
				c0.108-0.088,0.271-0.072,0.361,0.034c0.089,0.108,0.074,0.27-0.032,0.358C62.425,85.336,59.146,84.844,54.105,84.844z"/>
		</g>
	</g>
</g>
<path fill="#707071" d="M63.007,62.31c1.471,0,2.563-1.564,3.055-0.11c0.093-0.345,0.153-0.701,0.153-1.074
	c0-2.13-1.54-3.855-3.441-3.855c-1.898,0-3.437,1.726-3.437,3.855c0,0.479,0.087,0.937,0.23,1.36
	C59.983,60.884,61.442,62.31,63.007,62.31z"/>
<path fill="#707071" d="M45.717,62.223c1.471,0,2.564-1.561,3.055-0.112c0.092-0.343,0.153-0.697,0.153-1.071
	c0-2.125-1.54-3.845-3.441-3.845c-1.9,0-3.438,1.72-3.438,3.845c0,0.479,0.086,0.934,0.231,1.357
	C42.694,60.8,44.153,62.223,45.717,62.223z"/>
<g>
	<g>
		<g>
			<path fill="#5A5858" d="M62.86,63.568c1.872,0,3.333-2.168,3.321-1.844c-0.062,1.87-1.517,3.387-3.386,3.387
				c-1.872,0-3.447-1.518-3.39-3.387C59.41,61.561,60.989,63.568,62.86,63.568z"/>
		</g>
	</g>
</g>
<path fill="#A6D387" d="M46.2,79.911c-0.421,1.048-2.535,1.021-1.498,2.358c1.236,1.596,2.434,1.754,1.548,3.459
	c-1.548,0.864-1.575,0.979-1.106,1.731c0.635,0.793-0.315,1.811-0.794,1.645c-1.769-0.323-1.914-1.767-1.819-2.463
	c0.095-0.694,1.547-1.353,1.325-1.893c0.189-0.818-1.893-2.081-2.028-2.911c-0.077-0.48,0.135-1.788,1.081-2.579
	C43.161,79.892,44.62,81.209,46.2,79.911z"/>
</svg>
