<?xml version="1.0" encoding="utf-8"?>
<!-- Generator: Adobe Illustrator 16.0.3, SVG Export Plug-In . SVG Version: 6.00 Build 0)  -->
<!DOCTYPE svg PUBLIC "-//W3C//DTD SVG 1.1//EN" "http://www.w3.org/Graphics/SVG/1.1/DTD/svg11.dtd" [
	<!ENTITY ns_flows "http://ns.adobe.com/Flows/1.0/">
	<!ENTITY ns_extend "http://ns.adobe.com/Extensibility/1.0/">
	<!ENTITY ns_ai "http://ns.adobe.com/AdobeIllustrator/10.0/">
	<!ENTITY ns_graphs "http://ns.adobe.com/Graphs/1.0/">
]>
<svg version="1.1" id="Layer_1" xmlns:x="&ns_extend;" xmlns:i="&ns_ai;" xmlns:graph="&ns_graphs;"
	 xmlns="http://www.w3.org/2000/svg" xmlns:xlink="http://www.w3.org/1999/xlink" xmlns:a="http://ns.adobe.com/AdobeSVGViewerExtensions/3.0/"
	 x="0px" y="0px" width="48.557px" height="67.371px" viewBox="0 0 48.557 67.371" enable-background="new 0 0 48.557 67.371"
	 xml:space="preserve">
<g>
	<g>
		<g>
			<g>
				<path fill="#5CBA87" d="M33.262,27.962c0,0,2.34,14.425,11.236,27.558c0,0,3.266,4.765,3.764-2.033
					c0.498-6.801,1.486-25.706-7.997-36.202L33.262,27.962z"/>
			</g>
		</g>
		<g>
			<g>
				<path fill="#CC6279" d="M36.167,28.486c0,0,1.982,9.717,7.302,20.768c0,0,2.945,5.597,3.01,0.873
					c0.159-10.851-1.929-23.155-6.304-28.199L36.167,28.486z"/>
			</g>
		</g>
	</g>
</g>
<g>
	<g>
		<g>
			<g>
				<path fill="#437763" d="M16.586,27.151c0,0-3.244,14.248-12.951,26.794c0,0-3.558,4.55-3.627-2.264
					c-0.069-6.82,0.137-25.75,10.262-35.628L16.586,27.151z"/>
			</g>
		</g>
		<g>
			<g>
				<path fill="#BF495F" d="M13.654,27.491c0,0-2.592,9.572-8.597,20.264c0,0-3.292,5.403-3.058,0.684
					c0.527-10.838,3.385-22.987,8.066-27.746L13.654,27.491z"/>
			</g>
		</g>
	</g>
</g>
<g>
	<g>
		<g>
			<g opacity="0.39">
				<g>
					<path fill="#C6CCD6" d="M25.132,52.589c6.635,0,12.231-3.363,14.018-7.974c-1.787-6.161-7.383-9.528-14.018-9.528
						c-6.64,0-12.234,3.367-14.021,9.528C12.898,49.226,18.494,52.589,25.132,52.589z"/>
				</g>
			</g>
			<g>
				<g>
					<path fill="#437763" d="M25.132,52.589c6.635,0,12.231-3.363,14.018-7.974c-1.787-6.161-7.383-9.528-14.018-9.528
						c-6.64,0-12.234,3.367-14.021,9.528C12.898,49.226,18.494,52.589,25.132,52.589z"/>
				</g>
			</g>
			<g>
				<g>
					<path fill="#437763" d="M11.112,44.616c-0.391,1.337-0.607,2.803-0.607,4.396c0,6.142,3.799,11.124,14.628,11.124v-7.546
						C18.494,52.589,12.898,49.226,11.112,44.616z"/>
				</g>
			</g>
			<g>
				<g>
					<path fill="#5CBA87" d="M39.117,44.616c0.389,1.337,0.605,2.803,0.605,4.396c0,6.142-3.715,11.437-14.627,11.124v-7.546
						C31.734,52.589,37.33,49.226,39.117,44.616z"/>
				</g>
			</g>
		</g>
	</g>
	<g>
		<g>
			<g>
				<rect x="16.261" y="56.247" fill="#437763" width="6.091" height="8.398"/>
			</g>
		</g>
		<g>
			<g>
				<rect x="27.908" y="56.247" fill="#5CBA87" width="6.094" height="8.398"/>
			</g>
		</g>
		<g>
			<g>
				<g>
					<path fill="#3E3E3D" d="M19.244,65.735c0.256,0,0.466,0.212,0.466,0.469v1.167h4.901c0-2.929-2.375-5.303-5.304-5.303
						c-2.928,0-5.302,2.374-5.302,5.303h4.772v-1.167C18.776,65.943,18.983,65.735,19.244,65.735z"/>
				</g>
			</g>
		</g>
		<g>
			<g>
				<g>
					<path fill="#3E3E3D" d="M30.889,65.735c0.26,0,0.473,0.212,0.473,0.469v1.167h4.9c0-2.929-2.375-5.303-5.303-5.303
						c-2.932,0-5.307,2.374-5.307,5.303h4.775v-1.167C30.428,65.943,30.635,65.735,30.889,65.735z"/>
				</g>
			</g>
		</g>
	</g>
</g>
<g>
	<g>
		<g>
			<g>
				<path fill="#437763" d="M16.314,3.108c0.812-0.217,1.49-0.189,2.13-0.09c0.632,0.114,1.216,0.32,1.751,0.613
					c0.534,0.288,1.024,0.663,1.461,1.135c0.432,0.481,0.823,1.037,1.08,1.842c-0.814,0.221-1.495,0.193-2.133,0.094
					c-0.632-0.112-1.212-0.321-1.747-0.615c-1.422-1.035-2.061-1.791-1.462-1.14C16.964,4.465,16.571,3.909,16.314,3.108z"/>
			</g>
		</g>
		<g>
			<g>
				<path fill="#5CBA87" d="M22.906,0c0.648,0.535,1.021,1.104,1.311,1.681c0.277,0.583,0.445,1.176,0.52,1.78
					c0.078,0.603,0.051,1.223-0.078,1.853c-0.141,0.63-0.365,1.272-0.871,1.947c-0.652-0.536-1.027-1.102-1.313-1.683
					c-0.276-0.581-0.446-1.175-0.516-1.779c-0.071-0.605-0.053-1.221,0.078-1.851C22.181,1.316,22.401,0.674,22.906,0z"/>
			</g>
		</g>
	</g>
	<g>
		<g>
			<g>
				<path fill="#5CBA87" d="M41.127,21.053c-0.27-1.448-0.928-4.324-0.928-4.324C38.957,9.882,32.928,4.592,25.108,4.592v43.346
					c10.326,0,17.761-7.175,17.761-16.026C42.869,27.717,41.861,25.025,41.127,21.053z"/>
			</g>
		</g>
		<g>
			<g>
				<g>
					<path fill="#437763" d="M9.102,21.053c0.268-1.448,0.925-4.324,0.925-4.324c1.244-6.847,7.272-12.137,15.09-12.137v43.346
						c-10.322,0-17.76-7.175-17.76-16.026C7.356,27.717,8.365,25.025,9.102,21.053z"/>
				</g>
			</g>
		</g>
	</g>
	<g>
		<g>
			<path fill="#9C9B9B" d="M39.732,39.445c0,5.284-6.549,9.566-14.625,9.566c-8.077,0-14.624-4.282-14.624-9.566
				c0-5.287,6.548-9.569,14.624-9.569S39.732,34.158,39.732,39.445z"/>
		</g>
	</g>
	<g>
		<g>
			<g>
				<circle fill="#3E3E3D" cx="16.381" cy="37.967" r="2.101"/>
			</g>
		</g>
		<g>
			<g>
				<circle fill="#3E3E3D" cx="33.883" cy="37.967" r="2.101"/>
			</g>
		</g>
	</g>
	<g>
		<g>
			<g>
				<circle fill="#A55D5E" cx="17.126" cy="20.538" r="3.355"/>
			</g>
		</g>
	</g>
	<g>
		<g>
			<g>
				<circle fill="#A55D5E" cx="34.123" cy="20.538" r="3.355"/>
			</g>
		</g>
	</g>
	<g>
		<g>
			<g>
				<circle fill="#3E3E3D" cx="34.123" cy="20.538" r="1.879"/>
			</g>
		</g>
	</g>
	<g>
		<g>
			<circle fill="#FFFFFF" cx="17.872" cy="20.096" r="0.664"/>
		</g>
	</g>
	<g>
		<g>
			<circle fill="#FFFFFF" cx="35.096" cy="20.147" r="0.664"/>
		</g>
	</g>
	<g>
		<g>
			<g>
				<path fill="#F1F4EA" d="M21.98,45.046c0,1.298,0.595,1.275,1.372,1.37l0,0c0.858,0.06,1.375,0.062,1.375-1.37v-0.874
					c0,0.147-2.745-0.204-2.745-0.204v1.078H21.98z"/>
			</g>
		</g>
		<g>
			<g>
				<path fill="#F5F8F1" d="M27.879,44.709c0,1.299-0.596,1.275-1.373,1.371l0,0c-0.859,0.059-1.37,0.062-1.37-1.371v-0.873
					c0,0.146,2.485,0.471,2.485,0.471L27.879,44.709L27.879,44.709z"/>
			</g>
		</g>
	</g>
	<g>
		<g>
			<g>
				<circle fill="#3E3E3D" cx="17.126" cy="20.538" r="1.879"/>
			</g>
		</g>
	</g>
</g>
<g>
	<g>
		<g>
			<path fill="#3E3E3D" d="M11.578,67.07c0.062-0.768,0.245-2.999-1.266-5.301c-0.664-1.014-1.157-1.56-1.532-1.967
				c-0.383-0.402-1.251-1.107-1.839-1.344c-0.066,0.769-0.137,0.909-0.135,1.871c0,0.6,0.138,1.453,0.397,1.955
				c0.261,0.502,0.551,1.035,1.15,1.628C8.736,64.316,10.997,65.696,11.578,67.07z"/>
		</g>
	</g>
	<g>
		<g>
			<g>
				<path fill="#437763" d="M6.688,59.062c0.076,0.324,0.173,0.655,0.295,0.995c0.241,0.671,0.82,1.03,1.292,0.803
					c0.473-0.228,0.66-0.955,0.421-1.626c-1.425-3.972,3.224-6.725,3.27-6.752c0.457-0.266,0.614-1.013,0.343-1.669
					c-0.268-0.657-0.857-0.972-1.315-0.706C10.752,50.248,5.382,53.449,6.688,59.062z"/>
			</g>
		</g>
	</g>
</g>
<circle fill="#AA9952" cx="11.323" cy="30.625" r="2.779"/>
<path fill="#AA9952" d="M41.597,30.739c0,1.535-1.242,2.78-2.783,2.78c-1.533,0-2.775-1.245-2.775-2.78
	c0-1.534,1.242-2.778,2.775-2.778C40.354,27.961,41.597,29.205,41.597,30.739z"/>
<path fill="#3E3E3D" d="M12.427,16.951c0,0,0.809-1.751,3.965-1.716c2.216,0.025,1.6,0.626,1.008,0.681
	c-2.091,0.197-3.454,0.291-4.072,1.133C12.418,18.292,12.083,17.479,12.427,16.951z"/>
<path fill="#3E3E3D" d="M38.646,17.105c0,0-0.809-1.751-3.965-1.716c-2.217,0.025-1.6,0.626-1.008,0.681
	c2.09,0.196,3.455,0.291,4.072,1.133C38.654,18.446,38.99,17.634,38.646,17.105z"/>
<g>
	<g>
		<g>
			<path fill="#595757" d="M17.15,23.489c1.854,0,3.301-2.146,3.29-1.827c-0.062,1.853-1.502,3.355-3.355,3.355
				s-3.413-1.503-3.357-3.355C13.732,21.5,15.297,23.489,17.15,23.489z"/>
		</g>
	</g>
</g>
<g>
	<g>
		<g>
			<path fill="#3E3E3D" d="M25.604,44.436c-4.983,0-8.388,0.496-8.533,0.386c-0.112-0.084-0.133-0.241-0.049-0.352
				c0.084-0.113,0.241-0.135,0.354-0.052c0.033,0.026,3.545-0.816,8.354-0.816c4.799,0,7.893,0.851,7.925,0.823
				c0.106-0.088,0.267-0.074,0.356,0.033s0.075,0.266-0.031,0.354C33.843,44.924,30.595,44.436,25.604,44.436z"/>
		</g>
	</g>
</g>
<path fill="#706F70" d="M34.42,21.593c1.457,0,2.539-1.351,3.026-0.096c0.09-0.297,0.151-0.605,0.151-0.928
	c0-1.84-1.525-3.33-3.408-3.33c-1.881,0-3.405,1.49-3.405,3.33c0,0.415,0.087,0.809,0.229,1.175
	C31.426,20.361,32.871,21.593,34.42,21.593z"/>
<path fill="#706F70" d="M17.295,21.406c1.457,0,2.539-1.351,3.026-0.096c0.09-0.297,0.151-0.605,0.151-0.928
	c0-1.84-1.525-3.33-3.408-3.33c-1.882,0-3.406,1.49-3.406,3.33c0,0.415,0.086,0.809,0.23,1.175
	C14.301,20.174,15.746,21.406,17.295,21.406z"/>
<g>
	<g>
		<g>
			<path fill="#595757" d="M34.275,23.364c1.854,0,3.301-2.146,3.29-1.827c-0.062,1.853-1.502,3.355-3.355,3.355
				s-3.413-1.503-3.357-3.355C30.857,21.375,32.422,23.364,34.275,23.364z"/>
		</g>
	</g>
</g>
</svg>
