<?xml version="1.0" encoding="utf-8"?>
<!-- Generator: Adobe Illustrator 16.0.3, SVG Export Plug-In . SVG Version: 6.00 Build 0)  -->
<!DOCTYPE svg PUBLIC "-//W3C//DTD SVG 1.1//EN" "http://www.w3.org/Graphics/SVG/1.1/DTD/svg11.dtd" [
	<!ENTITY ns_flows "http://ns.adobe.com/Flows/1.0/">
	<!ENTITY ns_extend "http://ns.adobe.com/Extensibility/1.0/">
	<!ENTITY ns_ai "http://ns.adobe.com/AdobeIllustrator/10.0/">
	<!ENTITY ns_graphs "http://ns.adobe.com/Graphs/1.0/">
]>
<svg version="1.1" id="Layer_1" xmlns:x="&ns_extend;" xmlns:i="&ns_ai;" xmlns:graph="&ns_graphs;"
	 xmlns="http://www.w3.org/2000/svg" xmlns:xlink="http://www.w3.org/1999/xlink" xmlns:a="http://ns.adobe.com/AdobeSVGViewerExtensions/3.0/"
	 x="0px" y="0px" width="62.221px" height="65.665px" viewBox="0 0 62.221 65.665" enable-background="new 0 0 62.221 65.665"
	 xml:space="preserve">
<g>
	<g>
		<g>
			<g>
				<path fill="#5D9BC4" d="M41.511,12.272c0,0,7.492-7.78,18.423-12.014c0,0,3.989-1.521,1.431,2.819
					c-2.558,4.339-9.914,16.243-20.09,18.627L41.511,12.272z"/>
			</g>
		</g>
		<g>
			<g>
				<path fill="#BF495F" d="M43.496,13.176c0,0,5.295-5.067,13.175-9.546c0,0,4.146-2.161,2.196,0.739
					c-4.471,6.659-10.892,13.277-15.671,14.5L43.496,13.176z"/>
			</g>
		</g>
	</g>
	<g>
		<g>
			<g>
				<path fill="#465F7F" d="M20.653,12.736c0,0-7.452-7.817-18.362-12.106c0,0-3.981-1.542-1.446,2.811
					c2.538,4.354,9.833,16.293,19.998,18.73L20.653,12.736z"/>
			</g>
		</g>
		<g>
			<g>
				<path fill="#BF495F" d="M18.663,13.631c0,0-5.269-5.095-13.127-9.61c0,0-4.133-2.184-2.2,0.725
					c4.438,6.681,10.85,13.309,15.622,14.558L18.663,13.631z"/>
			</g>
		</g>
	</g>
</g>
<g>
	<g>
		<g>
			<g opacity="0.39">
				<g>
					<path fill="#C6CCD6" d="M31.222,52.129c6.077,0,11.202-3.081,12.838-7.303c-1.636-5.643-6.761-8.727-12.838-8.727
						c-6.08,0-11.204,3.084-12.84,8.727C20.019,49.048,25.144,52.129,31.222,52.129z"/>
				</g>
			</g>
			<g>
				<g>
					<path fill="#465F7F" d="M31.222,52.129c6.077,0,11.202-3.081,12.838-7.303c-1.636-5.643-6.761-8.727-12.838-8.727
						c-6.08,0-11.204,3.084-12.84,8.727C20.019,49.048,25.144,52.129,31.222,52.129z"/>
				</g>
			</g>
			<g>
				<g>
					<path fill="#465F7F" d="M18.383,44.826c-0.357,1.225-0.556,2.566-0.556,4.025c0,5.624,3.479,10.188,13.396,10.188v-6.91
						C25.144,52.129,20.019,49.048,18.383,44.826z"/>
				</g>
			</g>
			<g>
				<g>
					<path fill="#5D9BC4" d="M44.03,44.826c0.356,1.225,0.555,2.566,0.555,4.025c0,5.624-3.402,10.474-13.396,10.188v-6.91
						C37.269,52.129,42.393,49.048,44.03,44.826z"/>
				</g>
			</g>
		</g>
	</g>
	<g>
		<g>
			<g>
				<rect x="23.099" y="55.477" fill="#465F7F" width="5.579" height="7.693"/>
			</g>
		</g>
		<g>
			<g>
				<rect x="33.765" y="55.477" fill="#5D9BC4" width="5.58" height="7.693"/>
			</g>
		</g>
		<g>
			<g>
				<g>
					<path fill="#3E3E3D" d="M25.83,64.167c0.235,0,0.427,0.193,0.427,0.43v1.068h4.489c0-2.682-2.176-4.856-4.858-4.856
						c-2.682,0-4.855,2.175-4.855,4.856h4.37v-1.068C25.401,64.358,25.591,64.167,25.83,64.167z"/>
				</g>
			</g>
		</g>
		<g>
			<g>
				<g>
					<path fill="#3E3E3D" d="M36.495,64.167c0.238,0,0.432,0.193,0.432,0.43v1.068h4.487c0-2.682-2.174-4.856-4.856-4.856
						s-4.858,2.175-4.858,4.856h4.373v-1.068C36.072,64.358,36.261,64.167,36.495,64.167z"/>
				</g>
			</g>
		</g>
	</g>
</g>
<g>
	<g>
		<g>
			<g>
				<path fill="#465F7F" d="M27.721,4.785c0.168,0.752,0.116,1.371-0.001,1.952c-0.128,0.574-0.339,1.1-0.628,1.579
					c-0.284,0.478-0.646,0.911-1.095,1.293c-0.457,0.376-0.982,0.712-1.729,0.915c-0.17-0.753-0.118-1.375-0.001-1.955
					c0.127-0.575,0.341-1.098,0.63-1.575c1.003-1.26,1.719-1.816,1.101-1.292C26.456,5.326,26.979,4.988,27.721,4.785z"/>
			</g>
		</g>
		<g>
			<g>
				<path fill="#507997" d="M34.916,4.845c0.723,0.265,1.218,0.642,1.645,1.052c0.417,0.418,0.742,0.88,0.992,1.378
					c0.25,0.497,0.417,1.04,0.497,1.623c0.071,0.587,0.073,1.21-0.157,1.947c-0.727-0.263-1.225-0.638-1.648-1.051
					c-0.416-0.417-0.743-0.878-0.988-1.379c-0.246-0.501-0.417-1.039-0.498-1.623C34.69,6.203,34.686,5.581,34.916,4.845z"/>
			</g>
		</g>
	</g>
	<g>
		<g>
			<g>
				<path fill="#5D9BC4" d="M45.872,23.248c-0.248-1.327-0.852-3.96-0.852-3.96c-1.137-6.27-6.658-11.115-13.819-11.115v39.696
					c9.456,0,16.266-6.57,16.266-14.677C47.466,29.35,46.543,26.885,45.872,23.248z"/>
			</g>
		</g>
		<g>
			<g>
				<g>
					<path fill="#465F7F" d="M16.542,23.248c0.245-1.327,0.848-3.96,0.848-3.96c1.139-6.27,6.659-11.115,13.818-11.115v39.696
						c-9.453,0-16.264-6.57-16.264-14.677C14.944,29.35,15.867,26.885,16.542,23.248z"/>
				</g>
			</g>
		</g>
	</g>
	<g>
		<g>
			<path fill="#9C9B9B" d="M44.593,40.091c0,4.839-5.997,8.761-13.393,8.761c-7.397,0-13.393-3.922-13.393-8.761
				c0-4.842,5.997-8.763,13.393-8.763C38.596,31.328,44.593,35.249,44.593,40.091z"/>
		</g>
	</g>
	<g>
		<g>
			<g>
				<circle fill="#3E3E3D" cx="23.208" cy="38.737" r="1.924"/>
			</g>
		</g>
		<g>
			<g>
				<circle fill="#3E3E3D" cx="39.237" cy="38.737" r="1.924"/>
			</g>
		</g>
	</g>
	<g>
		<g>
			<g>
				<circle fill="#9C9B9B" cx="23.891" cy="22.776" r="3.073"/>
			</g>
		</g>
	</g>
	<g>
		<g>
			<g>
				<circle fill="#9C9B9B" cx="39.457" cy="22.776" r="3.073"/>
			</g>
		</g>
	</g>
	<g>
		<g>
			<g>
				<circle fill="#3E3E3D" cx="23.891" cy="22.776" r="1.721"/>
			</g>
		</g>
	</g>
	<g>
		<g>
			<g>
				<circle fill="#3E3E3D" cx="39.457" cy="22.776" r="1.721"/>
			</g>
		</g>
	</g>
	<g>
		<g>
			<circle fill="#FFFFFF" cx="24.573" cy="22.371" r="0.608"/>
		</g>
	</g>
	<g>
		<g>
			<circle fill="#FFFFFF" cx="40.347" cy="22.417" r="0.608"/>
		</g>
	</g>
	<g>
		<g>
			<g>
				<path fill="#F6E9E5" d="M28.367,44.959c0,1.188,0.545,1.168,1.257,1.255l0,0c0.786,0.054,1.258,0.058,1.258-1.255v-0.8
					c0,0.135-2.513-0.187-2.513-0.187v0.986H28.367z"/>
			</g>
		</g>
		<g>
			<g>
				<path fill="#F6E9E5" d="M33.739,44.913c0,1.188-0.545,1.167-1.258,1.255l0,0c-0.787,0.054-1.254,0.057-1.254-1.255v-0.801
					c0,0.135,2.512-0.187,2.512-0.187V44.913L33.739,44.913z"/>
			</g>
		</g>
	</g>
	<g>
		<g>
			<g>
				<path fill="#3E3E3D" d="M31.382,44.286c-5.632,0-9.504,0.09-9.668-0.034c-0.127-0.096-0.15-0.273-0.055-0.397
					c0.095-0.128,0.272-0.152,0.399-0.059c0.038,0.029,4.078,0.02,9.512,0.02c5.424,0,8.849,0.019,8.885-0.012
					c0.12-0.1,0.302-0.084,0.403,0.037c0.102,0.122,0.085,0.301-0.036,0.4C40.669,44.367,37.023,44.286,31.382,44.286z"/>
			</g>
		</g>
	</g>
</g>
<g>
	<g>
		<g>
			<path fill="#3E3E3D" d="M5.358,54.133c0.806-0.355,3.148-1.394,5.988,0.049c1.251,0.633,1.958,1.175,2.487,1.589
				c0.526,0.427,1.497,1.47,1.896,2.257c-0.806,0.362-0.939,0.516-1.969,0.845c-0.642,0.206-1.59,0.296-2.192,0.084
				c-0.602-0.214-1.244-0.458-2.028-1.141C9.013,57.388,6.974,54.52,5.358,54.133z"/>
		</g>
	</g>
	<g>
		<g>
			<g>
				<path fill="#465F7F" d="M15.147,58.61c-0.365,0-0.745-0.031-1.139-0.095c-0.777-0.126-1.307-0.858-1.18-1.636
					c0.125-0.777,0.858-1.305,1.635-1.181c4.605,0.74,6.396-7.08,6.413-7.157c0.171-0.768,0.932-1.257,1.701-1.082
					c0.77,0.17,1.254,0.933,1.083,1.702C23.57,49.568,21.48,58.61,15.147,58.61z"/>
			</g>
		</g>
	</g>
</g>
<circle fill="#E9637A" cx="18.293" cy="32.295" r="2.545"/>
<path fill="#E9637A" d="M46.667,32.201c0,1.406-1.139,2.546-2.548,2.546c-1.406,0-2.543-1.141-2.543-2.546
	c0-1.405,1.137-2.544,2.543-2.544C45.529,29.657,46.667,30.795,46.667,32.201z"/>
<path fill="#3E3E3D" d="M23.421,15.348c0,0,1.691-0.511,3.586,1.673c1.329,1.534,0.542,1.477,0.146,1.104
	c-1.405-1.313-2.298-2.19-3.25-2.102C22.496,16.157,22.85,15.433,23.421,15.348z"/>
<path fill="#3E3E3D" d="M38.997,15.395c0,0-1.605-1.088-3.602,1.625c-1.403,1.907-0.638,1.991-0.221,1.539
	c1.458-1.573,2.39-2.635,3.307-2.307C39.837,16.738,39.545,15.632,38.997,15.395z"/>
<path fill="#706F70" d="M39.647,22.295c1.314,0,2.272,0.178,2.712,1.338c0.08-0.274,0.137-0.558,0.137-0.857
	c0-1.698-1.377-3.073-3.074-3.073s-3.072,1.375-3.072,3.073c0,0.383,0.078,0.747,0.207,1.085
	C36.928,22.584,38.25,22.295,39.647,22.295z"/>
<path fill="#706F70" d="M24.107,22.295c1.314,0,2.272,0.179,2.712,1.338c0.081-0.274,0.137-0.558,0.137-0.856
	c0-1.699-1.376-3.073-3.074-3.073s-3.073,1.375-3.073,3.073c0,0.383,0.079,0.746,0.208,1.084
	C21.389,22.584,22.71,22.295,24.107,22.295z"/>
</svg>
