<?xml version="1.0" encoding="utf-8"?>
<!-- Generator: Adobe Illustrator 16.0.3, SVG Export Plug-In . SVG Version: 6.00 Build 0)  -->
<!DOCTYPE svg PUBLIC "-//W3C//DTD SVG 1.1//EN" "http://www.w3.org/Graphics/SVG/1.1/DTD/svg11.dtd" [
	<!ENTITY ns_flows "http://ns.adobe.com/Flows/1.0/">
	<!ENTITY ns_extend "http://ns.adobe.com/Extensibility/1.0/">
	<!ENTITY ns_ai "http://ns.adobe.com/AdobeIllustrator/10.0/">
	<!ENTITY ns_graphs "http://ns.adobe.com/Graphs/1.0/">
]>
<svg version="1.1" id="Layer_1" xmlns:x="&ns_extend;" xmlns:i="&ns_ai;" xmlns:graph="&ns_graphs;"
	 xmlns="http://www.w3.org/2000/svg" xmlns:xlink="http://www.w3.org/1999/xlink" xmlns:a="http://ns.adobe.com/AdobeSVGViewerExtensions/3.0/"
	 x="0px" y="0px" width="144px" height="72px" viewBox="0 0 144 72" enable-background="new 0 0 144 72" xml:space="preserve">
<path fill="#6AB75D" d="M151.711,67.197c0,2.883-2.738,5.221-6.116,5.221H2.107c-3.377,0-6.115-2.338-6.115-5.221v-8.051
	c0-2.886,2.738-5.223,6.115-5.223h143.488c3.378,0,6.116,2.337,6.116,5.223V67.197z"/>
<g>
	<polygon fill="#6AB75D" points="21.506,24.575 6.086,68.838 14.523,70.466 	"/>
	<polygon fill="#6AB75D" points="26.16,27.83 21.506,68.838 29.361,68.188 	"/>
	<polygon fill="#6AB75D" points="32.561,25.877 19.469,66.236 26.16,66.885 	"/>
	<polygon fill="#6AB75D" points="34.889,16.764 47.98,69.163 36.925,68.188 	"/>
	<polygon fill="#6AB75D" points="2.886,31.409 3.759,64.934 12.487,67.86 	"/>
	<polygon fill="#6AB75D" points="55.835,22.623 43.035,66.236 55.544,67.537 	"/>
	<polygon fill="#6AB75D" points="8.996,28.807 4.34,69.815 12.196,69.163 	"/>
	<polygon fill="#6AB75D" points="15.396,26.853 2.304,67.212 8.996,67.86 	"/>
	<polygon fill="#6AB75D" points="17.724,17.741 30.815,70.141 19.76,69.163 	"/>
	<polygon fill="#6AB75D" points="-4.968,32.713 -4.096,66.236 4.631,69.163 	"/>
	<polygon fill="#6AB75D" points="38.67,23.6 25.869,67.212 38.379,68.513 	"/>
	<polygon fill="#6AB75D" points="55.082,16.326 36.672,69.175 46.746,71.117 	"/>
	<polygon fill="#6AB75D" points="60.64,20.212 55.082,69.175 64.461,68.397 	"/>
	<polygon fill="#6AB75D" points="68.282,17.881 52.651,66.066 60.64,66.843 	"/>
	<polygon fill="#6AB75D" points="71.06,7 86.692,69.562 73.491,68.397 	"/>
	<polygon fill="#6AB75D" points="32.852,24.486 33.894,64.512 44.314,68.008 	"/>
	<polygon fill="#6AB75D" points="96.069,13.996 80.786,66.066 95.723,67.62 	"/>
	<polygon fill="#6AB75D" points="126.326,25.877 141.745,70.141 133.307,71.769 	"/>
	<polygon fill="#6AB75D" points="121.671,29.131 126.326,70.141 118.472,69.489 	"/>
	<polygon fill="#6AB75D" points="115.271,27.178 128.362,67.537 121.671,68.188 	"/>
	<polygon fill="#6AB75D" points="112.942,18.065 99.852,70.466 110.905,69.489 	"/>
	<polygon fill="#6AB75D" points="144.946,32.713 144.072,66.236 135.344,69.163 	"/>
	<polygon fill="#6AB75D" points="91.998,23.924 104.796,67.537 92.287,68.838 	"/>
	<polygon fill="#6AB75D" points="138.836,30.107 143.491,71.117 135.635,70.466 	"/>
	<polygon fill="#6AB75D" points="132.434,28.156 145.527,68.513 138.836,69.163 	"/>
	<polygon fill="#6AB75D" points="130.107,19.042 117.014,71.441 128.071,70.466 	"/>
	<polygon fill="#6AB75D" points="152.8,34.012 151.927,67.537 143.2,70.466 	"/>
	<polygon fill="#6AB75D" points="109.162,24.9 121.962,68.513 109.452,69.815 	"/>
	<polygon fill="#6AB75D" points="92.75,17.627 111.158,70.477 101.085,72.418 	"/>
	<polygon fill="#6AB75D" points="87.191,21.513 92.75,70.477 83.373,69.699 	"/>
	<polygon fill="#6AB75D" points="79.55,19.181 95.181,67.367 87.191,68.145 	"/>
	<polygon fill="#6AB75D" points="114.98,25.788 113.938,65.812 103.517,69.311 	"/>
	<polygon fill="#6AB75D" points="51.762,15.297 67.044,67.367 52.109,68.922 	"/>
	<polygon fill="#6AB75D" points="82.019,23.924 66.599,68.188 75.037,69.815 	"/>
	<polygon fill="#6AB75D" points="63.399,30.758 64.272,64.28 73,67.212 	"/>
	<polygon fill="#6AB75D" points="69.508,28.156 64.854,69.163 72.71,68.513 	"/>
	<polygon fill="#6AB75D" points="75.91,26.202 62.818,66.561 69.508,67.212 	"/>
	<polygon fill="#6AB75D" points="55.544,32.061 56.417,65.583 65.145,68.513 	"/>
</g>
<path fill="#478C41" d="M19.787,41.751c-2.022,1.688-4.227,2.5-4.921,1.814c-0.695-0.685,0.382-2.607,2.406-4.296
	c2.023-1.688,4.227-2.5,4.92-1.814C22.888,38.141,21.81,40.063,19.787,41.751z"/>
<path fill="none" stroke="#275C2D" stroke-width="0.8194" stroke-miterlimit="10" d="M28.159,29.097c0,0-14.798,28.922-4.9,39.948"
	/>
<path fill="#275C2D" d="M25.956,32.059c0.12,2.899-0.618,5.312-1.645,5.391c-1.027,0.08-1.955-2.206-2.074-5.105
	s0.617-5.313,1.644-5.394C24.908,26.873,25.837,29.159,25.956,32.059z"/>
<path fill="#275C2D" d="M30.621,34.155c-2.222,1.785-4.517,2.538-5.124,1.681c-0.607-0.855,0.703-2.997,2.924-4.782
	s4.516-2.539,5.123-1.682C34.151,30.227,32.843,32.369,30.621,34.155z"/>
<path fill="#275C2D" d="M22.114,43.159c0.119,2.897-0.618,5.312-1.644,5.393c-1.028,0.077-1.957-2.208-2.076-5.107
	c-0.119-2.899,0.617-5.313,1.645-5.392C21.065,37.975,21.995,40.26,22.114,43.159z"/>
<path fill="#275C2D" d="M26.778,45.255c-2.222,1.785-4.516,2.538-5.123,1.683c-0.608-0.855,0.702-2.998,2.924-4.782
	c2.222-1.787,4.515-2.541,5.122-1.686C30.309,41.328,29,43.468,26.778,45.255z"/>
<path fill="#275C2D" d="M19.209,56.884c1.085,2.637,1.2,5.144,0.256,5.601c-0.946,0.458-2.591-1.31-3.677-3.945
	c-1.086-2.635-1.201-5.142-0.256-5.599C16.479,52.481,18.124,54.249,19.209,56.884z"/>
<path fill="#275C2D" d="M24.06,57.054c-1.502,2.48-3.418,4.035-4.278,3.473c-0.863-0.565-0.344-3.035,1.158-5.517
	c1.5-2.484,3.417-4.037,4.279-3.473C26.079,52.102,25.561,54.57,24.06,57.054z"/>
<path fill="none" stroke="#478C41" stroke-width="0.7584" stroke-miterlimit="10" d="M16.804,37.622c0,0-11.68,25.759-0.664,34.425"
	/>
<path fill="#478C41" d="M14.923,40.312c0.425,2.463-0.054,4.577-1.067,4.721c-1.014,0.143-2.18-1.739-2.604-4.201
	c-0.424-2.464,0.054-4.577,1.069-4.719C13.334,35.969,14.5,37.848,14.923,40.312z"/>
<path fill="#478C41" d="M12.269,50.061c0.423,2.462-0.054,4.576-1.068,4.72c-1.015,0.145-2.179-1.736-2.604-4.199
	c-0.424-2.463,0.055-4.576,1.067-4.721C10.68,45.717,11.845,47.598,12.269,50.061z"/>
<path fill="#478C41" d="M17.133,51.501c-2.023,1.688-4.228,2.5-4.921,1.816c-0.694-0.688,0.382-2.609,2.406-4.298
	c2.023-1.687,4.227-2.497,4.921-1.814C20.233,47.89,19.157,49.813,17.133,51.501z"/>
<path fill="#478C41" d="M10.826,61.98c1.359,2.167,1.737,4.295,0.845,4.756c-0.893,0.461-2.717-0.925-4.076-3.092
	s-1.738-4.297-0.845-4.757C7.643,58.429,9.467,59.813,10.826,61.98z"/>
<path fill="#478C41" d="M15.671,61.764c-1.233,2.229-2.977,3.696-3.893,3.278c-0.917-0.417-0.662-2.562,0.571-4.79
	c1.232-2.229,2.977-3.697,3.894-3.277C17.16,57.391,16.904,59.534,15.671,61.764z"/>
<g>
	<path fill="#478C41" d="M44.593,44.323c1.618,1.378,3.378,2.041,3.934,1.481c0.555-0.56-0.306-2.132-1.924-3.509
		c-1.617-1.378-3.378-2.043-3.933-1.482C42.115,41.373,42.976,42.943,44.593,44.323z"/>
	<path fill="none" stroke="#275C2D" stroke-width="0.6621" stroke-miterlimit="10" d="M37.903,33.986
		c0,0,11.827,23.625,3.915,32.631"/>
	<path fill="#275C2D" d="M39.664,36.403c-0.096,2.37,0.493,4.343,1.314,4.405c0.82,0.064,1.562-1.802,1.657-4.17
		c0.096-2.37-0.493-4.341-1.313-4.404C40.5,32.169,39.758,34.037,39.664,36.403z"/>
	<path fill="#275C2D" d="M35.935,38.117c1.775,1.457,3.609,2.073,4.094,1.374c0.485-0.699-0.561-2.447-2.337-3.908
		c-1.775-1.458-3.608-2.073-4.093-1.372C33.114,34.909,34.16,36.658,35.935,38.117z"/>
	<path fill="#275C2D" d="M42.734,45.471c-0.094,2.369,0.494,4.342,1.314,4.406c0.821,0.065,1.563-1.804,1.659-4.172
		c0.094-2.367-0.494-4.34-1.314-4.405C43.572,41.236,42.829,43.104,42.734,45.471z"/>
	<path fill="#275C2D" d="M39.006,47.184c1.775,1.458,3.609,2.074,4.094,1.374c0.486-0.7-0.561-2.449-2.336-3.908
		c-1.776-1.457-3.609-2.072-4.093-1.372C36.186,43.976,37.23,45.726,39.006,47.184z"/>
	<path fill="#275C2D" d="M45.055,56.684c-0.868,2.151-0.959,4.199-0.204,4.575c0.755,0.373,2.07-1.069,2.938-3.224
		c0.868-2.152,0.959-4.2,0.204-4.575C47.237,53.086,45.923,54.529,45.055,56.684z"/>
	<path fill="#275C2D" d="M41.179,56.822c1.2,2.028,2.731,3.298,3.42,2.837c0.688-0.462,0.274-2.48-0.926-4.508
		c-1.199-2.027-2.73-3.298-3.419-2.836C39.564,52.776,39.979,54.794,41.179,56.822z"/>
	<path fill="none" stroke="#478C41" stroke-width="0.6128" stroke-miterlimit="10" d="M46.977,40.948c0,0,9.334,21.042,0.531,28.122
		"/>
	<path fill="#478C41" d="M48.48,43.145c-0.339,2.013,0.043,3.739,0.854,3.856c0.811,0.118,1.742-1.419,2.081-3.43
		c0.339-2.012-0.042-3.739-0.853-3.857C49.751,39.597,48.819,41.133,48.48,43.145z"/>
	<path fill="#478C41" d="M50.601,51.109c-0.339,2.013,0.044,3.739,0.854,3.856c0.81,0.115,1.742-1.419,2.081-3.432
		c0.339-2.012-0.043-3.737-0.854-3.854C51.872,47.562,50.94,49.098,50.601,51.109z"/>
	<path fill="#478C41" d="M46.714,52.286c1.617,1.379,3.378,2.044,3.934,1.484c0.555-0.561-0.306-2.131-1.923-3.51
		c-1.617-1.38-3.377-2.043-3.932-1.484C44.237,49.337,45.098,50.907,46.714,52.286z"/>
	<path fill="#478C41" d="M51.754,60.845c-1.085,1.771-1.388,3.51-0.675,3.887c0.713,0.376,2.171-0.756,3.257-2.526
		c1.087-1.769,1.389-3.51,0.676-3.884C54.299,57.945,52.841,59.077,51.754,60.845z"/>
	<path fill="#478C41" d="M47.883,60.67c0.984,1.819,2.379,3.02,3.111,2.677c0.733-0.341,0.528-2.092-0.457-3.912
		s-2.378-3.02-3.112-2.678C46.693,57.098,46.897,58.851,47.883,60.67z"/>
</g>
<g>
	<path fill="#478C41" d="M60.184,42.789c1.547,1.599,3.274,2.416,3.855,1.822c0.583-0.593-0.201-2.369-1.749-3.97
		c-1.548-1.6-3.275-2.417-3.856-1.824C57.852,39.412,58.635,41.189,60.184,42.789z"/>
	<path fill="none" stroke="#275C2D" stroke-width="0.6967" stroke-miterlimit="10" d="M54.003,31.044
		c0,0,10.663,26.684,2.322,36.281"/>
	<path fill="#275C2D" d="M55.643,33.803c-0.209,2.616,0.283,4.824,1.099,4.934c0.817,0.109,1.649-1.924,1.859-4.539
		c0.211-2.615-0.281-4.824-1.097-4.932C56.687,29.156,55.854,31.187,55.643,33.803z"/>
	<path fill="#275C2D" d="M51.836,35.525c1.703,1.693,3.504,2.46,4.023,1.707c0.519-0.749-0.44-2.735-2.144-4.431
		c-1.703-1.694-3.504-2.46-4.022-1.709C49.175,31.844,50.134,33.828,51.836,35.525z"/>
	<path fill="#275C2D" d="M58.27,43.975c-0.209,2.617,0.281,4.825,1.098,4.934c0.818,0.109,1.649-1.922,1.86-4.536
		c0.21-2.615-0.281-4.824-1.097-4.933C59.313,39.327,58.48,41.359,58.27,43.975z"/>
	<path fill="#275C2D" d="M54.462,45.696c1.703,1.696,3.504,2.459,4.023,1.711c0.519-0.752-0.441-2.735-2.144-4.433
		c-1.703-1.696-3.504-2.459-4.022-1.709C51.801,42.018,52.76,44.002,54.462,45.696z"/>
	<path fill="#275C2D" d="M60.042,56.486c-0.971,2.342-1.162,4.602-0.426,5.052c0.736,0.446,2.12-1.088,3.092-3.43
		c0.971-2.343,1.163-4.604,0.426-5.051C62.398,52.608,61.015,54.143,60.042,56.486z"/>
	<path fill="#275C2D" d="M56.164,56.458c1.1,2.3,2.568,3.776,3.277,3.296c0.711-0.479,0.396-2.728-0.705-5.028
		c-1.1-2.297-2.567-3.773-3.278-3.295C54.748,51.909,55.063,54.16,56.164,56.458z"/>
	<path fill="none" stroke="#478C41" stroke-width="0.6448" stroke-miterlimit="10" d="M62.73,39.168c0,0,8.299,23.71-0.841,31.134"
		/>
	<path fill="#478C41" d="M64.124,41.667c-0.438,2.212-0.139,4.139,0.665,4.306s1.81-1.487,2.245-3.697
		c0.437-2.212,0.14-4.139-0.664-4.308C65.565,37.803,64.56,39.457,64.124,41.667z"/>
	<path fill="#478C41" d="M65.854,50.577c-0.436,2.208-0.138,4.137,0.666,4.305c0.804,0.167,1.809-1.488,2.246-3.699
		c0.436-2.209,0.139-4.138-0.665-4.304C67.297,46.71,66.292,48.366,65.854,50.577z"/>
	<path fill="#478C41" d="M61.915,51.699c1.547,1.598,3.275,2.413,3.856,1.822c0.583-0.596-0.201-2.371-1.75-3.973
		c-1.548-1.599-3.275-2.415-3.856-1.822C59.583,48.321,60.366,50.099,61.915,51.699z"/>
	<path fill="#478C41" d="M66.532,61.399c-1.17,1.908-1.557,3.819-0.863,4.269c0.694,0.449,2.205-0.734,3.377-2.642
		c1.172-1.909,1.558-3.82,0.863-4.268C69.216,58.309,67.704,59.492,66.532,61.399z"/>
	<path fill="#478C41" d="M62.673,61.026c0.896,2.058,2.229,3.45,2.978,3.106s0.631-2.291-0.265-4.351
		c-0.897-2.059-2.229-3.451-2.979-3.105C61.658,57.019,61.776,58.968,62.673,61.026z"/>
</g>
<path fill="#478C41" d="M5.221,33.934C3,35.989,0.581,36.979-0.18,36.144c-0.764-0.834,0.419-3.174,2.64-5.229
	c2.221-2.053,4.641-3.042,5.403-2.209C8.625,29.54,7.442,31.881,5.221,33.934z"/>
<path fill="none" stroke="#275C2D" stroke-width="0.9472" stroke-miterlimit="10" d="M14.412,18.531c0,0-16.246,35.205-5.378,48.625
	"/>
<path fill="#275C2D" d="M7.774,35.648c0.131,3.528-0.677,6.467-1.805,6.562c-1.128,0.097-2.147-2.685-2.278-6.217
	c-0.13-3.527,0.679-6.466,1.805-6.562C6.625,29.336,7.644,32.119,7.774,35.648z"/>
<path fill="#275C2D" d="M12.895,38.2c-2.438,2.173-4.957,3.088-5.623,2.048c-0.667-1.044,0.771-3.65,3.209-5.825
	c2.439-2.172,4.958-3.088,5.624-2.046C16.771,33.419,15.334,36.025,12.895,38.2z"/>
<path fill="#275C2D" d="M4.587,52.354c1.192,3.211,1.317,6.264,0.281,6.82c-1.037,0.555-2.844-1.594-4.036-4.804
	c-1.192-3.208-1.318-6.261-0.282-6.817C1.589,46.994,3.396,49.146,4.587,52.354z"/>
<path fill="#275C2D" d="M9.912,52.562c-1.649,3.021-3.753,4.913-4.698,4.227c-0.946-0.688-0.376-3.694,1.272-6.716
	c1.648-3.021,3.751-4.914,4.698-4.227C12.129,46.533,11.56,49.539,9.912,52.562z"/>
<path fill="none" stroke="#478C41" stroke-width="0.8767" stroke-miterlimit="10" d="M1.947,28.909c0,0-12.822,31.355-0.729,41.904"
	/>
<path fill="#478C41" d="M-0.118,32.181c0.466,3-0.059,5.571-1.172,5.745c-1.113,0.177-2.393-2.113-2.858-5.111
	c-0.466-2.999,0.059-5.57,1.172-5.746C-1.863,26.895-0.583,29.183-0.118,32.181z"/>
<path fill="#478C41" d="M-3.032,44.048c0.465,2.999-0.06,5.572-1.172,5.747c-1.114,0.175-2.394-2.114-2.859-5.114
	c-0.465-2.996,0.06-5.57,1.173-5.744C-4.777,38.762-3.497,41.052-3.032,44.048z"/>
<path fill="#478C41" d="M2.307,45.803c-2.221,2.054-4.64,3.043-5.402,2.209c-0.763-0.834,0.419-3.175,2.641-5.229
	c2.221-2.055,4.641-3.042,5.402-2.21C5.711,41.408,4.529,43.748,2.307,45.803z"/>
<path fill="#478C41" d="M-4.616,58.559c1.492,2.636,1.907,5.229,0.927,5.787c-0.979,0.562-2.981-1.124-4.474-3.76
	c-1.492-2.639-1.907-5.231-0.928-5.791C-8.111,54.235-6.107,55.92-4.616,58.559z"/>
<path fill="#478C41" d="M0.704,58.295c-1.354,2.712-3.268,4.498-4.274,3.99c-1.007-0.509-0.727-3.118,0.627-5.83
	c1.353-2.713,3.268-4.5,4.273-3.991C2.338,52.973,2.057,55.582,0.704,58.295z"/>
<path fill="#275C2D" d="M12.036,23.141c0.119,2.898-0.618,5.313-1.645,5.392c-1.027,0.078-1.955-2.208-2.074-5.107
	c-0.119-2.898,0.617-5.312,1.644-5.392C10.988,17.954,11.917,20.241,12.036,23.141z"/>
<path fill="#275C2D" d="M16.7,25.236c-2.221,1.785-4.515,2.538-5.122,1.682c-0.608-0.857,0.702-2.998,2.923-4.784
	c2.223-1.785,4.516-2.538,5.123-1.682C20.231,21.309,18.922,23.451,16.7,25.236z"/>
<g>
	<path fill="#478C41" d="M42.287,46.022c-1.617,1.38-3.379,2.043-3.934,1.483c-0.556-0.559,0.305-2.132,1.922-3.509
		c1.618-1.378,3.378-2.043,3.934-1.483C44.764,43.074,43.903,44.645,42.287,46.022z"/>
	<path fill="none" stroke="#275C2D" stroke-width="0.6621" stroke-miterlimit="10" d="M48.977,35.687
		c0,0-11.826,23.625-3.916,32.633"/>
	<path fill="#275C2D" d="M47.216,38.105c0.095,2.37-0.494,4.341-1.314,4.405c-0.821,0.064-1.563-1.803-1.657-4.172
		c-0.096-2.367,0.493-4.338,1.313-4.405C46.379,33.872,47.122,35.74,47.216,38.105z"/>
	<path fill="#275C2D" d="M50.944,39.818c-1.777,1.458-3.61,2.073-4.095,1.373c-0.484-0.7,0.562-2.448,2.337-3.907
		c1.776-1.457,3.609-2.073,4.094-1.372C53.765,36.609,52.72,38.36,50.944,39.818z"/>
	<path fill="#275C2D" d="M44.146,47.174c0.094,2.368-0.494,4.339-1.315,4.403c-0.82,0.065-1.563-1.803-1.658-4.17
		c-0.095-2.368,0.493-4.342,1.313-4.405C43.308,42.937,44.05,44.806,44.146,47.174z"/>
	<path fill="#275C2D" d="M47.872,48.886c-1.775,1.458-3.608,2.072-4.093,1.374c-0.485-0.7,0.561-2.448,2.336-3.908
		c1.774-1.459,3.609-2.074,4.094-1.374C50.694,45.678,49.648,47.428,47.872,48.886z"/>
	<path fill="#275C2D" d="M41.824,58.385c0.868,2.153,0.958,4.201,0.204,4.574c-0.755,0.373-2.07-1.068-2.938-3.222
		c-0.868-2.154-0.959-4.202-0.204-4.575C39.641,54.789,40.957,56.232,41.824,58.385z"/>
	<path fill="#275C2D" d="M45.701,58.521c-1.201,2.028-2.732,3.299-3.42,2.837c-0.688-0.459-0.274-2.477,0.927-4.506
		c1.199-2.028,2.73-3.297,3.419-2.835C47.314,54.478,46.9,56.495,45.701,58.521z"/>
	<path fill="none" stroke="#478C41" stroke-width="0.6128" stroke-miterlimit="10" d="M39.902,42.649c0,0-9.334,21.043-0.53,28.12"
		/>
	<path fill="#478C41" d="M38.398,44.848c0.34,2.013-0.043,3.738-0.853,3.854c-0.811,0.118-1.742-1.418-2.082-3.43
		c-0.339-2.014,0.043-3.738,0.854-3.855C37.129,41.299,38.06,42.835,38.398,44.848z"/>
	<path fill="#478C41" d="M36.278,52.811c0.339,2.013-0.044,3.738-0.854,3.855c-0.811,0.118-1.742-1.418-2.081-3.432
		c-0.339-2.013,0.044-3.738,0.854-3.854C35.007,49.263,35.938,50.799,36.278,52.811z"/>
	<path fill="#478C41" d="M40.165,53.988c-1.617,1.379-3.379,2.041-3.934,1.481s0.307-2.131,1.923-3.509
		c1.617-1.379,3.377-2.041,3.933-1.481C42.643,51.038,41.782,52.609,40.165,53.988z"/>
	<path fill="#478C41" d="M35.125,62.548c1.085,1.769,1.388,3.509,0.675,3.884c-0.713,0.377-2.171-0.755-3.256-2.524
		c-1.087-1.769-1.389-3.51-0.676-3.886C32.581,59.646,34.039,60.775,35.125,62.548z"/>
	<path fill="#478C41" d="M38.997,62.371c-0.985,1.819-2.378,3.018-3.111,2.679c-0.733-0.343-0.529-2.094,0.457-3.914
		c0.986-1.821,2.379-3.02,3.111-2.679S39.982,60.55,38.997,62.371z"/>
</g>
<g>
	<path fill="#478C41" d="M26.696,44.489c-1.548,1.602-3.275,2.417-3.856,1.824c-0.583-0.594,0.201-2.372,1.749-3.972
		c1.548-1.598,3.275-2.415,3.857-1.821C29.027,41.114,28.244,42.892,26.696,44.489z"/>
	<path fill="none" stroke="#275C2D" stroke-width="0.6967" stroke-miterlimit="10" d="M32.876,32.745c0,0-10.663,26.683-2.322,36.28
		"/>
	<path fill="#275C2D" d="M31.234,35.503c0.211,2.616-0.281,4.825-1.098,4.935c-0.817,0.109-1.648-1.923-1.859-4.537
		c-0.21-2.614,0.281-4.825,1.098-4.934S31.025,32.889,31.234,35.503z"/>
	<path fill="#275C2D" d="M35.042,37.225c-1.703,1.696-3.504,2.462-4.022,1.709c-0.52-0.751,0.44-2.734,2.144-4.43
		c1.702-1.695,3.504-2.461,4.022-1.708C37.705,33.545,36.745,35.529,35.042,37.225z"/>
	<path fill="#275C2D" d="M28.608,45.678c0.21,2.614-0.281,4.822-1.098,4.932c-0.818,0.111-1.649-1.922-1.86-4.536
		c-0.21-2.617,0.282-4.826,1.098-4.935C27.566,41.029,28.398,43.062,28.608,45.678z"/>
	<path fill="#275C2D" d="M32.416,47.398c-1.703,1.693-3.503,2.46-4.022,1.709s0.441-2.734,2.144-4.432
		c1.703-1.695,3.505-2.461,4.023-1.71C35.078,43.717,34.119,45.703,32.416,47.398z"/>
	<path fill="#275C2D" d="M26.836,58.187c0.972,2.342,1.163,4.604,0.427,5.052c-0.736,0.446-2.12-1.087-3.093-3.428
		c-0.972-2.342-1.162-4.605-0.427-5.053C24.48,54.309,25.865,55.845,26.836,58.187z"/>
	<path fill="#275C2D" d="M30.715,58.16c-1.1,2.299-2.568,3.775-3.278,3.297c-0.71-0.479-0.395-2.73,0.706-5.028
		c1.099-2.3,2.566-3.775,3.277-3.296C32.131,53.609,31.816,55.861,30.715,58.16z"/>
	<path fill="none" stroke="#478C41" stroke-width="0.6448" stroke-miterlimit="10" d="M24.149,40.869c0,0-8.3,23.709,0.84,31.132"/>
	<path fill="#478C41" d="M22.755,43.369c0.437,2.211,0.138,4.137-0.666,4.304c-0.804,0.168-1.809-1.486-2.245-3.698
		c-0.437-2.208-0.139-4.138,0.665-4.303C21.313,39.503,22.319,41.159,22.755,43.369z"/>
	<path fill="#478C41" d="M21.024,52.278c0.438,2.21,0.139,4.137-0.665,4.303c-0.804,0.17-1.809-1.488-2.246-3.696
		c-0.436-2.211-0.138-4.139,0.666-4.305C19.582,48.412,20.587,50.068,21.024,52.278z"/>
	<path fill="#478C41" d="M24.965,53.399c-1.549,1.601-3.276,2.415-3.857,1.822c-0.583-0.593,0.202-2.371,1.75-3.971
		c1.548-1.601,3.276-2.416,3.857-1.823C27.296,50.021,26.512,51.8,24.965,53.399z"/>
	<path fill="#478C41" d="M20.346,63.102c1.171,1.908,1.558,3.818,0.864,4.267c-0.693,0.449-2.206-0.731-3.376-2.641
		c-1.17-1.909-1.558-3.818-0.864-4.269C17.663,60.011,19.175,61.194,20.346,63.102z"/>
	<path fill="#478C41" d="M24.207,62.728c-0.896,2.059-2.229,3.45-2.978,3.105c-0.749-0.342-0.63-2.29,0.265-4.349
		c0.896-2.06,2.229-3.451,2.979-3.107C25.221,58.721,25.102,60.668,24.207,62.728z"/>
</g>
<path fill="#478C41" d="M88.65,41.316c-2.025,1.687-4.229,2.5-4.922,1.814c-0.694-0.685,0.381-2.608,2.405-4.295
	c2.025-1.688,4.229-2.5,4.923-1.816C91.75,37.704,90.674,39.627,88.65,41.316z"/>
<path fill="none" stroke="#275C2D" stroke-width="0.8194" stroke-miterlimit="10" d="M97.021,28.662c0,0-14.797,28.921-4.898,39.948
	"/>
<path fill="#275C2D" d="M94.817,31.623c0.122,2.899-0.616,5.314-1.643,5.393c-1.025,0.08-1.956-2.207-2.074-5.106
	c-0.12-2.899,0.615-5.312,1.645-5.392C93.771,26.438,94.699,28.724,94.817,31.623z"/>
<path fill="#275C2D" d="M99.482,33.72c-2.221,1.783-4.517,2.539-5.121,1.682c-0.607-0.856,0.701-3,2.923-4.785
	c2.223-1.784,4.514-2.539,5.124-1.682C103.014,29.792,101.705,31.935,99.482,33.72z"/>
<path fill="#275C2D" d="M90.976,42.725c0.119,2.898-0.618,5.313-1.645,5.39c-1.026,0.08-1.956-2.205-2.074-5.105
	c-0.119-2.897,0.616-5.312,1.643-5.392C89.929,37.538,90.855,39.824,90.976,42.725z"/>
<path fill="#275C2D" d="M95.64,44.82c-2.221,1.784-4.517,2.537-5.122,1.682c-0.608-0.856,0.702-2.998,2.924-4.783
	s4.515-2.538,5.122-1.683C99.17,40.892,97.862,43.034,95.64,44.82z"/>
<path fill="#275C2D" d="M88.074,56.448c1.083,2.637,1.198,5.145,0.254,5.603c-0.945,0.457-2.59-1.312-3.678-3.946
	c-1.084-2.637-1.199-5.143-0.254-5.601C85.341,52.047,86.987,53.812,88.074,56.448z"/>
<path fill="#275C2D" d="M92.922,56.618c-1.501,2.482-3.419,4.037-4.279,3.474c-0.86-0.566-0.343-3.036,1.159-5.52
	c1.502-2.48,3.418-4.036,4.28-3.472C94.942,51.666,94.425,54.137,92.922,56.618z"/>
<path fill="none" stroke="#478C41" stroke-width="0.7584" stroke-miterlimit="10" d="M85.666,37.187c0,0-11.681,25.76-0.664,34.425"
	/>
<path fill="#478C41" d="M83.785,39.874c0.424,2.463-0.054,4.578-1.067,4.722c-1.014,0.143-2.179-1.736-2.604-4.2
	c-0.424-2.463,0.056-4.576,1.069-4.72C82.197,35.531,83.36,37.413,83.785,39.874z"/>
<path fill="#478C41" d="M81.131,49.626c0.424,2.463-0.055,4.575-1.067,4.719c-1.014,0.146-2.18-1.736-2.604-4.198
	c-0.424-2.465,0.055-4.578,1.07-4.721C79.541,45.28,80.706,47.162,81.131,49.626z"/>
<path fill="#478C41" d="M85.995,51.065c-2.023,1.687-4.226,2.5-4.921,1.815c-0.694-0.686,0.382-2.608,2.405-4.295
	c2.022-1.688,4.229-2.5,4.922-1.815C89.096,47.456,88.02,49.378,85.995,51.065z"/>
<path fill="#478C41" d="M79.689,61.545c1.357,2.167,1.736,4.296,0.846,4.757c-0.895,0.459-2.719-0.925-4.078-3.092
	c-1.359-2.166-1.737-4.296-0.845-4.757C76.505,57.994,78.33,59.378,79.689,61.545z"/>
<path fill="#478C41" d="M84.536,61.329c-1.234,2.227-2.979,3.694-3.896,3.278c-0.917-0.418-0.661-2.563,0.572-4.791
	c1.232-2.229,2.976-3.696,3.893-3.278C86.021,56.956,85.768,59.1,84.536,61.329z"/>
<g>
	<path fill="#478C41" d="M113.457,43.888c1.614,1.378,3.377,2.043,3.933,1.482c0.555-0.56-0.306-2.131-1.923-3.509
		c-1.618-1.378-3.379-2.043-3.935-1.483C110.978,40.938,111.838,42.509,113.457,43.888z"/>
	<path fill="none" stroke="#275C2D" stroke-width="0.6621" stroke-miterlimit="10" d="M106.767,33.55
		c0,0,11.824,23.625,3.913,32.631"/>
	<path fill="#275C2D" d="M108.525,35.971c-0.095,2.367,0.494,4.339,1.314,4.403s1.562-1.805,1.659-4.17
		c0.095-2.368-0.495-4.341-1.316-4.405C109.362,31.733,108.62,33.601,108.525,35.971z"/>
	<path fill="#275C2D" d="M104.799,37.682c1.773,1.458,3.608,2.074,4.092,1.373c0.485-0.699-0.56-2.447-2.335-3.906
		c-1.776-1.459-3.609-2.073-4.095-1.375C101.976,34.475,103.022,36.225,104.799,37.682z"/>
	<path fill="#275C2D" d="M111.596,45.037c-0.094,2.367,0.494,4.34,1.316,4.404c0.819,0.063,1.562-1.804,1.657-4.17
		c0.096-2.369-0.494-4.342-1.314-4.405C112.434,40.802,111.692,42.668,111.596,45.037z"/>
	<path fill="#275C2D" d="M107.869,46.749c1.775,1.458,3.608,2.073,4.094,1.373c0.485-0.699-0.561-2.448-2.337-3.905
		c-1.775-1.458-3.609-2.076-4.094-1.375C105.046,43.541,106.094,45.293,107.869,46.749z"/>
	<path fill="#275C2D" d="M113.918,56.247c-0.867,2.155-0.961,4.203-0.204,4.577c0.755,0.372,2.069-1.07,2.938-3.225
		c0.869-2.152,0.96-4.201,0.204-4.572C116.102,52.651,114.785,54.095,113.918,56.247z"/>
	<path fill="#275C2D" d="M110.041,56.386c1.2,2.028,2.731,3.298,3.42,2.837c0.688-0.46,0.273-2.479-0.926-4.508
		c-1.199-2.024-2.73-3.296-3.42-2.835C108.427,52.341,108.843,54.359,110.041,56.386z"/>
	<path fill="none" stroke="#478C41" stroke-width="0.6128" stroke-miterlimit="10" d="M115.841,40.516c0,0,9.335,21.04,0.53,28.119"
		/>
	<path fill="#478C41" d="M117.343,42.71c-0.338,2.012,0.044,3.739,0.854,3.856c0.811,0.116,1.742-1.418,2.08-3.432
		c0.34-2.012-0.043-3.738-0.854-3.854C118.613,39.162,117.681,40.697,117.343,42.71z"/>
	<path fill="#478C41" d="M119.464,50.675c-0.339,2.012,0.045,3.738,0.855,3.854c0.809,0.117,1.739-1.418,2.079-3.431
		s-0.043-3.738-0.852-3.854C120.736,47.127,119.805,48.662,119.464,50.675z"/>
	<path fill="#478C41" d="M115.578,51.851c1.615,1.379,3.377,2.043,3.932,1.483c0.558-0.561-0.305-2.13-1.921-3.509
		c-1.618-1.379-3.381-2.043-3.935-1.484C113.099,48.902,113.96,50.473,115.578,51.851z"/>
	<path fill="#478C41" d="M120.618,60.411c-1.087,1.77-1.388,3.51-0.675,3.886c0.712,0.375,2.17-0.756,3.256-2.525
		s1.389-3.511,0.677-3.887C123.16,57.509,121.704,58.64,120.618,60.411z"/>
	<path fill="#478C41" d="M116.746,60.234c0.983,1.82,2.377,3.019,3.11,2.68c0.733-0.343,0.528-2.095-0.456-3.913
		c-0.985-1.822-2.38-3.021-3.111-2.68C115.557,56.662,115.76,58.414,116.746,60.234z"/>
</g>
<g>
	<path fill="#478C41" d="M129.046,42.354c1.549,1.6,3.276,2.416,3.857,1.824c0.581-0.595-0.204-2.374-1.75-3.974
		c-1.547-1.601-3.275-2.414-3.857-1.822C126.715,38.976,127.498,40.754,129.046,42.354z"/>
	<path fill="none" stroke="#275C2D" stroke-width="0.6967" stroke-miterlimit="10" d="M122.864,30.61
		c0,0,10.666,26.682,2.322,36.278"/>
	<path fill="#275C2D" d="M124.507,33.367c-0.21,2.616,0.282,4.825,1.099,4.934c0.815,0.108,1.646-1.922,1.857-4.536
		c0.213-2.617-0.28-4.826-1.097-4.935C125.55,28.72,124.718,30.753,124.507,33.367z"/>
	<path fill="#275C2D" d="M120.699,35.089c1.703,1.694,3.504,2.459,4.022,1.71c0.519-0.753-0.44-2.736-2.144-4.432
		c-1.701-1.696-3.505-2.461-4.022-1.709C118.038,31.409,118.996,33.394,120.699,35.089z"/>
	<path fill="#275C2D" d="M127.134,43.541c-0.21,2.616,0.28,4.823,1.098,4.932c0.816,0.111,1.647-1.922,1.859-4.535
		c0.21-2.617-0.28-4.825-1.099-4.936C128.177,38.894,127.344,40.926,127.134,43.541z"/>
	<path fill="#275C2D" d="M123.326,45.263c1.702,1.694,3.506,2.46,4.022,1.709c0.519-0.753-0.441-2.734-2.145-4.431
		c-1.702-1.697-3.504-2.462-4.021-1.71C120.664,41.58,121.623,43.565,123.326,45.263z"/>
	<path fill="#275C2D" d="M128.904,56.05c-0.97,2.343-1.163,4.603-0.426,5.053c0.736,0.446,2.119-1.088,3.091-3.43
		c0.975-2.341,1.163-4.604,0.43-5.051C131.262,52.173,129.877,53.708,128.904,56.05z"/>
	<path fill="#275C2D" d="M125.026,56.024c1.099,2.299,2.568,3.774,3.278,3.294c0.71-0.477,0.394-2.729-0.706-5.026
		c-1.1-2.299-2.567-3.774-3.278-3.298C123.611,51.475,123.926,53.726,125.026,56.024z"/>
	<path fill="none" stroke="#478C41" stroke-width="0.6448" stroke-miterlimit="10" d="M131.593,38.733
		c0,0,8.299,23.709-0.841,31.133"/>
	<path fill="#478C41" d="M132.987,41.232c-0.438,2.21-0.141,4.138,0.663,4.305c0.805,0.168,1.811-1.489,2.248-3.697
		c0.436-2.211,0.138-4.138-0.666-4.305C134.429,37.367,133.424,39.023,132.987,41.232z"/>
	<path fill="#478C41" d="M134.717,50.143c-0.436,2.208-0.139,4.137,0.666,4.304c0.803,0.168,1.809-1.488,2.246-3.699
		c0.437-2.208,0.139-4.137-0.666-4.306C136.16,46.276,135.155,47.93,134.717,50.143z"/>
	<path fill="#478C41" d="M130.776,51.265c1.548,1.597,3.277,2.413,3.857,1.82c0.582-0.595-0.201-2.371-1.75-3.971
		c-1.546-1.6-3.274-2.415-3.857-1.823C128.444,47.886,129.229,49.664,130.776,51.265z"/>
	<path fill="#478C41" d="M135.395,60.965c-1.171,1.908-1.557,3.818-0.862,4.268c0.693,0.449,2.205-0.733,3.377-2.643
		c1.168-1.908,1.56-3.817,0.863-4.267C138.079,57.875,136.566,59.058,135.395,60.965z"/>
	<path fill="#478C41" d="M131.535,60.591c0.896,2.059,2.229,3.45,2.977,3.106c0.751-0.342,0.632-2.291-0.264-4.35
		c-0.897-2.06-2.229-3.449-2.979-3.106C130.521,56.585,130.64,58.531,131.535,60.591z"/>
</g>
<path fill="#478C41" d="M74.084,33.501c-2.22,2.052-4.641,3.04-5.402,2.208c-0.764-0.835,0.42-3.174,2.64-5.229
	c2.22-2.055,4.641-3.043,5.402-2.208C77.488,29.105,76.306,31.446,74.084,33.501z"/>
<path fill="none" stroke="#275C2D" stroke-width="0.9472" stroke-miterlimit="10" d="M83.275,18.096c0,0-16.246,35.204-5.379,48.626
	"/>
<path fill="#275C2D" d="M76.636,35.214c0.133,3.526-0.677,6.468-1.803,6.562c-1.127,0.098-2.147-2.687-2.277-6.215
	c-0.132-3.528,0.677-6.467,1.804-6.563C75.486,28.901,76.507,31.684,76.636,35.214z"/>
<path fill="#275C2D" d="M81.758,37.765c-2.438,2.173-4.957,3.09-5.624,2.047c-0.665-1.042,0.771-3.648,3.21-5.823
	c2.438-2.174,4.958-3.091,5.622-2.048C85.633,32.983,84.196,35.591,81.758,37.765z"/>
<path fill="#275C2D" d="M73.451,51.92c1.19,3.21,1.315,6.262,0.278,6.817c-1.036,0.558-2.843-1.593-4.035-4.803
	c-1.192-3.209-1.318-6.262-0.282-6.817C70.451,46.562,72.258,48.711,73.451,51.92z"/>
<path fill="#275C2D" d="M78.774,52.127c-1.649,3.02-3.752,4.912-4.697,4.226c-0.946-0.688-0.377-3.693,1.271-6.717
	c1.649-3.021,3.75-4.911,4.697-4.224C80.991,46.097,80.423,49.105,78.774,52.127z"/>
<path fill="none" stroke="#478C41" stroke-width="0.8767" stroke-miterlimit="10" d="M70.809,28.474c0,0-12.822,31.355-0.729,41.903
	"/>
<path fill="#478C41" d="M68.745,31.748c0.466,2.997-0.061,5.57-1.173,5.745c-1.113,0.174-2.393-2.115-2.858-5.112
	c-0.465-2.998,0.059-5.571,1.172-5.747C67,26.459,68.279,28.749,68.745,31.748z"/>
<path fill="#478C41" d="M65.832,43.615c0.464,2.997-0.061,5.57-1.174,5.746c-1.113,0.174-2.393-2.115-2.858-5.114
	c-0.465-3,0.06-5.571,1.172-5.745C64.085,38.328,65.365,40.615,65.832,43.615z"/>
<path fill="#478C41" d="M71.17,45.368c-2.221,2.054-4.64,3.043-5.403,2.208c-0.762-0.834,0.42-3.174,2.642-5.229
	c2.221-2.054,4.64-3.044,5.403-2.208C74.574,40.973,73.392,43.314,71.17,45.368z"/>
<path fill="#478C41" d="M64.246,58.121c1.492,2.638,1.908,5.231,0.928,5.79c-0.979,0.562-2.982-1.125-4.474-3.761
	c-1.491-2.639-1.906-5.23-0.927-5.791C60.751,53.802,62.754,55.485,64.246,58.121z"/>
<path fill="#478C41" d="M69.567,57.859c-1.354,2.712-3.268,4.498-4.275,3.991c-1.007-0.509-0.726-3.118,0.627-5.832
	c1.354-2.711,3.267-4.499,4.274-3.99S70.92,55.146,69.567,57.859z"/>
<path fill="#275C2D" d="M80.898,22.705c0.119,2.898-0.617,5.312-1.646,5.392c-1.025,0.078-1.954-2.208-2.073-5.105
	c-0.119-2.9,0.617-5.315,1.644-5.393C79.85,17.52,80.778,19.805,80.898,22.705z"/>
<path fill="#275C2D" d="M85.562,24.801c-2.221,1.785-4.516,2.537-5.122,1.681c-0.606-0.856,0.702-2.998,2.922-4.784
	c2.223-1.785,4.518-2.538,5.125-1.683C89.093,20.874,87.786,23.015,85.562,24.801z"/>
<g>
	<path fill="#478C41" d="M111.149,45.59c-1.616,1.377-3.379,2.039-3.934,1.48c-0.557-0.559,0.306-2.13,1.923-3.508
		c1.616-1.379,3.377-2.042,3.933-1.485C113.626,42.641,112.765,44.209,111.149,45.59z"/>
	<path fill="none" stroke="#275C2D" stroke-width="0.6621" stroke-miterlimit="10" d="M117.838,35.252
		c0,0-11.825,23.625-3.914,32.633"/>
	<path fill="#275C2D" d="M116.079,37.671c0.096,2.368-0.494,4.342-1.313,4.404c-0.821,0.064-1.563-1.802-1.659-4.169
		c-0.096-2.37,0.495-4.343,1.314-4.405C115.242,33.436,115.984,35.303,116.079,37.671z"/>
	<path fill="#275C2D" d="M119.806,39.382c-1.775,1.459-3.608,2.074-4.093,1.375c-0.485-0.699,0.56-2.448,2.335-3.906
		c1.776-1.46,3.61-2.074,4.095-1.375C122.628,36.176,121.583,37.924,119.806,39.382z"/>
	<path fill="#275C2D" d="M113.008,46.738c0.094,2.368-0.493,4.34-1.313,4.403c-0.822,0.065-1.564-1.803-1.66-4.17
		c-0.094-2.368,0.493-4.341,1.315-4.404C112.17,42.502,112.912,44.369,113.008,46.738z"/>
	<path fill="#275C2D" d="M116.736,48.45c-1.776,1.459-3.61,2.074-4.096,1.374c-0.483-0.7,0.562-2.448,2.338-3.909
		c1.774-1.456,3.608-2.071,4.092-1.371C119.557,45.242,118.51,46.991,116.736,48.45z"/>
	<path fill="#275C2D" d="M110.688,57.948c0.867,2.154,0.958,4.202,0.204,4.575c-0.755,0.375-2.069-1.068-2.939-3.221
		c-0.867-2.154-0.959-4.203-0.203-4.577C108.504,54.354,109.818,55.797,110.688,57.948z"/>
	<path fill="#275C2D" d="M114.562,58.087c-1.201,2.028-2.732,3.299-3.419,2.837c-0.689-0.46-0.274-2.479,0.926-4.506
		c1.199-2.028,2.73-3.299,3.419-2.837S115.762,56.061,114.562,58.087z"/>
	<path fill="none" stroke="#478C41" stroke-width="0.6128" stroke-miterlimit="10" d="M108.764,42.215c0,0-9.334,21.04-0.529,28.121
		"/>
	<path fill="#478C41" d="M107.262,44.412c0.338,2.012-0.043,3.739-0.854,3.855s-1.743-1.419-2.081-3.431
		c-0.341-2.012,0.043-3.738,0.854-3.855C105.991,40.863,106.924,42.399,107.262,44.412z"/>
	<path fill="#478C41" d="M105.14,52.376c0.34,2.012-0.043,3.738-0.854,3.856c-0.811,0.116-1.743-1.42-2.081-3.431
		c-0.338-2.013,0.045-3.739,0.854-3.857C103.869,48.827,104.803,50.363,105.14,52.376z"/>
	<path fill="#478C41" d="M109.026,53.553c-1.615,1.378-3.378,2.042-3.932,1.482s0.305-2.129,1.92-3.508
		c1.619-1.38,3.382-2.043,3.936-1.484C111.506,50.603,110.644,52.174,109.026,53.553z"/>
	<path fill="#478C41" d="M103.986,62.111c1.086,1.771,1.389,3.51,0.676,3.887c-0.713,0.374-2.17-0.755-3.257-2.526
		c-1.086-1.77-1.388-3.509-0.677-3.885C101.442,59.212,102.901,60.341,103.986,62.111z"/>
	<path fill="#478C41" d="M107.858,61.937c-0.984,1.818-2.378,3.017-3.111,2.677c-0.732-0.341-0.529-2.094,0.457-3.914
		c0.985-1.817,2.379-3.018,3.113-2.677C109.049,58.363,108.846,60.115,107.858,61.937z"/>
</g>
<g>
	<path fill="#478C41" d="M95.559,45.988c-1.549,1.599-3.276,2.415-3.858,1.822c-0.581-0.594,0.203-2.371,1.75-3.971
		c1.55-1.601,3.276-2.416,3.857-1.822C97.89,42.611,97.106,44.39,95.559,45.988z"/>
	<path fill="none" stroke="#275C2D" stroke-width="0.6967" stroke-miterlimit="10" d="M101.739,34.244
		c0,0-10.663,26.683-2.321,36.279"/>
	<path fill="#275C2D" d="M100.099,37.003c0.21,2.614-0.282,4.821-1.101,4.933c-0.814,0.108-1.647-1.923-1.858-4.539
		c-0.209-2.615,0.282-4.823,1.098-4.931C99.054,32.355,99.887,34.386,100.099,37.003z"/>
	<path fill="#275C2D" d="M103.906,38.724c-1.704,1.694-3.506,2.46-4.023,1.709c-0.52-0.752,0.44-2.735,2.143-4.431
		c1.703-1.696,3.504-2.461,4.023-1.71C106.568,35.044,105.608,37.026,103.906,38.724z"/>
	<path fill="#275C2D" d="M97.471,47.175c0.212,2.614-0.28,4.822-1.098,4.932c-0.818,0.11-1.648-1.921-1.858-4.536
		c-0.209-2.615,0.281-4.824,1.098-4.935C96.428,42.527,97.262,44.558,97.471,47.175z"/>
	<path fill="#275C2D" d="M101.277,48.895c-1.702,1.696-3.502,2.461-4.021,1.711c-0.518-0.752,0.44-2.736,2.144-4.432
		s3.505-2.459,4.023-1.709C103.941,45.216,102.981,47.199,101.277,48.895z"/>
	<path fill="#275C2D" d="M95.699,59.685c0.972,2.342,1.163,4.604,0.426,5.051c-0.735,0.448-2.118-1.085-3.089-3.429
		c-0.974-2.342-1.165-4.603-0.429-5.051C93.342,55.808,94.728,57.343,95.699,59.685z"/>
	<path fill="#275C2D" d="M99.579,59.657c-1.103,2.299-2.57,3.774-3.278,3.296c-0.712-0.478-0.396-2.729,0.704-5.027
		c1.102-2.298,2.568-3.774,3.278-3.297C100.994,55.108,100.679,57.358,99.579,59.657z"/>
	<path fill="none" stroke="#478C41" stroke-width="0.6448" stroke-miterlimit="10" d="M93.013,42.366c0,0-8.3,23.71,0.842,31.134"/>
	<path fill="#478C41" d="M91.618,44.867c0.438,2.209,0.138,4.136-0.665,4.304c-0.804,0.169-1.81-1.488-2.247-3.698
		c-0.437-2.21-0.139-4.137,0.665-4.305C90.177,41.001,91.182,42.657,91.618,44.867z"/>
	<path fill="#478C41" d="M89.886,53.776c0.438,2.209,0.14,4.136-0.666,4.303c-0.801,0.169-1.807-1.488-2.243-3.698
		c-0.438-2.211-0.14-4.139,0.663-4.304C88.444,49.911,89.449,51.565,89.886,53.776z"/>
	<path fill="#478C41" d="M93.827,54.897c-1.549,1.599-3.275,2.414-3.855,1.822c-0.583-0.594,0.199-2.372,1.747-3.971
		c1.549-1.602,3.275-2.416,3.857-1.822C96.158,51.52,95.376,53.297,93.827,54.897z"/>
	<path fill="#478C41" d="M89.209,64.6c1.17,1.907,1.557,3.817,0.863,4.266c-0.693,0.449-2.206-0.732-3.376-2.641
		c-1.172-1.907-1.559-3.819-0.863-4.268C86.526,61.508,88.037,62.691,89.209,64.6z"/>
	<path fill="#478C41" d="M93.069,64.224c-0.895,2.06-2.229,3.452-2.977,3.107c-0.751-0.344-0.632-2.29,0.263-4.349
		c0.898-2.06,2.23-3.452,2.98-3.106C94.083,60.218,93.966,62.166,93.069,64.224z"/>
</g>
<path fill="none" stroke="#478C41" stroke-width="0.7584" stroke-miterlimit="10" d="M126.034,36.099
	c0,0,11.681,25.759,0.665,34.425"/>
<path fill="#478C41" d="M127.914,38.787c-0.423,2.463,0.055,4.577,1.069,4.722c1.013,0.144,2.179-1.737,2.604-4.202
	c0.423-2.463-0.055-4.574-1.068-4.719C129.505,34.444,128.34,36.324,127.914,38.787z"/>
<path fill="#478C41" d="M130.57,48.539c-0.425,2.463,0.053,4.575,1.066,4.719c1.014,0.145,2.181-1.737,2.604-4.201
	c0.424-2.461-0.054-4.575-1.069-4.719C132.159,44.195,130.994,46.075,130.57,48.539z"/>
<path fill="#478C41" d="M125.707,49.979c2.021,1.688,4.224,2.5,4.92,1.814c0.693-0.685-0.383-2.606-2.406-4.296
	c-2.022-1.688-4.228-2.5-4.921-1.814C122.605,46.366,123.683,48.291,125.707,49.979z"/>
<path fill="#478C41" d="M132.011,60.456c-1.357,2.168-1.735,4.297-0.844,4.756c0.893,0.462,2.717-0.923,4.076-3.09
	c1.359-2.168,1.736-4.298,0.845-4.757C135.195,56.905,133.371,58.289,132.011,60.456z"/>
<path fill="#478C41" d="M127.167,60.24c1.231,2.228,2.977,3.697,3.892,3.279c0.92-0.418,0.662-2.562-0.57-4.79
	c-1.232-2.229-2.977-3.695-3.894-3.278C125.678,55.867,125.935,58.012,127.167,60.24z"/>
<path fill="#478C41" d="M137.618,32.412c2.221,2.052,4.64,3.043,5.4,2.209c0.763-0.833-0.42-3.174-2.642-5.229
	c-2.22-2.055-4.64-3.044-5.401-2.21C134.212,28.017,135.395,30.358,137.618,32.412z"/>
<path fill="none" stroke="#275C2D" stroke-width="0.9472" stroke-miterlimit="10" d="M128.427,17.008
	c0,0,16.245,35.204,5.377,48.626"/>
<path fill="#275C2D" d="M135.063,34.125c-0.132,3.527,0.678,6.469,1.806,6.564c1.126,0.097,2.147-2.688,2.276-6.217
	c0.132-3.528-0.677-6.467-1.805-6.562C136.215,27.812,135.194,30.596,135.063,34.125z"/>
<path fill="#275C2D" d="M129.943,36.677c2.438,2.172,4.956,3.088,5.622,2.047c0.668-1.042-0.77-3.648-3.209-5.822
	c-2.438-2.173-4.958-3.09-5.622-2.049C126.067,31.897,127.504,34.504,129.943,36.677z"/>
<path fill="#275C2D" d="M138.252,50.832c-1.193,3.209-1.317,6.261-0.28,6.817c1.036,0.558,2.842-1.593,4.035-4.803
	c1.192-3.21,1.316-6.262,0.281-6.817C141.25,45.473,139.442,47.623,138.252,50.832z"/>
<path fill="#275C2D" d="M132.926,51.038c1.65,3.022,3.752,4.914,4.698,4.227c0.946-0.687,0.377-3.693-1.271-6.715
	c-1.648-3.022-3.751-4.914-4.697-4.227C130.709,45.01,131.278,48.017,132.926,51.038z"/>
<path fill="none" stroke="#478C41" stroke-width="0.8767" stroke-miterlimit="10" d="M140.892,27.385
	c0,0,12.823,31.356,0.728,41.904"/>
<path fill="#478C41" d="M142.957,30.659c-0.467,2.998,0.061,5.572,1.172,5.745c1.112,0.175,2.394-2.115,2.856-5.113
	c0.468-2.997-0.058-5.569-1.17-5.743C144.7,25.372,143.422,27.661,142.957,30.659z"/>
<path fill="#478C41" d="M145.869,42.526c-0.465,2.998,0.061,5.571,1.173,5.745c1.113,0.175,2.393-2.113,2.857-5.111
	c0.467-2.999-0.059-5.571-1.172-5.745C147.614,37.24,146.336,39.528,145.869,42.526z"/>
<path fill="#478C41" d="M140.531,44.279c2.222,2.054,4.641,3.044,5.401,2.211c0.763-0.836-0.421-3.176-2.642-5.229
	c-2.221-2.055-4.64-3.045-5.402-2.21C137.128,39.885,138.311,42.225,140.531,44.279z"/>
<path fill="#478C41" d="M147.455,57.033c-1.492,2.639-1.909,5.231-0.929,5.791c0.98,0.559,2.982-1.124,4.475-3.763
	c1.492-2.637,1.907-5.23,0.928-5.789C150.947,52.712,148.946,54.396,147.455,57.033z"/>
<path fill="#478C41" d="M142.135,56.771c1.353,2.713,3.269,4.498,4.273,3.991c1.007-0.509,0.728-3.118-0.627-5.831
	c-1.353-2.712-3.269-4.501-4.275-3.991C140.5,51.448,140.78,54.061,142.135,56.771z"/>
<path fill="#275C2D" d="M130.803,21.617c-0.12,2.899,0.616,5.313,1.645,5.392c1.025,0.079,1.955-2.207,2.074-5.106
	c0.118-2.9-0.617-5.314-1.646-5.393C131.85,16.432,130.921,18.717,130.803,21.617z"/>
<path fill="#275C2D" d="M126.14,23.713c2.221,1.784,4.514,2.537,5.122,1.682c0.605-0.857-0.702-2.999-2.923-4.783
	c-2.224-1.786-4.516-2.54-5.125-1.684C122.606,19.785,123.915,21.927,126.14,23.713z"/>
</svg>
