<?xml version="1.0" encoding="utf-8"?>
<!-- Generator: Adobe Illustrator 16.0.3, SVG Export Plug-In . SVG Version: 6.00 Build 0)  -->
<!DOCTYPE svg PUBLIC "-//W3C//DTD SVG 1.1//EN" "http://www.w3.org/Graphics/SVG/1.1/DTD/svg11.dtd" [
	<!ENTITY ns_flows "http://ns.adobe.com/Flows/1.0/">
	<!ENTITY ns_extend "http://ns.adobe.com/Extensibility/1.0/">
	<!ENTITY ns_ai "http://ns.adobe.com/AdobeIllustrator/10.0/">
	<!ENTITY ns_graphs "http://ns.adobe.com/Graphs/1.0/">
]>
<svg version="1.1" id="Layer_1" xmlns:x="&ns_extend;" xmlns:i="&ns_ai;" xmlns:graph="&ns_graphs;"
	 xmlns="http://www.w3.org/2000/svg" xmlns:xlink="http://www.w3.org/1999/xlink" xmlns:a="http://ns.adobe.com/AdobeSVGViewerExtensions/3.0/"
	 x="0px" y="0px" width="144px" height="144px" viewBox="0 0 144 144" enable-background="new 0 0 144 144" xml:space="preserve">
<path fill="#553312" d="M73.25,15.419c-0.796-0.321-1.243-1.067-1.003-1.664l0,0c0.242-0.596,1.082-0.82,1.878-0.499l15.63,6.326
	c0.795,0.323,1.242,1.067,1.001,1.665l0,0c-0.241,0.597-1.082,0.821-1.876,0.499L73.25,15.419z"/>
<path fill="#553312" d="M75.417,11.086c-0.796-0.321-1.243-1.067-1.003-1.664l0,0c0.242-0.596,1.082-0.82,1.878-0.499l15.63,6.326
	c0.795,0.323,1.242,1.067,1.001,1.665l0,0c-0.241,0.597-1.082,0.821-1.876,0.499L75.417,11.086z"/>
<path fill="#553312" d="M76.583,7.252c-0.796-0.321-1.243-1.067-1.003-1.664l0,0c0.242-0.596,1.082-0.82,1.878-0.499l15.63,6.326
	c0.795,0.323,1.242,1.067,1.001,1.665l0,0c-0.241,0.597-1.082,0.821-1.876,0.499L76.583,7.252z"/>
<path fill="#553312" d="M82.337,19.858c-2.068-0.778-4.375,0.267-5.154,2.334L61.409,64.1c-3.427-0.324-16.53-0.568-23.73,9.968
	c-3.578,5.977-1.91,11.246-5.667,14.451c-3.764,3.211-13.515,5.889-13.47,21.757c0.052,18.759,15.386,20.907,22.766,22.077
	c7.782,4.158,21.066,7.797,30.441-5.146c9.361-12.922,3.5-20.513,2.425-25.259c-1.071-4.736,3.492-8.029,4.257-14.898
	c2.289-11.055-5.271-17.341-9.607-19.938L86.668,19C87.445,16.932,84.403,20.636,82.337,19.858z"/>
<path fill="#C7AD5D" d="M80.916,17.359c-2.139-0.781-4.521,0.269-5.327,2.345L58.387,64.117c-0.12-0.024-0.209-0.042-0.209-0.041
	c-2.788-0.317-15.98-0.896-23.129,9.599c-3.445,5.775-1.838,10.866-5.456,13.963c-3.624,3.102-13.011,5.688-12.968,21.018
	c0.051,18.123,14.812,20.198,21.917,21.328c7.493,4.017,20.281,7.532,29.308-4.971c9.013-12.483,3.369-19.817,2.334-24.401
	c-1.032-4.575,3.361-7.758,4.099-14.395c2.056-9.964-4.146-15.919-8.375-18.709l17.419-44.974
	C84.131,20.458,83.051,18.141,80.916,17.359z"/>
<path fill="#C7AD5D" d="M88.326,18.967c-1.259,3.412-5.097,5.139-8.573,3.857l0,0c-3.479-1.282-5.277-5.086-4.021-8.498l2.536-6.881
	c1.258-3.412,5.095-5.138,8.575-3.856l0,0c3.477,1.282,5.275,5.086,4.019,8.497L88.326,18.967z"/>
<circle fill="#553312" cx="55.5" cy="84.666" r="7.775"/>
<path fill="#553312" d="M55.501,73.415c-6.215,0-11.251,5.037-11.251,11.25c0,6.215,5.036,11.251,11.251,11.251
	c6.212,0,11.25-5.036,11.25-11.251C66.751,78.452,61.713,73.415,55.501,73.415z M55.501,94.501c-5.433,0-9.834-4.402-9.834-9.835
	c0-5.431,4.402-9.834,9.834-9.834c5.431,0,9.835,4.403,9.835,9.834C65.336,90.099,60.932,94.501,55.501,94.501z"/>
<path fill="#553312" d="M75.075,24.315c-0.321-0.128-0.457-0.544-0.304-0.927l0,0c0.153-0.382,0.537-0.588,0.859-0.459l6.32,2.532
	c0.322,0.129,0.456,0.544,0.305,0.927l0,0c-0.155,0.383-0.539,0.589-0.86,0.459L75.075,24.315z"/>
<path fill="#553312" d="M67.652,43.788c-0.321-0.128-0.457-0.544-0.304-0.927l0,0c0.153-0.382,0.537-0.589,0.859-0.46l6.32,2.533
	c0.322,0.129,0.457,0.543,0.305,0.926l0,0c-0.154,0.383-0.539,0.59-0.859,0.46L67.652,43.788z"/>
<path fill="#553312" d="M69.137,39.894c-0.321-0.128-0.457-0.544-0.304-0.927l0,0c0.153-0.382,0.537-0.589,0.859-0.46l6.32,2.533
	c0.322,0.129,0.456,0.543,0.305,0.926l0,0c-0.155,0.383-0.539,0.59-0.86,0.46L69.137,39.894z"/>
<path fill="#553312" d="M70.622,35.999c-0.321-0.128-0.457-0.544-0.304-0.927l0,0c0.153-0.382,0.537-0.589,0.859-0.46l6.321,2.533
	c0.322,0.129,0.456,0.543,0.305,0.926l0,0c-0.155,0.383-0.539,0.59-0.86,0.46L70.622,35.999z"/>
<path fill="#553312" d="M72.106,32.104c-0.321-0.128-0.457-0.544-0.304-0.927l0,0c0.153-0.382,0.537-0.589,0.859-0.46l6.32,2.533
	c0.322,0.129,0.456,0.543,0.305,0.926l0,0c-0.155,0.383-0.539,0.59-0.86,0.46L72.106,32.104z"/>
<path fill="#553312" d="M73.591,28.209c-0.321-0.128-0.457-0.544-0.304-0.927l0,0c0.153-0.382,0.537-0.589,0.859-0.46l6.32,2.533
	c0.322,0.129,0.456,0.543,0.305,0.926l0,0c-0.155,0.383-0.539,0.59-0.86,0.46L73.591,28.209z"/>
<path fill="#553312" d="M63.199,55.472c-0.322-0.128-0.457-0.544-0.305-0.927l0,0c0.154-0.382,0.537-0.589,0.859-0.46l6.32,2.533
	c0.322,0.129,0.457,0.543,0.305,0.926l0,0c-0.154,0.383-0.539,0.59-0.859,0.46L63.199,55.472z"/>
<path fill="#553312" d="M64.684,51.578c-0.322-0.128-0.457-0.544-0.305-0.927l0,0c0.154-0.382,0.537-0.589,0.859-0.46l6.32,2.533
	c0.322,0.129,0.457,0.543,0.305,0.926l0,0c-0.154,0.383-0.539,0.59-0.859,0.46L64.684,51.578z"/>
<path fill="#553312" d="M66.168,47.683c-0.322-0.128-0.457-0.544-0.305-0.927l0,0c0.154-0.382,0.537-0.589,0.859-0.46l6.321,2.533
	c0.322,0.129,0.457,0.543,0.305,0.926l0,0c-0.154,0.383-0.54,0.59-0.86,0.46L66.168,47.683z"/>
<path fill="#553312" d="M61.714,59.367c-0.322-0.129-0.457-0.545-0.305-0.928l0,0c0.154-0.381,0.537-0.588,0.859-0.459l6.32,2.533
	c0.322,0.129,0.457,0.543,0.305,0.926l0,0c-0.154,0.383-0.539,0.59-0.859,0.459L61.714,59.367z"/>
<path fill="#553312" d="M60.23,63.262c-0.322-0.129-0.457-0.545-0.305-0.928l0,0c0.154-0.381,0.537-0.588,0.859-0.459l6.32,2.533
	c0.322,0.129,0.457,0.543,0.305,0.926l0,0c-0.154,0.383-0.539,0.59-0.859,0.459L60.23,63.262z"/>
<line fill="none" stroke="#E2CBB8" stroke-width="0.9248" stroke-miterlimit="10" x1="78.002" y1="18.333" x2="42.668" y2="114"/>
<line fill="none" stroke="#E2CBB8" stroke-width="0.9248" stroke-miterlimit="10" x1="80.419" y1="17.833" x2="45.085" y2="113.5"/>
<line fill="none" stroke="#E2CBB8" stroke-width="0.9248" stroke-miterlimit="10" x1="82.836" y1="18.833" x2="47.502" y2="114.5"/>
<path fill="#553312" d="M32.593,110.395c-1.146-0.433-1.888-1.274-1.66-1.875l0,0c0.229-0.602,1.341-0.739,2.488-0.307l22.524,8.527
	c1.146,0.436,1.89,1.275,1.661,1.876l0,0c-0.228,0.604-1.341,0.741-2.488,0.306L32.593,110.395z"/>
<path fill="#553312" d="M80.013,17.804c-0.243,0.597-0.926,0.881-1.521,0.638l0,0c-0.595-0.244-0.881-0.925-0.638-1.522l4.8-11.722
	c0.245-0.596,0.926-0.881,1.521-0.637l0,0c0.597,0.244,0.883,0.925,0.638,1.521L80.013,17.804z"/>
<path fill="#553312" d="M84.68,19.805c-0.243,0.597-0.926,0.881-1.521,0.638l0,0c-0.595-0.244-0.881-0.925-0.638-1.522l4.8-11.722
	c0.245-0.596,0.926-0.881,1.521-0.637l0,0c0.597,0.244,0.883,0.925,0.638,1.521L84.68,19.805z"/>
</svg>
