<?xml version="1.0" encoding="utf-8"?>
<!-- Generator: Adobe Illustrator 16.0.3, SVG Export Plug-In . SVG Version: 6.00 Build 0)  -->
<!DOCTYPE svg PUBLIC "-//W3C//DTD SVG 1.1//EN" "http://www.w3.org/Graphics/SVG/1.1/DTD/svg11.dtd" [
	<!ENTITY ns_flows "http://ns.adobe.com/Flows/1.0/">
	<!ENTITY ns_extend "http://ns.adobe.com/Extensibility/1.0/">
	<!ENTITY ns_ai "http://ns.adobe.com/AdobeIllustrator/10.0/">
	<!ENTITY ns_graphs "http://ns.adobe.com/Graphs/1.0/">
]>
<svg version="1.1" id="Layer_1" xmlns:x="&ns_extend;" xmlns:i="&ns_ai;" xmlns:graph="&ns_graphs;"
	 xmlns="http://www.w3.org/2000/svg" xmlns:xlink="http://www.w3.org/1999/xlink" xmlns:a="http://ns.adobe.com/AdobeSVGViewerExtensions/3.0/"
	 x="0px" y="0px" width="144px" height="144px" viewBox="0 0 144 144" enable-background="new 0 0 144 144" xml:space="preserve">
<path fill="#191919" d="M57.879,118.417c1.55-13.744-0.532-20.143,9.332-22.421c6.074-1.402,8.629,3.146,9.701,5.73
	c0.154,1.39,0.814,0.691,0.737-0.079c0.499-2.749,2.104-7.614,8.334-7.174c8.513,0.602,7.316,7.602,9.063,21.587
	c0,0,20.979-51.019,0.007-80.79C78.02,11.092,56.129,21.125,45.849,40.039C28.457,72.037,57.879,118.417,57.879,118.417z"/>
<path d="M18.5,10.333"/>
<path fill="#D3BAC2" stroke="#191919" stroke-width="1.8242" stroke-miterlimit="10" d="M52.86,42.3
	c-2.889,0.354-6.704,9.33-4.897,11.806c1.809,2.477,10.798,7.125,10.798,7.125s-8.285,4.287-8.067,6.625
	c0.218,2.336,8.725,6.023,8.955,8.491c0.23,2.47-7.429,12.012-11.893,9.536s-0.851,6.644,6.44,6.98
	c7.291,0.34,15.608-10.668,16.097-14.153c0.486-3.486-8.106-6.73-9.676-8.99c-1.568-2.26,7.26-3.046,7.235-5.774
	c-0.026-2.729-13.346-7.272-13.971-9.411c-0.624-2.14,6.67-13.398,3.595-13.923C54.398,40.086,56.033,42.614,52.86,42.3z"/>
<path fill="#A83C68" d="M57.742,35.828l-3.253,0.914c-2.025,0.568-3.53,2.075-4.187,3.917c-0.493-0.479-1.003-0.707-1.455-0.58
	l-1.066,0.299c-0.53,0.149-0.878,0.755-1.018,1.617c-1.514-1.198-3.556-1.684-5.558-1.122l-3.252,0.913
	c-3.317,0.931-5.251,4.375-4.32,7.691l0.07,0.25c0.931,3.318,4.374,5.251,7.691,4.321l3.253-0.913
	c2.145-0.602,3.706-2.256,4.293-4.246c0.465,0.422,0.943,0.617,1.368,0.498l1.066-0.299c0.451-0.126,0.769-0.586,0.94-1.251
	c1.519,1.23,3.588,1.735,5.614,1.167l3.252-0.913c3.317-0.93,5.251-4.374,4.32-7.691l-0.07-0.25
	C64.502,36.832,61.059,34.897,57.742,35.828z"/>
<path fill="#991B49" d="M52.071,43.997c0.684,2.437,0.357,4.66-0.731,4.964l-1.066,0.299c-1.087,0.305-2.523-1.423-3.208-3.86
	l-0.051-0.184c-0.684-2.437-0.357-4.66,0.731-4.965l1.066-0.299c1.088-0.305,2.523,1.423,3.208,3.86L52.071,43.997z"/>
<path fill="#932250" d="M44.365,43.603c0.937,0.369,1.62,0.868,1.522,1.113l-0.095,0.24c-0.096,0.246-0.935,0.145-1.872-0.225
	l-0.071-0.028c-0.938-0.369-1.62-0.867-1.523-1.112l0.094-0.24c0.097-0.245,0.935-0.145,1.873,0.225L44.365,43.603z"/>
<path fill="#932250" d="M45.01,48.038c0.647-0.773,1.335-1.263,1.537-1.094l0.198,0.166c0.202,0.169-0.158,0.933-0.805,1.705
	l-0.049,0.059c-0.646,0.773-1.334,1.262-1.537,1.093l-0.198-0.166c-0.202-0.169,0.159-0.933,0.805-1.706L45.01,48.038z"/>
<path fill="#932250" d="M42.527,46.173c0.977-0.246,1.822-0.238,1.886,0.017l0.063,0.251c0.064,0.255-0.676,0.662-1.653,0.907
	l-0.074,0.019c-0.977,0.246-1.821,0.238-1.886-0.018l-0.062-0.25c-0.064-0.256,0.676-0.663,1.653-0.908L42.527,46.173z"/>
<path fill="#932250" d="M53.776,41.007c-0.608,0.803-0.932,1.583-0.722,1.743l0.207,0.155c0.209,0.16,0.874-0.362,1.482-1.166
	l0.046-0.061c0.608-0.803,0.932-1.583,0.722-1.742l-0.206-0.156c-0.21-0.16-0.874,0.362-1.482,1.166L53.776,41.007z"/>
<path fill="#932250" d="M55.532,45.13c-0.954-0.324-1.796-0.384-1.881-0.135l-0.083,0.245c-0.085,0.25,0.62,0.714,1.575,1.038
	l0.072,0.024c0.954,0.324,1.797,0.384,1.881,0.135l0.083-0.245c0.084-0.25-0.621-0.714-1.575-1.038L55.532,45.13z"/>
<path fill="#932250" d="M56.683,42.246c-0.962,0.299-1.679,0.745-1.601,0.997l0.077,0.247c0.078,0.252,0.921,0.213,1.883-0.085
	l0.073-0.022c0.962-0.298,1.679-0.745,1.601-0.997l-0.076-0.247c-0.079-0.251-0.922-0.213-1.884,0.085L56.683,42.246z"/>
</svg>
