<?xml version="1.0" encoding="utf-8"?>
<!-- Generator: Adobe Illustrator 16.0.3, SVG Export Plug-In . SVG Version: 6.00 Build 0)  -->
<!DOCTYPE svg PUBLIC "-//W3C//DTD SVG 1.1//EN" "http://www.w3.org/Graphics/SVG/1.1/DTD/svg11.dtd" [
	<!ENTITY ns_flows "http://ns.adobe.com/Flows/1.0/">
	<!ENTITY ns_extend "http://ns.adobe.com/Extensibility/1.0/">
	<!ENTITY ns_ai "http://ns.adobe.com/AdobeIllustrator/10.0/">
	<!ENTITY ns_graphs "http://ns.adobe.com/Graphs/1.0/">
]>
<svg version="1.1" id="Layer_1" xmlns:x="&ns_extend;" xmlns:i="&ns_ai;" xmlns:graph="&ns_graphs;"
	 xmlns="http://www.w3.org/2000/svg" xmlns:xlink="http://www.w3.org/1999/xlink" xmlns:a="http://ns.adobe.com/AdobeSVGViewerExtensions/3.0/"
	 x="0px" y="0px" width="72px" height="36px" viewBox="0 0 72 36" enable-background="new 0 0 72 36" xml:space="preserve">
<rect x="1.75" y="9.458" fill="#262525" stroke="#515250" stroke-width="0.6442" stroke-miterlimit="10" width="65.195" height="16.205"/>
<rect x="67.165" y="12.364" fill="#282727" stroke="#515250" stroke-width="0.6442" stroke-miterlimit="10" width="2.919" height="11.054"/>
<g>
	<path fill="#F7F5F5" d="M6.3,16.156c0.021,0.286,0.162,0.429,0.424,0.429h0.424c0.119,0,0.221-0.042,0.304-0.125
		c0.083-0.083,0.125-0.185,0.125-0.304v-0.849C7.543,15.59,7.4,15.731,7.148,15.731H6.724c-0.231,0-0.432-0.083-0.6-0.25
		c-0.169-0.167-0.253-0.368-0.253-0.603v-2.125h0.853v2.125c0,0.116,0.042,0.216,0.125,0.302c0.083,0.085,0.183,0.127,0.299,0.127
		c0.119,0,0.221-0.042,0.304-0.127c0.083-0.085,0.125-0.186,0.125-0.302v-2.125h0.848v3.403c0,0.231-0.083,0.432-0.25,0.6
		c-0.167,0.169-0.366,0.253-0.598,0.253H6.724c-0.5,0-0.785-0.284-0.853-0.853H6.3z"/>
	<path fill="#F7F5F5" d="M10.132,12.752h0.854c0.231,0,0.431,0.083,0.598,0.25c0.167,0.167,0.25,0.366,0.25,0.598v1.277
		c0,0.232-0.083,0.432-0.25,0.601c-0.167,0.168-0.366,0.253-0.598,0.253h-0.854c-0.231,0-0.432-0.083-0.6-0.25
		c-0.169-0.167-0.253-0.368-0.253-0.603v-1.277c0-0.231,0.084-0.431,0.253-0.598C9.701,12.836,9.901,12.752,10.132,12.752z
		 M10.132,13.601v1.277c0,0.116,0.042,0.216,0.125,0.302c0.083,0.085,0.183,0.127,0.299,0.127c0.119,0,0.221-0.042,0.304-0.127
		c0.083-0.085,0.125-0.186,0.125-0.302v-1.277c0-0.116-0.042-0.215-0.125-0.299c-0.083-0.083-0.185-0.125-0.304-0.125
		c-0.116,0-0.215,0.042-0.299,0.125S10.132,13.485,10.132,13.601z"/>
	<path fill="#F7F5F5" d="M15.242,12.752v2.979h-0.848v-0.424c-0.034,0.283-0.177,0.424-0.429,0.424h-0.424
		c-0.231,0-0.432-0.083-0.6-0.25c-0.169-0.167-0.253-0.368-0.253-0.603v-2.125h0.853v2.125c0,0.116,0.042,0.216,0.125,0.302
		c0.083,0.085,0.183,0.127,0.299,0.127c0.119,0,0.221-0.042,0.304-0.127c0.083-0.085,0.125-0.186,0.125-0.302v-2.125H15.242z"/>
	<path fill="#F7F5F5" d="M17.374,15.731v-3.833h0.853v1.917l1.278-1.063h0.853l-1.783,1.487l1.783,1.492h-0.853l-1.278-1.063v1.063
		H17.374z"/>
	<path fill="#F7F5F5" d="M20.782,12.323v-0.424h0.853v0.424H20.782z M20.782,15.731v-2.979h0.853v2.979H20.782z"/>
	<path fill="#F7F5F5" d="M22.483,15.731v-3.833h0.853v3.833H22.483z"/>
	<path fill="#F7F5F5" d="M24.185,15.731v-3.833h0.853v3.833H24.185z"/>
	<path fill="#F7F5F5" d="M28.441,14.454h-1.702v0.424c0,0.116,0.042,0.216,0.125,0.302c0.083,0.085,0.183,0.127,0.299,0.127h0.429
		c0.283,0,0.424-0.143,0.424-0.429h0.424c-0.064,0.569-0.347,0.854-0.848,0.854h-0.854c-0.231,0-0.432-0.083-0.6-0.25
		c-0.169-0.167-0.253-0.368-0.253-0.603v-1.277c0-0.231,0.084-0.431,0.253-0.598c0.168-0.167,0.369-0.25,0.6-0.25h0.854
		c0.231,0,0.431,0.083,0.598,0.25c0.167,0.167,0.25,0.366,0.25,0.598V14.454z M26.739,14.03h0.854v-0.429
		c0-0.116-0.042-0.215-0.125-0.299c-0.083-0.083-0.185-0.125-0.304-0.125c-0.116,0-0.215,0.042-0.299,0.125
		s-0.125,0.183-0.125,0.299V14.03z"/>
	<path fill="#F7F5F5" d="M31.85,15.731h-0.848v-0.424c-0.034,0.283-0.177,0.424-0.429,0.424h-0.424c-0.231,0-0.432-0.083-0.6-0.25
		c-0.169-0.167-0.253-0.368-0.253-0.603v-1.277c0-0.231,0.084-0.431,0.253-0.598c0.168-0.167,0.369-0.25,0.6-0.25h0.854v-0.854
		h0.848V15.731z M31.001,13.176h-0.429c-0.116,0-0.215,0.042-0.299,0.125s-0.125,0.183-0.125,0.299v1.277
		c0,0.116,0.042,0.216,0.125,0.302c0.083,0.085,0.183,0.127,0.299,0.127c0.119,0,0.221-0.042,0.304-0.127
		c0.083-0.085,0.125-0.186,0.125-0.302V13.176z"/>
	<path fill="#F7F5F5" d="M34.41,16.156c0.021,0.286,0.162,0.429,0.424,0.429h0.424c0.119,0,0.221-0.042,0.304-0.125
		c0.083-0.083,0.125-0.185,0.125-0.304v-0.849c-0.034,0.283-0.177,0.424-0.429,0.424h-0.424c-0.231,0-0.432-0.083-0.6-0.25
		c-0.169-0.167-0.253-0.368-0.253-0.603v-2.125h0.853v2.125c0,0.116,0.042,0.216,0.125,0.302c0.083,0.085,0.183,0.127,0.299,0.127
		c0.119,0,0.221-0.042,0.304-0.127c0.083-0.085,0.125-0.186,0.125-0.302v-2.125h0.848v3.403c0,0.231-0.084,0.432-0.25,0.6
		c-0.167,0.169-0.367,0.253-0.598,0.253h-0.854c-0.5,0-0.785-0.284-0.853-0.853H34.41z"/>
	<path fill="#F7F5F5" d="M38.242,12.752h0.854c0.231,0,0.431,0.083,0.598,0.25c0.167,0.167,0.251,0.366,0.251,0.598v1.277
		c0,0.232-0.084,0.432-0.251,0.601s-0.366,0.253-0.598,0.253h-0.854c-0.231,0-0.432-0.083-0.601-0.25
		c-0.168-0.167-0.253-0.368-0.253-0.603v-1.277c0-0.231,0.085-0.431,0.253-0.598C37.811,12.836,38.011,12.752,38.242,12.752z
		 M38.242,13.601v1.277c0,0.116,0.042,0.216,0.125,0.302c0.084,0.085,0.184,0.127,0.299,0.127c0.12,0,0.221-0.042,0.305-0.127
		c0.083-0.085,0.125-0.186,0.125-0.302v-1.277c0-0.116-0.042-0.215-0.125-0.299c-0.084-0.083-0.185-0.125-0.305-0.125
		c-0.115,0-0.215,0.042-0.299,0.125C38.284,13.385,38.242,13.485,38.242,13.601z"/>
	<path fill="#F7F5F5" d="M43.353,12.752v2.979h-0.849v-0.424c-0.034,0.283-0.177,0.424-0.43,0.424H41.65
		c-0.231,0-0.432-0.083-0.601-0.25c-0.168-0.167-0.253-0.368-0.253-0.603v-2.125h0.854v2.125c0,0.116,0.042,0.216,0.125,0.302
		c0.084,0.085,0.184,0.127,0.299,0.127c0.12,0,0.221-0.042,0.305-0.127c0.083-0.085,0.125-0.186,0.125-0.302v-2.125H43.353z"/>
	<path fill="#F7F5F5" d="M45.059,15.731h-0.854v-2.979h0.854v0.848c0.034-0.283,0.122-0.495,0.264-0.636
		c0.141-0.141,0.338-0.212,0.59-0.212h0.424v0.848h-0.854c-0.115,0-0.215,0.042-0.299,0.125c-0.083,0.083-0.125,0.185-0.125,0.304
		V15.731z"/>
	<path fill="#F7F5F5" d="M48.467,15.731v-2.555h-0.43v-0.424h0.43v-0.041c0-0.221,0.08-0.412,0.24-0.572s0.351-0.24,0.572-0.24
		h0.889v0.424h-0.465c-0.105,0-0.196,0.038-0.273,0.115c-0.076,0.077-0.115,0.168-0.115,0.273v0.041h0.43v0.424h-0.43v2.555H48.467z
		"/>
	<path fill="#F7F5F5" d="M51.446,15.731h-0.854v-2.979h0.854v0.848c0.034-0.283,0.122-0.495,0.264-0.636
		c0.141-0.141,0.338-0.212,0.59-0.212h0.424v0.848H51.87c-0.115,0-0.215,0.042-0.299,0.125c-0.083,0.083-0.125,0.185-0.125,0.304
		V15.731z"/>
	<path fill="#F7F5F5" d="M53.147,12.323v-0.424h0.854v0.424H53.147z M53.147,15.731v-2.979h0.854v2.979H53.147z"/>
	<path fill="#F7F5F5" d="M57.404,14.454h-1.702v0.424c0,0.116,0.042,0.216,0.125,0.302c0.084,0.085,0.184,0.127,0.299,0.127h0.43
		c0.283,0,0.424-0.143,0.424-0.429h0.425c-0.065,0.569-0.348,0.854-0.849,0.854h-0.854c-0.231,0-0.432-0.083-0.601-0.25
		c-0.168-0.167-0.253-0.368-0.253-0.603v-1.277c0-0.231,0.085-0.431,0.253-0.598c0.169-0.167,0.369-0.25,0.601-0.25h0.854
		c0.231,0,0.431,0.083,0.598,0.25c0.167,0.167,0.251,0.366,0.251,0.598V14.454z M55.702,14.03h0.854v-0.429
		c0-0.116-0.042-0.215-0.125-0.299c-0.084-0.083-0.185-0.125-0.305-0.125c-0.115,0-0.215,0.042-0.299,0.125
		c-0.083,0.083-0.125,0.183-0.125,0.299V14.03z"/>
	<path fill="#F7F5F5" d="M58.257,15.731v-2.979h0.854v0.424c0.018-0.143,0.062-0.25,0.133-0.319s0.169-0.104,0.291-0.104h0.43
		c0.231,0,0.431,0.083,0.598,0.25c0.167,0.167,0.251,0.366,0.251,0.598v2.131h-0.849v-2.131c0-0.116-0.042-0.215-0.125-0.299
		c-0.084-0.083-0.185-0.125-0.305-0.125c-0.115,0-0.215,0.042-0.299,0.125c-0.083,0.083-0.125,0.183-0.125,0.299v2.131H58.257z"/>
	<path fill="#F7F5F5" d="M64.221,15.731h-0.849v-0.424c-0.034,0.283-0.177,0.424-0.43,0.424h-0.424c-0.231,0-0.432-0.083-0.601-0.25
		c-0.168-0.167-0.253-0.368-0.253-0.603v-1.277c0-0.231,0.085-0.431,0.253-0.598c0.169-0.167,0.369-0.25,0.601-0.25h0.854v-0.854
		h0.849V15.731z M63.372,13.176h-0.43c-0.115,0-0.215,0.042-0.299,0.125c-0.083,0.083-0.125,0.183-0.125,0.299v1.277
		c0,0.116,0.042,0.216,0.125,0.302c0.084,0.085,0.184,0.127,0.299,0.127c0.12,0,0.221-0.042,0.305-0.127
		c0.083-0.085,0.125-0.186,0.125-0.302V13.176z"/>
</g>
<g>
	<path fill="#F4F2F2" d="M16.145,18.658l-0.051,4.265c-0.003,0.29-0.111,0.54-0.324,0.749c-0.211,0.209-0.462,0.312-0.752,0.308
		l-1.069-0.013c-0.628-0.008-0.98-0.368-1.058-1.082l0.538,0.006c0.022,0.359,0.197,0.541,0.526,0.545l0.531,0.006
		c0.149,0.002,0.277-0.049,0.383-0.152c0.105-0.104,0.16-0.229,0.162-0.379l0.013-1.063c-0.047,0.354-0.228,0.529-0.544,0.525
		l-0.531-0.007c-0.291-0.003-0.541-0.11-0.749-0.322s-0.312-0.465-0.309-0.76l0.02-1.602c0.003-0.289,0.113-0.538,0.326-0.745
		c0.214-0.206,0.466-0.308,0.757-0.304L16.145,18.658z M15.075,19.176l-0.538-0.006c-0.146-0.002-0.271,0.049-0.377,0.152
		c-0.105,0.104-0.159,0.229-0.161,0.373l-0.02,1.601c-0.001,0.146,0.049,0.272,0.152,0.38c0.103,0.108,0.228,0.163,0.373,0.164
		c0.149,0.002,0.277-0.05,0.383-0.155c0.106-0.104,0.16-0.229,0.162-0.375L15.075,19.176z"/>
	<path fill="#F4F2F2" d="M18.239,22.417l-1.07-0.013l0.045-3.733l1.07,0.013l-0.013,1.062c0.046-0.354,0.16-0.617,0.339-0.793
		c0.18-0.175,0.427-0.26,0.743-0.256l0.531,0.006l-0.013,1.062l-1.069-0.013c-0.146-0.001-0.271,0.05-0.377,0.152
		c-0.105,0.104-0.159,0.23-0.161,0.38L18.239,22.417z"/>
	<path fill="#F4F2F2" d="M23.593,20.881l-2.132-0.025l-0.007,0.531c-0.001,0.146,0.049,0.271,0.152,0.379
		c0.103,0.108,0.228,0.163,0.372,0.165l0.538,0.006c0.354,0.005,0.534-0.173,0.538-0.531l0.532,0.007
		c-0.089,0.712-0.448,1.064-1.076,1.057l-1.068-0.013c-0.291-0.004-0.541-0.111-0.749-0.323s-0.312-0.465-0.309-0.76l0.02-1.601
		c0.003-0.29,0.113-0.539,0.326-0.745c0.214-0.207,0.466-0.309,0.757-0.305l1.068,0.013c0.29,0.003,0.539,0.11,0.745,0.322
		c0.208,0.212,0.309,0.464,0.306,0.753L23.593,20.881z M21.467,20.323l1.068,0.013l0.006-0.537c0.002-0.146-0.049-0.271-0.153-0.377
		c-0.103-0.105-0.229-0.16-0.379-0.162c-0.145-0.002-0.27,0.05-0.376,0.152c-0.105,0.104-0.159,0.229-0.161,0.373L21.467,20.323z"/>
	<path fill="#F4F2F2" d="M26.807,20.388l0.006-0.538c0.002-0.145-0.049-0.271-0.153-0.377c-0.103-0.105-0.229-0.16-0.379-0.161
		l-0.531-0.007c-0.316-0.004-0.495,0.172-0.539,0.525l-0.538-0.006c0.094-0.708,0.455-1.059,1.083-1.051l1.069,0.014
		c0.29,0.003,0.539,0.11,0.745,0.322c0.208,0.212,0.309,0.463,0.306,0.753l-0.032,2.671l-1.063-0.013l0.006-0.532
		c-0.047,0.354-0.228,0.529-0.544,0.525l-0.531-0.007c-0.291-0.003-0.541-0.11-0.749-0.322s-0.312-0.465-0.309-0.76
		c0.004-0.29,0.113-0.539,0.327-0.745c0.213-0.207,0.466-0.309,0.757-0.305L26.807,20.388z M26.801,20.92l-0.538-0.007
		c-0.146-0.002-0.271,0.049-0.377,0.152c-0.106,0.103-0.159,0.228-0.161,0.372c-0.001,0.146,0.049,0.272,0.152,0.38
		c0.103,0.108,0.228,0.163,0.373,0.164c0.149,0.002,0.277-0.05,0.383-0.155c0.106-0.104,0.16-0.229,0.162-0.375L26.801,20.92z"/>
	<path fill="#F4F2F2" d="M29.51,17.749l1.063,0.013l-0.013,1.07l0.538,0.006l-0.006,0.531l-0.538-0.006l-0.026,2.133
		c-0.002,0.175,0.054,0.309,0.168,0.401c0.114,0.094,0.218,0.141,0.312,0.142l0.052,0.001l-0.006,0.531l-0.538-0.006
		c-0.29-0.004-0.539-0.111-0.745-0.323c-0.208-0.212-0.309-0.465-0.306-0.76l0.026-2.133l-0.538-0.006l0.006-0.531l0.538,0.006
		L29.51,17.749z"/>
	<path fill="#F4F2F2" d="M33.763,18.87l1.07,0.013l-0.039,3.202l0.531,0.006c0.148,0.002,0.276-0.05,0.382-0.155
		c0.106-0.104,0.16-0.229,0.162-0.375l0.032-2.664l1.063,0.012l-0.039,3.202l0.538,0.007c0.145,0.002,0.271-0.05,0.376-0.156
		c0.106-0.104,0.16-0.229,0.162-0.375l0.032-2.664l1.069,0.013l-0.023,1.909c-0.006,0.499-0.188,0.926-0.55,1.279
		c-0.36,0.355-0.793,0.529-1.297,0.523l-1.377-0.017l0.002-0.167c-0.207,0.108-0.458,0.161-0.757,0.157l-1.384-0.017L33.763,18.87z"
		/>
	<path fill="#F4F2F2" d="M41.237,18.961l1.069,0.012c0.29,0.004,0.539,0.111,0.745,0.323c0.208,0.212,0.31,0.463,0.306,0.753
		l-0.02,1.602c-0.003,0.29-0.11,0.539-0.323,0.748c-0.212,0.209-0.463,0.312-0.753,0.309l-1.069-0.014
		c-0.291-0.003-0.541-0.11-0.749-0.322c-0.209-0.212-0.312-0.465-0.309-0.76l0.02-1.601c0.004-0.29,0.113-0.539,0.326-0.746
		C40.694,19.059,40.946,18.957,41.237,18.961z M41.225,20.023l-0.02,1.601c-0.002,0.146,0.049,0.272,0.152,0.38
		c0.103,0.108,0.228,0.163,0.373,0.164c0.149,0.002,0.276-0.05,0.383-0.155c0.105-0.104,0.159-0.229,0.161-0.375l0.02-1.602
		c0.002-0.146-0.05-0.271-0.152-0.376c-0.104-0.105-0.229-0.16-0.379-0.162c-0.146-0.002-0.271,0.049-0.377,0.152
		C41.279,19.754,41.227,19.879,41.225,20.023z"/>
	<path fill="#F4F2F2" d="M45.464,22.745l-1.07-0.013l0.045-3.733l1.07,0.013l-0.013,1.063c0.046-0.354,0.16-0.618,0.339-0.794
		c0.18-0.175,0.427-0.26,0.743-0.256l0.531,0.006l-0.013,1.062l-1.069-0.013c-0.146-0.002-0.271,0.049-0.377,0.152
		s-0.159,0.23-0.161,0.38L45.464,22.745z"/>
	<path fill="#F4F2F2" d="M47.597,22.771l0.058-4.803l1.07,0.013l-0.028,2.402l1.615-1.312l1.07,0.012l-2.258,1.838l2.213,1.896
		l-1.07-0.014l-1.584-1.351l-0.016,1.332L47.597,22.771z"/>
</g>
<g>
	<path fill="#F4F2F2" d="M56.593,17.744c0.224,0.312,0.152,0.741-0.162,0.96c-0.312,0.222-0.749,0.151-0.974-0.161
		c-0.224-0.311-0.151-0.741,0.163-0.962C55.934,17.361,56.369,17.434,56.593,17.744z"/>
	<path fill="#F4F2F2" d="M57.564,16.912c0.245,0.294,0.202,0.728-0.097,0.97c-0.297,0.242-0.737,0.198-0.983-0.096
		c-0.243-0.295-0.202-0.729,0.097-0.971C56.879,16.574,57.318,16.617,57.564,16.912z"/>
	<path fill="#F4F2F2" d="M60.771,22.122c0.131,0.158,0.069,0.422-0.139,0.589l0,0c-0.207,0.172-0.481,0.18-0.613,0.021l-3.718-4.466
		c-0.131-0.158-0.069-0.422,0.137-0.589l0,0c0.209-0.171,0.483-0.178,0.614-0.019L60.771,22.122z"/>
	<path fill="#F4F2F2" d="M60.54,22.63c0.226,0.312,0.152,0.742-0.162,0.96c-0.312,0.223-0.749,0.15-0.973-0.161
		c-0.225-0.311-0.152-0.741,0.163-0.963C59.88,22.248,60.316,22.319,60.54,22.63z"/>
	<path fill="#F4F2F2" d="M61.512,21.796c0.244,0.297,0.202,0.73-0.094,0.972c-0.3,0.242-0.739,0.198-0.983-0.097
		c-0.246-0.294-0.204-0.728,0.095-0.97C60.826,21.459,61.267,21.502,61.512,21.796z"/>
</g>
<g>
	<path fill="#F4F2F2" d="M60.905,17.817c-0.284,0.271-0.262,0.683,0.048,0.921s0.79,0.212,1.075-0.059
		c0.282-0.271,0.263-0.684-0.049-0.921C61.669,17.52,61.188,17.547,60.905,17.817z"/>
	<path fill="#F4F2F2" d="M59.966,16.94c-0.305,0.254-0.317,0.667-0.027,0.923c0.29,0.254,0.771,0.257,1.077,0.004
		c0.304-0.254,0.316-0.667,0.025-0.923C60.748,16.688,60.267,16.686,59.966,16.94z"/>
	<path fill="#F4F2F2" d="M55.808,21.54c-0.162,0.137-0.132,0.391,0.071,0.569l0,0c0.203,0.182,0.498,0.215,0.66,0.078l4.613-3.851
		c0.163-0.134,0.13-0.391-0.072-0.568l0,0c-0.201-0.18-0.499-0.213-0.66-0.077L55.808,21.54z"/>
	<path fill="#F4F2F2" d="M55.988,22.042c-0.284,0.27-0.263,0.684,0.049,0.922c0.31,0.236,0.791,0.211,1.075-0.059
		c0.282-0.273,0.261-0.686-0.049-0.923C56.752,21.744,56.271,21.769,55.988,22.042z"/>
	<path fill="#F4F2F2" d="M55.049,21.163c-0.306,0.256-0.315,0.669-0.025,0.924c0.288,0.257,0.771,0.258,1.075,0.005
		c0.305-0.256,0.315-0.668,0.024-0.924C55.833,20.912,55.352,20.909,55.049,21.163z"/>
</g>
</svg>
