<?xml version="1.0" encoding="utf-8"?>
<!-- Generator: Adobe Illustrator 16.0.3, SVG Export Plug-In . SVG Version: 6.00 Build 0)  -->
<!DOCTYPE svg PUBLIC "-//W3C//DTD SVG 1.1//EN" "http://www.w3.org/Graphics/SVG/1.1/DTD/svg11.dtd" [
	<!ENTITY ns_flows "http://ns.adobe.com/Flows/1.0/">
	<!ENTITY ns_extend "http://ns.adobe.com/Extensibility/1.0/">
	<!ENTITY ns_ai "http://ns.adobe.com/AdobeIllustrator/10.0/">
	<!ENTITY ns_graphs "http://ns.adobe.com/Graphs/1.0/">
]>
<svg version="1.1" id="Layer_1" xmlns:x="&ns_extend;" xmlns:i="&ns_ai;" xmlns:graph="&ns_graphs;"
	 xmlns="http://www.w3.org/2000/svg" xmlns:xlink="http://www.w3.org/1999/xlink" xmlns:a="http://ns.adobe.com/AdobeSVGViewerExtensions/3.0/"
	 x="0px" y="0px" width="72px" height="36px" viewBox="0 0 72 36" enable-background="new 0 0 72 36" xml:space="preserve">
<rect x="1.75" y="9.458" fill="#1C0F0B" stroke="#515250" stroke-width="0.6442" stroke-miterlimit="10" width="65.195" height="16.205"/>
<rect x="67.165" y="12.364" fill="#1C0F0B" stroke="#515250" stroke-width="0.6442" stroke-miterlimit="10" width="2.919" height="11.054"/>
<g>
	<path fill="#F7EDF0" d="M7.395,16.042v-1.468l-1.094-1.992h0.508l0.488,0.955c0.134,0.262,0.236,0.473,0.344,0.714h0.011
		C7.749,14.023,7.867,13.798,8,13.536l0.498-0.955h0.508l-1.16,1.987v1.474H7.395z"/>
	<path fill="#F7EDF0" d="M12.176,14.275c0,1.191-0.724,1.823-1.607,1.823c-0.914,0-1.556-0.709-1.556-1.756
		c0-1.099,0.683-1.818,1.607-1.818C11.565,12.524,12.176,13.249,12.176,14.275z M9.49,14.332c0,0.74,0.4,1.402,1.104,1.402
		c0.709,0,1.109-0.652,1.109-1.438c0-0.688-0.359-1.407-1.104-1.407C9.86,12.889,9.49,13.572,9.49,14.332z"/>
	<path fill="#F7EDF0" d="M13.205,12.581v2.049c0,0.775,0.344,1.104,0.806,1.104c0.514,0,0.842-0.338,0.842-1.104v-2.049h0.452v2.018
		c0,1.062-0.56,1.5-1.309,1.5c-0.709,0-1.243-0.406-1.243-1.479v-2.039H13.205z"/>
	<path fill="#F7EDF0" d="M17.171,12.581h0.447v1.669h0.016c0.092-0.134,0.185-0.257,0.272-0.37l1.058-1.299h0.555l-1.253,1.468
		l1.35,1.992h-0.529l-1.14-1.699l-0.329,0.38v1.319h-0.447V12.581z"/>
	<path fill="#F7EDF0" d="M20.402,12.581v3.46h-0.447v-3.46H20.402z"/>
	<path fill="#F7EDF0" d="M21.183,12.581h0.447v3.085h1.479v0.375h-1.926V12.581z"/>
	<path fill="#F7EDF0" d="M23.607,12.581h0.447v3.085h1.479v0.375h-1.926V12.581z"/>
	<path fill="#F7EDF0" d="M27.825,14.419h-1.346v1.248h1.5v0.375h-1.946v-3.46h1.869v0.375h-1.422v1.093h1.346V14.419z"/>
	<path fill="#F7EDF0" d="M28.56,12.627c0.272-0.041,0.596-0.072,0.95-0.072c0.642,0,1.099,0.149,1.402,0.432
		c0.308,0.282,0.487,0.683,0.487,1.243c0,0.564-0.175,1.027-0.498,1.345c-0.324,0.324-0.857,0.499-1.53,0.499
		c-0.318,0-0.585-0.016-0.811-0.041V12.627z M29.007,15.688c0.113,0.021,0.277,0.025,0.452,0.025c0.955,0,1.473-0.534,1.473-1.468
		c0.005-0.816-0.457-1.335-1.401-1.335c-0.231,0-0.406,0.021-0.524,0.046V15.688z"/>
	<path fill="#F7EDF0" d="M33.604,16.042v-1.468l-1.094-1.992h0.508l0.488,0.955c0.134,0.262,0.236,0.473,0.344,0.714h0.01
		c0.097-0.227,0.215-0.452,0.349-0.714l0.498-0.955h0.509l-1.161,1.987v1.474H33.604z"/>
	<path fill="#F7EDF0" d="M38.386,14.275c0,1.191-0.724,1.823-1.606,1.823c-0.914,0-1.556-0.709-1.556-1.756
		c0-1.099,0.683-1.818,1.607-1.818C37.775,12.524,38.386,13.249,38.386,14.275z M35.701,14.332c0,0.74,0.4,1.402,1.104,1.402
		c0.709,0,1.11-0.652,1.11-1.438c0-0.688-0.359-1.407-1.104-1.407C36.07,12.889,35.701,13.572,35.701,14.332z"/>
	<path fill="#F7EDF0" d="M39.415,12.581v2.049c0,0.775,0.344,1.104,0.806,1.104c0.514,0,0.843-0.338,0.843-1.104v-2.049h0.451v2.018
		c0,1.062-0.56,1.5-1.309,1.5c-0.709,0-1.242-0.406-1.242-1.479v-2.039H39.415z"/>
	<path fill="#F7EDF0" d="M42.292,12.627c0.226-0.046,0.55-0.072,0.857-0.072c0.478,0,0.786,0.087,1.001,0.282
		c0.175,0.154,0.272,0.391,0.272,0.657c0,0.458-0.288,0.76-0.652,0.883v0.016c0.268,0.092,0.427,0.339,0.508,0.698
		c0.113,0.482,0.195,0.816,0.268,0.95h-0.462c-0.057-0.097-0.134-0.396-0.231-0.826c-0.103-0.478-0.287-0.657-0.693-0.673h-0.421
		v1.499h-0.446V12.627z M42.738,14.204h0.457c0.479,0,0.781-0.262,0.781-0.657c0-0.447-0.324-0.642-0.797-0.647
		c-0.216,0-0.369,0.021-0.441,0.041V14.204z"/>
	<path fill="#F7EDF0" d="M46.146,12.581h1.863v0.375h-1.417v1.15h1.31v0.37h-1.31v1.566h-0.446V12.581z"/>
	<path fill="#F7EDF0" d="M48.646,12.627c0.227-0.046,0.55-0.072,0.857-0.072c0.478,0,0.786,0.087,1.002,0.282
		c0.174,0.154,0.271,0.391,0.271,0.657c0,0.458-0.288,0.76-0.652,0.883v0.016c0.268,0.092,0.427,0.339,0.509,0.698
		c0.112,0.482,0.194,0.816,0.267,0.95h-0.462c-0.057-0.097-0.134-0.396-0.231-0.826c-0.102-0.478-0.287-0.657-0.693-0.673h-0.42
		v1.499h-0.447V12.627z M49.094,14.204h0.456c0.479,0,0.781-0.262,0.781-0.657c0-0.447-0.324-0.642-0.796-0.647
		c-0.216,0-0.37,0.021-0.441,0.041V14.204z"/>
	<path fill="#F7EDF0" d="M51.856,12.581v3.46H51.41v-3.46H51.856z"/>
	<path fill="#F7EDF0" d="M54.431,14.419h-1.346v1.248h1.499v0.375h-1.945v-3.46h1.869v0.375h-1.423v1.093h1.346V14.419z"/>
	<path fill="#F7EDF0" d="M55.166,16.042v-3.46h0.487l1.109,1.75c0.257,0.406,0.457,0.771,0.621,1.125l0.011-0.005
		c-0.041-0.462-0.052-0.883-0.052-1.422v-1.448h0.422v3.46h-0.453l-1.099-1.756c-0.24-0.385-0.472-0.78-0.646-1.155l-0.016,0.005
		c0.026,0.437,0.036,0.853,0.036,1.427v1.479H55.166z"/>
	<path fill="#F7EDF0" d="M58.546,12.627c0.271-0.041,0.596-0.072,0.95-0.072c0.642,0,1.099,0.149,1.401,0.432
		c0.309,0.282,0.487,0.683,0.487,1.243c0,0.564-0.174,1.027-0.497,1.345c-0.324,0.324-0.858,0.499-1.53,0.499
		c-0.319,0-0.586-0.016-0.812-0.041V12.627z M58.992,15.688c0.113,0.021,0.278,0.025,0.452,0.025c0.955,0,1.474-0.534,1.474-1.468
		c0.005-0.816-0.457-1.335-1.402-1.335c-0.23,0-0.405,0.021-0.523,0.046V15.688z"/>
</g>
<g>
	<path fill="#F7F0F2" d="M24.913,22.692c-0.159,0.057-0.474,0.15-0.847,0.15c-0.417,0-0.76-0.105-1.029-0.363
		c-0.237-0.229-0.384-0.597-0.384-1.026c0.004-0.821,0.568-1.423,1.492-1.423c0.319,0,0.569,0.07,0.687,0.127l-0.086,0.291
		c-0.147-0.066-0.331-0.119-0.609-0.119c-0.67,0-1.108,0.418-1.108,1.108c0,0.698,0.421,1.112,1.063,1.112
		c0.233,0,0.392-0.033,0.474-0.074v-0.821h-0.56v-0.287h0.907V22.692z"/>
	<path fill="#F7F0F2" d="M25.457,20.097c0.181-0.037,0.438-0.057,0.683-0.057c0.38,0,0.625,0.068,0.797,0.225
		c0.14,0.121,0.217,0.311,0.217,0.523c0,0.362-0.229,0.604-0.519,0.702v0.012c0.213,0.074,0.339,0.271,0.405,0.556
		c0.09,0.385,0.155,0.65,0.213,0.758h-0.368c-0.046-0.078-0.106-0.316-0.185-0.66c-0.082-0.378-0.229-0.522-0.551-0.534h-0.335
		v1.194h-0.356V20.097z M25.813,21.352h0.364c0.38,0,0.622-0.209,0.622-0.522c0-0.357-0.258-0.512-0.634-0.516
		c-0.172,0-0.293,0.016-0.351,0.033V21.352z"/>
	<path fill="#F7F0F2" d="M29.084,21.523h-1.071v0.993h1.194v0.299h-1.549V20.06h1.488v0.299h-1.133v0.87h1.071V21.523z"/>
	<path fill="#F7F0F2" d="M30.116,21.948l-0.287,0.867h-0.368l0.936-2.756h0.431l0.939,2.756h-0.379l-0.295-0.867H30.116z
		 M31.018,21.67l-0.269-0.792c-0.062-0.18-0.103-0.344-0.144-0.504h-0.008c-0.041,0.164-0.086,0.332-0.139,0.5l-0.27,0.796H31.018z"
		/>
	<path fill="#F7F0F2" d="M32.381,20.362h-0.838V20.06h2.04v0.303h-0.842v2.453h-0.36V20.362z"/>
	<path fill="#F7F0F2" d="M35.06,22.815L34.36,20.06h0.377l0.327,1.394c0.08,0.344,0.154,0.687,0.203,0.952h0.008
		c0.046-0.273,0.132-0.601,0.226-0.956l0.368-1.39h0.371l0.336,1.397c0.077,0.328,0.151,0.655,0.192,0.944h0.008
		c0.058-0.303,0.135-0.608,0.221-0.952l0.363-1.39h0.364l-0.78,2.756h-0.372l-0.349-1.435c-0.085-0.352-0.142-0.622-0.179-0.899
		h-0.008c-0.05,0.273-0.11,0.542-0.213,0.899l-0.393,1.435H35.06z"/>
	<path fill="#F7F0F2" d="M40.424,21.408c0,0.948-0.575,1.452-1.279,1.452c-0.728,0-1.238-0.564-1.238-1.399
		c0-0.874,0.544-1.446,1.279-1.446C39.938,20.015,40.424,20.591,40.424,21.408z M38.286,21.453c0,0.589,0.319,1.116,0.879,1.116
		c0.564,0,0.884-0.52,0.884-1.144c0-0.548-0.286-1.12-0.88-1.12C38.581,20.306,38.286,20.849,38.286,21.453z"/>
	<path fill="#F7F0F2" d="M40.888,20.097c0.181-0.037,0.437-0.057,0.683-0.057c0.38,0,0.625,0.068,0.797,0.225
		c0.139,0.121,0.217,0.311,0.217,0.523c0,0.362-0.229,0.604-0.519,0.702v0.012c0.212,0.074,0.339,0.271,0.403,0.556
		c0.09,0.385,0.156,0.65,0.213,0.758h-0.368c-0.045-0.078-0.106-0.316-0.183-0.66c-0.082-0.378-0.229-0.522-0.553-0.534h-0.335
		v1.194h-0.355V20.097z M41.243,21.352h0.364c0.38,0,0.62-0.209,0.62-0.522c0-0.357-0.257-0.512-0.633-0.516
		c-0.172,0-0.295,0.016-0.352,0.033V21.352z"/>
	<path fill="#F7F0F2" d="M43.088,20.06h0.355v1.329h0.013c0.073-0.107,0.146-0.205,0.217-0.295l0.841-1.034h0.441l-0.995,1.169
		l1.073,1.587h-0.422l-0.906-1.354l-0.262,0.303v1.052h-0.355V20.06z"/>
</g>
</svg>
