<?xml version="1.0" encoding="utf-8"?>
<!-- Generator: Adobe Illustrator 16.0.3, SVG Export Plug-In . SVG Version: 6.00 Build 0)  -->
<!DOCTYPE svg PUBLIC "-//W3C//DTD SVG 1.1//EN" "http://www.w3.org/Graphics/SVG/1.1/DTD/svg11.dtd" [
	<!ENTITY ns_flows "http://ns.adobe.com/Flows/1.0/">
	<!ENTITY ns_extend "http://ns.adobe.com/Extensibility/1.0/">
	<!ENTITY ns_ai "http://ns.adobe.com/AdobeIllustrator/10.0/">
	<!ENTITY ns_graphs "http://ns.adobe.com/Graphs/1.0/">
]>
<svg version="1.1" id="Layer_1" xmlns:x="&ns_extend;" xmlns:i="&ns_ai;" xmlns:graph="&ns_graphs;"
	 xmlns="http://www.w3.org/2000/svg" xmlns:xlink="http://www.w3.org/1999/xlink" xmlns:a="http://ns.adobe.com/AdobeSVGViewerExtensions/3.0/"
	 x="0px" y="0px" width="144px" height="144px" viewBox="0 0 144 144" enable-background="new 0 0 144 144" xml:space="preserve">
<path fill="#CB9A3A" d="M76.284,135.38c0,3.362-2.727,6.089-6.09,6.089l0,0c-3.364,0-6.09-2.727-6.09-6.089V88.419
	c0-3.363,2.727-6.091,6.09-6.091l0,0c3.364,0,6.09,2.728,6.09,6.091V135.38z"/>
<path fill="#AD842D" d="M69.33,132.883c0,3.362-1.008,7.64-2.452,7.64l-1.068-0.715c0.021,0.022-2.141-2.094-1.707-6.925v-46.96
	c0-3.364,1.17-6.091,2.613-6.091l0,0c1.443,0,2.614,2.727,2.614,6.091V132.883z"/>
<path fill="#8B57A3" d="M91.127,37.281c-3.905,0-7.267-2.705-8.844-6.61c-0.084,0.002-0.165,0.013-0.249,0.013
	c-6.894,0-12.481-5.588-12.481-12.482c0-1.545,0.294-3.018,0.807-4.384c-2.235-1.799-3.66-4.519-3.66-7.563
	c0-0.918,0.139-1.804,0.382-2.647C50.691,6.136,45.81,18.133,45.385,24.901v68.598c0,7.09,5.748,12.838,12.838,12.838h23.579
	c7.09,0,12.838-5.748,12.838-12.838V36.502C93.549,36.998,92.367,37.281,91.127,37.281z"/>
<path fill="#8B57A3" d="M75.438,66.167c0,0.591-0.479,1.07-1.07,1.07l0,0c-0.59,0-1.069-0.479-1.069-1.07v-9.45
	c0-0.591,0.479-1.07,1.069-1.07l0,0c0.592,0,1.07,0.479,1.07,1.07V66.167z"/>
<path fill="#8B57A3" d="M75.438,66.167c0,0.591-0.479,1.07-1.07,1.07l0,0c-0.59,0-1.069-0.479-1.069-1.07v-9.45
	c0-0.591,0.479-1.07,1.069-1.07l0,0c0.592,0,1.07,0.479,1.07,1.07V66.167z"/>
<path fill="#8B57A3" d="M75.438,66.167c0,0.591-0.479,1.07-1.07,1.07l0,0c-0.59,0-1.069-0.479-1.069-1.07v-9.45
	c0-0.591,0.479-1.07,1.069-1.07l0,0c0.592,0,1.07,0.479,1.07,1.07V66.167z"/>
<path fill="#8B57A3" d="M75.438,66.167c0,0.591-0.479,1.07-1.07,1.07l0,0c-0.59,0-1.069-0.479-1.069-1.07v-9.45
	c0-0.591,0.479-1.07,1.069-1.07l0,0c0.592,0,1.07,0.479,1.07,1.07V66.167z"/>
<path fill="#8B57A3" d="M75.438,66.167c0,0.591-0.479,1.07-1.07,1.07l0,0c-0.59,0-1.069-0.479-1.069-1.07v-9.45
	c0-0.591,0.479-1.07,1.069-1.07l0,0c0.592,0,1.07,0.479,1.07,1.07V66.167z"/>
<path fill="#8B57A3" d="M75.438,66.167c0,0.591-0.479,1.07-1.07,1.07l0,0c-0.59,0-1.069-0.479-1.069-1.07v-9.45
	c0-0.591,0.479-1.07,1.069-1.07l0,0c0.592,0,1.07,0.479,1.07,1.07V66.167z"/>
<path fill="#8B57A3" d="M75.438,66.167c0,0.591-0.479,1.07-1.07,1.07l0,0c-0.59,0-1.069-0.479-1.069-1.07v-9.45
	c0-0.591,0.479-1.07,1.069-1.07l0,0c0.592,0,1.07,0.479,1.07,1.07V66.167z"/>
<path fill="#8B57A3" d="M75.438,66.167c0,0.591-0.479,1.07-1.07,1.07l0,0c-0.59,0-1.069-0.479-1.069-1.07v-9.45
	c0-0.591,0.479-1.07,1.069-1.07l0,0c0.592,0,1.07,0.479,1.07,1.07V66.167z"/>
<path fill="#8B57A3" d="M75.438,66.167c0,0.591-0.479,1.07-1.07,1.07l0,0c-0.59,0-1.069-0.479-1.069-1.07v-9.45
	c0-0.591,0.479-1.07,1.069-1.07l0,0c0.592,0,1.07,0.479,1.07,1.07V66.167z"/>
<path fill="#8B57A3" d="M75.438,66.167c0,0.591-0.479,1.07-1.07,1.07l0,0c-0.59,0-1.069-0.479-1.069-1.07v-9.45
	c0-0.591,0.479-1.07,1.069-1.07l0,0c0.592,0,1.07,0.479,1.07,1.07V66.167z"/>
<path fill="#E572AC" d="M77.553,63.442c0.252,0.3,0.09,0.852-0.363,1.231l0,0c-0.451,0.38-1.023,0.445-1.275,0.146l-4.033-4.798
	c-0.252-0.3-0.089-0.852,0.363-1.231l0,0c0.452-0.38,1.023-0.445,1.275-0.146l1.902,2.263L77.553,63.442z"/>
<path fill="#F4EC50" d="M84.104,101.363c-0.191,0.342-0.765,0.385-1.281,0.095l0,0c-0.515-0.288-0.777-0.8-0.586-1.141l3.064-5.469
	c0.191-0.342,0.765-0.384,1.28-0.096l0,0c0.515,0.288,0.778,0.801,0.586,1.141l-1.444,2.58L84.104,101.363z"/>
<path fill="#F4EC50" d="M87.902,45.59c0.251,0.3,0.089,0.852-0.363,1.232l0,0c-0.452,0.38-1.024,0.445-1.275,0.145l-4.033-4.798
	c-0.252-0.301-0.089-0.852,0.362-1.232l0,0c0.452-0.38,1.023-0.445,1.275-0.146l1.902,2.263L87.902,45.59z"/>
<path fill="#F4EC50" d="M68.367,89.002c-0.268,0.285-0.835,0.19-1.267-0.213l0,0c-0.431-0.403-0.564-0.963-0.297-1.249l4.278-4.58
	c0.268-0.286,0.834-0.19,1.267,0.213l0,0c0.432,0.402,0.565,0.961,0.297,1.247l-2.018,2.161L68.367,89.002z"/>
<path fill="#E572AC" d="M62.04,12.446c0.252,0.3,0.089,0.851-0.363,1.231l0,0c-0.452,0.38-1.023,0.445-1.275,0.146l-4.033-4.798
	c-0.252-0.3-0.089-0.852,0.363-1.231l0,0c0.452-0.38,1.023-0.445,1.275-0.146l1.902,2.263L62.04,12.446z"/>
<path fill="#E572AC" d="M88.75,77.232c-0.198,0.338-0.771,0.372-1.282,0.075l0,0c-0.51-0.297-0.765-0.813-0.567-1.151l3.152-5.418
	c0.198-0.338,0.771-0.372,1.282-0.074l0,0c0.51,0.297,0.764,0.812,0.566,1.15l-1.485,2.555L88.75,77.232z"/>
<path fill="#89D3DF" d="M80.394,93.438c-0.026,0.39-0.526,0.675-1.116,0.636l0,0c-0.588-0.04-1.046-0.391-1.019-0.779l0.423-6.256
	c0.027-0.391,0.526-0.675,1.115-0.635l0,0c0.589,0.04,1.047,0.39,1.02,0.78l-0.198,2.949L80.394,93.438z"/>
<path fill="#89D3DF" d="M77.186,45.474c-0.027,0.39-0.527,0.675-1.117,0.635l0,0c-0.588-0.04-1.046-0.391-1.019-0.779l0.423-6.255
	c0.026-0.391,0.526-0.675,1.115-0.635l0,0c0.59,0.04,1.047,0.39,1.02,0.78l-0.198,2.95L77.186,45.474z"/>
<path fill="#89D3DF" d="M89.131,62.057c-0.027,0.39-0.526,0.675-1.116,0.635l0,0c-0.589-0.04-1.047-0.391-1.019-0.779l0.423-6.255
	c0.026-0.391,0.527-0.675,1.115-0.635l0,0c0.59,0.04,1.047,0.39,1.02,0.78l-0.198,2.95L89.131,62.057z"/>
<path fill="#89D3DF" d="M69.339,77.214c-0.027,0.388-0.527,0.675-1.116,0.635l0,0c-0.589-0.04-1.047-0.391-1.019-0.779l0.422-6.256
	c0.027-0.391,0.527-0.675,1.116-0.635l0,0c0.589,0.04,1.047,0.391,1.02,0.782l-0.198,2.949L69.339,77.214z"/>
<path opacity="0.8" fill="#6B507A" d="M52.704,10.268c-6.775,5.974-7.172,12.046-7.311,18.188l0.259,61.954
	c-0.795,6.516,1.612,14.63,11.954,15.788l6.508,0.089c2.316,0,0.982-9.882,0.982-16.315l0.535-86.122
	C65.274,4.299,58.597,5.073,52.704,10.268z"/>
<path fill="#F4EC50" d="M52.946,38.835c0.252,0.3,0.089,0.852-0.363,1.232l0,0c-0.452,0.38-1.023,0.445-1.275,0.145l-4.033-4.798
	c-0.252-0.3-0.089-0.851,0.363-1.231l0,0c0.452-0.38,1.023-0.445,1.275-0.146l1.902,2.263L52.946,38.835z"/>
<path fill="#F4EC50" d="M60.711,80.356c-0.117,0.371-0.67,0.53-1.234,0.352l0,0c-0.563-0.179-0.924-0.626-0.807-0.999l1.894-5.976
	c0.118-0.373,0.671-0.53,1.235-0.354l0,0c0.563,0.179,0.923,0.626,0.805,1l-0.893,2.817L60.711,80.356z"/>
<path fill="#E572AC" d="M52.731,69.208c-0.197,0.338-0.771,0.372-1.282,0.075l0,0c-0.51-0.297-0.765-0.813-0.567-1.151l3.153-5.417
	c0.197-0.339,0.771-0.372,1.282-0.075l0,0c0.51,0.296,0.764,0.812,0.567,1.15l-1.487,2.555L52.731,69.208z"/>
<path fill="#E572AC" d="M59.722,99.104c0.252,0.299,0.089,0.851-0.363,1.23l0,0c-0.452,0.381-1.023,0.445-1.275,0.146l-4.033-4.799
	c-0.252-0.3-0.089-0.852,0.363-1.231l0,0c0.452-0.381,1.023-0.445,1.275-0.146l1.902,2.263L59.722,99.104z"/>
<path fill="#E572AC" d="M57.724,53.161c-0.197,0.338-0.771,0.372-1.282,0.075l0,0c-0.511-0.297-0.765-0.813-0.567-1.151l3.152-5.417
	c0.198-0.338,0.771-0.372,1.282-0.075l0,0c0.51,0.297,0.764,0.812,0.567,1.151l-1.486,2.555L57.724,53.161z"/>
<path fill="#89D3DF" d="M52.221,56.351c-0.027,0.39-0.526,0.675-1.116,0.635l0,0c-0.589-0.04-1.047-0.391-1.019-0.78l0.422-6.255
	c0.027-0.391,0.528-0.675,1.116-0.635l0,0c0.589,0.04,1.047,0.39,1.02,0.781l-0.199,2.949L52.221,56.351z"/>
<path fill="#89D3DF" d="M57.036,29.249c-0.027,0.389-0.527,0.675-1.116,0.635l0,0c-0.589-0.04-1.047-0.391-1.019-0.779l0.422-6.256
	c0.027-0.391,0.527-0.675,1.116-0.635l0,0c0.589,0.04,1.047,0.391,1.02,0.781l-0.198,2.948L57.036,29.249z"/>
<path fill="#F4EC50" d="M62.304,18.927c-0.268,0.286-0.834,0.191-1.267-0.212l0,0c-0.432-0.403-0.565-0.962-0.297-1.249l4.278-4.581
	c0.268-0.286,0.835-0.19,1.267,0.213l0,0c0.431,0.403,0.564,0.961,0.297,1.249l-2.018,2.16L62.304,18.927z"/>
<path fill="#E572AC" d="M69.173,39.014c0.251,0.3,0.089,0.852-0.363,1.231l0,0c-0.452,0.38-1.023,0.445-1.275,0.146l-4.034-4.798
	c-0.251-0.3-0.089-0.852,0.363-1.231l0,0c0.452-0.38,1.023-0.445,1.275-0.146l1.902,2.263L69.173,39.014z"/>
<path fill="#F4EC50" d="M70.25,53.436c0.25,0.3,0.089,0.852-0.364,1.232l0,0c-0.451,0.38-1.024,0.445-1.274,0.145l-4.034-4.798
	c-0.251-0.301-0.089-0.852,0.363-1.232l0,0c0.452-0.38,1.024-0.445,1.275-0.146l1.903,2.263L70.25,53.436z"/>
<path fill="#E572AC" d="M62.04,12.535c0.252,0.3,0.089,0.852-0.363,1.232l0,0c-0.452,0.38-1.023,0.445-1.275,0.146l-4.033-4.798
	c-0.252-0.3-0.089-0.852,0.363-1.232l0,0c0.452-0.38,1.023-0.445,1.275-0.145L59.909,10L62.04,12.535z"/>
</svg>
