<?xml version="1.0" encoding="utf-8"?>
<!-- Generator: Adobe Illustrator 16.0.3, SVG Export Plug-In . SVG Version: 6.00 Build 0)  -->
<!DOCTYPE svg PUBLIC "-//W3C//DTD SVG 1.1//EN" "http://www.w3.org/Graphics/SVG/1.1/DTD/svg11.dtd" [
	<!ENTITY ns_flows "http://ns.adobe.com/Flows/1.0/">
	<!ENTITY ns_extend "http://ns.adobe.com/Extensibility/1.0/">
	<!ENTITY ns_ai "http://ns.adobe.com/AdobeIllustrator/10.0/">
	<!ENTITY ns_graphs "http://ns.adobe.com/Graphs/1.0/">
]>
<svg version="1.1" id="Layer_1" xmlns:x="&ns_extend;" xmlns:i="&ns_ai;" xmlns:graph="&ns_graphs;"
	 xmlns="http://www.w3.org/2000/svg" xmlns:xlink="http://www.w3.org/1999/xlink" xmlns:a="http://ns.adobe.com/AdobeSVGViewerExtensions/3.0/"
	 x="0px" y="0px" width="144px" height="144px" viewBox="0 0 144 144" enable-background="new 0 0 144 144" xml:space="preserve">
<path fill="#47321A" d="M112.25,63.667c0,0,2.25-3.499,5.75-5.499s30-29.501,19-32.001c-14-5.5-48,0.5-50,25
	c-0.021,0.249-16.5-4.5-30,0.75c-0.5-18.75-21.75-26.75-40.25-27.25s-9.5,9-9.75,10.25s16.724,18.026,19,21.752
	c2.75,4.5,10.25,7.748,10.25,7.748s-4.75,5.75-11.25,25.5s14.75,32.5,16.25,32.75s28.75,10,33.75,9.75s28.75-6.75,40.25-14.75
	c10.879-7.568,8.75-24,8.75-25.25S112.25,63.667,112.25,63.667z M37.519,79.486c22.622-18.745,31.293,11.835,31.293,11.835
	C46.367,106.708,37.519,79.486,37.519,79.486z M82.438,92.364c5.188-28.917,31.544-11.148,31.544-11.148
	C106.761,107.453,82.438,92.364,82.438,92.364z"/>
<path fill="#D6935C" d="M94.25,52.232c0,0,9.523-17.299,28.757-16.327c2.361,0.119,7.001,0.941,4.665,3.11
	c-2.582,2.397-18.371,21.243-19.039,19.825C107.078,55.536,101.636,51.455,94.25,52.232z"/>
<path fill="#D6935C" d="M51.906,51.728c0,0-9.958-18.086-30.066-17.07c-2.469,0.125-7.896,1.84-4.877,3.252
	c5.215,2.439,19.208,22.21,19.906,20.728C38.494,55.182,44.184,50.915,51.906,51.728z"/>
<path fill="#D6935C" d="M66.75,102.002c0,0,9.458-45.916,17,0.5c7.25,3.875,9.398,20.633-7.25,21.5
	C60.5,124.835,56,110.127,66.75,102.002z"/>
<path fill="#9B7A5C" d="M37.519,79.486c0,0,7.654-20.083,20.813-13.007c10.792,6.625,10.292,19.375,10.479,24.842
	C67,89.667,61.125,61.479,37.519,79.486z"/>
<path fill="#9B7A5C" d="M113.955,81.167c0,0-8.08-19.5-21.29-13.688c-10.792,6.625-10.292,19.375-10.479,24.842
	C83.998,90.667,86.312,65.56,113.955,81.167z"/>
<ellipse transform="matrix(0.7691 0.6392 -0.6392 0.7691 87.7391 -18.2501)" fill="#E2765D" cx="69.125" cy="112.292" rx="5.875" ry="8.375"/>
<ellipse transform="matrix(-0.769 0.6392 -0.6392 -0.769 215.0081 147.3956)" fill="#E2765D" cx="80.875" cy="112.542" rx="5.874" ry="8.376"/>
<g>
	<path fill="#49301D" d="M81.959,103.854c-1.937-2.352-4.846-3.132-7.418-3.19v12.522c1.066-0.067,1.855-0.479,1.855-1.082
		c0-0.833,1.666-2.188,3.5-1.688S85.459,108.104,81.959,103.854z"/>
	<path fill="#49301D" d="M67.33,103.854c1.936-2.352,4.844-3.132,7.417-3.19v12.522c-1.064-0.067-1.854-0.479-1.854-1.082
		c0-0.833-1.667-2.188-3.5-1.688S63.83,108.104,67.33,103.854z"/>
</g>
<circle fill="#EFE3DA" cx="49.5" cy="108.167" r="1.375"/>
<circle fill="#EFE3DA" cx="53.75" cy="112.917" r="1.375"/>
<circle fill="#EFE3DA" cx="46.75" cy="114.417" r="1.375"/>
<circle fill="#EFE3DA" cx="97" cy="108.917" r="1.375"/>
<circle fill="#EFE3DA" cx="101.25" cy="113.667" r="1.375"/>
<circle fill="#EFE3DA" cx="94.25" cy="115.167" r="1.375"/>
<path fill="none" stroke="#23160F" stroke-width="2" stroke-miterlimit="10" d="M44.926,63.933
	c1.582-1.249,6.141-6.233,13.746-1.058"/>
<path fill="none" stroke="#23160F" stroke-width="2" stroke-miterlimit="10" d="M91.016,64.314c1.729-1.037,6.887-5.398,13.77,0.705
	"/>
</svg>
