<?xml version="1.0" encoding="utf-8"?>
<!-- Generator: Adobe Illustrator 16.0.3, SVG Export Plug-In . SVG Version: 6.00 Build 0)  -->
<!DOCTYPE svg PUBLIC "-//W3C//DTD SVG 1.1//EN" "http://www.w3.org/Graphics/SVG/1.1/DTD/svg11.dtd" [
	<!ENTITY ns_flows "http://ns.adobe.com/Flows/1.0/">
	<!ENTITY ns_extend "http://ns.adobe.com/Extensibility/1.0/">
	<!ENTITY ns_ai "http://ns.adobe.com/AdobeIllustrator/10.0/">
	<!ENTITY ns_graphs "http://ns.adobe.com/Graphs/1.0/">
]>
<svg version="1.1" id="Layer_1" xmlns:x="&ns_extend;" xmlns:i="&ns_ai;" xmlns:graph="&ns_graphs;"
	 xmlns="http://www.w3.org/2000/svg" xmlns:xlink="http://www.w3.org/1999/xlink" xmlns:a="http://ns.adobe.com/AdobeSVGViewerExtensions/3.0/"
	 x="0px" y="0px" width="72px" height="72px" viewBox="0 0 72 72" enable-background="new 0 0 72 72" xml:space="preserve">
<g>
	<g>
		<g opacity="0.39">
			<g>
				<path fill="#C6CCD6" d="M36.98,54.213c6.25,0,11.524-3.172,13.206-7.512c-1.682-5.804-6.955-8.976-13.206-8.976
					c-6.252,0-11.523,3.172-13.207,8.976C25.457,51.041,30.729,54.213,36.98,54.213z"/>
			</g>
		</g>
		<g>
			<g>
				<path fill="#465F7F" d="M36.98,54.213c6.25,0,11.524-3.172,13.206-7.512c-1.682-5.804-6.955-8.976-13.206-8.976
					c-6.252,0-11.523,3.172-13.207,8.976C25.457,51.041,30.729,54.213,36.98,54.213z"/>
			</g>
		</g>
		<g>
			<g>
				<path fill="#465F7F" d="M23.774,46.701c-0.367,1.259-0.571,2.639-0.571,4.139c0,5.787,3.579,10.478,13.777,10.478v-7.104
					C30.729,54.213,25.457,51.041,23.774,46.701z"/>
			</g>
		</g>
		<g>
			<g>
				<path fill="#5D9BC4" d="M50.154,46.701c0.367,1.259,0.57,2.639,0.57,4.139c0,5.787-3.502,10.772-13.777,10.478v-7.104
					C43.199,54.213,48.471,51.041,50.154,46.701z"/>
			</g>
		</g>
	</g>
</g>
<g>
	<g>
		<g>
			<rect x="28.625" y="57.656" fill="#465F7F" width="5.739" height="7.911"/>
		</g>
	</g>
	<g>
		<g>
			<rect x="39.596" y="57.656" fill="#5D9BC4" width="5.74" height="7.911"/>
		</g>
	</g>
	<g>
		<g>
			<g>
				<path fill="#3E3E3D" d="M31.434,66.595c0.242,0,0.439,0.196,0.439,0.439v1.1h4.616c0-2.758-2.236-4.997-4.995-4.997
					c-2.758,0-4.995,2.239-4.995,4.997h4.496v-1.1C30.994,66.791,31.19,66.595,31.434,66.595z"/>
			</g>
		</g>
	</g>
	<g>
		<g>
			<g>
				<path fill="#3E3E3D" d="M42.406,66.595c0.242,0,0.439,0.196,0.439,0.439v1.1h4.617c0-2.758-2.236-4.997-4.996-4.997
					s-4.994,2.239-4.994,4.997h4.494v-1.1C41.967,66.791,42.162,66.595,42.406,66.595z"/>
			</g>
		</g>
	</g>
</g>
<g>
	<g>
		<g>
			<path fill="#465F7F" d="M37.803,5.536c0.133,0.783,0.047,1.416-0.104,2.006c-0.16,0.583-0.404,1.111-0.725,1.588
				c-0.319,0.478-0.714,0.903-1.195,1.272c-0.49,0.363-1.047,0.679-1.823,0.849c-0.135-0.782-0.05-1.417,0.102-2.007
				c0.16-0.584,0.406-1.111,0.729-1.587c0.321-0.474,0.715-0.9,1.197-1.268C36.474,6.026,37.029,5.707,37.803,5.536z"/>
		</g>
	</g>
	<g>
		<g>
			<path fill="#507997" d="M40.395,6.752c0.135,0.781,0.047,1.416-0.102,2.005c-0.164,0.584-0.408,1.111-0.727,1.588
				c-0.32,0.476-0.715,0.903-1.197,1.271c-0.488,0.362-1.047,0.68-1.822,0.85c-0.134-0.784-0.05-1.418,0.104-2.008
				c0.16-0.584,0.404-1.111,0.726-1.586c0.322-0.476,0.717-0.902,1.197-1.27C39.066,7.241,39.621,6.923,40.395,6.752z"/>
		</g>
	</g>
</g>
<g>
	<g>
		<g>
			<path fill="#5D9BC4" d="M52.045,24.505c-0.252-1.363-0.873-4.073-0.873-4.073C50.002,13.984,44.324,9,36.958,9v40.829
				c9.725,0,16.731-6.759,16.731-15.096C53.689,30.781,52.74,28.246,52.045,24.505z"/>
		</g>
	</g>
	<g>
		<g>
			<g>
				<path fill="#465F7F" d="M21.881,24.505c0.252-1.363,0.872-4.073,0.872-4.073C23.925,13.984,29.602,9,36.968,9v40.829
					c-9.725,0-16.73-6.759-16.73-15.096C20.238,30.781,21.188,28.246,21.881,24.505z"/>
			</g>
		</g>
	</g>
</g>
<g>
	<g>
		<path fill="#9C9B9B" d="M50.734,41.831c0,4.976-6.168,9.009-13.776,9.009s-13.775-4.033-13.775-9.009
			c0-4.98,6.168-9.016,13.775-9.016C44.566,32.815,50.734,36.851,50.734,41.831z"/>
	</g>
</g>
<g>
	<g>
		<g>
			<circle fill="#3E3E3D" cx="28.738" cy="40.436" r="1.978"/>
		</g>
	</g>
	<g>
		<g>
			<circle fill="#3E3E3D" cx="45.225" cy="40.436" r="1.978"/>
		</g>
	</g>
</g>
<g>
	<g>
		<g>
			<circle fill="#9C9B9B" cx="29.439" cy="24.021" r="3.161"/>
		</g>
	</g>
</g>
<g>
	<g>
		<g>
			<circle fill="#9C9B9B" cx="45.451" cy="24.021" r="3.161"/>
		</g>
	</g>
</g>
<g>
	<g>
		<g>
			<circle fill="#3E3E3D" cx="29.439" cy="24.021" r="1.77"/>
		</g>
	</g>
</g>
<g>
	<g>
		<g>
			<circle fill="#3E3E3D" cx="45.451" cy="24.021" r="1.77"/>
		</g>
	</g>
</g>
<g>
	<g>
		<circle fill="#FFFFFF" cx="30.092" cy="23.459" r="0.626"/>
	</g>
</g>
<g>
	<g>
		<circle fill="#FFFFFF" cx="46.078" cy="23.459" r="0.626"/>
	</g>
</g>
<g>
	<g>
		<g>
			<path fill="#F6E9E5" d="M34.615,44.577c0,1.226,0.562,1.202,1.294,1.294l0,0c0.81,0.054,1.292,0.059,1.292-1.294v-0.821
				c0,0.139-2.585-0.191-2.585-0.191L34.615,44.577L34.615,44.577z"/>
		</g>
	</g>
	<g>
		<g>
			<path fill="#F6E9E5" d="M40.736,44.577c0,1.226-0.562,1.202-1.293,1.294l0,0c-0.811,0.054-1.293,0.059-1.293-1.294v-0.821
				c0,0.139,2.586-0.191,2.586-0.191V44.577L40.736,44.577z"/>
		</g>
	</g>
</g>
<g>
	<g>
		<g>
			<path fill="#3E3E3D" d="M37.6,43.794c-5.793,0-10.05,1.752-10.219,1.623c-0.13-0.096-0.156-0.278-0.057-0.409
				c0.097-0.129,0.281-0.154,0.41-0.059c0.04,0.03,4.158-2.819,9.747-2.819c5.578,0,9.143,2.861,9.176,2.831
				c0.127-0.105,0.311-0.091,0.416,0.035c0.102,0.124,0.086,0.311-0.039,0.414C46.879,45.539,43.4,43.794,37.6,43.794z"/>
		</g>
	</g>
</g>
<g>
	<g>
		<path fill="#3E3E3D" d="M10.378,56.273c0.828-0.369,3.238-1.434,6.159,0.047c1.287,0.652,2.014,1.212,2.56,1.638
			c0.541,0.439,1.537,1.509,1.948,2.32c-0.829,0.372-0.965,0.531-2.024,0.87c-0.66,0.211-1.636,0.302-2.254,0.085
			c-0.618-0.221-1.28-0.471-2.086-1.175C14.137,59.619,12.04,56.669,10.378,56.273z"/>
	</g>
</g>
<g>
	<g>
		<g>
			<path fill="#465F7F" d="M20.447,60.877c-0.375,0-0.766-0.03-1.172-0.096c-0.799-0.131-1.343-0.884-1.214-1.682
				c0.13-0.8,0.883-1.343,1.683-1.217c4.737,0.763,6.578-7.279,6.595-7.361c0.176-0.788,0.958-1.289,1.75-1.111
				c0.792,0.176,1.29,0.959,1.113,1.75C29.109,51.576,26.96,60.877,20.447,60.877z"/>
		</g>
	</g>
</g>
<path fill="#575757" d="M29.389,20.792c-1.696,0.008-3.062,1.323-3.192,2.982l6.416-0.032
	C32.465,22.083,31.083,20.784,29.389,20.792z"/>
<path fill="#575757" d="M45.406,20.674c-1.697,0.008-3.062,1.322-3.193,2.982l6.414-0.033C48.48,21.964,47.1,20.664,45.406,20.674z"
	/>
<g>
	<g>
		<path fill="#3E3E3D" d="M27.177,27.971c1.52,0.686,2.944,0.506,2.966,0.579c0.017,0.053-0.009,0.126-0.057,0.166
			c-0.049,0.038-0.101,0.027-0.119-0.028c-0.005-0.014-1.583,0.603-3.05-0.057c-1.464-0.661-1.901-2.189-1.916-2.182
			c-0.051,0.024-0.097-0.003-0.102-0.063c-0.005-0.06,0.031-0.13,0.082-0.156C25.045,26.197,25.655,27.286,27.177,27.971z"/>
	</g>
</g>
<g>
	<g>
		<path fill="#3E3E3D" d="M26.767,29.293c1.606,0.45,2.987,0.064,3.019,0.131c0.025,0.05,0.01,0.127-0.031,0.173
			c-0.043,0.045-0.096,0.042-0.121-0.01c-0.008-0.014-1.476,0.831-3.025,0.397c-1.545-0.436-2.204-1.885-2.218-1.874
			c-0.047,0.032-0.096,0.013-0.11-0.048c-0.014-0.059,0.011-0.133,0.058-0.166C24.396,27.855,25.159,28.84,26.767,29.293z"/>
	</g>
</g>
<g>
	<g>
		<path fill="#3E3E3D" d="M47.49,27.865c-1.521,0.686-2.945,0.506-2.967,0.578c-0.016,0.054,0.008,0.127,0.057,0.165
			c0.049,0.039,0.102,0.028,0.117-0.024c0.006-0.018,1.584,0.6,3.051-0.06c1.463-0.66,1.9-2.19,1.916-2.183
			c0.051,0.025,0.098,0,0.102-0.062c0.006-0.061-0.031-0.132-0.082-0.156C49.621,26.091,49.014,27.179,47.49,27.865z"/>
	</g>
</g>
<g>
	<g>
		<path fill="#3E3E3D" d="M47.9,29.187c-1.607,0.45-2.986,0.064-3.02,0.13c-0.023,0.05-0.01,0.128,0.033,0.173
			c0.043,0.046,0.096,0.042,0.119-0.008c0.008-0.016,1.477,0.829,3.025,0.394c1.547-0.434,2.203-1.881,2.217-1.872
			c0.047,0.033,0.098,0.011,0.111-0.048c0.014-0.06-0.012-0.133-0.059-0.166C50.27,27.75,49.508,28.734,47.9,29.187z"/>
	</g>
</g>
</svg>
