<?xml version="1.0" encoding="utf-8"?>
<!-- Generator: Adobe Illustrator 16.0.3, SVG Export Plug-In . SVG Version: 6.00 Build 0)  -->
<!DOCTYPE svg PUBLIC "-//W3C//DTD SVG 1.1//EN" "http://www.w3.org/Graphics/SVG/1.1/DTD/svg11.dtd" [
	<!ENTITY ns_flows "http://ns.adobe.com/Flows/1.0/">
	<!ENTITY ns_extend "http://ns.adobe.com/Extensibility/1.0/">
	<!ENTITY ns_ai "http://ns.adobe.com/AdobeIllustrator/10.0/">
	<!ENTITY ns_graphs "http://ns.adobe.com/Graphs/1.0/">
]>
<svg version="1.1" id="Layer_1" xmlns:x="&ns_extend;" xmlns:i="&ns_ai;" xmlns:graph="&ns_graphs;"
	 xmlns="http://www.w3.org/2000/svg" xmlns:xlink="http://www.w3.org/1999/xlink" xmlns:a="http://ns.adobe.com/AdobeSVGViewerExtensions/3.0/"
	 x="0px" y="0px" width="72px" height="72px" viewBox="0 0 72 72" enable-background="new 0 0 72 72" xml:space="preserve">
<g>
	<g>
		<g>
			<path fill="#5D9BC4" d="M43.688,44.27c0,0-3.207-15.576,0.756-32.375c0,0,1.476-6.111,4.614,0.608
				c3.141,6.721,11.465,25.569,5.886,39.913L43.688,44.27z"/>
		</g>
	</g>
	<g>
		<g>
			<path fill="#BF495F" d="M46.44,42.611c0,0-1.743-10.648-0.617-23.949c0,0,0.825-6.833,2.726-2.051
				c4.36,10.975,7.046,24.285,4.555,31.109L46.44,42.611z"/>
		</g>
	</g>
</g>
<g>
	<g>
		<g>
			<path fill="#5D9BC4" d="M27.547,44.27c0,0,4.472-15.26,1.896-32.329c0,0-0.97-6.212-4.649,0.229
				c-3.679,6.442-13.521,24.543-9.135,39.297L27.547,44.27z"/>
		</g>
	</g>
	<g>
		<g>
			<path fill="#BF495F" d="M24.939,42.391c0,0,2.611-10.469,2.575-23.816c0,0-0.261-6.877-2.547-2.268
				C19.723,26.888,16,39.945,17.925,46.951L24.939,42.391z"/>
		</g>
	</g>
</g>
</svg>
