<?xml version="1.0" encoding="utf-8"?>
<!-- Generator: Adobe Illustrator 16.0.3, SVG Export Plug-In . SVG Version: 6.00 Build 0)  -->
<!DOCTYPE svg PUBLIC "-//W3C//DTD SVG 1.1//EN" "http://www.w3.org/Graphics/SVG/1.1/DTD/svg11.dtd" [
	<!ENTITY ns_flows "http://ns.adobe.com/Flows/1.0/">
	<!ENTITY ns_extend "http://ns.adobe.com/Extensibility/1.0/">
	<!ENTITY ns_ai "http://ns.adobe.com/AdobeIllustrator/10.0/">
	<!ENTITY ns_graphs "http://ns.adobe.com/Graphs/1.0/">
]>
<svg version="1.1" id="Layer_1" xmlns:x="&ns_extend;" xmlns:i="&ns_ai;" xmlns:graph="&ns_graphs;"
	 xmlns="http://www.w3.org/2000/svg" xmlns:xlink="http://www.w3.org/1999/xlink" xmlns:a="http://ns.adobe.com/AdobeSVGViewerExtensions/3.0/"
	 x="0px" y="0px" width="144px" height="144px" viewBox="0 0 144 144" enable-background="new 0 0 144 144" xml:space="preserve">
<path fill="#75CDD9" d="M42.282,52.672c3.518-1.384,4.994-6.008,3.295-10.326c-1.698-4.318-5.928-6.697-9.447-5.313
	c-0.692,0.272-1.302,0.674-1.828,1.17c-1.854-3.892-5.821-5.96-9.154-4.649c-2.156,0.848-3.54,2.914-3.901,5.378
	c-1.996-1.408-4.479-1.859-6.738-0.97c-3.785,1.489-5.494,6.153-3.816,10.418c1.193,3.035,3.78,5.04,6.536,5.414
	c-0.337,1.538-0.232,3.245,0.416,4.894c1.573,3.998,5.701,6.117,9.22,4.734c1.056-0.416,1.932-1.104,2.606-1.965
	c1.726,0.557,3.604,0.57,5.391-0.079l14.55,7.22l-9.246-13.365c0.161-0.705,0.242-1.436,0.232-2.178
	C41.036,53.032,41.67,52.913,42.282,52.672z"/>
<path fill="#75CDD9" d="M109.291,64.953c1.331,3.539,5.933,5.083,10.275,3.449s6.785-5.828,5.453-9.366
	c-0.262-0.697-0.654-1.312-1.143-1.845c3.919-1.796,6.047-5.731,4.785-9.083c-0.814-2.168-2.86-3.583-5.319-3.981
	c1.438-1.975,1.926-4.451,1.071-6.723c-1.433-3.807-6.07-5.585-10.36-3.971c-3.052,1.148-5.096,3.705-5.511,6.455
	c-1.533-0.36-3.242-0.281-4.9,0.343c-4.021,1.513-6.201,5.608-4.871,9.148c0.4,1.062,1.074,1.948,1.926,2.635
	c-0.582,1.717-0.624,3.596-0.002,5.391l-7.436,14.44l13.502-9.045c0.702,0.171,1.432,0.264,2.174,0.265
	C108.949,63.703,109.059,64.338,109.291,64.953z"/>
</svg>
