<?xml version="1.0" encoding="utf-8"?>
<!-- Generator: Adobe Illustrator 16.0.3, SVG Export Plug-In . SVG Version: 6.00 Build 0)  -->
<!DOCTYPE svg PUBLIC "-//W3C//DTD SVG 1.1//EN" "http://www.w3.org/Graphics/SVG/1.1/DTD/svg11.dtd" [
	<!ENTITY ns_flows "http://ns.adobe.com/Flows/1.0/">
	<!ENTITY ns_extend "http://ns.adobe.com/Extensibility/1.0/">
	<!ENTITY ns_ai "http://ns.adobe.com/AdobeIllustrator/10.0/">
	<!ENTITY ns_graphs "http://ns.adobe.com/Graphs/1.0/">
]>
<svg version="1.1" id="Layer_1" xmlns:x="&ns_extend;" xmlns:i="&ns_ai;" xmlns:graph="&ns_graphs;"
	 xmlns="http://www.w3.org/2000/svg" xmlns:xlink="http://www.w3.org/1999/xlink" xmlns:a="http://ns.adobe.com/AdobeSVGViewerExtensions/3.0/"
	 x="0px" y="0px" width="72px" height="72px" viewBox="0 0 72 72" enable-background="new 0 0 72 72" xml:space="preserve">
<g>
	<g>
		<g>
			<path fill="#5D9BC4" d="M47.813,14.715c0,0,10.895,4.028,19.777,12.971c0,0,3.219,3.274-2.16,2.625
				c-5.379-0.648-20.276-2.767-27.012-11.764L47.813,14.715z"/>
		</g>
	</g>
</g>
<g>
	<g>
		<path fill="#BF495F" d="M42.435,19.506c3.342,4.15,12.705,7.538,21.248,8.957c3.723,0.618-0.256-2.488-0.256-2.488
			c-7.924-5.747-15.271-8.684-15.271-8.684L42.435,19.506z"/>
	</g>
</g>
<g>
	<g>
		<g>
			<path fill="#465F7F" d="M24.955,15.069c0,0-11.425,3.678-20.991,12.522c0,0-3.467,3.239,2.114,2.806
				c5.582-0.433,21.058-1.962,28.411-10.955L24.955,15.069z"/>
		</g>
	</g>
</g>
<g>
	<g>
		<path fill="#BF495F" d="M23.551,17.458c0,0-7.347,2.937-15.27,8.684c0,0-3.979,3.106-0.257,2.488
			c8.544-1.419,17.907-4.807,21.248-8.957L23.551,17.458z"/>
	</g>
</g>
<g>
	<g>
		<g opacity="0.39">
			<g>
				<path fill="#C6CCD6" d="M36.98,54.213c6.25,0,11.524-3.172,13.206-7.512c-1.682-5.804-6.955-8.976-13.206-8.976
					c-6.252,0-11.523,3.172-13.207,8.976C25.457,51.041,30.729,54.213,36.98,54.213z"/>
			</g>
		</g>
		<g>
			<g>
				<path fill="#465F7F" d="M36.98,54.213c6.25,0,11.524-3.172,13.206-7.512c-1.682-5.804-6.955-8.976-13.206-8.976
					c-6.252,0-11.523,3.172-13.207,8.976C25.457,51.041,30.729,54.213,36.98,54.213z"/>
			</g>
		</g>
		<g>
			<g>
				<path fill="#465F7F" d="M23.774,46.701c-0.367,1.259-0.571,2.639-0.571,4.139c0,5.787,3.579,10.478,13.777,10.478v-7.104
					C30.729,54.213,25.457,51.041,23.774,46.701z"/>
			</g>
		</g>
		<g>
			<g>
				<path fill="#5D9BC4" d="M50.154,46.701c0.367,1.259,0.57,2.639,0.57,4.139c0,5.787-3.502,10.772-13.777,10.478v-7.104
					C43.199,54.213,48.471,51.041,50.154,46.701z"/>
			</g>
		</g>
	</g>
</g>
<g>
	<g>
		<g>
			<rect x="28.625" y="57.656" fill="#465F7F" width="5.739" height="7.911"/>
		</g>
	</g>
	<g>
		<g>
			<rect x="39.596" y="57.656" fill="#5D9BC4" width="5.74" height="7.911"/>
		</g>
	</g>
	<g>
		<g>
			<g>
				<path fill="#3E3E3D" d="M31.434,66.595c0.242,0,0.439,0.196,0.439,0.439v1.1h4.616c0-2.758-2.236-4.997-4.995-4.997
					c-2.758,0-4.995,2.239-4.995,4.997h4.496v-1.1C30.994,66.791,31.19,66.595,31.434,66.595z"/>
			</g>
		</g>
	</g>
	<g>
		<g>
			<g>
				<path fill="#3E3E3D" d="M42.406,66.595c0.242,0,0.439,0.196,0.439,0.439v1.1h4.617c0-2.758-2.236-4.997-4.996-4.997
					s-4.994,2.239-4.994,4.997h4.494v-1.1C41.967,66.791,42.162,66.595,42.406,66.595z"/>
			</g>
		</g>
	</g>
</g>
<g>
	<g>
		<g>
			<path fill="#465F7F" d="M37.803,5.536c0.133,0.783,0.047,1.416-0.104,2.006c-0.16,0.583-0.404,1.111-0.725,1.588
				c-0.319,0.478-0.714,0.903-1.195,1.272c-0.49,0.363-1.047,0.679-1.823,0.849c-0.135-0.782-0.05-1.417,0.102-2.007
				c0.16-0.584,0.406-1.111,0.729-1.587c0.321-0.474,0.715-0.9,1.197-1.268C36.474,6.026,37.029,5.707,37.803,5.536z"/>
		</g>
	</g>
	<g>
		<g>
			<path fill="#507997" d="M40.395,6.752c0.135,0.781,0.047,1.416-0.102,2.005c-0.164,0.584-0.408,1.111-0.727,1.588
				c-0.32,0.476-0.715,0.903-1.197,1.271c-0.488,0.362-1.047,0.68-1.822,0.85c-0.134-0.784-0.05-1.418,0.104-2.008
				c0.16-0.584,0.404-1.111,0.726-1.586c0.322-0.476,0.717-0.902,1.197-1.27C39.066,7.241,39.621,6.923,40.395,6.752z"/>
		</g>
	</g>
</g>
<g>
	<g>
		<g>
			<path fill="#5D9BC4" d="M52.045,24.505c-0.252-1.363-0.873-4.073-0.873-4.073C50.002,13.984,44.324,9,36.958,9v40.829
				c9.725,0,16.731-6.759,16.731-15.096C53.689,30.781,52.74,28.246,52.045,24.505z"/>
		</g>
	</g>
	<g>
		<g>
			<g>
				<path fill="#465F7F" d="M21.881,24.505c0.252-1.363,0.872-4.073,0.872-4.073C23.925,13.984,29.602,9,36.968,9v40.829
					c-9.725,0-16.73-6.759-16.73-15.096C20.238,30.781,21.188,28.246,21.881,24.505z"/>
			</g>
		</g>
	</g>
</g>
<g>
	<g>
		<path fill="#9C9B9B" d="M50.734,41.831c0,4.976-6.168,9.009-13.776,9.009s-13.775-4.033-13.775-9.009
			c0-4.98,6.168-9.016,13.775-9.016C44.566,32.815,50.734,36.851,50.734,41.831z"/>
	</g>
</g>
<g>
	<g>
		<g>
			<circle fill="#3E3E3D" cx="28.738" cy="40.436" r="1.978"/>
		</g>
	</g>
	<g>
		<g>
			<circle fill="#3E3E3D" cx="45.225" cy="40.436" r="1.978"/>
		</g>
	</g>
</g>
<g>
	<g>
		<g>
			<circle fill="#9C9B9B" cx="29.439" cy="24.021" r="3.161"/>
		</g>
	</g>
</g>
<g>
	<g>
		<g>
			<circle fill="#9C9B9B" cx="45.451" cy="24.021" r="3.161"/>
		</g>
	</g>
</g>
<g>
	<g>
		<g>
			<circle fill="#3E3E3D" cx="29.439" cy="24.021" r="1.77"/>
		</g>
	</g>
</g>
<g>
	<g>
		<g>
			<circle fill="#3E3E3D" cx="45.451" cy="24.021" r="1.77"/>
		</g>
	</g>
</g>
<g>
	<g>
		<circle fill="#FFFFFF" cx="30.092" cy="23.459" r="0.626"/>
	</g>
</g>
<g>
	<g>
		<circle fill="#FFFFFF" cx="46.078" cy="23.459" r="0.626"/>
	</g>
</g>
<g>
	<g>
		<g>
			<path fill="#F6E9E5" d="M34.615,44.577c0,1.226,0.562,1.202,1.294,1.294l0,0c0.81,0.054,1.292,0.059,1.292-1.294v-0.821
				c0,0.139-2.585-0.191-2.585-0.191L34.615,44.577L34.615,44.577z"/>
		</g>
	</g>
	<g>
		<g>
			<path fill="#F6E9E5" d="M40.736,44.577c0,1.226-0.562,1.202-1.293,1.294l0,0c-0.811,0.054-1.293,0.059-1.293-1.294v-0.821
				c0,0.139,2.586-0.191,2.586-0.191V44.577L40.736,44.577z"/>
		</g>
	</g>
</g>
<g>
	<g>
		<path fill="#3E3E3D" d="M10.378,56.273c0.828-0.369,3.238-1.434,6.159,0.047c1.287,0.652,2.014,1.212,2.56,1.638
			c0.541,0.439,1.537,1.509,1.948,2.32c-0.829,0.372-0.965,0.531-2.024,0.87c-0.66,0.211-1.636,0.302-2.254,0.085
			c-0.618-0.221-1.28-0.471-2.086-1.175C14.137,59.619,12.04,56.669,10.378,56.273z"/>
	</g>
</g>
<g>
	<g>
		<g>
			<path fill="#465F7F" d="M20.447,60.877c-0.375,0-0.766-0.03-1.172-0.096c-0.799-0.131-1.343-0.884-1.214-1.682
				c0.13-0.8,0.883-1.343,1.683-1.217c4.737,0.763,6.578-7.279,6.595-7.361c0.176-0.788,0.958-1.289,1.75-1.111
				c0.792,0.176,1.29,0.959,1.113,1.75C29.109,51.576,26.96,60.877,20.447,60.877z"/>
		</g>
	</g>
</g>
<path fill="#575757" d="M29.389,20.792c-1.696,0.008-3.062,1.323-3.192,2.982l6.416-0.032
	C32.465,22.083,31.083,20.784,29.389,20.792z"/>
<path fill="#575757" d="M45.406,20.674c-1.697,0.008-3.062,1.322-3.193,2.982l6.414-0.033C48.48,21.964,47.1,20.664,45.406,20.674z"
	/>
<g>
	<g>
		<path fill="#3E3E3D" d="M27,19.708c1.509-0.712,2.299-1.909,2.366-1.879c0.052,0.021,0.091,0.09,0.09,0.151
			c-0.002,0.062-0.045,0.095-0.098,0.072c-0.015-0.005-0.571,1.595-2.026,2.282c-1.453,0.683-2.9,0.021-2.903,0.038
			c-0.015,0.055-0.064,0.072-0.114,0.036c-0.049-0.035-0.079-0.108-0.065-0.164C24.268,20.175,25.489,20.419,27,19.708z"/>
	</g>
</g>
<g>
	<g>
		<path fill="#3E3E3D" d="M46.5,19c-1.541-0.641-2.385-1.801-2.451-1.768c-0.05,0.025-0.088,0.093-0.082,0.154
			c0.006,0.062,0.049,0.093,0.099,0.068c0.017-0.008,0.646,1.566,2.131,2.184c1.481,0.616,2.897-0.113,2.902-0.096
			c0.017,0.054,0.067,0.071,0.114,0.032c0.049-0.038,0.075-0.114,0.058-0.167C49.252,19.34,48.042,19.642,46.5,19z"/>
	</g>
</g>
<circle fill="#E96DA9" cx="23.833" cy="33.5" r="2.75"/>
<circle fill="#E96DA9" cx="49.584" cy="33.75" r="2.75"/>
<g>
	<g>
		<g>
			<path fill="#3E3E3D" d="M38.062,43.894c-4.162,0-7.287-0.162-7.409-0.253c-0.093-0.072-0.111-0.203-0.041-0.295
				c0.07-0.094,0.202-0.112,0.295-0.043c0.028,0.021,2.646,0.021,6.66,0.021c4.007,0,6.906,0.008,6.933-0.014
				c0.091-0.074,0.223-0.064,0.298,0.025c0.074,0.09,0.062,0.223-0.027,0.297C44.66,43.726,42.229,43.894,38.062,43.894z"/>
		</g>
	</g>
</g>
</svg>
