<?xml version="1.0" encoding="utf-8"?>
<!-- Generator: Adobe Illustrator 16.0.3, SVG Export Plug-In . SVG Version: 6.00 Build 0)  -->
<!DOCTYPE svg PUBLIC "-//W3C//DTD SVG 1.1//EN" "http://www.w3.org/Graphics/SVG/1.1/DTD/svg11.dtd" [
	<!ENTITY ns_flows "http://ns.adobe.com/Flows/1.0/">
	<!ENTITY ns_extend "http://ns.adobe.com/Extensibility/1.0/">
	<!ENTITY ns_ai "http://ns.adobe.com/AdobeIllustrator/10.0/">
	<!ENTITY ns_graphs "http://ns.adobe.com/Graphs/1.0/">
]>
<svg version="1.1" id="Layer_1" xmlns:x="&ns_extend;" xmlns:i="&ns_ai;" xmlns:graph="&ns_graphs;"
	 xmlns="http://www.w3.org/2000/svg" xmlns:xlink="http://www.w3.org/1999/xlink" xmlns:a="http://ns.adobe.com/AdobeSVGViewerExtensions/3.0/"
	 x="0px" y="0px" width="72px" height="72px" viewBox="0 0 72 72" enable-background="new 0 0 72 72" xml:space="preserve">
<g>
	<g>
		<g>
			<path fill="#5D9BC4" d="M47.98,20.215c0,0,10.895,4.028,19.777,12.971c0,0,3.219,3.274-2.16,2.625
				c-5.379-0.648-20.276-2.767-27.012-11.764L47.98,20.215z"/>
		</g>
	</g>
	<g>
		<g>
			<path fill="#BF495F" d="M47.945,22.562c0,0,7.275,3.031,15.084,8.866c0,0,3.918,3.15,0.219,2.481
				c-8.486-1.535-17.774-5.01-21.042-9.19L47.945,22.562z"/>
		</g>
	</g>
</g>
<g>
	<g>
		<g>
			<path fill="#5D9BC4" d="M24.622,20.069c0,0-11.425,3.678-20.991,12.522c0,0-3.467,3.239,2.114,2.806
				c5.582-0.433,21.058-1.962,28.411-10.955L24.622,20.069z"/>
		</g>
	</g>
	<g>
		<g>
			<path fill="#BF495F" d="M24.554,22.494c0,0-7.645,2.809-15.963,8.489c0,0-4.184,3.079-0.337,2.552
				c8.831-1.211,18.562-4.422,22.121-8.594L24.554,22.494z"/>
		</g>
	</g>
</g>
</svg>
