<?xml version="1.0" encoding="utf-8"?>
<!-- Generator: Adobe Illustrator 16.0.3, SVG Export Plug-In . SVG Version: 6.00 Build 0)  -->
<!DOCTYPE svg PUBLIC "-//W3C//DTD SVG 1.1//EN" "http://www.w3.org/Graphics/SVG/1.1/DTD/svg11.dtd" [
	<!ENTITY ns_flows "http://ns.adobe.com/Flows/1.0/">
	<!ENTITY ns_extend "http://ns.adobe.com/Extensibility/1.0/">
	<!ENTITY ns_ai "http://ns.adobe.com/AdobeIllustrator/10.0/">
	<!ENTITY ns_graphs "http://ns.adobe.com/Graphs/1.0/">
]>
<svg version="1.1" id="Layer_1" xmlns:x="&ns_extend;" xmlns:i="&ns_ai;" xmlns:graph="&ns_graphs;"
	 xmlns="http://www.w3.org/2000/svg" xmlns:xlink="http://www.w3.org/1999/xlink" xmlns:a="http://ns.adobe.com/AdobeSVGViewerExtensions/3.0/"
	 x="0px" y="0px" width="83.63px" height="66.264px" viewBox="0 0 83.63 66.264" enable-background="new 0 0 83.63 66.264"
	 xml:space="preserve">
<ellipse fill="#5F6161" cx="38.098" cy="53.025" rx="36.906" ry="6.995"/>
<path fill="#5E5E5E" d="M71.946,25.992c0.711-1.502,0.755-2.958-0.038-3.837c-0.834-0.928-2.39-0.981-4.035-0.305
	c-7.759-1.59-29.323-1.743-39.458-0.281c-1.57-1.631-3.66-2.267-5.279-1.413c-1.791,0.944-2.425,3.406-1.685,5.891
	c-2.296,6.495-1.835,20.111,0.695,25.489c-0.656,1.484-0.664,2.921,0.135,3.808c1.149,1.277,3.583,0.993,5.777-0.551
	c9.812,1.719,31.599,2.128,39.736-0.068c1.101,0.747,2.241,0.981,3.134,0.511c1.271-0.671,1.674-2.575,1.156-4.71
	C73.983,44.402,73.531,32.033,71.946,25.992z"/>
<g>
	<g>
		<g opacity="0.39">
			<g>
				<path fill="#C6CCD6" d="M55.042,35.253c6.547,0,12.067-3.32,13.83-7.865c-1.763-6.08-7.283-9.401-13.83-9.401
					c-6.549,0-12.068,3.321-13.83,9.401C42.975,31.934,48.495,35.253,55.042,35.253z"/>
			</g>
		</g>
		<g>
			<g>
				<path fill="#465F7F" d="M55.042,35.253c6.547,0,12.067-3.32,13.83-7.865c-1.763-6.08-7.283-9.401-13.83-9.401
					c-6.549,0-12.068,3.321-13.83,9.401C42.975,31.934,48.495,35.253,55.042,35.253z"/>
			</g>
		</g>
		<g>
			<g>
				<path fill="#465F7F" d="M41.213,27.389c-0.384,1.317-0.599,2.761-0.599,4.335c0,6.06,3.747,10.972,14.429,10.972v-7.442
					C48.495,35.253,42.975,31.934,41.213,27.389z"/>
			</g>
		</g>
		<g>
			<g>
				<path fill="#5D9BC4" d="M68.838,27.389c0.384,1.317,0.597,2.761,0.597,4.335c0,6.06-3.665,11.28-14.426,10.972v-7.442
					C61.555,35.253,67.074,31.934,68.838,27.389z"/>
			</g>
		</g>
	</g>
</g>
<path fill="#414543" d="M72.15,25.992c0.711-1.502,0.755-2.958-0.038-3.837c-0.834-0.928-2.39-0.981-4.035-0.305
	c-7.76-1.59-29.324-1.743-39.458-0.281c-1.57-1.631-3.66-2.267-5.279-1.413c-1.791,0.944-2.425,3.406-1.685,5.891
	c-2.297,6.495-1.836,20.111,0.695,25.489c-0.656,1.484-0.664,2.921,0.135,3.808c1.149,1.277,3.583,0.993,5.777-0.551
	c9.812,1.719,31.6,2.128,39.735-0.068c1.101,0.747,2.241,0.981,3.134,0.511c1.272-0.671,1.674-2.575,1.156-4.71
	C74.186,44.402,73.735,32.033,72.15,25.992z"/>
<path fill="#414543" d="M31.121,1.714c-1.025-0.191-1.997-0.124-2.557,0.241c-0.588,0.385-0.57,1.004-0.062,1.616
	c-0.787,3.165-0.134,11.709,1.195,15.634c-1.033,0.717-1.383,1.583-0.758,2.174c0.693,0.653,2.356,0.758,3.986,0.319
	c4.409,0.526,13.469-0.458,16.965-1.778c1.011,0.173,1.969,0.092,2.533-0.277c0.811-0.531,0.536-1.476-0.568-2.253
	c0.802-3.985,0.312-12.633-1.438-15.725c0.46-0.479,0.575-0.944,0.231-1.27c-0.492-0.465-1.775-0.511-3.181-0.18
	C43.32-0.176,35.092,0.731,31.121,1.714z"/>
<path fill="#A09D62" d="M71.743,24.568c0.71-1.503,0.755-2.958-0.038-3.838c-0.834-0.927-2.39-0.981-4.035-0.305
	c-7.76-1.59-29.324-1.743-39.458-0.28c-1.57-1.632-3.66-2.269-5.279-1.415c-1.791,0.944-2.426,3.406-1.686,5.891
	c-2.296,6.495-1.835,20.111,0.695,25.489c-0.656,1.484-0.664,2.921,0.136,3.808c1.149,1.278,3.583,0.993,5.776-0.551
	c9.812,1.719,31.6,2.128,39.736-0.068c1.1,0.747,2.241,0.981,3.134,0.511c1.271-0.671,1.673-2.574,1.156-4.71
	C73.779,42.977,73.328,30.608,71.743,24.568z"/>
<path fill="#E24E42" d="M32.749,2.731c-1.025-0.191-1.997-0.124-2.556,0.241c-0.588,0.385-0.57,1.004-0.062,1.616
	c-0.787,3.164-0.134,11.708,1.195,15.634c-1.033,0.717-1.383,1.583-0.757,2.174c0.693,0.652,2.355,0.758,3.986,0.319
	c4.409,0.527,13.469-0.458,16.965-1.778c1.011,0.173,1.97,0.092,2.533-0.276c0.81-0.532,0.535-1.477-0.57-2.254
	c0.803-3.985,0.312-12.633-1.437-15.725c0.46-0.479,0.576-0.944,0.231-1.27c-0.492-0.464-1.775-0.511-3.181-0.18
	C44.948,0.841,36.72,1.749,32.749,2.731z"/>
<path fill="#414543" d="M24.427,4.218c-0.79-1.201-1.821-2.007-2.782-2.039c-1.015-0.034-1.698,0.802-1.892,2.08
	C15.392,7.718,6.351,19.625,3.207,26.046c-1.826-0.004-3.151,0.817-3.205,2.175c-0.062,1.502,1.451,3.178,3.549,4.1
	c3.73,4.765,13.738,11.824,18.665,13.304c0.797,1.163,1.83,1.938,2.8,1.971c1.398,0.047,2.2-1.459,1.996-3.507
	c5.302-4.533,14.622-16.426,16.409-22.128c0.994-0.211,1.636-0.719,1.666-1.468c0.043-1.068-1.164-2.313-2.917-3.172
	C38.542,12.976,29.438,6.582,24.427,4.218z"/>
<path fill="#E88124" d="M25.028,4.635c-0.772-1.17-1.779-1.956-2.715-1.991c-0.988-0.036-1.65,0.773-1.834,2.014
	C16.246,8.004,7.484,19.541,4.445,25.767c-1.777-0.01-3.064,0.783-3.113,2.103c-0.054,1.459,1.423,3.092,3.469,3.995
	c3.648,4.643,13.416,11.533,18.216,12.989c0.78,1.132,1.789,1.889,2.734,1.924c1.361,0.05,2.136-1.41,1.93-3.401
	c5.148-4.384,14.179-15.907,15.899-21.44c0.967-0.201,1.59-0.692,1.617-1.42c0.039-1.038-1.14-2.252-2.85-3.093
	C38.8,13.189,29.915,6.949,25.028,4.635z"/>
<g>
	<g>
		<path fill="#5D9BC4" d="M42.091,38.542c4.081,2.479-0.128,4.002-0.128,4.002L28.18,42.098l0.131-4.002
			C28.312,38.096,41.972,38.529,42.091,38.542z"/>
	</g>
</g>
<g>
	<g>
		<g>
			<path fill="#3E3E3D" d="M26.99,40.499c-0.007,0.21-0.25,0.375-0.545,0.365l-1.329-0.043l-0.129,4.011
				c3.335,0.107,6.102-1.748,6.178-4.146c0.078-2.396-2.562-4.427-5.898-4.535l-0.126,3.905l1.328,0.043
				C26.765,40.108,26.996,40.287,26.99,40.499z"/>
		</g>
	</g>
</g>
<g>
	<g>
		<g>
			<path fill="#5D9BC4" d="M30.334,20.702c0,0-7.771,0.095-15.466-3.362c0,0-2.795-1.275,0.72-2.158
				c3.515-0.884,13.331-3.134,19.697,0.873L30.334,20.702z"/>
		</g>
	</g>
	<g>
		<g>
			<path fill="#BF495F" d="M29.794,19.226c0,0-5.271-0.148-11.549-1.921c0,0-3.203-1.029-0.732-1.499
				c5.67-1.076,12.307-1.131,15.35,0.696L29.794,19.226z"/>
		</g>
	</g>
</g>
<g>
	<g>
		<g>
			<path fill="#465F7F" d="M26.544,26.456c0,0-6.836,3.698-15.256,4.214c0,0-3.067,0.173-0.366-2.246
				c2.703-2.417,10.346-8.973,17.845-8.386L26.544,26.456z"/>
		</g>
	</g>
	<g>
		<g>
			<path fill="#BF495F" d="M25.379,25.401c0,0-4.737,2.319-11.118,3.668c0,0-3.314,0.579-1.345-0.985
				c4.52-3.589,10.378-6.704,13.924-6.501L25.379,25.401z"/>
		</g>
	</g>
</g>
<g>
	<g>
		<g>
			<path fill="#5D9BC4" d="M22.793,20.511c0.502-0.231,0.946-0.291,1.373-0.297c0.424,0.001,0.825,0.07,1.206,0.198
				c0.38,0.128,0.74,0.316,1.077,0.573c0.334,0.265,0.651,0.582,0.908,1.075c-0.503,0.235-0.948,0.294-1.374,0.3
				c-0.423-0.001-0.824-0.07-1.205-0.201c-0.379-0.13-0.74-0.318-1.076-0.575C23.368,21.318,23.05,21.001,22.793,20.511z"/>
		</g>
	</g>
	<g>
		<g>
			<path fill="#465F7F" d="M23.139,18.538c0.502-0.233,0.947-0.292,1.373-0.298c0.424,0.001,0.825,0.071,1.206,0.199
				c0.381,0.128,0.741,0.317,1.078,0.575c0.334,0.264,0.651,0.581,0.908,1.073c-0.504,0.235-0.948,0.295-1.375,0.3
				c-0.423,0-0.824-0.07-1.204-0.2c-0.38-0.13-0.74-0.319-1.077-0.576C23.712,19.346,23.395,19.03,23.139,18.538z"/>
		</g>
	</g>
</g>
<g>
	<g>
		<path fill="#3E3E3D" d="M83.63,16.478c-0.646,0.214-2.521,0.835-3.397,3.129c-0.385,1.012-0.509,1.688-0.597,2.199
			c-0.08,0.516-0.094,1.615,0.086,2.272c0.648-0.209,0.804-0.193,1.563-0.537c0.474-0.216,1.062-0.655,1.295-1.09
			c0.233-0.433,0.475-0.905,0.567-1.703C83.227,20.23,82.908,17.535,83.63,16.478z"/>
	</g>
</g>
<g>
	<g>
		<g>
			<path fill="#465F7F" d="M80.358,24.109c0.208-0.189,0.408-0.404,0.601-0.645c0.38-0.475,0.303-1.167-0.173-1.546
				c-0.474-0.379-1.166-0.301-1.547,0.172c-2.247,2.81-7.322-0.73-7.372-0.767c-0.496-0.35-1.184-0.234-1.533,0.264
				c-0.352,0.497-0.233,1.183,0.263,1.534C70.859,23.307,76.739,27.39,80.358,24.109z"/>
		</g>
	</g>
</g>
<g>
	<g>
		<g opacity="0.39">
			<g>
				<path fill="#C6CCD6" d="M54.535,39.572c7.055,0,13.004-3.577,14.904-8.476c-1.9-6.551-7.849-10.131-14.904-10.131
					c-7.057,0-13.006,3.58-14.904,10.131C41.53,35.995,47.479,39.572,54.535,39.572z"/>
			</g>
		</g>
		<g>
			<g>
				<path fill="#465F7F" d="M54.535,39.572c7.055,0,13.004-3.577,14.904-8.476c-1.9-6.551-7.849-10.131-14.904-10.131
					c-7.057,0-13.006,3.58-14.904,10.131C41.53,35.995,47.479,39.572,54.535,39.572z"/>
			</g>
		</g>
		<g>
			<g>
				<path fill="#465F7F" d="M39.632,31.096c-0.415,1.42-0.646,2.976-0.646,4.673c0,6.529,4.039,11.824,15.549,11.824v-8.021
					C47.479,39.572,41.53,35.995,39.632,31.096z"/>
			</g>
		</g>
		<g>
			<g>
				<path fill="#5D9BC4" d="M69.402,31.096c0.414,1.42,0.644,2.976,0.644,4.673c0,6.529-3.949,12.157-15.547,11.824v-8.021
					C61.554,39.572,67.501,35.995,69.402,31.096z"/>
			</g>
		</g>
	</g>
</g>
<path fill="#E8607B" d="M37.457,15.617c0,0,14.245-11.601,26.254-4.478c11.191,6.639,9.836,12.143,11.599,17.706
	c1.733,5.464,1.29,15.128,1.493,16.959c0.203,1.832-0.611,7.531-0.814,11.601c-0.203,4.07-1.56,8.615-2.238,8.548
	c-0.678-0.067,0-3.663-4.884-0.813c-4.885,2.849-5.496-0.611-5.496-0.611s-2.066-2.953-3.663-0.203
	c-1.221,2.104-9.361-1.018-9.361-1.018s4.427-28.39,0.611-33.309c-3.244-4.182,0.136-9.905-14.314-12.958L37.457,15.617z"/>
<g>
	<g>
		<g>
			<path fill="#465F7F" d="M46.474,41.245c4.031,0.796,2.806,4.126,2.806,4.126l-7.917,5.38l-2.804-4.126
				C38.558,46.625,46.398,41.282,46.474,41.245z"/>
		</g>
	</g>
	<g>
		<g>
			<g>
				<path fill="#3E3E3D" d="M38.904,49.342c0.118,0.175,0.017,0.451-0.227,0.616l-1.099,0.748l2.255,3.318
					c2.76-1.877,3.906-5.004,2.555-6.987c-1.348-1.983-4.677-2.07-7.437-0.195l2.196,3.231l1.1-0.747
					C38.491,49.161,38.784,49.167,38.904,49.342z"/>
			</g>
		</g>
	</g>
</g>
<g>
	<g>
		<g>
			<g>
				<path fill="#465F7F" d="M29.21,35.318c-0.691-0.682-2.02-2.101-2.02-2.101c-3.28-3.206-3.947-8.449-1.064-12.719l23.675,15.985
					c-3.808,5.639-10.469,7.055-15.303,3.791C32.207,38.727,31.109,37.184,29.21,35.318z"/>
			</g>
		</g>
	</g>
	<g>
		<g>
			<path fill="#5D9BC4" d="M41.021,17.824c-0.89-0.386-2.703-1.087-2.703-1.087c-4.197-1.845-9.31-0.504-12.194,3.767l23.674,15.984
				c3.808-5.64,2.633-12.347-2.202-15.612C45.304,19.329,43.462,18.887,41.021,17.824z"/>
		</g>
	</g>
</g>
<path fill="#6D0C2E" stroke="#D996C2" stroke-width="0.5012" stroke-miterlimit="10" d="M26.441,33.248
	c-0.088-0.3-1.305-5.257,4.813-7.024c2.091-0.723,1.841-2.607,1.841-2.607s0.067-6.221,5.601-6.532
	c3.589,0.178,3.375,3.657,3.375,3.657s-0.284,5.063-4.855,6.438c-0.822,0.309-1.209,2.158-1.209,2.158s-0.704,5.082-5.711,6.35
	C27.59,35.953,26.608,33.82,26.441,33.248z"/>
<path fill="#E2BB3D" d="M29.403,31.934c-0.632-0.473-0.887-1.259-0.713-1.979c-0.184,0.12-0.354,0.266-0.493,0.453
	c-0.632,0.844-0.46,2.042,0.385,2.674c0.845,0.632,2.042,0.46,2.675-0.385c0.161-0.213,0.268-0.45,0.328-0.694
	C30.933,32.425,30.062,32.427,29.403,31.934z"/>
<g>
	<g>
		<path fill="#9C9B9B" d="M50.134,24.612c2.931,1.88,2.978,7.036,0.105,11.517c-2.873,4.48-7.579,6.59-10.511,4.71
			c-2.933-1.88-2.979-7.038-0.106-11.518C42.496,24.841,47.201,22.732,50.134,24.612z"/>
	</g>
</g>
<g>
	<g>
		<g>
			<circle fill="#3E3E3D" cx="46.94" cy="27.072" r="1.384"/>
		</g>
	</g>
	<g>
		<g>
			<circle fill="#3E3E3D" cx="40.636" cy="36.731" r="1.385"/>
		</g>
	</g>
</g>
<g>
	<g>
		<g>
			<path fill="#F6E9E5" d="M47.976,36.489c0.747,0.418,0.924,0.067,1.229-0.349l0,0c0.311-0.477,0.478-0.77-0.346-1.23l-0.502-0.282
				c0.085,0.047-1,1.514-1,1.514l0.62,0.346V36.489z"/>
		</g>
	</g>
	<g>
		<g>
			<path fill="#F6E9E5" d="M49.905,33.041c0.747,0.418,0.541,0.753,0.347,1.231l0,0c-0.243,0.513-0.406,0.808-1.23,0.347
				l-0.502-0.281c0.084,0.047,0.766-1.643,0.766-1.643L49.905,33.041L49.905,33.041z"/>
		</g>
	</g>
</g>
<g>
	<g>
		<g>
			<path fill="#3E3E3D" d="M48.826,34.547c-1.979,3.536-5.202,4.979-5.338,5.04c-0.104,0.045-0.225-0.002-0.27-0.105
				c-0.047-0.104,0.001-0.226,0.104-0.271c0.032-0.014,3.235-1.452,5.146-4.864c1.906-3.406,1.332-6.653,1.326-6.686
				c-0.02-0.112,0.053-0.22,0.165-0.241c0.112-0.02,0.218,0.053,0.24,0.164C50.224,27.723,50.808,31.005,48.826,34.547z"/>
		</g>
	</g>
</g>
<path fill="#BF5C6F" d="M59.686,64.321c0,0,1.701-2.574,3.663,0.21c-0.017,0.034,1.758-40.946,1.758-40.946s-1.667,2.5-1.667,4.833
	C63.44,29.885,59.686,64.321,59.686,64.321z"/>
<path fill="#BF5C6F" d="M73.647,66.02c0.814-0.271,2.626-42.936-2.707-47.269c-0.882-0.158,0.619,2.493,0.667,6
	c0.166,12.167-1.871,40.015-1.791,40.015C69.917,64.766,71.799,63.151,73.647,66.02z"/>
<path fill="#9A5A71" d="M36.539,27.537l-3.484-2.328c0,0,0.156-0.312,0.344-1.062c-0.028-1.691,0.437-3.547,1.516-4.938
	c1.281-1.469,3.227-2.289,4.984-1.672c1.836,0.508,2.203,2.891,1.875,3.922c-0.188,1.062-1.048,4.674-4.75,5.562
	C36.71,27.193,36.539,27.537,36.539,27.537z"/>
<polygon fill="#E2BB3D" points="37.14,23.407 36.222,23.563 35.83,24.408 35.398,23.583 34.474,23.473 35.124,22.806 34.944,21.894 
	35.778,22.307 36.591,21.854 36.457,22.774 "/>
<polygon fill="#E2BB3D" points="37.668,20.387 36.898,20.458 36.521,21.132 36.215,20.423 35.458,20.272 36.039,19.762 
	35.947,18.995 36.611,19.39 37.312,19.065 37.143,19.82 "/>
<polygon fill="#E2BB3D" points="39.821,22.049 39.261,22.039 38.937,22.494 38.773,21.958 38.24,21.79 38.699,21.469 38.695,20.91 
	39.141,21.248 39.671,21.071 39.488,21.6 "/>
<path fill="#414543" d="M10.114,38.403c-0.632-0.318-1.277-0.45-1.71-0.309c-0.455,0.15-0.558,0.57-0.34,1.072
	c-1.102,1.979-2.266,7.831-2.13,10.709c-0.805,0.291-1.194,0.807-0.896,1.318c0.33,0.565,1.392,0.942,2.535,0.947
	c2.774,1.166,8.857,2.173,11.379,1.931c0.626,0.302,1.266,0.423,1.701,0.279c0.627-0.207,0.624-0.893,0.048-1.616
	c1.263-2.525,2.552-8.418,1.988-10.813c0.389-0.237,0.55-0.528,0.387-0.81c-0.233-0.403-1.061-0.67-2.038-0.706
	c-1.343-0.524-3.765-0.073-5.807-0.198C13.907,40.126,12.253,38.458,10.114,38.403z"/>
<path fill="#E24E42" d="M9.364,38.653c-0.632-0.318-1.277-0.45-1.71-0.309c-0.455,0.15-0.558,0.57-0.34,1.072
	c-1.102,1.979-2.266,7.831-2.13,10.709c-0.805,0.291-1.194,0.807-0.896,1.318c0.33,0.565,1.392,0.942,2.535,0.947
	c2.774,1.166,8.857,2.173,11.379,1.931c0.626,0.302,1.266,0.423,1.701,0.279c0.627-0.207,0.624-0.893,0.048-1.616
	c1.263-2.525,2.552-8.418,1.988-10.813c0.389-0.237,0.55-0.528,0.387-0.81c-0.233-0.403-1.061-0.67-2.038-0.706
	c-1.343-0.524-3.765-0.073-5.807-0.198C13.156,40.376,11.502,38.708,9.364,38.653z"/>
</svg>
