<?xml version="1.0" encoding="iso-8859-1"?>
<!-- Generator: Adobe Illustrator 16.0.0, SVG Export Plug-In . SVG Version: 6.00 Build 0)  -->
<!DOCTYPE svg PUBLIC "-//W3C//DTD SVG 1.1//EN" "http://www.w3.org/Graphics/SVG/1.1/DTD/svg11.dtd">
<svg xmlns="http://www.w3.org/2000/svg" xmlns:xlink="http://www.w3.org/1999/xlink" version="1.1" id="Capa_1" x="0px" y="0px" width="512px" height="512px" viewBox="0 0 58.337 58.337" style="enable-background:new 0 0 58.337 58.337;" xml:space="preserve">
<g>
	<g>
		<path d="M57.672,32.257c-0.428,2.598-7.503-1.312-7.503-1.312l0.001,0.001c-5.743-3.356-11.708-6.396-13.815-7.454    c-0.204-0.129-0.43-0.233-0.66-0.329c-0.089-0.043-0.137-0.067-0.137-0.067c-2.241-0.838-4.744,0.324-5.593,2.593    c-0.848,2.27,0.282,4.787,2.521,5.625c0.307,0.114,0.617,0.185,0.928,0.227c3.409,0.823,15.332,3.632,20.329,3.893    C60.14,36.316,58.141,29.408,57.672,32.257z" fill="#ac67c7"/>
		<path d="M0.666,32.257c-0.469-2.85-2.469,4.059,3.929,3.178c4.997-0.26,16.919-3.07,20.329-3.893    c0.311-0.042,0.622-0.112,0.927-0.227c2.241-0.838,3.37-3.355,2.522-5.625c-0.848-2.27-3.351-3.43-5.593-2.593    c0,0-0.048,0.024-0.137,0.067c-0.23,0.096-0.456,0.2-0.66,0.329c-2.107,1.058-8.073,4.096-13.815,7.454l0.001-0.001    C8.169,30.946,1.093,34.855,0.666,32.257z" fill="#ac67c7"/>
	</g>
</g>
<g>
</g>
<g>
</g>
<g>
</g>
<g>
</g>
<g>
</g>
<g>
</g>
<g>
</g>
<g>
</g>
<g>
</g>
<g>
</g>
<g>
</g>
<g>
</g>
<g>
</g>
<g>
</g>
<g>
</g>
</svg>
