<?xml version="1.0" encoding="utf-8"?>
<!-- Generator: Adobe Illustrator 16.0.3, SVG Export Plug-In . SVG Version: 6.00 Build 0)  -->
<!DOCTYPE svg PUBLIC "-//W3C//DTD SVG 1.1//EN" "http://www.w3.org/Graphics/SVG/1.1/DTD/svg11.dtd">
<svg version="1.1" id="Layer_1" xmlns="http://www.w3.org/2000/svg" xmlns:xlink="http://www.w3.org/1999/xlink" x="0px" y="0px"
	 width="72px" height="72px" viewBox="0 0 72 72" enable-background="new 0 0 72 72" xml:space="preserve">
<circle fill="#ECEB7A" stroke="#F2CC81" stroke-width="0.8278" stroke-miterlimit="10" cx="35.834" cy="36.404" r="20.139"/>
<circle fill="#ED83A2" cx="27.104" cy="36.553" r="4.762"/>
<circle fill="#ED83A2" cx="45.555" cy="36.255" r="4.762"/>
<path fill="#353333" d="M34.023,30.749c0,0.576-0.466,1.042-1.042,1.042h-0.149c-0.575,0-1.042-0.466-1.042-1.042l0,0
	c0-0.575,0.466-1.042,1.042-1.042h0.149C33.557,29.708,34.023,30.174,34.023,30.749L34.023,30.749z"/>
<path fill="none" stroke="#353333" stroke-width="1.0083" stroke-miterlimit="10" d="M33.192,37.887c0,0,3.242,5.234,6.063-0.385"/>
<path fill="#353333" d="M39.472,30.58c0,0.575-0.466,1.042-1.042,1.042h-0.148c-0.576,0-1.042-0.467-1.042-1.042l0,0
	c0-0.575,0.466-1.042,1.042-1.042h0.148C39.006,29.539,39.472,30.005,39.472,30.58L39.472,30.58z"/>
</svg>
