<?xml version="1.0" encoding="UTF-8" standalone="no"?>
<!DOCTYPE svg PUBLIC "-//W3C//DTD SVG 1.1//EN" "http://www.w3.org/Graphics/SVG/1.1/DTD/svg11.dtd">
<svg version="1.1" xmlns="http://www.w3.org/2000/svg" xmlns:xlink="http://www.w3.org/1999/xlink" preserveAspectRatio="xMidYMid meet" viewBox="0 0 640 640" width="640" height="640"><defs><path d="M354.81 20.06L355.35 20.14L355.89 20.25L356.4 20.38L356.9 20.55L357.38 20.74L357.86 20.96L358.31 21.2L358.75 21.47L359.18 21.77L359.6 22.09L360.01 22.44L360.4 22.81L360.78 23.2L361.15 23.62L361.51 24.06L361.86 24.52L362.2 25L362.53 25.49L362.86 26.01L363.17 26.55L363.48 27.11L363.77 27.68L364.07 28.27L364.35 28.88L364.63 29.5L364.9 30.14L365.17 30.79L365.44 31.45L365.69 32.13L365.95 32.83L366.2 33.53L366.45 34.25L366.7 34.97L366.94 35.71L367.18 36.46L367.42 37.21L367.66 37.98L367.9 38.75L380.21 87.42L384.08 88.68L392.62 91.87L401.01 95.41L409.23 99.27L417.27 103.46L417.94 103.83L459.45 78.52L460.13 78.15L460.82 77.79L461.49 77.44L462.17 77.09L462.83 76.75L463.49 76.42L464.15 76.1L464.8 75.79L465.45 75.49L466.08 75.2L466.72 74.92L467.35 74.66L467.97 74.42L468.58 74.18L469.19 73.97L469.79 73.77L470.39 73.58L470.98 73.42L471.56 73.27L472.14 73.15L472.71 73.04L473.27 72.96L473.82 72.89L474.37 72.85L474.91 72.83L475.45 72.84L475.97 72.87L476.49 72.93L477 73.01L477.51 73.12L478 73.26L478.49 73.42L478.97 73.62L479.44 73.84L479.91 74.1L480.36 74.39L480.81 74.71L481.25 75.06L481.68 75.45L482.1 75.87L542.5 139.51L542.9 139.95L543.27 140.41L543.61 140.88L543.93 141.36L544.21 141.85L544.46 142.34L544.69 142.85L544.89 143.37L545.06 143.9L545.2 144.44L545.32 144.99L545.42 145.54L545.49 146.1L545.53 146.68L545.55 147.26L545.55 147.84L545.53 148.44L545.48 149.04L545.42 149.64L545.33 150.26L545.22 150.88L545.09 151.5L544.94 152.13L544.78 152.76L544.59 153.4L544.39 154.05L544.17 154.7L543.93 155.35L543.68 156.01L543.41 156.66L543.13 157.33L542.83 157.99L542.52 158.66L542.19 159.33L541.85 160L541.5 160.67L541.14 161.35L540.76 162.02L540.38 162.7L539.98 163.37L515.99 207.03L516.49 207.98L520.46 216.46L524.13 225.12L527.48 233.96L530.52 242.96L531.71 247.03L577.9 260L578.64 260.18L579.36 260.37L580.08 260.57L580.79 260.78L581.49 260.99L582.18 261.22L582.86 261.45L583.53 261.69L584.18 261.93L584.83 262.19L585.46 262.46L586.08 262.73L586.68 263.02L587.28 263.31L587.85 263.62L588.41 263.93L588.96 264.26L589.48 264.59L589.99 264.94L590.49 265.3L590.96 265.66L591.41 266.04L591.85 266.43L592.26 266.83L592.66 267.25L593.03 267.67L593.38 268.11L593.71 268.56L594.02 269.03L594.3 269.5L594.56 269.99L594.79 270.49L595 271.01L595.18 271.53L595.34 272.08L595.47 272.63L595.57 273.2L595.64 273.79L595.69 274.39L595.7 275L595.7 365L595.69 365.61L595.64 366.21L595.57 366.78L595.47 367.34L595.34 367.88L595.18 368.41L595 368.92L594.79 369.42L594.56 369.9L594.3 370.36L594.02 370.82L593.71 371.26L593.38 371.68L593.03 372.1L592.66 372.5L592.26 372.89L591.85 373.27L591.41 373.64L590.96 374L590.49 374.34L589.99 374.68L589.48 375.02L588.96 375.34L588.41 375.65L587.85 375.96L587.28 376.26L586.68 376.55L586.08 376.84L585.46 377.13L584.83 377.4L584.18 377.68L583.53 377.94L582.86 378.21L582.18 378.47L581.49 378.73L580.79 378.99L580.08 379.24L579.36 379.5L578.64 379.75L577.9 380L531.71 392.97L530.52 397.04L527.48 406.04L524.13 414.88L520.46 423.54L516.49 432.02L516.04 432.87L539.98 476.45L540.38 477.12L540.76 477.8L541.14 478.47L541.5 479.15L541.85 479.82L542.19 480.49L542.52 481.16L542.83 481.83L543.13 482.49L543.41 483.16L543.68 483.82L543.93 484.47L544.17 485.12L544.39 485.77L544.59 486.42L544.78 487.06L544.94 487.69L545.09 488.32L545.22 488.95L545.33 489.57L545.42 490.18L545.48 490.79L545.53 491.39L545.55 491.98L545.55 492.57L545.53 493.14L545.49 493.72L545.42 494.28L545.32 494.83L545.2 495.38L545.06 495.92L544.89 496.45L544.69 496.97L544.46 497.48L544.21 497.98L543.93 498.46L543.61 498.94L543.27 499.41L542.9 499.87L542.5 500.31L482.1 563.95L481.68 564.37L481.25 564.76L480.81 565.11L480.36 565.43L479.91 565.72L479.44 565.98L478.97 566.2L478.49 566.4L478 566.56L477.51 566.7L477 566.81L476.49 566.89L475.97 566.95L475.45 566.98L474.91 566.99L474.37 566.97L473.82 566.93L473.27 566.87L472.71 566.78L472.14 566.67L471.56 566.55L470.98 566.4L470.39 566.24L469.79 566.05L469.19 565.85L468.58 565.64L467.97 565.41L467.35 565.16L466.72 564.9L466.08 564.62L465.45 564.33L464.8 564.04L464.15 563.72L463.49 563.4L462.83 563.07L462.17 562.73L461.49 562.39L460.82 562.03L460.13 561.67L459.45 561.3L418.08 536.07L417.27 536.54L409.23 540.73L401.01 544.59L392.62 548.13L384.08 551.32L380.21 552.58L367.9 601.25L367.66 602.02L367.42 602.79L367.18 603.54L366.94 604.29L366.7 605.03L366.45 605.75L366.2 606.47L365.95 607.17L365.69 607.87L365.44 608.55L365.17 609.21L364.9 609.86L364.63 610.5L364.35 611.12L364.07 611.73L363.77 612.32L363.48 612.89L363.17 613.45L362.86 613.99L362.53 614.51L362.2 615L361.86 615.48L361.51 615.94L361.15 616.38L360.78 616.8L360.4 617.19L360.01 617.56L359.6 617.91L359.18 618.23L358.75 618.53L358.31 618.8L357.86 619.04L357.38 619.26L356.9 619.45L356.4 619.62L355.89 619.75L355.35 619.86L354.81 619.94L354.24 619.98L353.66 620L268.24 620L267.66 619.98L267.09 619.94L266.53 619.86L265.99 619.75L265.46 619.62L264.95 619.45L264.45 619.26L263.96 619.04L263.48 618.8L263.02 618.53L262.57 618.23L262.13 617.91L261.7 617.56L261.28 617.19L260.88 616.8L260.49 616.38L260.11 615.94L259.74 615.48L259.38 615L259.03 614.51L258.69 613.99L258.36 613.45L258.04 612.89L257.73 612.32L257.43 611.73L257.15 611.12L256.87 610.5L256.6 609.86L256.33 609.21L256.08 608.55L255.84 607.87L255.6 607.17L255.37 606.47L255.16 605.75L254.94 605.03L254.74 604.29L254.54 603.54L254.36 602.79L254.17 602.02L254 601.25L241.69 552.58L237.82 551.32L229.28 548.13L220.9 544.59L212.68 540.73L204.63 536.54L203.66 535.99L162.46 561.12L161.81 561.54L161.17 561.94L160.53 562.34L159.89 562.72L159.25 563.09L158.62 563.45L157.98 563.79L157.35 564.12L156.72 564.43L156.09 564.73L155.46 565.01L154.84 565.28L154.22 565.53L153.61 565.76L152.99 565.97L152.39 566.17L151.78 566.34L151.19 566.5L150.59 566.64L150.01 566.75L149.42 566.84L148.85 566.91L148.28 566.96L147.71 566.99L147.16 566.99L146.61 566.97L146.07 566.92L145.53 566.84L145 566.74L144.48 566.62L143.97 566.47L143.47 566.28L142.98 566.08L142.5 565.84L142.02 565.57L141.56 565.27L141.1 564.95L140.66 564.59L140.23 564.2L139.8 563.77L79.4 500.13L79 499.69L78.63 499.24L78.3 498.77L77.99 498.3L77.72 497.82L77.48 497.34L77.26 496.84L77.08 496.33L76.92 495.82L76.79 495.3L76.68 494.77L76.61 494.23L76.55 493.68L76.52 493.13L76.52 492.57L76.53 492L76.57 491.42L76.63 490.83L76.71 490.24L76.82 489.64L76.94 489.03L77.07 488.42L77.23 487.8L77.4 487.17L77.59 486.54L77.8 485.89L78.02 485.25L78.25 484.59L78.5 483.93L78.76 483.26L79.04 482.59L79.32 481.91L79.62 481.23L79.92 480.53L80.23 479.84L80.56 479.13L80.89 478.43L81.22 477.71L81.57 476.99L81.92 476.27L105.82 432.79L105.42 432.02L101.44 423.54L97.77 414.88L94.42 406.04L91.39 397.04L90.19 392.97L44 380L43.26 379.75L42.54 379.5L41.82 379.24L41.11 378.99L40.41 378.73L39.72 378.47L39.04 378.21L38.37 377.94L37.72 377.68L37.07 377.4L36.44 377.13L35.82 376.84L35.22 376.55L34.63 376.26L34.05 375.96L33.49 375.65L32.95 375.34L32.42 375.02L31.91 374.68L31.42 374.34L30.94 374L30.49 373.64L30.05 373.27L29.64 372.89L29.24 372.5L28.87 372.1L28.52 371.68L28.19 371.26L27.88 370.82L27.6 370.36L27.34 369.9L27.11 369.42L26.9 368.92L26.72 368.41L26.56 367.88L26.43 367.34L26.33 366.78L26.26 366.21L26.22 365.61L26.2 365L26.2 275L26.22 274.39L26.26 273.79L26.33 273.2L26.43 272.63L26.56 272.08L26.72 271.53L26.9 271.01L27.11 270.49L27.34 269.99L27.6 269.5L27.88 269.03L28.19 268.56L28.52 268.11L28.87 267.67L29.24 267.25L29.64 266.83L30.05 266.43L30.49 266.04L30.94 265.66L31.42 265.3L31.91 264.94L32.42 264.59L32.95 264.26L33.49 263.93L34.05 263.62L34.63 263.31L35.22 263.02L35.82 262.73L36.44 262.46L37.07 262.19L37.72 261.93L38.37 261.69L39.04 261.45L39.72 261.22L40.41 260.99L41.11 260.78L41.82 260.57L42.54 260.37L43.26 260.18L44 260L90.19 247.03L91.39 242.96L94.42 233.96L97.77 225.12L101.44 216.46L105.42 207.98L105.86 207.13L81.92 163.55L81.57 162.83L81.22 162.11L80.89 161.4L80.56 160.69L80.23 159.98L79.92 159.29L79.62 158.6L79.32 157.91L79.04 157.23L78.76 156.56L78.5 155.89L78.25 155.23L78.02 154.57L77.8 153.93L77.59 153.29L77.4 152.65L77.23 152.02L77.07 151.4L76.94 150.79L76.82 150.18L76.71 149.58L76.63 148.99L76.57 148.4L76.53 147.83L76.52 147.26L76.52 146.69L76.55 146.14L76.61 145.59L76.68 145.05L76.79 144.52L76.92 144L77.08 143.49L77.26 142.98L77.48 142.48L77.72 142L77.99 141.52L78.3 141.05L78.63 140.58L79 140.13L79.4 139.69L139.8 76.05L140.23 75.63L140.66 75.23L141.1 74.88L141.56 74.55L142.02 74.25L142.5 73.98L142.98 73.75L143.47 73.54L143.97 73.36L144.48 73.2L145 73.08L145.53 72.98L146.07 72.9L146.61 72.86L147.16 72.83L147.71 72.83L148.28 72.86L148.85 72.91L149.42 72.98L150.01 73.07L150.59 73.19L151.19 73.32L151.78 73.48L152.39 73.65L152.99 73.85L153.61 74.06L154.22 74.29L154.84 74.54L155.46 74.81L156.09 75.09L156.72 75.39L157.35 75.7L157.98 76.03L158.62 76.38L159.25 76.73L159.89 77.1L160.53 77.48L161.17 77.88L161.81 78.28L162.46 78.7L203.82 103.93L204.63 103.46L212.68 99.27L220.9 95.41L229.28 91.87L237.82 88.68L241.69 87.42L254 38.75L254.17 37.98L254.36 37.21L254.54 36.46L254.74 35.71L254.94 34.97L255.16 34.25L255.37 33.53L255.6 32.83L255.84 32.13L256.08 31.45L256.33 30.79L256.6 30.14L256.87 29.5L257.15 28.88L257.43 28.27L257.73 27.68L258.04 27.11L258.36 26.55L258.69 26.01L259.03 25.49L259.38 25L259.74 24.52L260.11 24.06L260.49 23.62L260.88 23.2L261.28 22.81L261.7 22.44L262.13 22.09L262.57 21.77L263.02 21.47L263.48 21.2L263.96 20.96L264.45 20.74L264.95 20.55L265.46 20.38L265.99 20.25L266.53 20.14L267.09 20.06L267.66 20.02L268.24 20L353.66 20L354.24 20.02L354.81 20.06ZM300.73 189.19L295.71 189.72L290.74 190.47L285.84 191.42L281.01 192.56L276.26 193.91L271.57 195.44L266.97 197.16L262.46 199.06L258.03 201.15L253.7 203.4L249.46 205.82L245.33 208.41L241.3 211.17L237.38 214.07L233.57 217.13L229.88 220.34L226.31 223.7L222.86 227.19L219.54 230.82L216.36 234.58L213.31 238.47L210.41 242.49L207.65 246.62L205.04 250.86L202.58 255.22L200.28 259.68L198.14 264.25L196.16 268.91L194.36 273.67L192.72 278.51L191.27 283.45L189.99 288.46L188.9 293.55L188 298.71L187.3 303.94L186.79 309.24L186.48 314.59L186.37 320L186.48 325.41L186.79 330.76L187.3 336.06L188 341.29L188.9 346.45L189.99 351.54L191.27 356.55L192.72 361.49L194.36 366.33L196.16 371.09L198.14 375.75L200.28 380.32L202.58 384.78L205.04 389.14L207.65 393.38L210.41 397.51L213.31 401.53L216.36 405.42L219.54 409.18L222.86 412.81L226.31 416.3L229.88 419.66L233.57 422.87L237.38 425.93L241.3 428.83L245.33 431.59L249.46 434.18L253.7 436.6L258.03 438.85L262.46 440.94L266.97 442.84L271.57 444.56L276.26 446.09L281.01 447.44L285.84 448.58L290.74 449.53L295.71 450.28L300.73 450.81L305.82 451.14L310.95 451.25L316.09 451.14L321.17 450.81L326.19 450.28L331.16 449.53L336.06 448.58L340.89 447.44L345.65 446.09L350.33 444.56L354.93 442.84L359.44 440.94L363.87 438.85L368.2 436.6L372.44 434.18L376.57 431.59L380.6 428.83L384.52 425.93L388.33 422.87L392.02 419.66L395.6 416.3L399.04 412.81L402.36 409.18L405.54 405.42L408.59 401.53L411.49 397.51L414.25 393.38L416.86 389.14L419.32 384.78L421.62 380.32L423.76 375.75L425.74 371.09L427.54 366.33L429.18 361.49L430.63 356.55L431.91 351.54L433 346.45L433.9 341.29L434.61 336.06L435.12 330.76L435.42 325.41L435.53 320L435.42 314.59L435.12 309.24L434.61 303.94L433.9 298.71L433 293.55L431.91 288.46L430.63 283.45L429.18 278.51L427.54 273.67L425.74 268.91L423.76 264.25L421.62 259.68L419.32 255.22L416.86 250.86L414.25 246.62L411.49 242.49L408.59 238.47L405.54 234.58L402.36 230.82L399.04 227.19L395.6 223.7L392.02 220.34L388.33 217.13L384.52 214.07L380.6 211.17L376.57 208.41L372.44 205.82L368.2 203.4L363.87 201.15L359.44 199.06L354.93 197.16L350.33 195.44L345.65 193.91L340.89 192.56L336.06 191.42L331.16 190.47L326.19 189.72L321.17 189.19L316.09 188.86L310.95 188.75L305.82 188.86L300.73 189.19Z" id="b4yB9AbVL5"></path></defs><g><g><g><use xlink:href="#b4yB9AbVL5" opacity="1" fill="#999999" fill-opacity="1"></use><g><use xlink:href="#b4yB9AbVL5" opacity="1" fill-opacity="0" stroke="#5ba2ab" stroke-width="0" stroke-opacity="1"></use></g></g></g></g></svg>